<?xml version="1.0" encoding="UTF-8" standalone="no"?>
<!DOCTYPE svg PUBLIC "-//W3C//DTD SVG 1.1//EN" "http://www.w3.org/Graphics/SVG/1.1/DTD/svg11.dtd">
<svg width="100%" height="100%" viewBox="0 0 227 316" version="1.1" xmlns="http://www.w3.org/2000/svg" xmlns:xlink="http://www.w3.org/1999/xlink" xml:space="preserve" style="fill-rule:evenodd;clip-rule:evenodd;">
    <g transform="matrix(1,0,0,1,-2836,-1091)">
        <g transform="matrix(1,0,0,1,0,2187.64)">
            <g id="rect6355-6-85-3-6-8-7" transform="matrix(0.999997,0,0,1,-2.98183,-5.55063)">
                <path d="M3063.79,-1077.74C3063.79,-1083.61 3059.03,-1088.37 3053.16,-1088.37L2852.19,-1088.37C2846.32,-1088.37 2841.56,-1083.61 2841.56,-1077.74L2841.56,-788.186C2841.56,-782.319 2846.32,-777.556 2852.19,-777.556L3053.16,-777.556C3059.03,-777.556 3063.79,-782.319 3063.79,-788.186L3063.79,-1077.74Z" style="fill:white;stroke:black;stroke-width:1px;"/>
            </g>
            <g id="path147-0-8-1-6-13-2-22-1-5" transform="matrix(0.999997,0,0,1,-2.98183,-5.55063)">
                <path d="M3004.21,-1055.37C2994.43,-1055.15 2990.05,-1044.15 2997.29,-1035.6C2998.34,-1034.36 2998.45,-1033.64 2996.52,-1034.84C2991.65,-1038.1 2982.3,-1035.95 2981.83,-1025.99C2981.24,-1013.71 2998.39,-1010.18 3001.61,-1023.23C3001.78,-1024.61 3002.9,-1024.58 3002.63,-1022.62C3002.34,-1017.31 3000.68,-1012.36 2998.4,-1007.52C3002.24,-1007.52 3006.53,-1007.52 3010.02,-1007.52C3007.74,-1012.36 3006.09,-1017.31 3005.79,-1022.62C3005.52,-1024.58 3006.64,-1024.61 3006.81,-1023.23C3010.03,-1010.18 3027.19,-1013.71 3026.6,-1025.99C3026.12,-1035.95 3016.77,-1038.1 3011.9,-1034.84C3009.97,-1033.64 3010.08,-1034.36 3011.13,-1035.6C3018.37,-1044.15 3013.99,-1055.15 3004.22,-1055.37C3004.22,-1055.37 3004.22,-1055.37 3004.2,-1055.37L3004.21,-1055.37Z" style="fill-rule:nonzero;"/>
            </g>
            <g id="path147-0-8-1-6-75-2-83-21-1-8" transform="matrix(0.999997,0,0,1,-2.98183,-5.55063)">
                <path d="M2901.14,-1055.37C2891.36,-1055.15 2886.98,-1044.15 2894.22,-1035.6C2895.27,-1034.36 2895.38,-1033.64 2893.45,-1034.84C2888.58,-1038.1 2879.23,-1035.95 2878.76,-1025.99C2878.16,-1013.71 2895.32,-1010.18 2898.54,-1023.23C2898.71,-1024.61 2899.83,-1024.58 2899.56,-1022.62C2899.26,-1017.31 2897.61,-1012.36 2895.33,-1007.52C2899.17,-1007.52 2903.46,-1007.52 2906.95,-1007.52C2904.67,-1012.36 2903.01,-1017.31 2902.72,-1022.62C2902.45,-1024.58 2903.57,-1024.61 2903.74,-1023.23C2906.96,-1010.18 2924.12,-1013.71 2923.52,-1025.99C2923.05,-1035.95 2913.7,-1038.1 2908.83,-1034.84C2906.9,-1033.64 2907.01,-1034.36 2908.06,-1035.6C2915.3,-1044.15 2910.92,-1055.15 2901.14,-1055.37C2901.14,-1055.37 2901.14,-1055.37 2901.13,-1055.37L2901.14,-1055.37Z" style="fill-rule:nonzero;"/>
            </g>
            <g id="path147-0-8-1-6-7-5-5-7-3-5-5" transform="matrix(0.999997,0,0,1,-2.98183,-5.55063)">
                <path d="M3004.21,-809.732C2994.43,-809.944 2990.05,-820.949 2997.29,-829.495C2998.34,-830.742 2998.45,-831.457 2996.52,-830.26C2991.65,-827 2982.3,-829.143 2981.83,-839.107C2981.24,-851.384 2998.39,-854.921 3001.61,-841.866C3001.78,-840.489 3002.9,-840.521 3002.63,-842.476C3002.34,-847.782 3000.68,-852.742 2998.4,-857.578C3002.24,-857.578 3006.53,-857.578 3010.02,-857.578C3007.74,-852.742 3006.09,-847.782 3005.79,-842.476C3005.52,-840.521 3006.64,-840.489 3006.81,-841.866C3010.03,-854.921 3027.19,-851.384 3026.6,-839.107C3026.12,-829.143 3016.77,-827 3011.9,-830.26C3009.97,-831.457 3010.08,-830.742 3011.13,-829.495C3018.37,-820.949 3013.99,-809.944 3004.22,-809.732C3004.22,-809.732 3004.22,-809.732 3004.2,-809.732L3004.21,-809.732Z" style="fill-rule:nonzero;"/>
            </g>
            <g id="path147-0-8-1-6-75-6-1-2-7-9-3" transform="matrix(0.999997,0,0,1,-2.98183,-5.55063)">
                <path d="M2901.14,-809.732C2891.36,-809.944 2886.98,-820.949 2894.22,-829.495C2895.27,-830.742 2895.38,-831.457 2893.45,-830.26C2888.58,-827 2879.23,-829.143 2878.76,-839.107C2878.16,-851.384 2895.32,-854.921 2898.54,-841.866C2898.71,-840.489 2899.83,-840.521 2899.56,-842.476C2899.26,-847.782 2897.61,-852.742 2895.33,-857.578C2899.17,-857.578 2903.46,-857.578 2906.95,-857.578C2904.67,-852.742 2903.01,-847.782 2902.72,-842.476C2902.45,-840.521 2903.57,-840.489 2903.74,-841.866C2906.96,-854.921 2924.12,-851.384 2923.52,-839.107C2923.05,-829.143 2913.7,-827 2908.83,-830.26C2906.9,-831.457 2907.01,-830.742 2908.06,-829.495C2915.3,-820.949 2910.92,-809.944 2901.14,-809.732C2901.14,-809.732 2901.14,-809.732 2901.13,-809.732L2901.14,-809.732Z" style="fill-rule:nonzero;"/>
            </g>
            <g id="path147-0-8-1-6-2-00-7-1-1-4" transform="matrix(0.999997,0,0,1,-2.98183,-5.55063)">
                <path d="M2952.67,-1022.4C2942.9,-1022.19 2938.51,-1011.18 2945.75,-1002.64C2946.8,-1001.39 2946.91,-1000.68 2944.99,-1001.87C2940.11,-1005.13 2930.77,-1002.99 2930.29,-993.025C2929.7,-980.748 2946.85,-977.211 2950.07,-990.265C2950.24,-991.643 2951.36,-991.611 2951.09,-989.656C2950.8,-984.35 2949.14,-979.39 2946.87,-974.554C2950.7,-974.554 2954.99,-974.554 2958.49,-974.554C2956.21,-979.39 2954.55,-984.35 2954.26,-989.656C2953.99,-991.611 2955.11,-991.643 2955.28,-990.265C2958.5,-977.211 2975.65,-980.748 2975.06,-993.025C2974.58,-1002.99 2965.24,-1005.13 2960.36,-1001.87C2958.44,-1000.68 2958.55,-1001.39 2959.6,-1002.64C2966.84,-1011.18 2962.45,-1022.19 2952.68,-1022.4C2952.68,-1022.4 2952.68,-1022.4 2952.67,-1022.4L2952.67,-1022.4Z" style="fill-rule:nonzero;"/>
            </g>
            <g id="path147-0-8-1-6-2-0-8-6-8-1-8" transform="matrix(0.999997,0,0,1,-2.98183,-5.55063)">
                <path d="M2952.67,-842.696C2942.9,-842.908 2938.51,-853.913 2945.75,-862.459C2946.8,-863.706 2946.91,-864.421 2944.99,-863.224C2940.11,-859.965 2930.77,-862.107 2930.29,-872.071C2929.7,-884.348 2946.85,-887.885 2950.07,-874.831C2950.24,-873.454 2951.36,-873.485 2951.09,-875.44C2950.8,-880.746 2949.14,-885.706 2946.87,-890.543C2950.7,-890.543 2954.99,-890.543 2958.49,-890.543C2956.21,-885.706 2954.55,-880.746 2954.26,-875.44C2953.99,-873.485 2955.11,-873.454 2955.28,-874.831C2958.5,-887.885 2975.65,-884.348 2975.06,-872.071C2974.58,-862.107 2965.24,-859.965 2960.36,-863.224C2958.44,-864.421 2958.55,-863.706 2959.6,-862.459C2966.84,-853.913 2962.45,-842.908 2952.68,-842.696C2952.68,-842.696 2952.68,-842.696 2952.67,-842.696L2952.67,-842.696Z" style="fill-rule:nonzero;"/>
            </g>
            <g id="path147-6-9-8-7-0-5-6-83-3-7" transform="matrix(0.999997,0,0,1,-2.98183,-5.55063)">
                <path d="M3046.65,-827.369C3050.56,-827.458 3052.32,-832.043 3049.42,-835.604C3049,-836.123 3048.96,-836.421 3049.73,-835.922C3051.68,-834.564 3055.41,-835.457 3055.61,-839.609C3055.84,-844.724 3048.98,-846.198 3047.69,-840.759C3047.62,-840.185 3047.18,-840.198 3047.28,-841.012C3047.4,-843.223 3048.07,-845.29 3048.98,-847.305C3047.43,-847.305 3045.88,-847.305 3044.33,-847.305C3045.24,-845.29 3045.9,-843.223 3046.02,-841.012C3046.13,-840.198 3045.68,-840.185 3045.61,-840.759C3044.32,-846.198 3037.46,-844.724 3037.7,-839.609C3037.89,-835.457 3041.63,-834.564 3043.58,-835.922C3044.35,-836.421 3044.3,-836.123 3043.88,-835.604C3040.99,-832.043 3042.74,-827.458 3046.65,-827.369C3046.65,-827.369 3046.65,-827.369 3046.65,-827.369L3046.65,-827.369Z" style="fill-rule:nonzero;"/>
            </g>
            <g id="path147-0-8-1-6-75-2-9-77-44-0-7" transform="matrix(0.999997,0,0,1,-2.98183,-5.55063)">
                <path d="M2901.14,-989.436C2891.36,-989.224 2886.98,-978.219 2894.22,-969.673C2895.27,-968.426 2895.38,-967.711 2893.45,-968.908C2888.58,-972.167 2879.23,-970.025 2878.76,-960.061C2878.16,-947.784 2895.32,-944.247 2898.54,-957.301C2898.71,-958.678 2899.83,-958.647 2899.56,-956.692C2899.26,-951.386 2897.61,-946.426 2895.33,-941.589C2899.17,-941.589 2903.46,-941.589 2906.95,-941.589C2904.67,-946.426 2903.01,-951.386 2902.72,-956.692C2902.45,-958.647 2903.57,-958.678 2903.74,-957.301C2906.96,-944.247 2924.12,-947.784 2923.52,-960.061C2923.05,-970.025 2913.7,-972.167 2908.83,-968.908C2906.9,-967.711 2907.01,-968.426 2908.06,-969.673C2915.3,-978.219 2910.92,-989.224 2901.14,-989.436C2901.14,-989.436 2901.14,-989.436 2901.13,-989.436L2901.14,-989.436Z" style="fill-rule:nonzero;"/>
            </g>
            <g id="path147-0-8-1-6-75-2-8-0-3-9-3" transform="matrix(0.999997,0,0,1,-2.98183,-5.55063)">
                <path d="M2901.14,-875.661C2891.36,-875.873 2886.98,-886.878 2894.22,-895.424C2895.27,-896.67 2895.38,-897.386 2893.45,-896.188C2888.58,-892.929 2879.23,-895.072 2878.76,-905.036C2878.16,-917.313 2895.32,-920.85 2898.54,-907.795C2898.71,-906.418 2899.83,-906.449 2899.56,-908.405C2899.26,-913.711 2897.61,-918.671 2895.33,-923.507C2899.17,-923.507 2903.46,-923.507 2906.95,-923.507C2904.67,-918.671 2903.01,-913.711 2902.72,-908.405C2902.45,-906.449 2903.57,-906.418 2903.74,-907.795C2906.96,-920.85 2924.12,-917.313 2923.52,-905.036C2923.05,-895.072 2913.7,-892.929 2908.83,-896.188C2906.9,-897.386 2907.01,-896.67 2908.06,-895.424C2915.3,-886.878 2910.92,-875.873 2901.14,-875.661C2901.14,-875.661 2901.14,-875.661 2901.13,-875.661L2901.14,-875.661Z" style="fill-rule:nonzero;"/>
            </g>
            <g id="path147-0-8-1-6-75-2-9-7-1-9-7-9" transform="matrix(0.999997,0,0,1,-2.98183,-5.55063)">
                <path d="M3004.21,-989.436C2994.43,-989.224 2990.05,-978.219 2997.29,-969.673C2998.34,-968.426 2998.45,-967.711 2996.52,-968.908C2991.65,-972.167 2982.3,-970.025 2981.83,-960.061C2981.24,-947.784 2998.39,-944.247 3001.61,-957.301C3001.78,-958.678 3002.9,-958.647 3002.63,-956.692C3002.34,-951.386 3000.68,-946.426 2998.4,-941.589C3002.24,-941.589 3006.53,-941.589 3010.02,-941.589C3007.74,-946.426 3006.09,-951.386 3005.79,-956.692C3005.52,-958.647 3006.64,-958.678 3006.81,-957.301C3010.03,-944.247 3027.19,-947.784 3026.6,-960.061C3026.12,-970.025 3016.77,-972.167 3011.9,-968.908C3009.97,-967.711 3010.08,-968.426 3011.13,-969.673C3018.37,-978.219 3013.99,-989.224 3004.22,-989.436C3004.22,-989.436 3004.22,-989.436 3004.2,-989.436L3004.21,-989.436Z" style="fill-rule:nonzero;"/>
            </g>
            <g id="path147-0-8-1-6-75-2-8-5-1-52-2-8" transform="matrix(0.999997,0,0,1,-2.98183,-5.55063)">
                <path d="M3004.21,-875.661C2994.43,-875.873 2990.05,-886.878 2997.29,-895.424C2998.34,-896.67 2998.45,-897.386 2996.52,-896.188C2991.65,-892.929 2982.3,-895.072 2981.83,-905.036C2981.24,-917.313 2998.39,-920.85 3001.61,-907.795C3001.78,-906.418 3002.9,-906.449 3002.63,-908.405C3002.34,-913.711 3000.68,-918.671 2998.4,-923.507C3002.24,-923.507 3006.53,-923.507 3010.02,-923.507C3007.74,-918.671 3006.09,-913.711 3005.79,-908.405C3005.52,-906.449 3006.64,-906.418 3006.81,-907.795C3010.03,-920.85 3027.19,-917.313 3026.6,-905.036C3026.12,-895.072 3016.77,-892.929 3011.9,-896.188C3009.97,-897.386 3010.08,-896.67 3011.13,-895.424C3018.37,-886.878 3013.99,-875.873 3004.22,-875.661C3004.22,-875.661 3004.22,-875.661 3004.2,-875.661L3004.21,-875.661Z" style="fill-rule:nonzero;"/>
            </g>
            <g id="path147-6-9-8-7-4-5-62-52-8-0" transform="matrix(0.999997,0,0,1,-2.98183,-5.55063)">
                <path d="M2858.7,-1038.56C2854.79,-1038.47 2853.03,-1033.88 2855.93,-1030.32C2856.35,-1029.8 2856.39,-1029.5 2855.62,-1030C2853.68,-1031.36 2849.94,-1030.47 2849.75,-1026.32C2849.51,-1021.2 2856.37,-1019.73 2857.66,-1025.17C2857.73,-1025.74 2858.18,-1025.73 2858.07,-1024.91C2857.95,-1022.7 2857.29,-1020.63 2856.38,-1018.62C2857.93,-1018.62 2859.47,-1018.62 2861.02,-1018.62C2860.11,-1020.63 2859.45,-1022.7 2859.33,-1024.91C2859.22,-1025.73 2859.67,-1025.74 2859.74,-1025.17C2861.03,-1019.73 2867.89,-1021.2 2867.65,-1026.32C2867.46,-1030.47 2863.72,-1031.36 2861.77,-1030C2861.01,-1029.5 2861.05,-1029.8 2861.47,-1030.32C2864.36,-1033.88 2862.61,-1038.47 2858.7,-1038.56C2858.7,-1038.56 2858.7,-1038.56 2858.7,-1038.56L2858.7,-1038.56Z" style="fill-rule:nonzero;"/>
            </g>
            <g id="path31-6-7-6" transform="matrix(0.999997,0,0,1,-2.98183,-5.55063)">
                <rect x="2848.72" y="-1074.58" width="3.185" height="32.894" style="fill-rule:nonzero;"/>
            </g>
            <g id="path33-9-3-6" transform="matrix(0.999997,0,0,1,-2.98183,-5.55063)">
                <path d="M2861.35,-1074.58C2858.28,-1074.58 2855.82,-1071.77 2855.82,-1068.29L2855.82,-1047.97C2855.82,-1044.49 2858.28,-1041.68 2861.35,-1041.68L2863.14,-1041.68C2866.2,-1041.68 2868.67,-1044.49 2868.67,-1047.97L2868.67,-1068.29C2868.67,-1071.77 2866.2,-1074.58 2863.14,-1074.58L2861.35,-1074.58ZM2862.27,-1071.47C2864.08,-1071.47 2865.54,-1070.08 2865.54,-1068.34L2865.54,-1047.75C2865.54,-1046.01 2864.08,-1044.6 2862.27,-1044.6C2860.46,-1044.6 2859,-1046.01 2859,-1047.75L2859,-1068.34C2859,-1070.07 2860.46,-1071.47 2862.27,-1071.47Z" style="fill-rule:nonzero;"/>
            </g>
            <g id="path31-1-4-0-7" transform="matrix(0.999997,0,0,1,-2.98183,-5.55063)">
                <rect x="3053.44" y="-824.244" width="3.184" height="32.894" style="fill-rule:nonzero;"/>
            </g>
            <g id="path33-5-7-4-0" transform="matrix(0.999997,0,0,1,-2.98183,-5.55063)">
                <path d="M3044,-791.349C3047.07,-791.349 3049.53,-794.153 3049.53,-797.635L3049.53,-817.958C3049.53,-821.441 3047.06,-824.243 3044,-824.243L3042.21,-824.243C3039.14,-824.243 3036.68,-821.441 3036.68,-817.958L3036.68,-797.635C3036.68,-794.153 3039.15,-791.349 3042.21,-791.349L3044,-791.349ZM3043.08,-794.46C3041.26,-794.46 3039.81,-795.85 3039.81,-797.588L3039.81,-818.18C3039.81,-819.919 3041.26,-821.322 3043.08,-821.322C3044.89,-821.322 3046.35,-819.919 3046.35,-818.18L3046.35,-797.588C3046.35,-795.851 3044.89,-794.46 3043.08,-794.46Z" style="fill-rule:nonzero;"/>
            </g>
        </g>
    </g>
</svg>
