<?xml version="1.0" encoding="UTF-8" standalone="no"?>
<!DOCTYPE svg PUBLIC "-//W3C//DTD SVG 1.1//EN" "http://www.w3.org/Graphics/SVG/1.1/DTD/svg11.dtd">
<svg width="100%" height="100%" viewBox="0 0 227 316" version="1.1" xmlns="http://www.w3.org/2000/svg" xmlns:xlink="http://www.w3.org/1999/xlink" xml:space="preserve" style="fill-rule:evenodd;clip-rule:evenodd;">
    <g transform="matrix(1,0,0,1,-2836,-2147)">
        <g transform="matrix(1,0,0,1,0,2187.64)">
            <g id="rect7030-4" transform="matrix(0.995535,0,0,0.996803,2579.3,-407.579)">
                <path d="M483.661,380.987C483.661,375.075 478.855,370.276 472.936,370.276L271.159,370.276C265.239,370.276 260.433,375.075 260.433,380.987L260.433,671.375C260.433,677.287 265.239,682.087 271.159,682.087L472.936,682.087C478.855,682.087 483.661,677.287 483.661,671.375L483.661,380.987Z" style="fill:white;stroke:black;stroke-width:1px;"/>
            </g>
            <g id="path7062-5" transform="matrix(0.995535,0,0,0.996803,10.1937,-8.13974)">
                <path d="M2858.28,39.528C2856.12,35.96 2853.84,32.491 2851,29.528C2853.84,26.566 2856.12,23.097 2858.28,19.528C2860.44,23.097 2862.71,26.566 2865.55,29.528C2862.71,32.491 2860.44,35.96 2858.28,39.528Z" style="fill:rgb(212,0,0);fill-rule:nonzero;"/>
            </g>
            <g id="path7064-0" transform="matrix(0.995535,0,0,0.996803,10.1937,-8.13974)">
                <path d="M3004.44,50.25C2999.26,41.685 2993.8,33.361 2986.98,26.25C2993.8,19.139 2999.26,10.815 3004.44,2.25C3009.63,10.815 3015.08,19.139 3021.9,26.25C3015.08,33.361 3009.63,41.685 3004.44,50.25Z" style="fill:rgb(212,0,0);fill-rule:nonzero;"/>
            </g>
            <g id="path7066-9" transform="matrix(0.995535,0,0,0.996803,10.1937,-8.13974)">
                <path d="M3047.07,231.393C3044.91,227.824 3042.64,224.356 3039.8,221.393C3042.64,218.43 3044.91,214.962 3047.07,211.393C3049.23,214.962 3051.51,218.43 3054.35,221.393C3051.51,224.356 3049.23,227.824 3047.07,231.393Z" style="fill:rgb(212,0,0);fill-rule:nonzero;"/>
            </g>
            <g id="path7068-2" transform="matrix(0.995535,0,0,0.996803,10.1937,-8.13974)">
                <path d="M2900.91,50.25C2895.72,41.685 2890.27,33.361 2883.45,26.25C2890.27,19.139 2895.72,10.815 2900.91,2.25C2906.1,10.815 2911.55,19.139 2918.37,26.25C2911.55,33.361 2906.1,41.685 2900.91,50.25Z" style="fill:rgb(212,0,0);fill-rule:nonzero;"/>
            </g>
            <g id="path7070-0" transform="matrix(0.995535,0,0,0.996803,10.1937,-8.13974)">
                <path d="M3004.44,116.397C2999.26,107.833 2993.8,99.508 2986.98,92.397C2993.8,85.287 2999.26,76.962 3004.44,68.397C3009.63,76.962 3015.08,85.287 3021.9,92.397C3015.08,99.508 3009.63,107.833 3004.44,116.397Z" style="fill:rgb(212,0,0);fill-rule:nonzero;"/>
            </g>
            <g id="path7072-0" transform="matrix(0.995535,0,0,0.996803,10.1937,-8.13974)">
                <path d="M2900.91,116.397C2895.72,107.833 2890.27,99.508 2883.45,92.397C2890.27,85.287 2895.72,76.962 2900.91,68.397C2906.1,76.962 2911.55,85.287 2918.37,92.397C2911.55,99.508 2906.1,107.833 2900.91,116.397Z" style="fill:rgb(212,0,0);fill-rule:nonzero;"/>
            </g>
            <g id="path7074-4" transform="matrix(0.995535,0,0,0.996803,10.1937,-8.13974)">
                <path d="M2952.68,83.32C2947.49,74.755 2942.03,66.431 2935.21,59.32C2942.03,52.209 2947.49,43.885 2952.68,35.32C2957.86,43.885 2963.32,52.209 2970.14,59.32C2963.32,66.431 2957.86,74.755 2952.68,83.32Z" style="fill:rgb(212,0,0);fill-rule:nonzero;"/>
            </g>
            <g id="path7084-9" transform="matrix(0.995535,0,0,0.996803,10.1937,-8.13974)">
                <path d="M2900.91,248.676C2895.72,240.112 2890.27,231.787 2883.45,224.676C2890.27,217.565 2895.72,209.241 2900.91,200.676C2906.1,209.241 2911.55,217.565 2918.37,224.676C2911.55,231.787 2906.1,240.112 2900.91,248.676Z" style="fill:rgb(212,0,0);fill-rule:nonzero;"/>
            </g>
            <g id="path7086-7" transform="matrix(0.995535,0,0,0.996803,10.1937,-8.13974)">
                <path d="M3004.44,248.683C2999.26,240.119 2993.8,231.794 2986.98,224.683C2993.8,217.573 2999.26,209.248 3004.44,200.683C3009.63,209.248 3015.08,217.573 3021.9,224.683C3015.08,231.794 3009.63,240.119 3004.44,248.683Z" style="fill:rgb(212,0,0);fill-rule:nonzero;"/>
            </g>
            <g id="path7088-6" transform="matrix(0.995535,0,0,0.996803,10.1937,-8.13974)">
                <path d="M3004.44,182.53C2999.26,173.965 2993.8,165.64 2986.98,158.53C2993.8,151.419 2999.26,143.094 3004.44,134.53C3009.63,143.094 3015.08,151.419 3021.9,158.53C3015.08,165.64 3009.63,173.965 3004.44,182.53Z" style="fill:rgb(212,0,0);fill-rule:nonzero;"/>
            </g>
            <g id="path7090-8" transform="matrix(0.995535,0,0,0.996803,10.1937,-8.13974)">
                <path d="M2900.91,182.497C2895.72,173.933 2890.27,165.608 2883.45,158.497C2890.27,151.386 2895.72,143.062 2900.91,134.497C2906.1,143.062 2911.55,151.386 2918.37,158.497C2911.55,165.608 2906.1,173.933 2900.91,182.497Z" style="fill:rgb(212,0,0);fill-rule:nonzero;"/>
            </g>
            <g id="path7092-79" transform="matrix(0.995535,0,0,0.996803,10.1937,-8.13974)">
                <path d="M2952.68,215.601C2947.49,207.036 2942.03,198.712 2935.21,191.601C2942.03,184.49 2947.49,176.166 2952.68,167.601C2957.86,176.166 2963.32,184.49 2970.14,191.601C2963.32,198.712 2957.86,207.036 2952.68,215.601Z" style="fill:rgb(212,0,0);fill-rule:nonzero;"/>
            </g>
            <g id="g8345-9-6-9-5" transform="matrix(0.995535,0,0,0.996784,1811.79,-545.144)">
                <rect id="path31-8-2-5-6" x="1038.58" y="522.13" width="3.199" height="33" style="fill:rgb(212,0,0);fill-rule:nonzero;"/>
                <path id="path33-2-0-3-1" d="M1051.26,522.129C1048.18,522.129 1045.71,524.942 1045.71,528.435L1045.71,548.824C1045.71,552.318 1048.19,555.129 1051.26,555.129L1053.06,555.129C1056.14,555.129 1058.62,552.318 1058.62,548.824L1058.62,528.435C1058.62,524.942 1056.14,522.129 1053.06,522.129L1051.26,522.129ZM1052.19,525.249C1054.01,525.249 1055.47,526.644 1055.47,528.388L1055.47,549.047C1055.47,550.791 1054.01,552.199 1052.19,552.199C1050.38,552.199 1048.91,550.791 1048.91,549.047L1048.91,528.388C1048.91,526.645 1050.38,525.249 1052.19,525.249Z" style="fill:rgb(212,0,0);fill-rule:nonzero;"/>
            </g>
            <g id="g8345-5-0-8-9" transform="matrix(-0.995535,0,0,-0.996784,4087.58,778.983)">
                <rect id="path31-1-3-1-4" x="1038.58" y="522.13" width="3.199" height="33" style="fill:rgb(212,0,0);fill-rule:nonzero;"/>
                <path id="path33-5-5-1-9" d="M1051.26,522.129C1048.18,522.129 1045.71,524.942 1045.71,528.435L1045.71,548.824C1045.71,552.318 1048.19,555.129 1051.26,555.129L1053.06,555.129C1056.14,555.129 1058.62,552.318 1058.62,548.824L1058.62,528.435C1058.62,524.942 1056.14,522.129 1053.06,522.129L1051.26,522.129ZM1052.19,525.249C1054.01,525.249 1055.47,526.644 1055.47,528.388L1055.47,549.047C1055.47,550.791 1054.01,552.199 1052.19,552.199C1050.38,552.199 1048.91,550.791 1048.91,549.047L1048.91,528.388C1048.91,526.645 1050.38,525.249 1052.19,525.249Z" style="fill:rgb(212,0,0);fill-rule:nonzero;"/>
            </g>
        </g>
    </g>
</svg>
