<?xml version="1.0" encoding="UTF-8" standalone="no"?>
<!DOCTYPE svg PUBLIC "-//W3C//DTD SVG 1.1//EN" "http://www.w3.org/Graphics/SVG/1.1/DTD/svg11.dtd">
<svg width="100%" height="100%" viewBox="0 0 227 316" version="1.1" xmlns="http://www.w3.org/2000/svg" xmlns:xlink="http://www.w3.org/1999/xlink" xml:space="preserve" style="fill-rule:evenodd;clip-rule:evenodd;">
    <g transform="matrix(1,0,0,1,-2836,-1443)">
        <g transform="matrix(1,0,0,1,0,2187.64)">
            <g id="rect10278-0-6" transform="matrix(0.995538,0,0,0.996801,2579.3,-1111.2)">
                <path d="M483.661,380.987C483.661,375.075 478.855,370.276 472.936,370.276L271.158,370.276C265.239,370.276 260.433,375.075 260.433,380.987L260.433,671.375C260.433,677.287 265.239,682.087 271.158,682.087L472.936,682.087C478.855,682.087 483.661,677.287 483.661,671.375L483.661,380.987Z" style="fill:white;stroke:black;stroke-width:1px;"/>
            </g>
            <g id="path10308-5-1" transform="matrix(0.995538,0,0,0.996801,2950.68,-532.688)">
                <path d="M-52.766,-63.259C-52.766,-63.259 -57.433,-70.915 -63.727,-79.915C-67.938,-85.939 -71.305,-92.461 -71.618,-98.079C-71.977,-104.496 -68.579,-110.934 -62.427,-111.246C-56.278,-111.558 -53.782,-106.298 -52.766,-101.961C-51.75,-106.298 -49.255,-111.558 -43.106,-111.246C-36.954,-110.934 -33.556,-104.496 -33.915,-98.079C-34.228,-92.461 -37.594,-85.939 -41.805,-79.915C-48.1,-70.915 -52.766,-63.259 -52.766,-63.259L-52.766,-63.259Z" style="fill:rgb(212,0,0);fill-rule:nonzero;"/>
            </g>
            <g id="path10310-7-8" transform="matrix(0.995538,0,0,0.996801,2950.68,-532.688)">
                <path d="M-95.397,-140.121C-95.397,-140.121 -97.622,-143.311 -100.623,-147.061C-102.63,-149.571 -104.235,-152.289 -104.385,-154.629C-104.556,-157.303 -102.936,-159.986 -100.002,-160.116C-97.071,-160.246 -95.881,-158.054 -95.397,-156.247C-94.912,-158.054 -93.723,-160.246 -90.791,-160.116C-87.858,-159.986 -86.238,-157.303 -86.409,-154.629C-86.558,-152.289 -88.163,-149.571 -90.171,-147.061C-93.172,-143.311 -95.397,-140.121 -95.397,-140.121L-95.397,-140.121Z" style="fill:rgb(212,0,0);fill-rule:nonzero;"/>
            </g>
            <g id="path10312-3-5" transform="matrix(0.995538,0,0,0.996801,2950.68,-532.688)">
                <path d="M93.398,31.743C93.398,31.743 91.173,34.933 88.172,38.684C86.164,41.193 84.559,43.911 84.41,46.251C84.239,48.925 85.859,51.608 88.792,51.738C91.723,51.868 92.913,49.676 93.398,47.869C93.882,49.676 95.072,51.868 98.003,51.738C100.936,51.608 102.556,48.925 102.385,46.251C102.236,43.911 100.631,41.193 98.623,38.684C95.622,34.933 93.398,31.743 93.398,31.743L93.398,31.743Z" style="fill:rgb(212,0,0);fill-rule:nonzero;"/>
            </g>
            <g id="path10314-8-8" transform="matrix(0.995538,0,0,0.996801,2950.68,-532.688)">
                <path d="M-1,-86.759C-1,-86.759 -5.666,-94.415 -11.961,-103.415C-16.172,-109.439 -19.539,-115.961 -19.852,-121.579C-20.211,-127.996 -16.812,-134.434 -10.66,-134.746C-4.512,-135.058 -2.016,-129.798 -1,-125.461C0.016,-129.798 2.512,-135.058 8.66,-134.746C14.812,-134.434 18.211,-127.996 17.852,-121.579C17.539,-115.961 14.172,-109.439 9.961,-103.415C3.666,-94.415 -1,-86.759 -1,-86.759L-1,-86.759Z" style="fill:rgb(212,0,0);fill-rule:nonzero;"/>
            </g>
            <g id="path10318-3-7" transform="matrix(0.995538,0,0,0.996801,2950.68,-532.688)">
                <path d="M-52.766,-129.4C-52.766,-129.4 -57.433,-137.055 -63.727,-146.056C-67.938,-152.079 -71.305,-158.601 -71.618,-164.219C-71.977,-170.636 -68.579,-177.074 -62.427,-177.386C-56.278,-177.698 -53.782,-172.438 -52.766,-168.102C-51.75,-172.438 -49.255,-177.698 -43.106,-177.386C-36.954,-177.074 -33.556,-170.636 -33.915,-164.219C-34.228,-158.601 -37.594,-152.079 -41.805,-146.056C-48.1,-137.055 -52.766,-129.4 -52.766,-129.4Z" style="fill:rgb(212,0,0);fill-rule:nonzero;"/>
            </g>
            <g id="path10322-4-6" transform="matrix(0.995538,0,0,0.996801,2950.68,-532.688)">
                <path d="M50.766,-63.259C50.766,-63.259 46.1,-70.915 39.805,-79.915C35.594,-85.939 32.228,-92.461 31.915,-98.079C31.556,-104.496 34.954,-110.934 41.106,-111.246C47.255,-111.558 49.75,-106.298 50.766,-101.961C51.782,-106.298 54.278,-111.558 60.427,-111.246C66.579,-110.934 69.977,-104.496 69.618,-98.079C69.305,-92.461 65.938,-85.939 61.727,-79.915C55.433,-70.915 50.766,-63.259 50.766,-63.259L50.766,-63.259Z" style="fill:rgb(212,0,0);fill-rule:nonzero;"/>
            </g>
            <g id="path10324-9-8" transform="matrix(0.995538,0,0,0.996801,2950.68,-532.688)">
                <path d="M50.766,-129.4C50.766,-129.4 46.1,-137.055 39.805,-146.056C35.594,-152.079 32.228,-158.601 31.915,-164.219C31.556,-170.636 34.954,-177.074 41.106,-177.386C47.255,-177.698 49.75,-172.438 50.766,-168.102C51.782,-172.438 54.278,-177.698 60.427,-177.386C66.579,-177.074 69.977,-170.636 69.618,-164.219C69.305,-158.601 65.938,-152.079 61.727,-146.056C55.433,-137.055 50.766,-129.4 50.766,-129.4Z" style="fill:rgb(212,0,0);fill-rule:nonzero;"/>
            </g>
            <g id="path10332-8-6" transform="matrix(0.995538,0,0,0.996801,2950.68,-532.688)">
                <path d="M-1,-21.619C-1,-21.619 -5.666,-13.963 -11.961,-4.962C-16.172,1.061 -19.539,7.583 -19.852,13.201C-20.211,19.618 -16.812,26.056 -10.66,26.368C-4.512,26.68 -2.016,21.42 -1,17.083C0.016,21.42 2.512,26.68 8.66,26.368C14.812,26.056 18.211,19.618 17.852,13.201C17.539,7.583 14.172,1.061 9.961,-4.962C3.666,-13.963 -1,-21.619 -1,-21.619Z" style="fill:rgb(212,0,0);fill-rule:nonzero;"/>
            </g>
            <g id="path10334-5-0" transform="matrix(0.995538,0,0,0.996801,2950.68,-532.688)">
                <path d="M50.766,-45.119C50.766,-45.119 46.1,-37.463 39.805,-28.462C35.594,-22.439 32.228,-15.917 31.915,-10.299C31.556,-3.882 34.954,2.556 41.106,2.868C47.255,3.18 49.75,-2.08 50.766,-6.417C51.782,-2.08 54.278,3.18 60.427,2.868C66.579,2.556 69.977,-3.882 69.618,-10.299C69.305,-15.917 65.938,-22.439 61.727,-28.462C55.433,-37.463 50.766,-45.119 50.766,-45.119Z" style="fill:rgb(212,0,0);fill-rule:nonzero;"/>
            </g>
            <g id="path10336-3-5" transform="matrix(0.995538,0,0,0.996801,2950.68,-532.688)">
                <path d="M-52.766,-45.119C-52.766,-45.119 -57.433,-37.463 -63.727,-28.462C-67.938,-22.439 -71.305,-15.917 -71.618,-10.299C-71.977,-3.882 -68.579,2.556 -62.427,2.868C-56.278,3.18 -53.782,-2.08 -52.766,-6.417C-51.75,-2.08 -49.255,3.18 -43.106,2.868C-36.954,2.556 -33.556,-3.882 -33.915,-10.299C-34.228,-15.917 -37.594,-22.439 -41.805,-28.462C-48.1,-37.463 -52.766,-45.119 -52.766,-45.119Z" style="fill:rgb(212,0,0);fill-rule:nonzero;"/>
            </g>
            <g id="path10338-2-9" transform="matrix(0.995538,0,0,0.996801,2950.68,-532.688)">
                <path d="M50.766,21.022C50.766,21.022 46.1,28.677 39.805,37.678C35.594,43.701 32.228,50.223 31.915,55.841C31.556,62.258 34.954,68.696 41.106,69.008C47.255,69.32 49.75,64.06 50.766,59.724C51.782,64.06 54.278,69.32 60.427,69.008C66.579,68.696 69.977,62.258 69.618,55.841C69.305,50.223 65.938,43.701 61.727,37.678C55.433,28.677 50.766,21.022 50.766,21.022L50.766,21.022Z" style="fill:rgb(212,0,0);fill-rule:nonzero;"/>
            </g>
            <g id="path10340-9-7" transform="matrix(0.995538,0,0,0.996801,2950.68,-532.688)">
                <path d="M-52.766,21.022C-52.766,21.022 -57.433,28.677 -63.727,37.678C-67.938,43.701 -71.305,50.223 -71.618,55.841C-71.977,62.258 -68.579,68.696 -62.427,69.008C-56.278,69.32 -53.782,64.06 -52.766,59.724C-51.75,64.06 -49.255,69.32 -43.106,69.008C-36.954,68.696 -33.556,62.258 -33.915,55.841C-34.228,50.223 -37.594,43.701 -41.805,37.678C-48.1,28.677 -52.766,21.022 -52.766,21.022L-52.766,21.022Z" style="fill:rgb(212,0,0);fill-rule:nonzero;"/>
            </g>
            <g id="g8345-9-7-5-1" transform="matrix(0.995538,0,0,0.996782,1811.79,-1248.77)">
                <rect id="path31-8-2-9-8" x="1038.58" y="522.13" width="3.199" height="33" style="fill:rgb(212,0,0);fill-rule:nonzero;stroke:black;stroke-width:1px;"/>
                <path id="path33-2-3-1-6" d="M1051.26,522.129C1048.18,522.129 1045.71,524.942 1045.71,528.435L1045.71,548.824C1045.71,552.318 1048.19,555.129 1051.26,555.129L1053.06,555.129C1056.14,555.129 1058.62,552.318 1058.62,548.824L1058.62,528.435C1058.62,524.942 1056.14,522.129 1053.06,522.129L1051.26,522.129ZM1052.19,525.249C1054.01,525.249 1055.47,526.644 1055.47,528.388L1055.47,549.047C1055.47,550.791 1054.01,552.199 1052.19,552.199C1050.38,552.199 1048.91,550.791 1048.91,549.047L1048.91,528.388C1048.91,526.645 1050.38,525.249 1052.19,525.249Z" style="fill:rgb(212,0,0);fill-rule:nonzero;stroke:black;stroke-width:1px;"/>
            </g>
            <g id="g10963-5-1" transform="matrix(-0.995538,0,0,-0.996782,4087.58,75.3587)">
                <rect id="path31-1-3-2-1-5" x="1038.58" y="522.13" width="3.199" height="33" style="fill:rgb(212,0,0);fill-rule:nonzero;"/>
                <path id="path33-5-5-3-3-1" d="M1051.26,522.129C1048.18,522.129 1045.71,524.942 1045.71,528.435L1045.71,548.824C1045.71,552.318 1048.19,555.129 1051.26,555.129L1053.06,555.129C1056.14,555.129 1058.62,552.318 1058.62,548.824L1058.62,528.435C1058.62,524.942 1056.14,522.129 1053.06,522.129L1051.26,522.129ZM1052.19,525.249C1054.01,525.249 1055.47,526.644 1055.47,528.388L1055.47,549.047C1055.47,550.791 1054.01,552.199 1052.19,552.199C1050.38,552.199 1048.91,550.791 1048.91,549.047L1048.91,528.388C1048.91,526.645 1050.38,525.249 1052.19,525.249Z" style="fill:rgb(212,0,0);fill-rule:nonzero;"/>
            </g>
        </g>
    </g>
</svg>
