<?xml version="1.0" encoding="UTF-8" standalone="no"?>
<!DOCTYPE svg PUBLIC "-//W3C//DTD SVG 1.1//EN" "http://www.w3.org/Graphics/SVG/1.1/DTD/svg11.dtd">
<svg width="100%" height="100%" viewBox="0 0 227 316" version="1.1" xmlns="http://www.w3.org/2000/svg" xmlns:xlink="http://www.w3.org/1999/xlink" xml:space="preserve" style="fill-rule:evenodd;clip-rule:evenodd;">
    <g transform="matrix(1,0,0,1,-2836,-1795)">
        <g transform="matrix(1,0,0,1,0,2187.64)">
            <g id="rect7263-6-4" transform="matrix(0.995538,0,0,0.996801,-405.45,79.6016)">
                <path d="M3481.79,-460.696C3481.79,-466.608 3476.98,-471.408 3471.06,-471.408L3269.28,-471.408C3263.37,-471.408 3258.56,-466.608 3258.56,-460.696L3258.56,-170.309C3258.56,-164.397 3263.37,-159.597 3269.28,-159.597L3471.06,-159.597C3476.98,-159.597 3481.79,-164.397 3481.79,-170.309L3481.79,-460.696Z" style="fill:white;stroke:black;stroke-width:1px;"/>
            </g>
            <g id="path7293-3-2" transform="matrix(0.995538,0,0,0.996801,-405.45,79.6016)">
                <path d="M3318.41,-438.713C3309.18,-425.556 3299.31,-417.985 3299.14,-407.72C3299.09,-404.396 3300.89,-398.747 3306.52,-397.665C3310.17,-396.967 3315.2,-399.923 3315.3,-405.928C3315.28,-407.123 3316.57,-407.092 3316.56,-405.454C3316.38,-400.717 3314.88,-395.202 3312.36,-390.713C3316.39,-390.713 3320.42,-390.713 3324.45,-390.713C3321.93,-395.202 3320.43,-400.717 3320.26,-405.454C3320.25,-407.092 3321.53,-407.123 3321.51,-405.928C3321.62,-399.923 3326.64,-396.967 3330.3,-397.665C3335.93,-398.747 3337.72,-404.396 3337.67,-407.72C3337.5,-417.985 3327.63,-425.556 3318.41,-438.713L3318.41,-438.713Z" style="fill-rule:nonzero;"/>
            </g>
            <g id="path7295-4-8" transform="matrix(0.995538,0,0,0.996801,-405.45,79.6016)">
                <path d="M3275.78,-421.435C3271.47,-415.953 3266.85,-412.798 3266.78,-408.521C3266.75,-407.136 3267.59,-404.782 3270.22,-404.332C3271.93,-404.041 3274.28,-405.272 3274.33,-407.774C3274.32,-408.272 3274.92,-408.259 3274.91,-407.577C3274.83,-405.603 3274.13,-403.305 3272.95,-401.435C3274.84,-401.435 3276.72,-401.435 3278.6,-401.435C3277.42,-403.305 3276.72,-405.603 3276.64,-407.577C3276.63,-408.259 3277.24,-408.272 3277.23,-407.774C3277.28,-405.272 3279.63,-404.041 3281.33,-404.332C3283.96,-404.782 3284.8,-407.136 3284.78,-408.521C3284.7,-412.798 3280.09,-415.953 3275.78,-421.435L3275.78,-421.435Z" style="fill-rule:nonzero;"/>
            </g>
            <g id="path7297-5-1" transform="matrix(0.995538,0,0,0.996801,-405.45,79.6016)">
                <path d="M3318.41,-258.432C3309.18,-271.59 3299.31,-279.161 3299.14,-289.426C3299.09,-292.75 3300.89,-298.399 3306.52,-299.481C3310.17,-300.179 3315.2,-297.223 3315.3,-291.218C3315.28,-290.023 3316.57,-290.054 3316.56,-291.692C3316.38,-296.428 3314.88,-301.943 3312.36,-306.432C3316.39,-306.432 3320.42,-306.432 3324.45,-306.432C3321.93,-301.943 3320.43,-296.428 3320.26,-291.692C3320.25,-290.054 3321.53,-290.023 3321.51,-291.218C3321.62,-297.223 3326.64,-300.179 3330.3,-299.481C3335.93,-298.399 3337.72,-292.75 3337.67,-289.426C3337.5,-279.161 3327.63,-271.59 3318.41,-258.432L3318.41,-258.432Z" style="fill-rule:nonzero;"/>
            </g>
            <g id="path7299-3-5" transform="matrix(0.995538,0,0,0.996801,-405.45,79.6016)">
                <path d="M3464.57,-209.57C3460.26,-215.052 3455.65,-218.207 3455.57,-222.484C3455.55,-223.869 3456.39,-226.223 3459.01,-226.674C3460.72,-226.965 3463.07,-225.733 3463.12,-223.231C3463.11,-222.733 3463.71,-222.746 3463.71,-223.428C3463.63,-225.402 3462.93,-227.7 3461.75,-229.57C3463.63,-229.57 3465.51,-229.57 3467.39,-229.57C3466.22,-227.7 3465.52,-225.402 3465.44,-223.428C3465.43,-222.746 3466.03,-222.733 3466.02,-223.231C3466.07,-225.733 3468.42,-226.965 3470.13,-226.674C3472.76,-226.223 3473.6,-223.869 3473.57,-222.484C3473.49,-218.207 3468.88,-215.052 3464.57,-209.57L3464.57,-209.57Z" style="fill-rule:nonzero;"/>
            </g>
            <g id="path7301-4-0" transform="matrix(0.995538,0,0,0.996801,-405.45,79.6016)">
                <path d="M3421.94,-438.713C3412.71,-425.556 3402.84,-417.985 3402.68,-407.72C3402.62,-404.396 3404.42,-398.747 3410.05,-397.665C3413.7,-396.967 3418.73,-399.923 3418.83,-405.928C3418.82,-407.123 3420.1,-407.092 3420.09,-405.454C3419.92,-400.717 3418.42,-395.202 3415.9,-390.713C3419.93,-390.713 3423.95,-390.713 3427.98,-390.713C3425.46,-395.202 3423.96,-400.717 3423.79,-405.454C3423.78,-407.092 3425.06,-407.123 3425.05,-405.928C3425.15,-399.923 3430.18,-396.967 3433.83,-397.665C3439.46,-398.747 3441.26,-404.396 3441.2,-407.72C3441.04,-417.985 3431.17,-425.556 3421.94,-438.713L3421.94,-438.713Z" style="fill-rule:nonzero;"/>
            </g>
            <g id="path7303-7-8" transform="matrix(0.995538,0,0,0.996801,-405.45,79.6016)">
                <path d="M3318.41,-372.573C3309.18,-359.416 3299.31,-351.844 3299.14,-341.58C3299.09,-338.256 3300.89,-332.606 3306.52,-331.525C3310.17,-330.826 3315.2,-333.782 3315.3,-339.787C3315.28,-340.983 3316.57,-340.952 3316.56,-339.314C3316.38,-334.577 3314.88,-329.062 3312.36,-324.573C3316.39,-324.573 3320.42,-324.573 3324.45,-324.573C3321.93,-329.062 3320.43,-334.577 3320.26,-339.314C3320.25,-340.952 3321.53,-340.983 3321.51,-339.787C3321.62,-333.782 3326.64,-330.826 3330.3,-331.525C3335.93,-332.606 3337.72,-338.256 3337.67,-341.58C3337.5,-351.844 3327.63,-359.416 3318.41,-372.573L3318.41,-372.573Z" style="fill-rule:nonzero;"/>
            </g>
            <g id="path7305-6-7" transform="matrix(0.995538,0,0,0.996801,-405.45,79.6016)">
                <path d="M3370.17,-396.073C3360.95,-382.916 3351.08,-375.344 3350.91,-365.08C3350.86,-361.756 3352.65,-356.106 3358.28,-355.025C3361.93,-354.326 3366.96,-357.282 3367.07,-363.287C3367.05,-364.483 3368.33,-364.452 3368.32,-362.814C3368.15,-358.077 3366.65,-352.562 3364.13,-348.073C3368.16,-348.073 3372.19,-348.073 3376.22,-348.073C3373.7,-352.562 3372.2,-358.077 3372.03,-362.814C3372.01,-364.452 3373.3,-364.483 3373.28,-363.287C3373.38,-357.282 3378.41,-354.326 3382.06,-355.025C3387.69,-356.106 3389.49,-361.756 3389.43,-365.08C3389.27,-375.344 3379.4,-382.916 3370.17,-396.073L3370.17,-396.073Z" style="fill-rule:nonzero;"/>
            </g>
            <g id="path7309-8-5" transform="matrix(0.995538,0,0,0.996801,-405.45,79.6016)">
                <path d="M3421.94,-372.573C3412.71,-359.416 3402.84,-351.844 3402.68,-341.58C3402.62,-338.256 3404.42,-332.606 3410.05,-331.525C3413.7,-330.826 3418.73,-333.782 3418.83,-339.787C3418.82,-340.983 3420.1,-340.952 3420.09,-339.314C3419.92,-334.577 3418.42,-329.062 3415.9,-324.573C3419.93,-324.573 3423.95,-324.573 3427.98,-324.573C3425.46,-329.062 3423.96,-334.577 3423.79,-339.314C3423.78,-340.952 3425.06,-340.983 3425.05,-339.787C3425.15,-333.782 3430.18,-330.826 3433.83,-331.525C3439.46,-332.606 3441.26,-338.256 3441.2,-341.58C3441.04,-351.844 3431.17,-359.416 3421.94,-372.573L3421.94,-372.573Z" style="fill-rule:nonzero;"/>
            </g>
            <g id="path7313-6-8" transform="matrix(0.995538,0,0,0.996801,-405.45,79.6016)">
                <path d="M3318.41,-192.292C3309.18,-205.449 3299.31,-213.021 3299.14,-223.285C3299.09,-226.609 3300.89,-232.259 3306.52,-233.34C3310.17,-234.038 3315.2,-231.083 3315.3,-225.078C3315.28,-223.882 3316.57,-223.913 3316.56,-225.551C3316.38,-230.288 3314.88,-235.803 3312.36,-240.292C3316.39,-240.292 3320.42,-240.292 3324.45,-240.292C3321.93,-235.803 3320.43,-230.288 3320.26,-225.551C3320.25,-223.913 3321.53,-223.882 3321.51,-225.078C3321.62,-231.083 3326.64,-234.038 3330.3,-233.34C3335.93,-232.259 3337.72,-226.609 3337.67,-223.285C3337.5,-213.021 3327.63,-205.449 3318.41,-192.292L3318.41,-192.292Z" style="fill-rule:nonzero;"/>
            </g>
            <g id="path7315-7-3" transform="matrix(0.995538,0,0,0.996801,-405.45,79.6016)">
                <path d="M3421.94,-192.292C3412.71,-205.449 3402.84,-213.021 3402.68,-223.285C3402.62,-226.609 3404.42,-232.259 3410.05,-233.34C3413.7,-234.038 3418.73,-231.083 3418.83,-225.078C3418.82,-223.882 3420.1,-223.913 3420.09,-225.551C3419.92,-230.288 3418.42,-235.803 3415.9,-240.292C3419.93,-240.292 3423.95,-240.292 3427.98,-240.292C3425.46,-235.803 3423.96,-230.288 3423.79,-225.551C3423.78,-223.913 3425.06,-223.882 3425.05,-225.078C3425.15,-231.083 3430.18,-234.038 3433.83,-233.34C3439.46,-232.259 3441.26,-226.609 3441.2,-223.285C3441.04,-213.021 3431.17,-205.449 3421.94,-192.292L3421.94,-192.292Z" style="fill-rule:nonzero;"/>
            </g>
            <g id="path7317-0-2" transform="matrix(0.995538,0,0,0.996801,-405.45,79.6016)">
                <path d="M3370.17,-234.932C3360.95,-248.09 3351.08,-255.661 3350.91,-265.926C3350.86,-269.25 3352.65,-274.899 3358.28,-275.981C3361.93,-276.679 3366.96,-273.723 3367.07,-267.718C3367.05,-266.522 3368.33,-266.554 3368.32,-268.192C3368.15,-272.928 3366.65,-278.443 3364.13,-282.932C3368.16,-282.932 3372.19,-282.932 3376.22,-282.932C3373.7,-278.443 3372.2,-272.928 3372.03,-268.192C3372.01,-266.554 3373.3,-266.522 3373.28,-267.718C3373.38,-273.723 3378.41,-276.679 3382.06,-275.981C3387.69,-274.899 3389.49,-269.25 3389.43,-265.926C3389.27,-255.661 3379.4,-248.09 3370.17,-234.932L3370.17,-234.932Z" style="fill-rule:nonzero;"/>
            </g>
            <g id="path7319-5-6" transform="matrix(0.995538,0,0,0.996801,-405.45,79.6016)">
                <path d="M3421.94,-258.432C3412.71,-271.59 3402.84,-279.161 3402.68,-289.426C3402.62,-292.75 3404.42,-298.399 3410.05,-299.481C3413.7,-300.179 3418.73,-297.223 3418.83,-291.218C3418.82,-290.022 3420.1,-290.054 3420.09,-291.692C3419.92,-296.428 3418.42,-301.943 3415.9,-306.432C3419.93,-306.432 3423.95,-306.432 3427.98,-306.432C3425.46,-301.943 3423.96,-296.428 3423.79,-291.692C3423.78,-290.054 3425.06,-290.022 3425.05,-291.218C3425.15,-297.223 3430.18,-300.179 3433.83,-299.481C3439.46,-298.399 3441.26,-292.75 3441.2,-289.426C3441.04,-279.161 3431.17,-271.59 3421.94,-258.432L3421.94,-258.432Z" style="fill-rule:nonzero;"/>
            </g>
            <g id="path31-5-4-7" transform="matrix(0.995538,0,0,0.996801,-405.45,79.6016)">
                <rect x="3265.76" y="-457.57" width="3.199" height="32.999" style="fill-rule:nonzero;"/>
            </g>
            <g id="path33-4-6-8" transform="matrix(0.995538,0,0,0.996801,-405.45,79.6016)">
                <path d="M3278.44,-457.57C3275.36,-457.57 3272.88,-454.758 3272.88,-451.264L3272.88,-430.876C3272.88,-427.382 3275.36,-424.571 3278.44,-424.571L3280.23,-424.571C3283.31,-424.571 3285.79,-427.382 3285.79,-430.876L3285.79,-451.264C3285.79,-454.758 3283.31,-457.57 3280.23,-457.57L3278.44,-457.57ZM3279.37,-454.45C3281.18,-454.45 3282.65,-453.056 3282.65,-451.312L3282.65,-430.653C3282.65,-428.909 3281.18,-427.502 3279.37,-427.502C3277.55,-427.502 3276.08,-428.909 3276.08,-430.653L3276.08,-451.312C3276.08,-453.054 3277.55,-454.45 3279.37,-454.45Z" style="fill-rule:nonzero;"/>
            </g>
            <g id="g8583-6-9" transform="matrix(-0.995538,0,0,0.996801,6492.77,79.6016)">
                <rect id="path31-5-5-6-7" x="3454.55" y="-206.435" width="3.199" height="32.999" style="fill-rule:nonzero;"/>
                <path id="path33-4-3-7-9" d="M3467.23,-173.435C3464.15,-173.435 3461.68,-176.247 3461.68,-179.741L3461.68,-200.129C3461.68,-203.623 3464.15,-206.434 3467.23,-206.434L3469.03,-206.434C3472.11,-206.434 3474.59,-203.623 3474.59,-200.129L3474.59,-179.741C3474.59,-176.247 3472.11,-173.435 3469.03,-173.435L3467.23,-173.435L3467.23,-173.435ZM3468.16,-176.555C3469.98,-176.555 3471.44,-177.95 3471.44,-179.694L3471.44,-200.352C3471.44,-202.096 3469.98,-203.504 3468.16,-203.504C3466.34,-203.504 3464.88,-202.096 3464.88,-200.352L3464.88,-179.694C3464.88,-177.951 3466.34,-176.555 3468.16,-176.555Z" style="fill-rule:nonzero;"/>
            </g>
        </g>
    </g>
</svg>
