<?xml version="1.0" encoding="UTF-8" standalone="no"?>
<!DOCTYPE svg PUBLIC "-//W3C//DTD SVG 1.1//EN" "http://www.w3.org/Graphics/SVG/1.1/DTD/svg11.dtd">
<svg width="100%" height="100%" viewBox="0 0 228 316" version="1.1" xmlns="http://www.w3.org/2000/svg" xmlns:xlink="http://www.w3.org/1999/xlink" xml:space="preserve" style="fill-rule:evenodd;clip-rule:evenodd;">
    <g transform="matrix(1,0,0,1,-730,-1091)">
        <g transform="matrix(1,0,0,1,0,2187.64)">
            <g id="rect6355-6-85-4-0-5" transform="matrix(0.995538,0,0,0.996801,473.471,-1463.01)">
                <path d="M483.661,380.987C483.661,375.075 478.855,370.276 472.936,370.276L271.158,370.276C265.239,370.276 260.433,375.075 260.433,380.987L260.433,671.375C260.433,677.287 265.239,682.087 271.158,682.087L472.936,682.087C478.855,682.087 483.661,677.287 483.661,671.375L483.661,380.987Z" style="fill:white;stroke:black;stroke-width:1px;"/>
            </g>
            <g id="path147-0-8-1-6-7-2-1-6-3" transform="matrix(1,0,0,1,4.98358,-5.55249)">
                <path d="M838.871,-1055.37C829.096,-1055.15 824.713,-1044.15 831.952,-1035.6C833.002,-1034.36 833.11,-1033.64 831.188,-1034.84C826.314,-1038.1 816.968,-1035.95 816.49,-1025.99C815.899,-1013.71 833.053,-1010.18 836.273,-1023.23C836.444,-1024.61 837.563,-1024.58 837.293,-1022.62C836.999,-1017.31 835.342,-1012.36 833.064,-1007.52C836.903,-1007.52 841.194,-1007.52 844.685,-1007.52C842.407,-1012.36 840.75,-1017.31 840.456,-1022.62C840.186,-1024.58 841.305,-1024.61 841.475,-1023.23C844.696,-1010.18 861.85,-1013.71 861.259,-1025.99C860.781,-1035.95 851.435,-1038.1 846.561,-1034.84C844.639,-1033.64 844.747,-1034.36 845.797,-1035.6C853.036,-1044.15 848.653,-1055.15 838.879,-1055.37C838.879,-1055.37 838.879,-1055.37 838.869,-1055.37L838.871,-1055.37Z" style="fill-rule:nonzero;"/>
            </g>
            <g id="path147-0-8-1-6-1-4-5-4-2" transform="matrix(1,0,0,1,4.98358,-5.55249)">
                <path d="M838.871,-809.732C829.096,-809.944 824.713,-820.949 831.952,-829.495C833.002,-830.741 833.11,-831.457 831.188,-830.259C826.314,-827 816.968,-829.143 816.49,-839.107C815.899,-851.384 833.053,-854.921 836.274,-841.866C836.444,-840.489 837.563,-840.52 837.293,-842.476C836.999,-847.782 835.342,-852.742 833.064,-857.578C836.903,-857.578 841.194,-857.578 844.685,-857.578C842.407,-852.742 840.75,-847.782 840.456,-842.476C840.186,-840.52 841.305,-840.489 841.475,-841.866C844.696,-854.921 861.85,-851.384 861.259,-839.107C860.781,-829.143 851.435,-827 846.561,-830.259C844.639,-831.457 844.747,-830.741 845.797,-829.495C853.036,-820.949 848.653,-809.944 838.879,-809.732C838.879,-809.732 838.879,-809.732 838.869,-809.732L838.871,-809.732Z" style="fill-rule:nonzero;"/>
            </g>
            <g id="path147-6-9-8-7-0-5-4-9-1" transform="matrix(1,0,0,1,4.98358,-5.55249)">
                <path d="M932.853,-827.369C936.762,-827.458 938.516,-832.043 935.62,-835.604C935.2,-836.123 935.157,-836.421 935.926,-835.922C937.875,-834.564 941.613,-835.457 941.805,-839.609C942.041,-844.724 935.18,-846.198 933.891,-840.759C933.824,-840.185 933.376,-840.198 933.484,-841.012C933.601,-843.223 934.264,-845.29 935.175,-847.305C933.626,-847.305 932.076,-847.305 930.527,-847.305C931.438,-845.29 932.101,-843.223 932.219,-841.012C932.327,-840.198 931.879,-840.185 931.811,-840.759C930.522,-846.198 923.661,-844.724 923.897,-839.609C924.089,-835.457 927.827,-834.564 929.776,-835.922C930.546,-836.421 930.502,-836.123 930.082,-835.604C927.187,-832.043 928.94,-827.458 932.85,-827.369C932.851,-827.369 932.85,-827.369 932.85,-827.369L932.853,-827.369Z" style="fill-rule:nonzero;"/>
            </g>
            <g id="path147-6-9-8-7-4-5-9-2-7" transform="matrix(1,0,0,1,4.98358,-5.55249)">
                <path d="M744.898,-1038.56C740.988,-1038.47 739.235,-1033.88 742.13,-1030.32C742.55,-1029.8 742.594,-1029.5 741.824,-1030C739.875,-1031.36 736.137,-1030.47 735.945,-1026.32C735.709,-1021.2 742.57,-1019.73 743.859,-1025.17C743.926,-1025.74 744.375,-1025.73 744.267,-1024.91C744.149,-1022.7 743.486,-1020.63 742.575,-1018.62C744.124,-1018.62 745.674,-1018.62 747.223,-1018.62C746.312,-1020.63 745.649,-1022.7 745.532,-1024.91C745.424,-1025.73 745.871,-1025.74 745.939,-1025.17C747.228,-1019.73 754.089,-1021.2 753.853,-1026.32C753.661,-1030.47 749.923,-1031.36 747.974,-1030C747.205,-1029.5 747.248,-1029.8 747.668,-1030.32C750.563,-1033.88 748.81,-1038.47 744.901,-1038.56C744.9,-1038.56 744.901,-1038.56 744.901,-1038.56L744.898,-1038.56Z" style="fill-rule:nonzero;"/>
            </g>
            <g id="path15-9-1-0-1" transform="matrix(1,0,0,1,4.98358,-5.55249)">
                <path d="M735.05,-1041.75L735.21,-1043.78C735.715,-1050.05 737.061,-1052.16 744.69,-1058.71C748.395,-1061.88 749.609,-1063.44 749.779,-1065.26C750.265,-1069.54 746.48,-1070.88 744.015,-1070.9C740.82,-1070.93 737.205,-1068.98 738.931,-1064.46L735.345,-1063.38C734.625,-1067.6 735.366,-1071.56 738.721,-1073.32C743.201,-1075.61 748.945,-1074.71 751.845,-1071.1C753.795,-1068.68 754.24,-1065.33 753.194,-1062.71C750.139,-1056.01 739.775,-1053.06 738.92,-1045.31L750.375,-1045.31L750.375,-1049.63L753.75,-1049.63L753.75,-1041.68L735.05,-1041.75L735.05,-1041.75Z" style="fill-rule:nonzero;"/>
            </g>
            <g id="path15-5-7-4-9-4" transform="matrix(1,0,0,1,4.98358,-5.55249)">
                <path d="M942.2,-824.173L942.04,-822.145C941.534,-815.877 940.189,-813.762 932.559,-807.218C928.855,-804.046 927.64,-802.481 927.47,-800.666C926.985,-796.383 930.77,-795.046 933.235,-795.027C936.43,-794.998 940.044,-796.944 938.319,-801.468L941.904,-802.543C942.625,-798.323 941.883,-794.363 938.529,-792.607C934.049,-790.316 928.305,-791.214 925.404,-794.823C923.455,-797.244 923.009,-800.595 924.055,-803.217C927.11,-809.916 937.474,-812.864 938.329,-820.615L926.875,-820.615L926.875,-816.299L923.5,-816.299L923.5,-824.244L942.2,-824.173L942.2,-824.173Z" style="fill-rule:nonzero;"/>
            </g>
        </g>
    </g>
</svg>
