<?xml version="1.0" encoding="UTF-8" standalone="no"?>
<!DOCTYPE svg PUBLIC "-//W3C//DTD SVG 1.1//EN" "http://www.w3.org/Graphics/SVG/1.1/DTD/svg11.dtd">
<svg width="100%" height="100%" viewBox="0 0 228 316" version="1.1" xmlns="http://www.w3.org/2000/svg" xmlns:xlink="http://www.w3.org/1999/xlink" xml:space="preserve" style="fill-rule:evenodd;clip-rule:evenodd;">
    <g transform="matrix(1,0,0,1,-730,-2147)">
        <g transform="matrix(1,0,0,1,0,2187.64)">
            <g id="rect6486-8" transform="matrix(0.995535,0,0,0.996803,8.72925,-8.13974)">
                <path d="M950.489,-19.733C950.489,-25.645 945.683,-30.445 939.763,-30.445L737.986,-30.445C732.066,-30.445 727.261,-25.645 727.261,-19.733L727.261,270.654C727.261,276.566 732.066,281.366 737.986,281.366L939.763,281.366C945.683,281.366 950.489,276.566 950.489,270.654L950.489,-19.733Z" style="fill:white;stroke:black;stroke-width:1px;"/>
            </g>
            <g id="path6516-8" transform="matrix(0.995535,0,0,0.996803,8.72925,-8.13974)">
                <path d="M838.875,50.25C833.688,41.685 828.232,33.361 821.414,26.25C828.232,19.139 833.688,10.815 838.875,2.25C844.061,10.815 849.517,19.139 856.336,26.25C849.517,33.361 844.061,41.685 838.875,50.25Z" style="fill:rgb(212,0,0);fill-rule:nonzero;"/>
            </g>
            <g id="path6518-2" transform="matrix(0.995535,0,0,0.996803,8.72925,-8.13974)">
                <path d="M744.478,39.528C742.317,35.96 740.043,32.491 737.202,29.528C740.043,26.566 742.317,23.097 744.478,19.528C746.639,23.097 748.912,26.566 751.753,29.528C748.912,32.491 746.639,35.96 744.478,39.528Z" style="fill:rgb(212,0,0);fill-rule:nonzero;"/>
            </g>
            <g id="path6522-0" transform="matrix(0.995535,0,0,0.996803,8.72925,-8.13974)">
                <path d="M933.272,231.393C931.111,227.824 928.838,224.356 925.997,221.393C928.838,218.43 931.111,214.962 933.272,211.393C935.433,214.962 937.707,218.43 940.548,221.393C937.707,224.356 935.433,227.824 933.272,231.393Z" style="fill:rgb(212,0,0);fill-rule:nonzero;"/>
            </g>
            <g id="path6538-6" transform="matrix(0.995535,0,0,0.996803,8.72925,-8.13974)">
                <path d="M838.875,248.671C833.688,240.106 828.232,231.782 821.414,224.671C828.232,217.56 833.688,209.236 838.875,200.671C844.061,209.236 849.517,217.56 856.336,224.671C849.517,231.782 844.061,240.106 838.875,248.671Z" style="fill:rgb(212,0,0);fill-rule:nonzero;"/>
            </g>
            <g id="path15-34-1-4-2" transform="matrix(0.995535,0,0,0.996803,8.72925,-8.13974)">
                <path d="M735.084,16.322L735.245,14.287C735.753,7.999 737.104,5.877 744.768,-0.687C748.489,-3.869 749.709,-5.439 749.88,-7.261C750.367,-11.557 746.566,-12.898 744.089,-12.918C740.88,-12.947 737.249,-10.994 738.983,-6.456L735.381,-5.378C734.658,-9.612 735.402,-13.583 738.772,-15.346C743.272,-17.644 749.042,-16.743 751.955,-13.122C753.913,-10.693 754.361,-7.332 753.31,-4.701C750.241,2.02 739.831,4.977 738.972,12.752L750.478,12.752L750.478,8.423L753.868,8.423L753.868,16.393L735.084,16.322L735.084,16.322Z" style="fill:rgb(212,0,0);fill-rule:nonzero;"/>
            </g>
            <g id="path15-5-4-6-4" transform="matrix(0.995535,0,0,0.996803,8.72925,-8.13974)">
                <path d="M942.663,234.599L942.502,236.634C941.994,242.922 940.643,245.044 932.979,251.608C929.258,254.79 928.038,256.361 927.867,258.182C927.38,262.479 931.182,263.82 933.658,263.839C936.867,263.868 940.498,261.916 938.765,257.377L942.366,256.299C943.09,260.533 942.345,264.505 938.975,266.267C934.475,268.565 928.705,267.664 925.792,264.044C923.834,261.614 923.386,258.253 924.437,255.622C927.506,248.902 937.916,245.945 938.775,238.169L927.269,238.169L927.269,242.498L923.879,242.498L923.879,234.529L942.663,234.6L942.663,234.599Z" style="fill:rgb(212,0,0);fill-rule:nonzero;"/>
            </g>
        </g>
    </g>
</svg>
