<?xml version="1.0" encoding="UTF-8" standalone="no"?>
<!DOCTYPE svg PUBLIC "-//W3C//DTD SVG 1.1//EN" "http://www.w3.org/Graphics/SVG/1.1/DTD/svg11.dtd">
<svg width="100%" height="100%" viewBox="0 0 228 316" version="1.1" xmlns="http://www.w3.org/2000/svg" xmlns:xlink="http://www.w3.org/1999/xlink" xml:space="preserve" style="fill-rule:evenodd;clip-rule:evenodd;">
    <g transform="matrix(1,0,0,1,-730,-1443)">
        <g transform="matrix(1,0,0,1,0,2187.64)">
            <g id="rect9734-4-5" transform="matrix(0.995538,0,0,0.996801,473.471,-1111.2)">
                <path d="M483.661,380.987C483.661,375.075 478.855,370.276 472.936,370.276L271.158,370.276C265.239,370.276 260.433,375.075 260.433,380.987L260.433,671.375C260.433,677.287 265.239,682.087 271.158,682.087L472.936,682.087C478.855,682.087 483.661,677.287 483.661,671.375L483.661,380.987Z" style="fill:white;stroke:black;stroke-width:1px;"/>
            </g>
            <g id="path9766-0-8" transform="matrix(0.995538,0,0,0.996801,844.854,-532.688)">
                <path d="M-95.397,-140.121C-95.397,-140.121 -97.622,-143.311 -100.623,-147.061C-102.63,-149.571 -104.235,-152.289 -104.385,-154.629C-104.556,-157.303 -102.936,-159.986 -100.002,-160.116C-97.071,-160.246 -95.881,-158.054 -95.397,-156.247C-94.912,-158.054 -93.723,-160.246 -90.791,-160.116C-87.858,-159.986 -86.238,-157.303 -86.409,-154.629C-86.558,-152.289 -88.163,-149.571 -90.171,-147.061C-93.172,-143.311 -95.397,-140.121 -95.397,-140.121L-95.397,-140.121Z" style="fill:rgb(212,0,0);fill-rule:nonzero;"/>
            </g>
            <g id="path9768-3-3" transform="matrix(0.995538,0,0,0.996801,844.854,-532.688)">
                <path d="M93.398,31.743C93.398,31.743 91.173,34.933 88.172,38.684C86.164,41.193 84.559,43.911 84.41,46.251C84.239,48.925 85.859,51.608 88.792,51.738C91.723,51.868 92.913,49.676 93.398,47.869C93.882,49.676 95.072,51.868 98.003,51.738C100.936,51.608 102.556,48.925 102.385,46.251C102.236,43.911 100.631,41.193 98.623,38.684C95.622,34.933 93.398,31.743 93.398,31.743L93.398,31.743Z" style="fill:rgb(212,0,0);fill-rule:nonzero;"/>
            </g>
            <g id="path9772-1-7" transform="matrix(0.995538,0,0,0.996801,844.854,-532.688)">
                <path d="M-1,-129.4C-1,-129.4 -5.666,-137.055 -11.961,-146.056C-16.172,-152.079 -19.539,-158.601 -19.852,-164.219C-20.211,-170.636 -16.812,-177.074 -10.66,-177.386C-4.512,-177.698 -2.016,-172.438 -1,-168.102C0.016,-172.438 2.512,-177.698 8.66,-177.386C14.812,-177.074 18.211,-170.636 17.852,-164.219C17.539,-158.601 14.172,-152.079 9.961,-146.056C3.666,-137.055 -1,-129.4 -1,-129.4L-1,-129.4Z" style="fill:rgb(212,0,0);fill-rule:nonzero;"/>
            </g>
            <g id="path9786-2-1" transform="matrix(0.995538,0,0,0.996801,844.854,-532.688)">
                <path d="M-1,21.022C-1,21.022 -5.666,28.677 -11.961,37.678C-16.172,43.701 -19.539,50.223 -19.852,55.841C-20.211,62.258 -16.812,68.696 -10.66,69.008C-4.512,69.32 -2.016,64.06 -1,59.724C0.016,64.06 2.512,69.32 8.66,69.008C14.812,68.696 18.211,62.258 17.852,55.841C17.539,50.223 14.172,43.701 9.961,37.678C3.666,28.677 -1,21.022 -1,21.022L-1,21.022Z" style="fill:rgb(212,0,0);fill-rule:nonzero;"/>
            </g>
            <g id="path15-34-0-0-4" transform="matrix(0.995538,0,0,0.996801,10.7463,318.486)">
                <path d="M733.056,-1017.23L733.217,-1019.27C733.724,-1025.56 735.076,-1027.68 742.74,-1034.24C746.461,-1037.42 747.681,-1039 747.852,-1040.82C748.339,-1045.11 744.537,-1046.45 742.061,-1046.47C738.852,-1046.5 735.221,-1044.55 736.954,-1040.01L733.353,-1038.93C732.629,-1043.17 733.374,-1047.14 736.743,-1048.9C741.243,-1051.2 747.013,-1050.3 749.927,-1046.68C751.885,-1044.25 752.332,-1040.89 751.282,-1038.26C748.213,-1031.54 737.803,-1028.58 736.944,-1020.8L748.449,-1020.8L748.449,-1025.13L751.84,-1025.13L751.84,-1017.16L733.056,-1017.23L733.056,-1017.23Z" style="fill:rgb(212,0,0);fill-rule:nonzero;stroke:black;stroke-width:1px;"/>
            </g>
            <g id="path15-5-4-5-2-7" transform="matrix(0.995538,0,0,0.996801,10.7463,318.486)">
                <path d="M940.634,-798.956L940.474,-796.921C939.966,-790.633 938.615,-788.511 930.951,-781.947C927.23,-778.765 926.01,-777.194 925.839,-775.373C925.351,-771.076 929.153,-769.735 931.629,-769.716C934.838,-769.687 938.469,-771.639 936.736,-776.178L940.337,-777.256C941.061,-773.022 940.316,-769.051 936.947,-767.288C932.447,-764.99 926.677,-765.891 923.764,-769.512C921.805,-771.941 921.358,-775.302 922.408,-777.933C925.477,-784.653 935.888,-787.61 936.746,-795.386L925.241,-795.386L925.241,-791.057L921.85,-791.057L921.85,-799.027L940.634,-798.956L940.634,-798.956Z" style="fill:rgb(212,0,0);fill-rule:nonzero;"/>
            </g>
        </g>
    </g>
</svg>
