<?xml version="1.0" encoding="UTF-8" standalone="no"?>
<!DOCTYPE svg PUBLIC "-//W3C//DTD SVG 1.1//EN" "http://www.w3.org/Graphics/SVG/1.1/DTD/svg11.dtd">
<svg width="100%" height="100%" viewBox="0 0 228 316" version="1.1" xmlns="http://www.w3.org/2000/svg" xmlns:xlink="http://www.w3.org/1999/xlink" xml:space="preserve" style="fill-rule:evenodd;clip-rule:evenodd;">
    <g transform="matrix(1,0,0,1,-730,-1795)">
        <g transform="matrix(1,0,0,1,0,2187.64)">
            <g id="rect6716-2-0" transform="matrix(0.995538,0,0,0.996801,77.9631,79.6016)">
                <path d="M880.942,-460.696C880.942,-466.608 876.136,-471.408 870.217,-471.408L668.439,-471.408C662.52,-471.408 657.714,-466.608 657.714,-460.696L657.714,-170.309C657.714,-164.397 662.52,-159.597 668.439,-159.597L870.217,-159.597C876.136,-159.597 880.942,-164.397 880.942,-170.309L880.942,-460.696Z" style="fill:white;stroke:black;stroke-width:1px;"/>
            </g>
            <g id="path6748-4-0" transform="matrix(0.995538,0,0,0.996801,77.9631,79.6016)">
                <path d="M674.931,-421.435C670.621,-415.953 666.008,-412.798 665.932,-408.521C665.906,-407.136 666.746,-404.782 669.376,-404.332C671.082,-404.041 673.431,-405.272 673.48,-407.774C673.47,-408.272 674.072,-408.259 674.066,-407.577C673.986,-405.603 673.285,-403.305 672.108,-401.435C673.99,-401.435 675.872,-401.435 677.755,-401.435C676.577,-403.305 675.877,-405.603 675.796,-407.577C675.786,-408.259 676.39,-408.272 676.382,-407.774C676.431,-405.272 678.78,-404.041 680.487,-404.332C683.117,-404.782 683.956,-407.136 683.931,-408.521C683.854,-412.798 679.242,-415.953 674.931,-421.435L674.931,-421.435Z" style="fill-rule:nonzero;"/>
            </g>
            <g id="path6752-9-1" transform="matrix(0.995538,0,0,0.996801,77.9631,79.6016)">
                <path d="M863.726,-209.57C859.415,-215.052 854.803,-218.207 854.726,-222.484C854.7,-223.869 855.54,-226.223 858.17,-226.674C859.877,-226.965 862.226,-225.733 862.275,-223.231C862.265,-222.733 862.866,-222.746 862.861,-223.428C862.781,-225.402 862.08,-227.7 860.902,-229.57C862.785,-229.57 864.667,-229.57 866.549,-229.57C865.372,-227.7 864.671,-225.402 864.591,-223.428C864.581,-222.746 865.184,-222.733 865.177,-223.231C865.226,-225.733 867.575,-226.965 869.281,-226.674C871.911,-226.223 872.751,-223.869 872.725,-222.484C872.648,-218.207 868.036,-215.052 863.726,-209.57L863.726,-209.57Z" style="fill-rule:nonzero;"/>
            </g>
            <g id="path6760-2-4" transform="matrix(0.995538,0,0,0.996801,77.9631,79.6016)">
                <path d="M769.328,-438.713C760.102,-425.556 750.23,-417.985 750.066,-407.72C750.011,-404.396 751.809,-398.747 757.438,-397.665C761.09,-396.967 766.118,-399.923 766.223,-405.928C766.207,-407.123 767.489,-407.092 767.477,-405.454C767.305,-400.717 765.805,-395.202 763.285,-390.713C767.314,-390.713 771.342,-390.713 775.371,-390.713C772.851,-395.202 771.352,-400.717 771.18,-405.454C771.168,-407.092 772.45,-407.123 772.434,-405.928C772.539,-399.923 777.567,-396.967 781.219,-397.665C786.848,-398.747 788.645,-404.396 788.59,-407.72C788.426,-417.985 778.554,-425.556 769.328,-438.713L769.328,-438.713Z" style="fill-rule:nonzero;"/>
            </g>
            <g id="path6774-6-2" transform="matrix(0.995538,0,0,0.996801,77.9631,79.6016)">
                <path d="M769.328,-192.292C760.102,-205.449 750.23,-213.021 750.066,-223.285C750.011,-226.609 751.809,-232.259 757.438,-233.34C761.09,-234.038 766.118,-231.083 766.223,-225.078C766.207,-223.882 767.489,-223.913 767.477,-225.551C767.305,-230.288 765.805,-235.803 763.285,-240.292C767.314,-240.292 771.342,-240.292 775.371,-240.292C772.851,-235.803 771.352,-230.288 771.18,-225.551C771.168,-223.913 772.45,-223.882 772.434,-225.078C772.539,-231.083 777.567,-234.038 781.219,-233.34C786.848,-232.259 788.645,-226.609 788.59,-223.285C788.426,-213.021 778.554,-205.449 769.328,-192.292L769.328,-192.292Z" style="fill-rule:nonzero;"/>
            </g>
            <g id="path15-3-8-9" transform="matrix(0.995538,0,0,0.996801,77.9631,79.6016)">
                <path d="M665.538,-424.641L665.699,-426.676C666.206,-432.964 667.558,-435.086 675.222,-441.65C678.942,-444.833 680.163,-446.403 680.334,-448.224C680.821,-452.521 677.019,-453.862 674.543,-453.881C671.334,-453.91 667.703,-451.958 669.436,-447.419L665.835,-446.341C665.111,-450.575 665.856,-454.546 669.225,-456.309C673.725,-458.607 679.495,-457.706 682.409,-454.086C684.367,-451.656 684.814,-448.295 683.764,-445.664C680.695,-438.944 670.285,-435.987 669.426,-428.211L680.931,-428.211L680.931,-432.54L684.322,-432.54L684.322,-424.57L665.538,-424.641L665.538,-424.641Z" style="fill-rule:nonzero;"/>
            </g>
            <g id="path15-3-5-1-4" transform="matrix(0.995538,0,0,0.996801,77.9631,79.6016)">
                <path d="M873.116,-206.364L872.955,-204.329C872.448,-198.041 871.096,-195.919 863.432,-189.355C859.712,-186.173 858.492,-184.603 858.321,-182.781C857.833,-178.485 861.635,-177.144 864.111,-177.124C867.32,-177.095 870.951,-179.048 869.218,-183.586L872.819,-184.664C873.543,-180.43 872.798,-176.459 869.429,-174.696C864.929,-172.398 859.159,-173.299 856.245,-176.92C854.287,-179.349 853.84,-182.71 854.89,-185.341C857.959,-192.062 868.369,-195.018 869.228,-202.794L857.723,-202.794L857.723,-198.465L854.332,-198.465L854.332,-206.435L873.116,-206.364L873.116,-206.364Z" style="fill-rule:nonzero;"/>
            </g>
        </g>
    </g>
</svg>
