<?xml version="1.0" encoding="UTF-8" standalone="no"?>
<!DOCTYPE svg PUBLIC "-//W3C//DTD SVG 1.1//EN" "http://www.w3.org/Graphics/SVG/1.1/DTD/svg11.dtd">
<svg width="100%" height="100%" viewBox="0 0 228 316" version="1.1" xmlns="http://www.w3.org/2000/svg" xmlns:xlink="http://www.w3.org/1999/xlink" xml:space="preserve" style="fill-rule:evenodd;clip-rule:evenodd;">
    <g transform="matrix(1,0,0,1,-993,-1091)">
        <g transform="matrix(1,0,0,1,0,2187.64)">
            <g id="rect6355-6-85-2-7-5" transform="matrix(0.995538,0,0,0.996801,736.7,-1463.01)">
                <path d="M483.661,380.987C483.661,375.075 478.855,370.276 472.936,370.276L271.158,370.276C265.239,370.276 260.433,375.075 260.433,380.987L260.433,671.375C260.433,677.287 265.239,682.087 271.158,682.087L472.936,682.087C478.855,682.087 483.661,677.287 483.661,671.375L483.661,380.987Z" style="fill:white;stroke:black;stroke-width:1px;"/>
            </g>
            <g id="path147-0-8-1-6-7-2-5-9-2" transform="matrix(1,0,0,1,3.98689,-5.55249)">
                <path d="M1103.1,-1055.37C1093.32,-1055.15 1088.94,-1044.15 1096.18,-1035.6C1097.23,-1034.36 1097.34,-1033.64 1095.41,-1034.84C1090.54,-1038.1 1081.19,-1035.95 1080.71,-1025.99C1080.12,-1013.71 1097.28,-1010.18 1100.5,-1023.23C1100.67,-1024.61 1101.79,-1024.58 1101.52,-1022.62C1101.22,-1017.31 1099.57,-1012.36 1097.29,-1007.52C1101.13,-1007.52 1105.42,-1007.52 1108.91,-1007.52C1106.63,-1012.36 1104.98,-1017.31 1104.68,-1022.62C1104.41,-1024.58 1105.53,-1024.61 1105.7,-1023.23C1108.92,-1010.18 1126.08,-1013.71 1125.48,-1025.99C1125.01,-1035.95 1115.66,-1038.1 1110.79,-1034.84C1108.86,-1033.64 1108.97,-1034.36 1110.02,-1035.6C1117.26,-1044.15 1112.88,-1055.15 1103.1,-1055.37C1103.1,-1055.37 1103.1,-1055.37 1103.09,-1055.37L1103.1,-1055.37Z" style="fill-rule:nonzero;"/>
            </g>
            <g id="path147-0-8-1-6-1-4-3-4-3" transform="matrix(1,0,0,1,3.98689,-5.55249)">
                <path d="M1103.1,-809.732C1093.32,-809.944 1088.94,-820.949 1096.18,-829.495C1097.23,-830.741 1097.34,-831.457 1095.41,-830.259C1090.54,-827 1081.19,-829.143 1080.71,-839.107C1080.12,-851.384 1097.28,-854.921 1100.5,-841.866C1100.67,-840.489 1101.79,-840.52 1101.52,-842.476C1101.22,-847.782 1099.57,-852.742 1097.29,-857.578C1101.13,-857.578 1105.42,-857.578 1108.91,-857.578C1106.63,-852.742 1104.98,-847.782 1104.68,-842.476C1104.41,-840.52 1105.53,-840.489 1105.7,-841.866C1108.92,-854.921 1126.08,-851.384 1125.48,-839.107C1125.01,-829.143 1115.66,-827 1110.79,-830.259C1108.86,-831.457 1108.97,-830.741 1110.02,-829.495C1117.26,-820.949 1112.88,-809.944 1103.1,-809.732C1103.1,-809.732 1103.1,-809.732 1103.09,-809.732L1103.1,-809.732Z" style="fill-rule:nonzero;"/>
            </g>
            <g id="path147-0-8-1-6-1-1-0-4-8-8" transform="matrix(1,0,0,1,3.98689,-5.55249)">
                <path d="M1103.1,-956.471C1093.32,-956.259 1088.94,-945.254 1096.18,-936.708C1097.23,-935.462 1097.34,-934.746 1095.41,-935.944C1090.54,-939.203 1081.19,-937.06 1080.71,-927.096C1080.12,-914.819 1097.28,-911.282 1100.5,-924.337C1100.67,-925.714 1101.79,-925.683 1101.52,-923.727C1101.22,-918.421 1099.57,-913.461 1097.29,-908.625C1101.13,-908.625 1105.42,-908.625 1108.91,-908.625C1106.63,-913.461 1104.98,-918.421 1104.68,-923.727C1104.41,-925.683 1105.53,-925.714 1105.7,-924.337C1108.92,-911.282 1126.08,-914.819 1125.48,-927.096C1125.01,-937.06 1115.66,-939.203 1110.79,-935.944C1108.86,-934.746 1108.97,-935.462 1110.02,-936.708C1117.26,-945.254 1112.88,-956.259 1103.1,-956.471C1103.1,-956.471 1103.1,-956.471 1103.09,-956.471L1103.1,-956.471Z" style="fill-rule:nonzero;"/>
            </g>
            <g id="path147-6-9-8-7-0-5-5-1-4" transform="matrix(1,0,0,1,3.98689,-5.55249)">
                <path d="M1197.08,-827.369C1200.99,-827.458 1202.74,-832.043 1199.85,-835.604C1199.42,-836.123 1199.38,-836.421 1200.15,-835.922C1202.1,-834.564 1205.84,-835.457 1206.03,-839.609C1206.27,-844.724 1199.4,-846.198 1198.12,-840.759C1198.05,-840.185 1197.6,-840.198 1197.71,-841.012C1197.83,-843.223 1198.49,-845.29 1199.4,-847.305C1197.85,-847.305 1196.3,-847.305 1194.75,-847.305C1195.66,-845.29 1196.33,-843.223 1196.44,-841.012C1196.55,-840.198 1196.1,-840.185 1196.04,-840.759C1194.75,-846.198 1187.89,-844.724 1188.12,-839.609C1188.31,-835.457 1192.05,-834.564 1194,-835.922C1194.77,-836.421 1194.73,-836.123 1194.31,-835.604C1191.41,-832.043 1193.16,-827.458 1197.08,-827.369C1197.08,-827.369 1197.08,-827.369 1197.08,-827.369L1197.08,-827.369Z" style="fill-rule:nonzero;"/>
            </g>
            <g id="path147-6-9-8-7-4-5-8-2-3" transform="matrix(1,0,0,1,3.98689,-5.55249)">
                <path d="M1009.12,-1038.56C1005.21,-1038.47 1003.46,-1033.88 1006.36,-1030.32C1006.77,-1029.8 1006.82,-1029.5 1006.05,-1030C1004.1,-1031.36 1000.36,-1030.47 1000.17,-1026.32C999.934,-1021.2 1006.8,-1019.73 1008.08,-1025.17C1008.15,-1025.74 1008.6,-1025.73 1008.49,-1024.91C1008.37,-1022.7 1007.71,-1020.63 1006.8,-1018.62C1008.35,-1018.62 1009.9,-1018.62 1011.45,-1018.62C1010.54,-1020.63 1009.87,-1022.7 1009.76,-1024.91C1009.65,-1025.73 1010.1,-1025.74 1010.16,-1025.17C1011.45,-1019.73 1018.31,-1021.2 1018.08,-1026.32C1017.89,-1030.47 1014.15,-1031.36 1012.2,-1030C1011.43,-1029.5 1011.47,-1029.8 1011.89,-1030.32C1014.79,-1033.88 1013.03,-1038.47 1009.13,-1038.56C1009.12,-1038.56 1009.13,-1038.56 1009.13,-1038.56L1009.12,-1038.56Z" style="fill-rule:nonzero;"/>
            </g>
            <g id="path17-9-7-6-4" transform="matrix(1,0,0,1,3.98689,-5.55249)">
                <path d="M998.461,-1048.89L1000.99,-1050.76C1003.19,-1047.18 1005.64,-1044.82 1009.4,-1045.22C1015.03,-1045.61 1017.37,-1051.53 1016.19,-1055.98C1015.05,-1059.98 1010.38,-1061.93 1006.67,-1059.79C1005.8,-1059.29 1004.95,-1058.88 1004.78,-1058.88C1004.4,-1058.88 1003.52,-1060.63 1003.64,-1061.17C1006.12,-1064.81 1012.17,-1071.18 1012.17,-1071.18L1002.73,-1071.18L1002.73,-1066.91L999.101,-1066.91L999.101,-1074.58L1017.56,-1074.58L1017.56,-1071.98C1017.56,-1071.98 1012.62,-1066.84 1010.98,-1064.03C1015.01,-1063.88 1018.25,-1061.33 1019.42,-1057.29C1020.1,-1055.16 1019.79,-1050.3 1018.9,-1048.2C1017.42,-1044.71 1013.36,-1041.87 1009.64,-1041.71C1003.42,-1041.29 1000.11,-1045.66 998.461,-1048.89L998.461,-1048.89Z" style="fill-rule:nonzero;"/>
            </g>
            <g id="path17-5-0-1-5-7" transform="matrix(1,0,0,1,3.98689,-5.55249)">
                <path d="M1207.74,-817.033L1205.21,-815.171C1203.01,-818.749 1200.56,-821.107 1196.8,-820.702C1191.17,-820.314 1188.83,-814.401 1190.01,-809.945C1191.15,-805.947 1195.82,-803.999 1199.53,-806.131C1200.4,-806.636 1201.25,-807.048 1201.41,-807.048C1201.8,-807.048 1202.68,-805.294 1202.56,-804.759C1200.07,-801.119 1194.03,-794.741 1194.03,-794.741L1203.47,-794.741L1203.47,-799.012L1207.1,-799.012L1207.1,-791.349L1188.64,-791.349L1188.64,-793.949C1188.64,-793.949 1193.58,-799.085 1195.22,-801.898C1191.19,-802.045 1187.95,-804.6 1186.78,-808.638C1186.1,-810.764 1186.41,-815.627 1187.3,-817.724C1188.78,-821.218 1192.84,-824.053 1196.55,-824.216C1202.78,-824.635 1206.09,-820.265 1207.74,-817.033L1207.74,-817.033Z" style="fill-rule:nonzero;"/>
            </g>
        </g>
    </g>
</svg>
