<?xml version="1.0" encoding="UTF-8" standalone="no"?>
<!DOCTYPE svg PUBLIC "-//W3C//DTD SVG 1.1//EN" "http://www.w3.org/Graphics/SVG/1.1/DTD/svg11.dtd">
<svg width="100%" height="100%" viewBox="0 0 228 316" version="1.1" xmlns="http://www.w3.org/2000/svg" xmlns:xlink="http://www.w3.org/1999/xlink" xml:space="preserve" style="fill-rule:evenodd;clip-rule:evenodd;">
    <g transform="matrix(1,0,0,1,-993,-2147)">
        <g transform="matrix(1,0,0,1,0,2187.64)">
            <g id="rect6554-0" transform="matrix(0.995535,0,0,0.996803,8.91229,-8.13974)">
                <path d="M1214.71,-19.733C1214.71,-25.645 1209.91,-30.445 1203.99,-30.445L1002.21,-30.445C996.292,-30.445 991.486,-25.645 991.486,-19.733L991.486,270.654C991.486,276.566 996.292,281.366 1002.21,281.366L1203.99,281.366C1209.91,281.366 1214.71,276.566 1214.71,270.654L1214.71,-19.733Z" style="fill:white;stroke:black;stroke-width:1px;"/>
            </g>
            <g id="path6584-3" transform="matrix(0.995535,0,0,0.996803,8.91229,-8.13974)">
                <path d="M1103.1,50.25C1097.91,41.685 1092.46,33.361 1085.64,26.25C1092.46,19.139 1097.91,10.815 1103.1,2.25C1108.29,10.815 1113.74,19.139 1120.56,26.25C1113.74,33.361 1108.29,41.685 1103.1,50.25Z" style="fill:rgb(212,0,0);fill-rule:nonzero;"/>
            </g>
            <g id="path6586-2" transform="matrix(0.995535,0,0,0.996803,8.91229,-8.13974)">
                <path d="M1008.7,39.528C1006.54,35.96 1004.27,32.491 1001.43,29.528C1004.27,26.566 1006.54,23.097 1008.7,19.528C1010.86,23.097 1013.14,26.566 1015.98,29.528C1013.14,32.491 1010.86,35.96 1008.7,39.528Z" style="fill:rgb(212,0,0);fill-rule:nonzero;"/>
            </g>
            <g id="path6590-7" transform="matrix(0.995535,0,0,0.996803,8.91229,-8.13974)">
                <path d="M1197.5,231.393C1195.34,227.824 1193.06,224.356 1190.22,221.393C1193.06,218.43 1195.34,214.962 1197.5,211.393C1199.66,214.962 1201.93,218.43 1204.77,221.393C1201.93,224.356 1199.66,227.824 1197.5,231.393Z" style="fill:rgb(212,0,0);fill-rule:nonzero;"/>
            </g>
            <g id="path6600-5" transform="matrix(0.995535,0,0,0.996803,8.91229,-8.13974)">
                <path d="M1103.1,149.461C1097.91,140.896 1092.46,132.572 1085.64,125.461C1092.46,118.35 1097.91,110.026 1103.1,101.461C1108.29,110.026 1113.74,118.35 1120.56,125.461C1113.74,132.572 1108.29,140.896 1103.1,149.461Z" style="fill:rgb(212,0,0);fill-rule:nonzero;"/>
            </g>
            <g id="path6606-3" transform="matrix(0.995535,0,0,0.996803,8.91229,-8.13974)">
                <path d="M1103.1,248.671C1097.91,240.106 1092.46,231.782 1085.64,224.671C1092.46,217.56 1097.91,209.236 1103.1,200.671C1108.29,209.236 1113.74,217.56 1120.56,224.671C1113.74,231.782 1108.29,240.106 1103.1,248.671Z" style="fill:rgb(212,0,0);fill-rule:nonzero;"/>
            </g>
            <g id="path17-2-9-4-8" transform="matrix(0.995535,0,0,0.996803,8.91229,-8.13974)">
                <path d="M997.991,9.159L1000.53,7.291C1002.74,10.881 1005.2,13.246 1008.98,12.84C1014.63,12.451 1016.98,6.518 1015.8,2.048C1014.65,-1.963 1009.96,-3.916 1006.24,-1.778C1005.36,-1.271 1004.51,-0.858 1004.34,-0.858C1003.95,-0.858 1003.07,-2.617 1003.19,-3.154C1005.69,-6.806 1011.76,-13.204 1011.76,-13.204L1002.27,-13.204L1002.27,-8.92L998.634,-8.92L998.634,-16.607L1017.18,-16.607L1017.18,-13.999C1017.18,-13.999 1012.21,-8.846 1010.57,-6.025C1014.61,-5.877 1017.87,-3.314 1019.04,0.737C1019.72,2.87 1019.42,7.749 1018.52,9.852C1017.03,13.357 1012.95,16.201 1009.23,16.365C1002.97,16.785 999.649,12.401 997.991,9.159L997.991,9.159Z" style="fill:rgb(212,0,0);fill-rule:nonzero;"/>
            </g>
            <g id="path17-5-3-3-8" transform="matrix(0.995535,0,0,0.996803,8.91229,-8.13974)">
                <path d="M1208.21,241.762L1205.66,243.631C1203.46,240.04 1200.99,237.676 1197.22,238.082C1191.56,238.47 1189.22,244.403 1190.4,248.874C1191.55,252.884 1196.23,254.838 1199.96,252.7C1200.84,252.193 1201.69,251.779 1201.85,251.779C1202.24,251.779 1203.13,253.539 1203.01,254.076C1200.51,257.728 1194.43,264.125 1194.43,264.125L1203.92,264.125L1203.92,259.841L1207.56,259.841L1207.56,267.529L1189.02,267.529L1189.02,264.92C1189.02,264.92 1193.99,259.768 1195.63,256.946C1191.59,256.798 1188.33,254.236 1187.16,250.184C1186.48,248.051 1186.78,243.172 1187.67,241.07C1189.17,237.564 1193.24,234.72 1196.97,234.557C1203.23,234.136 1206.55,238.52 1208.21,241.762L1208.21,241.762Z" style="fill:rgb(212,0,0);fill-rule:nonzero;"/>
            </g>
        </g>
    </g>
</svg>
