<?xml version="1.0" encoding="UTF-8" standalone="no"?>
<!DOCTYPE svg PUBLIC "-//W3C//DTD SVG 1.1//EN" "http://www.w3.org/Graphics/SVG/1.1/DTD/svg11.dtd">
<svg width="100%" height="100%" viewBox="0 0 228 316" version="1.1" xmlns="http://www.w3.org/2000/svg" xmlns:xlink="http://www.w3.org/1999/xlink" xml:space="preserve" style="fill-rule:evenodd;clip-rule:evenodd;">
    <g transform="matrix(1,0,0,1,-993,-1443)">
        <g transform="matrix(1,0,0,1,0,2187.64)">
            <g id="rect9802-4-3" transform="matrix(0.995538,0,0,0.996801,736.7,-1111.2)">
                <path d="M483.661,380.987C483.661,375.075 478.855,370.276 472.936,370.276L271.158,370.276C265.239,370.276 260.433,375.075 260.433,380.987L260.433,671.375C260.433,677.287 265.239,682.087 271.158,682.087L472.936,682.087C478.855,682.087 483.661,677.287 483.661,671.375L483.661,380.987Z" style="fill:white;stroke:black;stroke-width:1px;"/>
            </g>
            <g id="path9834-5-2" transform="matrix(0.995538,0,0,0.996801,1108.08,-532.688)">
                <path d="M-95.397,-140.121C-95.397,-140.121 -97.622,-143.311 -100.623,-147.061C-102.63,-149.571 -104.235,-152.289 -104.385,-154.629C-104.556,-157.303 -102.936,-159.986 -100.002,-160.116C-97.071,-160.246 -95.881,-158.054 -95.397,-156.247C-94.912,-158.054 -93.723,-160.246 -90.791,-160.116C-87.858,-159.986 -86.238,-157.303 -86.409,-154.629C-86.558,-152.289 -88.163,-149.571 -90.171,-147.061C-93.172,-143.311 -95.397,-140.121 -95.397,-140.121L-95.397,-140.121Z" style="fill:rgb(212,0,0);fill-rule:nonzero;"/>
            </g>
            <g id="path9836-5-8" transform="matrix(0.995538,0,0,0.996801,1108.08,-532.688)">
                <path d="M93.398,31.743C93.398,31.743 91.173,34.933 88.172,38.684C86.164,41.193 84.559,43.911 84.41,46.251C84.239,48.925 85.859,51.608 88.792,51.738C91.723,51.868 92.913,49.676 93.398,47.869C93.882,49.676 95.072,51.868 98.003,51.738C100.936,51.608 102.556,48.925 102.385,46.251C102.236,43.911 100.631,41.193 98.623,38.684C95.622,34.933 93.398,31.743 93.398,31.743L93.398,31.743Z" style="fill:rgb(212,0,0);fill-rule:nonzero;"/>
            </g>
            <g id="path9840-3-6" transform="matrix(0.995538,0,0,0.996801,1108.08,-532.688)">
                <path d="M-1,-129.4C-1,-129.4 -5.666,-137.055 -11.961,-146.056C-16.172,-152.079 -19.539,-158.601 -19.852,-164.219C-20.211,-170.636 -16.812,-177.074 -10.66,-177.386C-4.512,-177.698 -2.016,-172.438 -1,-168.102C0.016,-172.438 2.512,-177.698 8.66,-177.386C14.812,-177.074 18.211,-170.636 17.852,-164.219C17.539,-158.601 14.172,-152.079 9.961,-146.056C3.666,-137.055 -1,-129.4 -1,-129.4L-1,-129.4Z" style="fill:rgb(212,0,0);fill-rule:nonzero;"/>
            </g>
            <g id="path9850-2-3" transform="matrix(0.995538,0,0,0.996801,1108.08,-532.688)">
                <path d="M-1,-30.189C-1,-30.189 -5.666,-37.844 -11.961,-46.845C-16.172,-52.868 -19.539,-59.391 -19.852,-65.008C-20.211,-71.426 -16.812,-77.864 -10.66,-78.176C-4.512,-78.488 -2.016,-73.228 -1,-68.891C0.016,-73.228 2.512,-78.488 8.66,-78.176C14.812,-77.864 18.211,-71.426 17.852,-65.008C17.539,-59.391 14.172,-52.868 9.961,-46.845C3.666,-37.844 -1,-30.189 -1,-30.189L-1,-30.189Z" style="fill:rgb(212,0,0);fill-rule:nonzero;"/>
            </g>
            <g id="path9854-8-0" transform="matrix(0.995538,0,0,0.996801,1108.08,-532.688)">
                <path d="M-1,21.022C-1,21.022 -5.666,28.677 -11.961,37.678C-16.172,43.701 -19.539,50.223 -19.852,55.841C-20.211,62.258 -16.812,68.696 -10.66,69.008C-4.512,69.32 -2.016,64.06 -1,59.724C0.016,64.06 2.512,69.32 8.66,69.008C14.812,68.696 18.211,62.258 17.852,55.841C17.539,50.223 14.172,43.701 9.961,37.678C3.666,28.677 -1,21.022 -1,21.022L-1,21.022Z" style="fill:rgb(212,0,0);fill-rule:nonzero;"/>
            </g>
            <g id="path17-2-9-8-4" transform="matrix(0.995538,0,0,0.996801,-10.596,318.486)">
                <path d="M1017.58,-1024.4L1020.12,-1026.26C1022.33,-1022.67 1024.8,-1020.31 1028.57,-1020.72C1034.23,-1021.1 1036.57,-1027.04 1035.39,-1031.51C1034.24,-1035.52 1029.56,-1037.47 1025.83,-1035.33C1024.95,-1034.83 1024.1,-1034.41 1023.94,-1034.41C1023.55,-1034.41 1022.66,-1036.17 1022.78,-1036.71C1025.28,-1040.36 1031.36,-1046.76 1031.36,-1046.76L1021.87,-1046.76L1021.87,-1042.47L1018.23,-1042.47L1018.23,-1050.16L1036.77,-1050.16L1036.77,-1047.55C1036.77,-1047.55 1031.8,-1042.4 1030.16,-1039.58C1034.2,-1039.43 1037.46,-1036.87 1038.63,-1032.82C1039.32,-1030.68 1039.01,-1025.81 1038.12,-1023.7C1036.62,-1020.2 1032.55,-1017.35 1028.82,-1017.19C1022.56,-1016.77 1019.24,-1021.15 1017.58,-1024.4L1017.58,-1024.4Z" style="fill:rgb(212,0,0);fill-rule:nonzero;stroke:black;stroke-width:1px;"/>
            </g>
            <g id="path17-5-3-9-1-3" transform="matrix(0.995538,0,0,0.996801,-10.596,318.486)">
                <path d="M1227.8,-791.793L1225.26,-789.924C1223.05,-793.515 1220.59,-795.88 1216.82,-795.474C1211.15,-795.085 1208.81,-789.152 1209.99,-784.682C1211.14,-780.671 1215.83,-778.717 1219.55,-780.855C1220.43,-781.362 1221.28,-781.776 1221.45,-781.776C1221.84,-781.776 1222.72,-780.016 1222.6,-779.479C1220.1,-775.827 1214.03,-769.43 1214.03,-769.43L1223.52,-769.43L1223.52,-773.714L1227.16,-773.714L1227.16,-766.027L1208.61,-766.027L1208.61,-768.635C1208.61,-768.635 1213.58,-773.787 1215.22,-776.609C1211.18,-776.757 1207.92,-779.32 1206.75,-783.371C1206.07,-785.504 1206.37,-790.383 1207.27,-792.486C1208.76,-795.991 1212.84,-798.835 1216.56,-798.998C1222.82,-799.419 1226.14,-795.035 1227.8,-791.793L1227.8,-791.793Z" style="fill:rgb(212,0,0);fill-rule:nonzero;"/>
            </g>
        </g>
    </g>
</svg>
