<?xml version="1.0" encoding="UTF-8" standalone="no"?>
<!DOCTYPE svg PUBLIC "-//W3C//DTD SVG 1.1//EN" "http://www.w3.org/Graphics/SVG/1.1/DTD/svg11.dtd">
<svg width="100%" height="100%" viewBox="0 0 228 316" version="1.1" xmlns="http://www.w3.org/2000/svg" xmlns:xlink="http://www.w3.org/1999/xlink" xml:space="preserve" style="fill-rule:evenodd;clip-rule:evenodd;">
    <g transform="matrix(1,0,0,1,-993,-1795)">
        <g transform="matrix(1,0,0,1,0,2187.64)">
            <g id="rect6784-5-9" transform="matrix(0.995538,0,0,0.996801,17.5366,79.6016)">
                <path d="M1206.05,-460.696C1206.05,-466.608 1201.24,-471.408 1195.32,-471.408L993.545,-471.408C987.625,-471.408 982.82,-466.608 982.82,-460.696L982.82,-170.309C982.82,-164.397 987.625,-159.597 993.545,-159.597L1195.32,-159.597C1201.24,-159.597 1206.05,-164.397 1206.05,-170.309L1206.05,-460.696Z" style="fill:white;stroke:black;stroke-width:1px;"/>
            </g>
            <g id="path6816-2-4" transform="matrix(0.995538,0,0,0.996801,17.5366,79.6016)">
                <path d="M1000.04,-421.435C995.726,-415.953 991.114,-412.798 991.037,-408.521C991.011,-407.136 991.851,-404.782 994.481,-404.332C996.188,-404.041 998.537,-405.272 998.586,-407.774C998.576,-408.272 999.177,-408.259 999.172,-407.577C999.092,-405.603 998.391,-403.305 997.213,-401.435C999.096,-401.435 1000.98,-401.435 1002.86,-401.435C1001.68,-403.305 1000.98,-405.603 1000.9,-407.577C1000.89,-408.259 1001.5,-408.272 1001.49,-407.774C1001.54,-405.272 1003.89,-404.041 1005.59,-404.332C1008.22,-404.782 1009.06,-407.136 1009.04,-408.521C1008.96,-412.798 1004.35,-415.953 1000.04,-421.435L1000.04,-421.435Z" style="fill-rule:nonzero;"/>
            </g>
            <g id="path6820-0-2" transform="matrix(0.995538,0,0,0.996801,17.5366,79.6016)">
                <path d="M1188.83,-209.57C1184.52,-215.052 1179.91,-218.207 1179.83,-222.484C1179.81,-223.869 1180.65,-226.223 1183.28,-226.674C1184.98,-226.965 1187.33,-225.733 1187.38,-223.231C1187.37,-222.733 1187.97,-222.746 1187.97,-223.428C1187.89,-225.402 1187.18,-227.7 1186.01,-229.57C1187.89,-229.57 1189.77,-229.57 1191.65,-229.57C1190.48,-227.7 1189.78,-225.402 1189.7,-223.428C1189.69,-222.746 1190.29,-222.733 1190.28,-223.231C1190.33,-225.733 1192.68,-226.965 1194.39,-226.674C1197.02,-226.223 1197.86,-223.869 1197.83,-222.484C1197.75,-218.207 1193.14,-215.052 1188.83,-209.57Z" style="fill-rule:nonzero;"/>
            </g>
            <g id="path6828-8-3" transform="matrix(0.995538,0,0,0.996801,17.5366,79.6016)">
                <path d="M1094.43,-438.713C1085.21,-425.556 1075.34,-417.985 1075.17,-407.72C1075.12,-404.396 1076.91,-398.747 1082.54,-397.665C1086.19,-396.967 1091.22,-399.923 1091.33,-405.928C1091.31,-407.123 1092.59,-407.092 1092.58,-405.454C1092.41,-400.717 1090.91,-395.202 1088.39,-390.713C1092.42,-390.713 1096.45,-390.713 1100.48,-390.713C1097.96,-395.202 1096.46,-400.717 1096.29,-405.454C1096.27,-407.092 1097.56,-407.123 1097.54,-405.928C1097.64,-399.923 1102.67,-396.967 1106.32,-397.665C1111.95,-398.747 1113.75,-404.396 1113.69,-407.72C1113.53,-417.985 1103.66,-425.556 1094.43,-438.713L1094.43,-438.713Z" style="fill-rule:nonzero;"/>
            </g>
            <g id="path6842-0-7" transform="matrix(0.995538,0,0,0.996801,17.5366,79.6016)">
                <path d="M1094.43,-192.292C1085.21,-205.449 1075.34,-213.021 1075.17,-223.285C1075.12,-226.609 1076.91,-232.259 1082.54,-233.34C1086.19,-234.038 1091.22,-231.083 1091.33,-225.078C1091.31,-223.882 1092.59,-223.913 1092.58,-225.551C1092.41,-230.288 1090.91,-235.803 1088.39,-240.292C1092.42,-240.292 1096.45,-240.292 1100.48,-240.292C1097.96,-235.803 1096.46,-230.288 1096.29,-225.551C1096.27,-223.913 1097.56,-223.882 1097.54,-225.078C1097.64,-231.083 1102.67,-234.038 1106.32,-233.34C1111.95,-232.259 1113.75,-226.609 1113.69,-223.285C1113.53,-213.021 1103.66,-205.449 1094.43,-192.292L1094.43,-192.292Z" style="fill-rule:nonzero;"/>
            </g>
            <g id="path6844-7-0" transform="matrix(0.995538,0,0,0.996801,17.5366,79.6016)">
                <path d="M1094.43,-339.503C1085.21,-326.346 1075.34,-318.774 1075.17,-308.509C1075.12,-305.185 1076.91,-299.536 1082.54,-298.455C1086.19,-297.756 1091.22,-300.712 1091.33,-306.717C1091.31,-307.913 1092.59,-307.882 1092.58,-306.243C1092.41,-301.507 1090.91,-295.992 1088.39,-291.503C1092.42,-291.503 1096.45,-291.503 1100.48,-291.503C1097.96,-295.992 1096.46,-301.507 1096.29,-306.243C1096.27,-307.882 1097.56,-307.913 1097.54,-306.717C1097.64,-300.712 1102.67,-297.756 1106.32,-298.455C1111.95,-299.536 1113.75,-305.185 1113.69,-308.509C1113.53,-318.774 1103.66,-326.346 1094.43,-339.503L1094.43,-339.503Z" style="fill-rule:nonzero;"/>
            </g>
            <g id="path17-9-11-4" transform="matrix(0.995538,0,0,0.996801,17.5366,79.6016)">
                <path d="M989.325,-431.804L991.866,-433.673C994.071,-430.082 996.537,-427.718 1000.31,-428.123C1005.97,-428.512 1008.31,-434.445 1007.13,-438.916C1005.98,-442.926 1001.3,-444.88 997.572,-442.742C996.692,-442.235 995.844,-441.821 995.678,-441.821C995.287,-441.821 994.403,-443.581 994.523,-444.118C997.024,-447.77 1003.1,-454.167 1003.1,-454.167L993.609,-454.167L993.609,-449.883L989.968,-449.883L989.968,-457.57L1008.51,-457.57L1008.51,-454.962C1008.51,-454.962 1003.54,-449.81 1001.9,-446.988C1005.94,-446.84 1009.2,-444.278 1010.37,-440.226C1011.06,-438.093 1010.75,-433.214 1009.86,-431.112C1008.36,-427.606 1004.29,-424.762 1000.56,-424.599C994.302,-424.178 990.983,-428.562 989.325,-431.804L989.325,-431.804Z" style="fill-rule:nonzero;"/>
            </g>
            <g id="path17-9-1-0-8" transform="matrix(0.995538,0,0,0.996801,17.5366,79.6016)">
                <path d="M1199.54,-199.201L1197,-197.332C1194.79,-200.923 1192.33,-203.288 1188.56,-202.882C1182.9,-202.493 1180.55,-196.56 1181.74,-192.09C1182.88,-188.079 1187.57,-186.125 1191.29,-188.264C1192.17,-188.77 1193.02,-189.184 1193.19,-189.184C1193.58,-189.184 1194.46,-187.424 1194.34,-186.887C1191.84,-183.236 1185.77,-176.838 1185.77,-176.838L1195.26,-176.838L1195.26,-181.122L1198.9,-181.122L1198.9,-173.435L1180.36,-173.435L1180.36,-176.043C1180.36,-176.043 1185.32,-181.195 1186.96,-184.017C1182.92,-184.165 1179.66,-186.728 1178.49,-190.779C1177.81,-192.912 1178.12,-197.791 1179.01,-199.894C1180.5,-203.399 1184.58,-206.243 1188.31,-206.407C1194.56,-206.827 1197.88,-202.443 1199.54,-199.201L1199.54,-199.201Z" style="fill-rule:nonzero;"/>
            </g>
        </g>
    </g>
</svg>
