<?xml version="1.0" encoding="UTF-8" standalone="no"?>
<!DOCTYPE svg PUBLIC "-//W3C//DTD SVG 1.1//EN" "http://www.w3.org/Graphics/SVG/1.1/DTD/svg11.dtd">
<svg width="100%" height="100%" viewBox="0 0 227 316" version="1.1" xmlns="http://www.w3.org/2000/svg" xmlns:xlink="http://www.w3.org/1999/xlink" xml:space="preserve" style="fill-rule:evenodd;clip-rule:evenodd;">
    <g transform="matrix(1,0,0,1,-1257,-1091)">
        <g transform="matrix(1,0,0,1,0,2187.64)">
            <g id="rect6355-6-85-3-72-9" transform="matrix(0.999997,0,0,1,2.99408,-5.55063)">
                <path d="M1478.44,-1077.74C1478.44,-1083.61 1473.68,-1088.37 1467.81,-1088.37L1266.84,-1088.37C1260.97,-1088.37 1256.21,-1083.61 1256.21,-1077.74L1256.21,-788.186C1256.21,-782.319 1260.97,-777.556 1266.84,-777.556L1467.81,-777.556C1473.68,-777.556 1478.44,-782.319 1478.44,-788.186L1478.44,-1077.74Z" style="fill:white;stroke:black;stroke-width:1px;"/>
            </g>
            <g id="path147-0-8-1-6-13-2-06-7" transform="matrix(0.999997,0,0,1,2.99408,-5.55063)">
                <path d="M1418.86,-1055.37C1409.08,-1055.15 1404.7,-1044.15 1411.94,-1035.6C1412.99,-1034.36 1413.1,-1033.64 1411.17,-1034.84C1406.3,-1038.1 1396.95,-1035.95 1396.48,-1025.99C1395.88,-1013.71 1413.04,-1010.18 1416.26,-1023.23C1416.43,-1024.61 1417.55,-1024.58 1417.28,-1022.62C1416.99,-1017.31 1415.33,-1012.36 1413.05,-1007.52C1416.89,-1007.52 1421.18,-1007.52 1424.67,-1007.52C1422.39,-1012.36 1420.74,-1017.31 1420.44,-1022.62C1420.17,-1024.58 1421.29,-1024.61 1421.46,-1023.23C1424.68,-1010.18 1441.84,-1013.71 1441.25,-1025.99C1440.77,-1035.95 1431.42,-1038.1 1426.55,-1034.84C1424.62,-1033.64 1424.73,-1034.36 1425.78,-1035.6C1433.02,-1044.15 1428.64,-1055.15 1418.86,-1055.37C1418.86,-1055.37 1418.86,-1055.37 1418.85,-1055.37L1418.86,-1055.37Z" style="fill-rule:nonzero;"/>
            </g>
            <g id="path147-0-8-1-6-75-2-83-35-3" transform="matrix(0.999997,0,0,1,2.99408,-5.55063)">
                <path d="M1315.79,-1055.37C1306.01,-1055.15 1301.63,-1044.15 1308.87,-1035.6C1309.92,-1034.36 1310.03,-1033.64 1308.1,-1034.84C1303.23,-1038.1 1293.88,-1035.95 1293.4,-1025.99C1292.81,-1013.71 1309.97,-1010.18 1313.19,-1023.23C1313.36,-1024.61 1314.48,-1024.58 1314.21,-1022.62C1313.91,-1017.31 1312.26,-1012.36 1309.98,-1007.52C1313.82,-1007.52 1318.11,-1007.52 1321.6,-1007.52C1319.32,-1012.36 1317.66,-1017.31 1317.37,-1022.62C1317.1,-1024.58 1318.22,-1024.61 1318.39,-1023.23C1321.61,-1010.18 1338.77,-1013.71 1338.17,-1025.99C1337.69,-1035.95 1328.35,-1038.1 1323.48,-1034.84C1321.55,-1033.64 1321.66,-1034.36 1322.71,-1035.6C1329.95,-1044.15 1325.57,-1055.15 1315.79,-1055.37C1315.79,-1055.37 1315.79,-1055.37 1315.78,-1055.37L1315.79,-1055.37Z" style="fill-rule:nonzero;"/>
            </g>
            <g id="path147-0-8-1-6-7-5-5-7-77-6" transform="matrix(0.999997,0,0,1,2.99408,-5.55063)">
                <path d="M1418.86,-809.732C1409.08,-809.944 1404.7,-820.949 1411.94,-829.495C1412.99,-830.742 1413.1,-831.457 1411.17,-830.26C1406.3,-827 1396.95,-829.143 1396.48,-839.107C1395.88,-851.384 1413.04,-854.921 1416.26,-841.866C1416.43,-840.489 1417.55,-840.521 1417.28,-842.476C1416.99,-847.782 1415.33,-852.742 1413.05,-857.578C1416.89,-857.578 1421.18,-857.578 1424.67,-857.578C1422.39,-852.742 1420.74,-847.782 1420.44,-842.476C1420.17,-840.521 1421.29,-840.489 1421.46,-841.866C1424.68,-854.921 1441.84,-851.384 1441.25,-839.107C1440.77,-829.143 1431.42,-827 1426.55,-830.26C1424.62,-831.457 1424.73,-830.742 1425.78,-829.495C1433.02,-820.949 1428.64,-809.944 1418.86,-809.732C1418.86,-809.732 1418.86,-809.732 1418.85,-809.732L1418.86,-809.732Z" style="fill-rule:nonzero;"/>
            </g>
            <g id="path147-0-8-1-6-75-6-1-2-08-0" transform="matrix(0.999997,0,0,1,2.99408,-5.55063)">
                <path d="M1315.79,-809.732C1306.01,-809.944 1301.63,-820.949 1308.87,-829.495C1309.92,-830.742 1310.03,-831.457 1308.1,-830.26C1303.23,-827 1293.88,-829.143 1293.4,-839.107C1292.81,-851.384 1309.97,-854.921 1313.19,-841.866C1313.36,-840.489 1314.48,-840.521 1314.21,-842.476C1313.91,-847.782 1312.26,-852.742 1309.98,-857.578C1313.82,-857.578 1318.11,-857.578 1321.6,-857.578C1319.32,-852.742 1317.66,-847.782 1317.37,-842.476C1317.1,-840.521 1318.22,-840.489 1318.39,-841.866C1321.61,-854.921 1338.77,-851.384 1338.17,-839.107C1337.69,-829.143 1328.35,-827 1323.48,-830.26C1321.55,-831.457 1321.66,-830.742 1322.71,-829.495C1329.95,-820.949 1325.57,-809.944 1315.79,-809.732C1315.79,-809.732 1315.79,-809.732 1315.78,-809.732L1315.79,-809.732Z" style="fill-rule:nonzero;"/>
            </g>
            <g id="path147-6-9-8-7-0-5-6-17-9" transform="matrix(0.999997,0,0,1,2.99408,-5.55063)">
                <path d="M1461.3,-827.369C1465.21,-827.458 1466.97,-832.043 1464.07,-835.604C1463.65,-836.123 1463.61,-836.421 1464.38,-835.922C1466.33,-834.564 1470.06,-835.457 1470.26,-839.609C1470.49,-844.724 1463.63,-846.198 1462.34,-840.759C1462.27,-840.185 1461.83,-840.198 1461.93,-841.012C1462.05,-843.223 1462.71,-845.29 1463.62,-847.305C1462.08,-847.305 1460.53,-847.305 1458.98,-847.305C1459.89,-845.29 1460.55,-843.223 1460.67,-841.012C1460.78,-840.198 1460.33,-840.185 1460.26,-840.759C1458.97,-846.198 1452.11,-844.724 1452.35,-839.609C1452.54,-835.457 1456.28,-834.564 1458.23,-835.922C1459,-836.421 1458.95,-836.123 1458.53,-835.604C1455.64,-832.043 1457.39,-827.458 1461.3,-827.369C1461.3,-827.369 1461.3,-827.369 1461.3,-827.369L1461.3,-827.369Z" style="fill-rule:nonzero;"/>
            </g>
            <g id="path147-6-9-8-7-4-5-62-79-3" transform="matrix(0.999997,0,0,1,2.99408,-5.55063)">
                <path d="M1273.35,-1038.56C1269.44,-1038.47 1267.68,-1033.88 1270.58,-1030.32C1271,-1029.8 1271.04,-1029.5 1270.27,-1030C1268.33,-1031.36 1264.59,-1030.47 1264.39,-1026.32C1264.16,-1021.2 1271.02,-1019.73 1272.31,-1025.17C1272.38,-1025.74 1272.83,-1025.73 1272.72,-1024.91C1272.6,-1022.7 1271.94,-1020.63 1271.03,-1018.62C1272.57,-1018.62 1274.12,-1018.62 1275.67,-1018.62C1274.76,-1020.63 1274.1,-1022.7 1273.98,-1024.91C1273.87,-1025.73 1274.32,-1025.74 1274.39,-1025.17C1275.68,-1019.73 1282.54,-1021.2 1282.3,-1026.32C1282.11,-1030.47 1278.37,-1031.36 1276.42,-1030C1275.65,-1029.5 1275.7,-1029.8 1276.12,-1030.32C1279.01,-1033.88 1277.26,-1038.47 1273.35,-1038.56C1273.35,-1038.56 1273.35,-1038.56 1273.35,-1038.56L1273.35,-1038.56Z" style="fill-rule:nonzero;"/>
            </g>
            <g id="path19-0-7-3" transform="matrix(0.999997,0,0,1,2.99408,-5.55063)">
                <path d="M1273.58,-1041.69L1273.58,-1044.59L1276.2,-1044.59L1276.2,-1049.38L1263.1,-1049.38L1263.1,-1052.77L1277.27,-1074.58L1279.59,-1074.56L1279.59,-1052.77L1283.6,-1052.77L1283.6,-1049.38L1279.59,-1049.38L1279.51,-1044.59L1281.71,-1044.59L1281.71,-1041.68L1273.58,-1041.68L1273.58,-1041.69ZM1276.2,-1066.59L1267.2,-1052.76L1276.2,-1052.76L1276.2,-1066.59Z" style="fill-rule:nonzero;"/>
            </g>
            <g id="path19-4-4-9-1" transform="matrix(0.999997,0,0,1,2.99408,-5.55063)">
                <path d="M1461.07,-824.24L1461.07,-821.334L1458.45,-821.334L1458.45,-816.542L1471.55,-816.542L1471.55,-813.16L1457.38,-791.349L1455.06,-791.361L1455.06,-813.16L1451.05,-813.16L1451.05,-816.542L1455.06,-816.542L1455.14,-821.335L1452.94,-821.335L1452.94,-824.244L1461.07,-824.244L1461.07,-824.24ZM1458.45,-799.334L1467.45,-813.161L1458.45,-813.161L1458.45,-799.334Z" style="fill-rule:nonzero;"/>
            </g>
        </g>
    </g>
</svg>
