<?xml version="1.0" encoding="UTF-8" standalone="no"?>
<!DOCTYPE svg PUBLIC "-//W3C//DTD SVG 1.1//EN" "http://www.w3.org/Graphics/SVG/1.1/DTD/svg11.dtd">
<svg width="100%" height="100%" viewBox="0 0 227 316" version="1.1" xmlns="http://www.w3.org/2000/svg" xmlns:xlink="http://www.w3.org/1999/xlink" xml:space="preserve" style="fill-rule:evenodd;clip-rule:evenodd;">
    <g transform="matrix(1,0,0,1,-1257,-2147)">
        <g transform="matrix(1,0,0,1,0,2187.64)">
            <g id="rect6622-5" transform="matrix(0.995535,0,0,0.996803,9.09544,-8.13974)">
                <path d="M1478.94,-19.733C1478.94,-25.645 1474.13,-30.445 1468.21,-30.445L1266.44,-30.445C1260.52,-30.445 1255.71,-25.645 1255.71,-19.733L1255.71,270.654C1255.71,276.566 1260.52,281.366 1266.44,281.366L1468.21,281.366C1474.13,281.366 1478.94,276.566 1478.94,270.654L1478.94,-19.733Z" style="fill:white;stroke:black;stroke-width:1px;"/>
            </g>
            <g id="path6654-0" transform="matrix(0.995535,0,0,0.996803,9.09544,-8.13974)">
                <path d="M1272.93,39.528C1270.77,35.96 1268.49,32.491 1265.65,29.528C1268.49,26.566 1270.77,23.097 1272.93,19.528C1275.09,23.097 1277.36,26.566 1280.2,29.528C1277.36,32.491 1275.09,35.96 1272.93,39.528Z" style="fill:rgb(212,0,0);fill-rule:nonzero;"/>
            </g>
            <g id="path6656-6" transform="matrix(0.995535,0,0,0.996803,9.09544,-8.13974)">
                <path d="M1419.09,50.25C1413.9,41.685 1408.45,33.361 1401.63,26.25C1408.45,19.139 1413.9,10.815 1419.09,2.25C1424.28,10.815 1429.73,19.139 1436.55,26.25C1429.73,33.361 1424.28,41.685 1419.09,50.25Z" style="fill:rgb(212,0,0);fill-rule:nonzero;"/>
            </g>
            <g id="path6658-8" transform="matrix(0.995535,0,0,0.996803,9.09544,-8.13974)">
                <path d="M1461.72,231.393C1459.56,227.824 1457.29,224.356 1454.45,221.393C1457.29,218.43 1459.56,214.962 1461.72,211.393C1463.88,214.962 1466.16,218.43 1469,221.393C1466.16,224.356 1463.88,227.824 1461.72,231.393Z" style="fill:rgb(212,0,0);fill-rule:nonzero;"/>
            </g>
            <g id="path6660-7" transform="matrix(0.995535,0,0,0.996803,9.09544,-8.13974)">
                <path d="M1315.56,50.25C1310.37,41.685 1304.92,33.361 1298.1,26.25C1304.92,19.139 1310.37,10.815 1315.56,2.25C1320.75,10.815 1326.2,19.139 1333.02,26.25C1326.2,33.361 1320.75,41.685 1315.56,50.25Z" style="fill:rgb(212,0,0);fill-rule:nonzero;"/>
            </g>
            <g id="path6676-4" transform="matrix(0.995535,0,0,0.996803,9.09544,-8.13974)">
                <path d="M1315.56,248.676C1310.37,240.112 1304.92,231.787 1298.1,224.676C1304.92,217.566 1310.37,209.241 1315.56,200.676C1320.75,209.241 1326.2,217.566 1333.02,224.676C1326.2,231.787 1320.75,240.112 1315.56,248.676Z" style="fill:rgb(212,0,0);fill-rule:nonzero;"/>
            </g>
            <g id="path6678-8" transform="matrix(0.995535,0,0,0.996803,9.09544,-8.13974)">
                <path d="M1419.09,248.683C1413.9,240.118 1408.45,231.794 1401.63,224.683C1408.45,217.572 1413.9,209.248 1419.09,200.683C1424.28,209.248 1429.73,217.572 1436.55,224.683C1429.73,231.794 1424.28,240.118 1419.09,248.683Z" style="fill:rgb(212,0,0);fill-rule:nonzero;"/>
            </g>
            <g id="path19-3-1-9-0" transform="matrix(0.995535,0,0,0.996803,9.09544,-8.13974)">
                <path d="M1273.16,16.389L1273.16,13.474L1275.79,13.474L1275.79,8.666L1262.63,8.666L1262.63,5.274L1276.87,-16.607L1279.19,-16.595L1279.19,5.274L1283.22,5.274L1283.22,8.666L1279.19,8.666L1279.12,13.474L1281.32,13.474L1281.32,16.393L1273.16,16.393L1273.16,16.389ZM1275.79,-8.597L1266.75,5.275L1275.79,5.275L1275.79,-8.597Z" style="fill:rgb(212,0,0);fill-rule:nonzero;"/>
            </g>
            <g id="path19-4-46-7-7" transform="matrix(0.995535,0,0,0.996803,9.09544,-8.13974)">
                <path d="M1461.49,234.533L1461.49,237.447L1458.86,237.447L1458.86,242.255L1472.02,242.255L1472.02,245.648L1457.78,267.529L1455.45,267.517L1455.45,245.648L1451.42,245.648L1451.42,242.255L1455.45,242.255L1455.53,237.447L1453.32,237.447L1453.32,234.528L1461.49,234.528L1461.49,234.533ZM1458.86,259.518L1467.9,245.646L1458.86,245.646L1458.86,259.518Z" style="fill:rgb(212,0,0);fill-rule:nonzero;"/>
            </g>
        </g>
    </g>
</svg>
