<?xml version="1.0" encoding="UTF-8" standalone="no"?>
<!DOCTYPE svg PUBLIC "-//W3C//DTD SVG 1.1//EN" "http://www.w3.org/Graphics/SVG/1.1/DTD/svg11.dtd">
<svg width="100%" height="100%" viewBox="0 0 227 316" version="1.1" xmlns="http://www.w3.org/2000/svg" xmlns:xlink="http://www.w3.org/1999/xlink" xml:space="preserve" style="fill-rule:evenodd;clip-rule:evenodd;">
    <g transform="matrix(1,0,0,1,-1257,-1443)">
        <g transform="matrix(1,0,0,1,0,2187.64)">
            <g id="rect9870-7-0" transform="matrix(0.995538,0,0,0.996801,999.928,-1111.2)">
                <path d="M483.661,380.987C483.661,375.075 478.855,370.276 472.936,370.276L271.158,370.276C265.239,370.276 260.433,375.075 260.433,380.987L260.433,671.375C260.433,677.287 265.239,682.087 271.158,682.087L472.936,682.087C478.855,682.087 483.661,677.287 483.661,671.375L483.661,380.987Z" style="fill:white;stroke:black;stroke-width:1px;"/>
            </g>
            <g id="path9902-6-7" transform="matrix(0.995538,0,0,0.996801,1371.31,-532.688)">
                <path d="M-95.397,-140.121C-95.397,-140.124 -97.622,-143.311 -100.623,-147.061C-102.63,-149.571 -104.235,-152.289 -104.385,-154.629C-104.556,-157.303 -102.936,-159.986 -100.002,-160.116C-97.071,-160.246 -95.881,-158.054 -95.397,-156.247C-94.912,-158.054 -93.723,-160.246 -90.791,-160.116C-87.858,-159.986 -86.238,-157.303 -86.409,-154.629C-86.558,-152.289 -88.163,-149.571 -90.171,-147.061C-93.172,-143.311 -95.395,-140.124 -95.397,-140.121L-95.397,-140.121Z" style="fill:rgb(212,0,0);fill-rule:nonzero;"/>
            </g>
            <g id="path9904-6-0" transform="matrix(0.995538,0,0,0.996801,1371.31,-532.688)">
                <path d="M93.398,31.743C93.398,31.746 91.173,34.933 88.172,38.684C86.164,41.193 84.559,43.911 84.41,46.251C84.239,48.925 85.859,51.608 88.792,51.738C91.723,51.868 92.913,49.676 93.398,47.869C93.882,49.676 95.072,51.868 98.003,51.738C100.936,51.608 102.556,48.925 102.385,46.251C102.236,43.911 100.631,41.193 98.623,38.684C95.622,34.933 93.4,31.746 93.398,31.743L93.398,31.743Z" style="fill:rgb(212,0,0);fill-rule:nonzero;"/>
            </g>
            <g id="path9910-2-6" transform="matrix(0.995538,0,0,0.996801,1371.31,-532.688)">
                <path d="M-52.766,-129.4C-52.766,-129.406 -57.433,-137.055 -63.727,-146.056C-67.938,-152.079 -71.305,-158.601 -71.618,-164.219C-71.977,-170.636 -68.579,-177.074 -62.427,-177.386C-56.278,-177.698 -53.782,-172.438 -52.766,-168.102C-51.75,-172.438 -49.255,-177.698 -43.106,-177.386C-36.954,-177.074 -33.556,-170.636 -33.915,-164.219C-34.228,-158.601 -37.594,-152.079 -41.805,-146.056C-48.1,-137.055 -52.762,-129.406 -52.766,-129.4Z" style="fill:rgb(212,0,0);fill-rule:nonzero;"/>
            </g>
            <g id="path9916-8-0" transform="matrix(0.995538,0,0,0.996801,1371.31,-532.688)">
                <path d="M50.766,-129.4C50.766,-129.406 46.1,-137.055 39.805,-146.056C35.594,-152.079 32.228,-158.601 31.915,-164.219C31.556,-170.636 34.954,-177.074 41.106,-177.386C47.255,-177.698 49.75,-172.438 50.766,-168.102C51.782,-172.438 54.278,-177.698 60.427,-177.386C66.579,-177.074 69.977,-170.636 69.618,-164.219C69.305,-158.601 65.938,-152.079 61.727,-146.056C55.433,-137.055 50.77,-129.406 50.766,-129.4Z" style="fill:rgb(212,0,0);fill-rule:nonzero;"/>
            </g>
            <g id="path9930-7-9" transform="matrix(0.995538,0,0,0.996801,1371.31,-532.688)">
                <path d="M50.766,21.022C50.766,21.028 46.1,28.677 39.805,37.678C35.594,43.701 32.228,50.223 31.915,55.841C31.556,62.258 34.954,68.696 41.106,69.008C47.255,69.32 49.75,64.06 50.766,59.724C51.782,64.06 54.278,69.32 60.427,69.008C66.579,68.696 69.977,62.258 69.618,55.841C69.305,50.223 65.938,43.701 61.727,37.678C55.433,28.677 50.77,21.028 50.766,21.022L50.766,21.022Z" style="fill:rgb(212,0,0);fill-rule:nonzero;"/>
            </g>
            <g id="path9932-9-8" transform="matrix(0.995538,0,0,0.996801,1371.31,-532.688)">
                <path d="M-52.766,21.022C-52.766,21.028 -57.433,28.677 -63.727,37.678C-67.938,43.701 -71.305,50.223 -71.618,55.841C-71.977,62.258 -68.579,68.696 -62.427,69.008C-56.278,69.32 -53.782,64.06 -52.766,59.724C-51.75,64.06 -49.255,69.32 -43.106,69.008C-36.954,68.696 -33.556,62.258 -33.915,55.841C-34.228,50.223 -37.594,43.701 -41.805,37.678C-48.1,28.677 -52.762,21.028 -52.766,21.022L-52.766,21.022Z" style="fill:rgb(212,0,0);fill-rule:nonzero;"/>
            </g>
            <g id="path19-3-8-2-9" transform="matrix(0.995538,0,0,0.996801,-31.9383,318.486)">
                <path d="M1314.37,-1017.17L1314.37,-1020.08L1317,-1020.08L1317,-1024.89L1303.84,-1024.89L1303.84,-1028.28L1318.08,-1050.16L1320.41,-1050.15L1320.41,-1028.28L1324.44,-1028.28L1324.44,-1024.89L1320.41,-1024.89L1320.33,-1020.08L1322.54,-1020.08L1322.54,-1017.16L1314.37,-1017.16L1314.37,-1017.17ZM1317,-1042.15L1307.96,-1028.28L1317,-1028.28L1317,-1042.15Z" style="fill:rgb(212,0,0);fill-rule:nonzero;stroke:black;stroke-width:1px;"/>
            </g>
            <g id="path19-4-46-0-1-9" transform="matrix(0.995538,0,0,0.996801,-31.9383,318.486)">
                <path d="M1502.7,-799.023L1502.7,-796.108L1500.07,-796.108L1500.07,-791.3L1513.23,-791.3L1513.23,-787.907L1498.99,-766.026L1496.67,-766.038L1496.67,-787.908L1492.64,-787.908L1492.64,-791.3L1496.67,-791.3L1496.74,-796.108L1494.54,-796.108L1494.54,-799.027L1502.7,-799.027L1502.7,-799.023ZM1500.07,-774.037L1509.11,-787.909L1500.07,-787.909L1500.07,-774.037Z" style="fill:rgb(212,0,0);fill-rule:nonzero;"/>
            </g>
        </g>
    </g>
</svg>
