<?xml version="1.0" encoding="UTF-8" standalone="no"?>
<!DOCTYPE svg PUBLIC "-//W3C//DTD SVG 1.1//EN" "http://www.w3.org/Graphics/SVG/1.1/DTD/svg11.dtd">
<svg width="100%" height="100%" viewBox="0 0 227 316" version="1.1" xmlns="http://www.w3.org/2000/svg" xmlns:xlink="http://www.w3.org/1999/xlink" xml:space="preserve" style="fill-rule:evenodd;clip-rule:evenodd;">
    <g transform="matrix(1,0,0,1,-1257,-1795)">
        <g transform="matrix(1,0,0,1,0,2187.64)">
            <g id="rect6852-0-4" transform="matrix(0.995538,0,0,0.996801,-42.89,79.6016)">
                <path d="M1531.15,-460.696C1531.15,-466.608 1526.35,-471.408 1520.43,-471.408L1318.65,-471.408C1312.73,-471.408 1307.92,-466.608 1307.92,-460.696L1307.92,-170.309C1307.92,-164.397 1312.73,-159.597 1318.65,-159.597L1520.43,-159.597C1526.35,-159.597 1531.15,-164.397 1531.15,-170.309L1531.15,-460.696Z" style="fill:white;stroke:black;stroke-width:1px;"/>
            </g>
            <g id="path6882-1-0" transform="matrix(0.995538,0,0,0.996801,-42.89,79.6016)">
                <path d="M1367.77,-438.713C1358.55,-425.556 1348.67,-417.985 1348.51,-407.72C1348.46,-404.396 1350.25,-398.747 1355.88,-397.665C1359.53,-396.967 1364.56,-399.923 1364.67,-405.928C1364.65,-407.123 1365.93,-407.092 1365.92,-405.454C1365.75,-400.717 1364.25,-395.202 1361.73,-390.713C1365.76,-390.713 1369.79,-390.713 1373.82,-390.713C1371.3,-395.202 1369.8,-400.717 1369.62,-405.454C1369.61,-407.092 1370.89,-407.123 1370.88,-405.928C1370.98,-399.923 1376.01,-396.967 1379.66,-397.665C1385.29,-398.747 1387.09,-404.396 1387.04,-407.72C1386.87,-417.985 1377,-425.556 1367.77,-438.713L1367.77,-438.713Z" style="fill-rule:nonzero;"/>
            </g>
            <g id="path6884-6-5" transform="matrix(0.995538,0,0,0.996801,-42.89,79.6016)">
                <path d="M1325.14,-421.435C1320.83,-415.953 1316.22,-412.798 1316.14,-408.521C1316.12,-407.136 1316.96,-404.782 1319.59,-404.332C1321.29,-404.041 1323.64,-405.272 1323.69,-407.774C1323.68,-408.272 1324.28,-408.259 1324.28,-407.577C1324.2,-405.603 1323.5,-403.305 1322.32,-401.435C1324.2,-401.435 1326.08,-401.435 1327.97,-401.435C1326.79,-403.305 1326.09,-405.603 1326.01,-407.577C1326,-408.259 1326.6,-408.272 1326.59,-407.774C1326.64,-405.272 1328.99,-404.041 1330.7,-404.332C1333.33,-404.782 1334.17,-407.136 1334.14,-408.521C1334.07,-412.798 1329.45,-415.953 1325.14,-421.435Z" style="fill-rule:nonzero;"/>
            </g>
            <g id="path6888-1-5" transform="matrix(0.995538,0,0,0.996801,-42.89,79.6016)">
                <path d="M1513.94,-209.57C1509.63,-215.052 1505.01,-218.207 1504.94,-222.484C1504.91,-223.869 1505.75,-226.223 1508.38,-226.674C1510.09,-226.965 1512.44,-225.733 1512.49,-223.231C1512.48,-222.733 1513.08,-222.746 1513.07,-223.428C1512.99,-225.402 1512.29,-227.7 1511.11,-229.57C1513,-229.57 1514.88,-229.57 1516.76,-229.57C1515.58,-227.7 1514.88,-225.402 1514.8,-223.428C1514.79,-222.746 1515.39,-222.733 1515.39,-223.231C1515.44,-225.733 1517.79,-226.965 1519.49,-226.674C1522.12,-226.223 1522.96,-223.869 1522.94,-222.484C1522.86,-218.207 1518.25,-215.052 1513.94,-209.57Z" style="fill-rule:nonzero;"/>
            </g>
            <g id="path6890-4-9" transform="matrix(0.995538,0,0,0.996801,-42.89,79.6016)">
                <path d="M1471.31,-438.713C1462.08,-425.556 1452.21,-417.985 1452.04,-407.72C1451.99,-404.396 1453.79,-398.747 1459.41,-397.665C1463.07,-396.967 1468.1,-399.923 1468.2,-405.928C1468.18,-407.123 1469.47,-407.092 1469.45,-405.454C1469.28,-400.717 1467.78,-395.202 1465.26,-390.713C1469.29,-390.713 1473.32,-390.713 1477.35,-390.713C1474.83,-395.202 1473.33,-400.717 1473.16,-405.454C1473.14,-407.092 1474.43,-407.123 1474.41,-405.928C1474.52,-399.923 1479.54,-396.967 1483.2,-397.665C1488.83,-398.747 1490.62,-404.396 1490.57,-407.72C1490.4,-417.985 1480.53,-425.556 1471.31,-438.713L1471.31,-438.713Z" style="fill-rule:nonzero;"/>
            </g>
            <g id="path6902-7-5" transform="matrix(0.995538,0,0,0.996801,-42.89,79.6016)">
                <path d="M1367.77,-192.292C1358.55,-205.449 1348.67,-213.021 1348.51,-223.285C1348.46,-226.609 1350.25,-232.259 1355.88,-233.34C1359.53,-234.038 1364.56,-231.083 1364.67,-225.078C1364.65,-223.882 1365.93,-223.913 1365.92,-225.551C1365.75,-230.288 1364.25,-235.803 1361.73,-240.292C1365.76,-240.292 1369.79,-240.292 1373.82,-240.292C1371.3,-235.803 1369.8,-230.288 1369.62,-225.551C1369.61,-223.913 1370.89,-223.882 1370.88,-225.078C1370.98,-231.083 1376.01,-234.038 1379.66,-233.34C1385.29,-232.259 1387.09,-226.609 1387.04,-223.285C1386.87,-213.021 1377,-205.449 1367.77,-192.292L1367.77,-192.292Z" style="fill-rule:nonzero;"/>
            </g>
            <g id="path6904-9-7" transform="matrix(0.995538,0,0,0.996801,-42.89,79.6016)">
                <path d="M1471.31,-192.292C1462.08,-205.449 1452.21,-213.021 1452.04,-223.285C1451.99,-226.609 1453.79,-232.259 1459.41,-233.34C1463.07,-234.038 1468.1,-231.083 1468.2,-225.078C1468.18,-223.882 1469.47,-223.913 1469.45,-225.551C1469.28,-230.288 1467.78,-235.803 1465.26,-240.292C1469.29,-240.292 1473.32,-240.292 1477.35,-240.292C1474.83,-235.803 1473.33,-230.288 1473.16,-225.551C1473.14,-223.913 1474.43,-223.882 1474.41,-225.078C1474.52,-231.083 1479.54,-234.038 1483.2,-233.34C1488.83,-232.259 1490.62,-226.609 1490.57,-223.285C1490.4,-213.021 1480.53,-205.449 1471.31,-192.292L1471.31,-192.292Z" style="fill-rule:nonzero;"/>
            </g>
            <g id="path19-08-0-9" transform="matrix(0.995538,0,0,0.996801,-42.89,79.6016)">
                <path d="M1325.37,-424.575L1325.37,-427.489L1328,-427.489L1328,-432.297L1314.85,-432.297L1314.85,-435.69L1329.08,-457.571L1331.41,-457.559L1331.41,-435.69L1335.44,-435.69L1335.44,-432.297L1331.41,-432.297L1331.33,-427.489L1333.54,-427.489L1333.54,-424.57L1325.37,-424.57L1325.37,-424.575ZM1328,-449.56L1318.96,-435.688L1328,-435.688L1328,-449.56Z" style="fill-rule:nonzero;"/>
            </g>
            <g id="path19-08-1-1-4" transform="matrix(0.995538,0,0,0.996801,-42.89,79.6016)">
                <path d="M1513.71,-206.431L1513.71,-203.516L1511.08,-203.516L1511.08,-198.708L1524.23,-198.708L1524.23,-195.315L1510,-173.435L1507.67,-173.447L1507.67,-195.316L1503.64,-195.316L1503.64,-198.708L1507.67,-198.708L1507.75,-203.516L1505.54,-203.516L1505.54,-206.435L1513.71,-206.435L1513.71,-206.431ZM1511.08,-181.445L1520.12,-195.317L1511.08,-195.317L1511.08,-181.445Z" style="fill-rule:nonzero;"/>
            </g>
        </g>
    </g>
</svg>
