<?xml version="1.0" encoding="UTF-8" standalone="no"?>
<!DOCTYPE svg PUBLIC "-//W3C//DTD SVG 1.1//EN" "http://www.w3.org/Graphics/SVG/1.1/DTD/svg11.dtd">
<svg width="100%" height="100%" viewBox="0 0 227 316" version="1.1" xmlns="http://www.w3.org/2000/svg" xmlns:xlink="http://www.w3.org/1999/xlink" xml:space="preserve" style="fill-rule:evenodd;clip-rule:evenodd;">
    <g transform="matrix(1,0,0,1,-1520,-1091)">
        <g transform="matrix(1,0,0,1,0,2187.64)">
            <g id="rect6355-6-85-3-7-9-4" transform="matrix(0.995538,0,0,0.996801,1263.16,-1463.01)">
                <path d="M483.661,380.987C483.661,375.075 478.855,370.276 472.936,370.276L271.158,370.276C265.239,370.276 260.433,375.075 260.433,380.987L260.433,671.375C260.433,677.287 265.239,682.087 271.158,682.087L472.936,682.087C478.855,682.087 483.661,677.287 483.661,671.375L483.661,380.987Z" style="fill:white;stroke:black;stroke-width:1px;"/>
            </g>
            <g id="path147-0-8-1-6-13-2-8-2-5" transform="matrix(1,0,0,1,1.99336,-5.55239)">
                <path d="M1683.08,-1055.37C1673.31,-1055.15 1668.92,-1044.15 1676.16,-1035.6C1677.21,-1034.36 1677.32,-1033.64 1675.4,-1034.84C1670.52,-1038.1 1661.18,-1035.95 1660.7,-1025.99C1660.11,-1013.71 1677.26,-1010.18 1680.48,-1023.23C1680.65,-1024.61 1681.77,-1024.58 1681.5,-1022.62C1681.21,-1017.32 1679.55,-1012.36 1677.28,-1007.52C1681.11,-1007.52 1685.4,-1007.52 1688.89,-1007.52C1686.62,-1012.36 1684.96,-1017.32 1684.67,-1022.62C1684.4,-1024.58 1685.52,-1024.61 1685.69,-1023.23C1688.91,-1010.18 1706.06,-1013.71 1705.47,-1025.99C1704.99,-1035.95 1695.65,-1038.1 1690.77,-1034.84C1688.85,-1033.64 1688.96,-1034.36 1690.01,-1035.6C1697.25,-1044.15 1692.86,-1055.15 1683.09,-1055.37C1683.09,-1055.37 1683.09,-1055.37 1683.08,-1055.37L1683.08,-1055.37Z" style="fill-rule:nonzero;"/>
            </g>
            <g id="path147-0-8-1-6-75-2-83-7-6-4" transform="matrix(1,0,0,1,1.99336,-5.55239)">
                <path d="M1580.01,-1055.37C1570.24,-1055.15 1565.85,-1044.15 1573.09,-1035.6C1574.14,-1034.36 1574.25,-1033.64 1572.33,-1034.84C1567.45,-1038.1 1558.11,-1035.95 1557.63,-1025.99C1557.04,-1013.71 1574.19,-1010.18 1577.41,-1023.23C1577.58,-1024.61 1578.7,-1024.58 1578.43,-1022.62C1578.14,-1017.32 1576.48,-1012.36 1574.2,-1007.52C1578.04,-1007.52 1582.33,-1007.52 1585.82,-1007.52C1583.55,-1012.36 1581.89,-1017.32 1581.6,-1022.62C1581.33,-1024.58 1582.44,-1024.61 1582.62,-1023.23C1585.84,-1010.18 1602.99,-1013.71 1602.4,-1025.99C1601.92,-1035.95 1592.58,-1038.1 1587.7,-1034.84C1585.78,-1033.64 1585.89,-1034.36 1586.94,-1035.6C1594.18,-1044.15 1589.79,-1055.15 1580.02,-1055.37C1580.02,-1055.37 1580.02,-1055.37 1580.01,-1055.37L1580.01,-1055.37Z" style="fill-rule:nonzero;"/>
            </g>
            <g id="path147-0-8-1-6-7-5-5-7-6-8-5" transform="matrix(1,0,0,1,1.99336,-5.55239)">
                <path d="M1683.08,-809.732C1673.31,-809.944 1668.92,-820.949 1676.16,-829.495C1677.21,-830.742 1677.32,-831.457 1675.4,-830.26C1670.52,-827 1661.18,-829.143 1660.7,-839.107C1660.11,-851.384 1677.26,-854.921 1680.48,-841.867C1680.65,-840.489 1681.77,-840.521 1681.5,-842.476C1681.21,-847.782 1679.55,-852.742 1677.28,-857.578C1681.11,-857.578 1685.4,-857.578 1688.89,-857.578C1686.62,-852.742 1684.96,-847.782 1684.67,-842.476C1684.4,-840.521 1685.52,-840.489 1685.69,-841.867C1688.91,-854.921 1706.06,-851.384 1705.47,-839.107C1704.99,-829.143 1695.65,-827 1690.77,-830.26C1688.85,-831.457 1688.96,-830.742 1690.01,-829.495C1697.25,-820.949 1692.86,-809.944 1683.09,-809.732C1683.09,-809.732 1683.09,-809.732 1683.08,-809.732L1683.08,-809.732Z" style="fill-rule:nonzero;"/>
            </g>
            <g id="path147-0-8-1-6-75-6-1-2-4-9-5" transform="matrix(1,0,0,1,1.99336,-5.55239)">
                <path d="M1580.01,-809.732C1570.24,-809.944 1565.85,-820.949 1573.09,-829.495C1574.14,-830.742 1574.25,-831.457 1572.33,-830.26C1567.45,-827 1558.11,-829.143 1557.63,-839.107C1557.04,-851.384 1574.19,-854.921 1577.41,-841.867C1577.58,-840.489 1578.7,-840.521 1578.43,-842.476C1578.14,-847.782 1576.48,-852.742 1574.2,-857.578C1578.04,-857.578 1582.33,-857.578 1585.82,-857.578C1583.55,-852.742 1581.89,-847.782 1581.6,-842.476C1581.33,-840.521 1582.44,-840.489 1582.62,-841.867C1585.84,-854.921 1602.99,-851.384 1602.4,-839.107C1601.92,-829.143 1592.58,-827 1587.7,-830.26C1585.78,-831.457 1585.89,-830.742 1586.94,-829.495C1594.18,-820.949 1589.79,-809.944 1580.02,-809.732C1580.02,-809.732 1580.02,-809.732 1580.01,-809.732L1580.01,-809.732Z" style="fill-rule:nonzero;"/>
            </g>
            <g id="path147-0-8-1-6-1-1-0-5-6-4-0" transform="matrix(1,0,0,1,1.99336,-5.55239)">
                <path d="M1631.55,-956.472C1621.77,-956.259 1617.39,-945.254 1624.63,-936.708C1625.68,-935.462 1625.79,-934.746 1623.86,-935.944C1618.99,-939.203 1609.64,-937.06 1609.16,-927.096C1608.57,-914.819 1625.73,-911.282 1628.95,-924.337C1629.12,-925.714 1630.24,-925.683 1629.97,-923.728C1629.67,-918.421 1628.02,-913.462 1625.74,-908.625C1629.58,-908.625 1633.87,-908.625 1637.36,-908.625C1635.08,-913.462 1633.42,-918.421 1633.13,-923.728C1632.86,-925.683 1633.98,-925.714 1634.15,-924.337C1637.37,-911.282 1654.53,-914.819 1653.93,-927.096C1653.46,-937.06 1644.11,-939.203 1639.24,-935.944C1637.31,-934.746 1637.42,-935.462 1638.47,-936.708C1645.71,-945.254 1641.33,-956.259 1631.55,-956.472C1631.55,-956.472 1631.55,-956.471 1631.54,-956.472L1631.55,-956.472Z" style="fill-rule:nonzero;"/>
            </g>
            <g id="path147-6-9-8-7-0-5-6-7-4-6" transform="matrix(1,0,0,1,1.99336,-5.55239)">
                <path d="M1725.53,-827.369C1729.44,-827.458 1731.19,-832.043 1728.3,-835.604C1727.88,-836.123 1727.83,-836.421 1728.6,-835.922C1730.55,-834.564 1734.29,-835.457 1734.48,-839.609C1734.72,-844.724 1727.86,-846.198 1726.57,-840.759C1726.5,-840.185 1726.05,-840.198 1726.16,-841.013C1726.28,-843.224 1726.94,-845.29 1727.85,-847.305C1726.3,-847.305 1724.75,-847.305 1723.2,-847.305C1724.11,-845.29 1724.78,-843.224 1724.89,-841.013C1725,-840.198 1724.55,-840.185 1724.49,-840.759C1723.2,-846.198 1716.34,-844.724 1716.57,-839.609C1716.76,-835.457 1720.5,-834.564 1722.45,-835.922C1723.22,-836.421 1723.18,-836.123 1722.76,-835.604C1719.86,-832.043 1721.62,-827.458 1725.53,-827.369C1725.53,-827.369 1725.53,-827.369 1725.53,-827.369L1725.53,-827.369Z" style="fill-rule:nonzero;"/>
            </g>
            <g id="path147-6-9-8-7-4-5-62-2-3-8" transform="matrix(1,0,0,1,1.99336,-5.55239)">
                <path d="M1537.57,-1038.56C1533.66,-1038.47 1531.91,-1033.88 1534.81,-1030.32C1535.23,-1029.8 1535.27,-1029.5 1534.5,-1030C1532.55,-1031.36 1528.81,-1030.47 1528.62,-1026.32C1528.38,-1021.2 1535.25,-1019.73 1536.53,-1025.17C1536.6,-1025.74 1537.05,-1025.73 1536.94,-1024.91C1536.82,-1022.7 1536.16,-1020.63 1535.25,-1018.62C1536.8,-1018.62 1538.35,-1018.62 1539.9,-1018.62C1538.99,-1020.63 1538.32,-1022.7 1538.21,-1024.91C1538.1,-1025.73 1538.55,-1025.74 1538.61,-1025.17C1539.9,-1019.73 1546.77,-1021.2 1546.53,-1026.32C1546.34,-1030.47 1542.6,-1031.36 1540.65,-1030C1539.88,-1029.5 1539.92,-1029.8 1540.34,-1030.32C1543.24,-1033.88 1541.49,-1038.47 1537.58,-1038.56C1537.58,-1038.56 1537.58,-1038.56 1537.58,-1038.56L1537.57,-1038.56Z" style="fill-rule:nonzero;"/>
            </g>
            <g id="path21-39-8-1" transform="matrix(1,0,0,1,1.99336,-5.55239)">
                <path d="M1527.22,-1050.2L1530.44,-1050.23C1531.05,-1048.24 1532.41,-1046.22 1534.26,-1045.66C1539.47,-1044.41 1542.83,-1047.39 1543.93,-1050.81C1545.27,-1054.97 1543.9,-1060.81 1540.31,-1062.88C1537.34,-1064.6 1532.92,-1063.15 1530.89,-1059.47L1528.63,-1060.88L1529.84,-1074.58L1544.58,-1074.58L1544.58,-1071.34L1532.64,-1071.34L1532.45,-1065.63C1535.02,-1067.47 1538.97,-1067.45 1541.54,-1066.16C1546.4,-1063.8 1548.66,-1058.41 1547.72,-1052.07C1546.41,-1045.77 1543.52,-1042.19 1537,-1041.68C1529.75,-1041.62 1527.19,-1046.7 1527.22,-1050.2L1527.22,-1050.2Z" style="fill-rule:nonzero;"/>
            </g>
            <g id="path21-3-4-1-8" transform="matrix(1,0,0,1,1.99336,-5.55239)">
                <path d="M1735.88,-815.728L1732.66,-815.697C1732.05,-817.682 1730.69,-819.7 1728.84,-820.26C1723.63,-821.51 1720.27,-818.537 1719.17,-815.111C1717.83,-810.954 1719.2,-805.118 1722.79,-803.047C1725.76,-801.329 1730.18,-802.778 1732.21,-806.452L1734.47,-805.045L1733.26,-791.349L1718.52,-791.349L1718.52,-794.587L1730.46,-794.587L1730.65,-800.292C1728.08,-798.452 1724.13,-798.471 1721.56,-799.762C1716.7,-802.129 1714.44,-807.51 1715.38,-813.851C1716.69,-820.159 1719.58,-823.733 1726.1,-824.243C1733.35,-824.31 1735.91,-819.225 1735.88,-815.728L1735.88,-815.728Z" style="fill-rule:nonzero;"/>
            </g>
        </g>
    </g>
</svg>
