<?xml version="1.0" encoding="UTF-8" standalone="no"?>
<!DOCTYPE svg PUBLIC "-//W3C//DTD SVG 1.1//EN" "http://www.w3.org/Graphics/SVG/1.1/DTD/svg11.dtd">
<svg width="100%" height="100%" viewBox="0 0 227 316" version="1.1" xmlns="http://www.w3.org/2000/svg" xmlns:xlink="http://www.w3.org/1999/xlink" xml:space="preserve" style="fill-rule:evenodd;clip-rule:evenodd;">
    <g transform="matrix(1,0,0,1,-1520,-2147)">
        <g transform="matrix(1,0,0,1,0,2187.64)">
            <g id="rect6690-8" transform="matrix(0.995535,0,0,0.996803,9.27836,-8.13974)">
                <path d="M1743.16,-19.733C1743.16,-25.645 1738.36,-30.445 1732.44,-30.445L1530.66,-30.445C1524.74,-30.445 1519.94,-25.645 1519.94,-19.733L1519.94,270.654C1519.94,276.566 1524.74,281.366 1530.66,281.366L1732.44,281.366C1738.36,281.366 1743.16,276.566 1743.16,270.654L1743.16,-19.733Z" style="fill:white;stroke:black;stroke-width:1px;"/>
            </g>
            <g id="path6722-9" transform="matrix(0.995535,0,0,0.996803,9.27836,-8.13974)">
                <path d="M1537.15,39.528C1534.99,35.96 1532.72,32.491 1529.88,29.528C1532.72,26.566 1534.99,23.097 1537.15,19.528C1539.31,23.097 1541.59,26.566 1544.43,29.528C1541.59,32.491 1539.31,35.96 1537.15,39.528Z" style="fill:rgb(212,0,0);fill-rule:nonzero;"/>
            </g>
            <g id="path6724-6" transform="matrix(0.995535,0,0,0.996803,9.27836,-8.13974)">
                <path d="M1683.32,50.25C1678.13,41.685 1672.67,33.361 1665.86,26.25C1672.67,19.139 1678.13,10.815 1683.32,2.25C1688.5,10.815 1693.96,19.139 1700.78,26.25C1693.96,33.361 1688.5,41.685 1683.32,50.25Z" style="fill:rgb(212,0,0);fill-rule:nonzero;"/>
            </g>
            <g id="path6726-3" transform="matrix(0.995535,0,0,0.996803,9.27836,-8.13974)">
                <path d="M1725.95,231.393C1723.79,227.824 1721.51,224.356 1718.67,221.393C1721.51,218.43 1723.79,214.962 1725.95,211.393C1728.11,214.962 1730.38,218.43 1733.22,221.393C1730.38,224.356 1728.11,227.824 1725.95,231.393Z" style="fill:rgb(212,0,0);fill-rule:nonzero;"/>
            </g>
            <g id="path6728-7" transform="matrix(0.995535,0,0,0.996803,9.27836,-8.13974)">
                <path d="M1579.78,50.25C1574.6,41.685 1569.14,33.361 1562.32,26.25C1569.14,19.139 1574.6,10.815 1579.78,2.25C1584.97,10.815 1590.43,19.139 1597.24,26.25C1590.43,33.361 1584.97,41.685 1579.78,50.25Z" style="fill:rgb(212,0,0);fill-rule:nonzero;"/>
            </g>
            <g id="path6736-0" transform="matrix(0.995535,0,0,0.996803,9.27836,-8.13974)">
                <path d="M1631.55,149.461C1626.36,140.896 1620.91,132.572 1614.09,125.461C1620.91,118.35 1626.36,110.026 1631.55,101.461C1636.74,110.026 1642.19,118.35 1649.01,125.461C1642.19,132.572 1636.74,140.896 1631.55,149.461Z" style="fill:rgb(212,0,0);fill-rule:nonzero;"/>
            </g>
            <g id="path6744-9" transform="matrix(0.995535,0,0,0.996803,9.27836,-8.13974)">
                <path d="M1579.78,248.676C1574.6,240.112 1569.14,231.787 1562.32,224.676C1569.14,217.566 1574.6,209.241 1579.78,200.676C1584.97,209.241 1590.43,217.566 1597.24,224.676C1590.43,231.787 1584.97,240.112 1579.78,248.676Z" style="fill:rgb(212,0,0);fill-rule:nonzero;"/>
            </g>
            <g id="path6746-2" transform="matrix(0.995535,0,0,0.996803,9.27836,-8.13974)">
                <path d="M1683.32,248.683C1678.13,240.118 1672.67,231.794 1665.86,224.683C1672.67,217.572 1678.13,209.248 1683.32,200.683C1688.5,209.248 1693.96,217.572 1700.78,224.683C1693.96,231.794 1688.5,240.118 1683.32,248.683Z" style="fill:rgb(212,0,0);fill-rule:nonzero;"/>
            </g>
            <g id="path21-9-8-2-7" transform="matrix(0.995535,0,0,0.996803,9.27836,-8.13974)">
                <path d="M1526.75,7.85L1529.99,7.819C1530.6,9.81 1531.97,11.835 1533.82,12.397C1539.06,13.65 1542.43,10.668 1543.54,7.231C1544.88,3.061 1543.51,-2.794 1539.9,-4.872C1536.91,-6.596 1532.48,-5.142 1530.44,-1.456L1528.17,-2.867L1529.39,-16.607L1544.19,-16.607L1544.19,-13.359L1532.19,-13.359L1532,-7.635C1534.59,-9.482 1538.55,-9.462 1541.13,-8.167C1546.02,-5.793 1548.29,-0.395 1547.34,5.967C1546.03,12.295 1543.12,15.88 1536.57,16.392C1529.29,16.459 1526.72,11.358 1526.75,7.85L1526.75,7.85Z" style="fill:rgb(212,0,0);fill-rule:nonzero;"/>
            </g>
            <g id="path21-3-0-8-6" transform="matrix(0.995535,0,0,0.996803,9.27836,-8.13974)">
                <path d="M1736.35,243.072L1733.11,243.103C1732.5,241.111 1731.13,239.086 1729.28,238.525C1724.04,237.271 1720.67,240.253 1719.56,243.691C1718.21,247.86 1719.59,253.715 1723.19,255.794C1726.18,257.517 1730.62,256.063 1732.66,252.377L1734.93,253.789L1733.71,267.529L1718.91,267.529L1718.91,264.281L1730.9,264.281L1731.09,258.557C1728.51,260.403 1724.55,260.384 1721.97,259.088C1717.08,256.714 1714.81,251.316 1715.76,244.954C1717.07,238.627 1719.98,235.041 1726.52,234.529C1733.81,234.462 1736.38,239.563 1736.35,243.071L1736.35,243.072Z" style="fill:rgb(212,0,0);fill-rule:nonzero;"/>
            </g>
        </g>
    </g>
</svg>
