<?xml version="1.0" encoding="UTF-8" standalone="no"?>
<!DOCTYPE svg PUBLIC "-//W3C//DTD SVG 1.1//EN" "http://www.w3.org/Graphics/SVG/1.1/DTD/svg11.dtd">
<svg width="100%" height="100%" viewBox="0 0 227 316" version="1.1" xmlns="http://www.w3.org/2000/svg" xmlns:xlink="http://www.w3.org/1999/xlink" xml:space="preserve" style="fill-rule:evenodd;clip-rule:evenodd;">
    <g transform="matrix(1,0,0,1,-1520,-1443)">
        <g transform="matrix(1,0,0,1,0,2187.64)">
            <g id="rect9938-9-5" transform="matrix(0.995538,0,0,0.996801,1263.16,-1111.2)">
                <path d="M483.661,380.987C483.661,375.075 478.855,370.276 472.936,370.276L271.158,370.276C265.239,370.276 260.433,375.075 260.433,380.987L260.433,671.375C260.433,677.287 265.239,682.087 271.158,682.087L472.936,682.087C478.855,682.087 483.661,677.287 483.661,671.375L483.661,380.987Z" style="fill:white;stroke:black;stroke-width:1px;"/>
            </g>
            <g id="path9970-5-6" transform="matrix(0.995538,0,0,0.996801,1634.54,-532.688)">
                <path d="M-95.397,-140.121C-95.397,-140.121 -97.622,-143.311 -100.623,-147.061C-102.63,-149.571 -104.235,-152.289 -104.385,-154.629C-104.556,-157.303 -102.936,-159.986 -100.002,-160.116C-97.071,-160.246 -95.881,-158.054 -95.397,-156.247C-94.912,-158.054 -93.723,-160.246 -90.791,-160.116C-87.858,-159.986 -86.238,-157.303 -86.409,-154.629C-86.558,-152.289 -88.163,-149.571 -90.171,-147.061C-93.172,-143.311 -95.397,-140.121 -95.397,-140.121L-95.397,-140.121Z" style="fill:rgb(212,0,0);fill-rule:nonzero;"/>
            </g>
            <g id="path9972-9-9" transform="matrix(0.995538,0,0,0.996801,1634.54,-532.688)">
                <path d="M93.398,31.743C93.398,31.743 91.173,34.933 88.172,38.684C86.164,41.193 84.559,43.911 84.41,46.251C84.239,48.925 85.859,51.608 88.792,51.738C91.723,51.868 92.913,49.676 93.398,47.869C93.882,49.676 95.072,51.868 98.003,51.738C100.936,51.608 102.556,48.925 102.385,46.251C102.236,43.911 100.631,41.193 98.623,38.684C95.622,34.933 93.398,31.743 93.398,31.743L93.398,31.743Z" style="fill:rgb(212,0,0);fill-rule:nonzero;"/>
            </g>
            <g id="path9978-0-4" transform="matrix(0.995538,0,0,0.996801,1634.54,-532.688)">
                <path d="M-52.766,-129.4C-52.766,-129.4 -57.433,-137.055 -63.727,-146.056C-67.938,-152.079 -71.305,-158.601 -71.618,-164.219C-71.977,-170.636 -68.579,-177.074 -62.427,-177.386C-56.278,-177.698 -53.782,-172.438 -52.766,-168.102C-51.75,-172.438 -49.255,-177.698 -43.106,-177.386C-36.954,-177.074 -33.556,-170.636 -33.915,-164.219C-34.228,-158.601 -37.594,-152.079 -41.805,-146.056C-48.1,-137.055 -52.766,-129.4 -52.766,-129.4Z" style="fill:rgb(212,0,0);fill-rule:nonzero;"/>
            </g>
            <g id="path9984-9-5" transform="matrix(0.995538,0,0,0.996801,1634.54,-532.688)">
                <path d="M50.766,-129.4C50.766,-129.4 46.1,-137.055 39.805,-146.056C35.594,-152.079 32.228,-158.601 31.915,-164.219C31.556,-170.636 34.954,-177.074 41.106,-177.386C47.255,-177.698 49.75,-172.438 50.766,-168.102C51.782,-172.438 54.278,-177.698 60.427,-177.386C66.579,-177.074 69.977,-170.636 69.618,-164.219C69.305,-158.601 65.938,-152.079 61.727,-146.056C55.433,-137.055 50.766,-129.4 50.766,-129.4Z" style="fill:rgb(212,0,0);fill-rule:nonzero;"/>
            </g>
            <g id="path9986-7-3" transform="matrix(0.995538,0,0,0.996801,1634.54,-532.688)">
                <path d="M-1,-30.189C-1,-30.189 -5.666,-37.844 -11.961,-46.845C-16.172,-52.868 -19.539,-59.391 -19.852,-65.008C-20.211,-71.426 -16.812,-77.864 -10.66,-78.176C-4.512,-78.488 -2.016,-73.228 -1,-68.891C0.016,-73.228 2.512,-78.488 8.66,-78.176C14.812,-77.864 18.211,-71.426 17.852,-65.008C17.539,-59.391 14.172,-52.868 9.961,-46.845C3.666,-37.844 -1,-30.189 -1,-30.189L-1,-30.189Z" style="fill:rgb(212,0,0);fill-rule:nonzero;"/>
            </g>
            <g id="path9998-0-9" transform="matrix(0.995538,0,0,0.996801,1634.54,-532.688)">
                <path d="M50.766,21.022C50.766,21.022 46.1,28.677 39.805,37.678C35.594,43.701 32.228,50.223 31.915,55.841C31.556,62.258 34.954,68.696 41.106,69.008C47.255,69.32 49.75,64.06 50.766,59.724C51.782,64.06 54.278,69.32 60.427,69.008C66.579,68.696 69.977,62.258 69.618,55.841C69.305,50.223 65.938,43.701 61.727,37.678C55.433,28.677 50.766,21.022 50.766,21.022L50.766,21.022Z" style="fill:rgb(212,0,0);fill-rule:nonzero;"/>
            </g>
            <g id="path10000-8-2" transform="matrix(0.995538,0,0,0.996801,1634.54,-532.688)">
                <path d="M-52.766,21.022C-52.766,21.022 -57.433,28.677 -63.727,37.678C-67.938,43.701 -71.305,50.223 -71.618,55.841C-71.977,62.258 -68.579,68.696 -62.427,69.008C-56.278,69.32 -53.782,64.06 -52.766,59.724C-51.75,64.06 -49.255,69.32 -43.106,69.008C-36.954,68.696 -33.556,62.258 -33.915,55.841C-34.228,50.223 -37.594,43.701 -41.805,37.678C-48.1,28.677 -52.766,21.022 -52.766,21.022L-52.766,21.022Z" style="fill:rgb(212,0,0);fill-rule:nonzero;"/>
            </g>
            <g id="path21-9-5-1-8" transform="matrix(0.995538,0,0,0.996801,-53.2805,318.486)">
                <path d="M1589.59,-1025.71L1592.82,-1025.74C1593.44,-1023.75 1594.8,-1021.72 1596.66,-1021.16C1601.89,-1019.9 1605.26,-1022.89 1606.37,-1026.32C1607.72,-1030.49 1606.34,-1036.35 1602.74,-1038.43C1599.75,-1040.15 1595.31,-1038.7 1593.27,-1035.01L1591.01,-1036.42L1592.22,-1050.16L1607.02,-1050.16L1607.02,-1046.91L1595.03,-1046.91L1594.84,-1041.19C1597.42,-1043.04 1601.39,-1043.02 1603.97,-1041.72C1608.86,-1039.35 1611.12,-1033.95 1610.18,-1027.59C1608.86,-1021.26 1605.96,-1017.68 1599.41,-1017.16C1592.12,-1017.1 1589.55,-1022.2 1589.59,-1025.7L1589.59,-1025.71Z" style="fill:rgb(212,0,0);fill-rule:nonzero;stroke:black;stroke-width:1px;"/>
            </g>
            <g id="path21-3-0-6-3-8" transform="matrix(0.995538,0,0,0.996801,-53.2805,318.486)">
                <path d="M1799.18,-790.483L1795.95,-790.452C1795.33,-792.444 1793.97,-794.469 1792.11,-795.03C1786.87,-796.284 1783.5,-793.302 1782.39,-789.864C1781.05,-785.695 1782.42,-779.84 1786.03,-777.761C1789.02,-776.038 1793.46,-777.492 1795.5,-781.178L1797.76,-779.766L1796.55,-766.027L1781.75,-766.027L1781.75,-769.274L1793.74,-769.274L1793.93,-774.998C1791.35,-773.152 1787.38,-773.171 1784.8,-774.467C1779.91,-776.841 1777.64,-782.239 1778.59,-788.601C1779.91,-794.928 1782.81,-798.514 1789.36,-799.026C1796.64,-799.093 1799.21,-793.992 1799.18,-790.484L1799.18,-790.483Z" style="fill:rgb(212,0,0);fill-rule:nonzero;"/>
            </g>
        </g>
    </g>
</svg>
