<?xml version="1.0" encoding="UTF-8" standalone="no"?>
<!DOCTYPE svg PUBLIC "-//W3C//DTD SVG 1.1//EN" "http://www.w3.org/Graphics/SVG/1.1/DTD/svg11.dtd">
<svg width="100%" height="100%" viewBox="0 0 227 316" version="1.1" xmlns="http://www.w3.org/2000/svg" xmlns:xlink="http://www.w3.org/1999/xlink" xml:space="preserve" style="fill-rule:evenodd;clip-rule:evenodd;">
    <g transform="matrix(1,0,0,1,-1520,-1795)">
        <g transform="matrix(1,0,0,1,0,2187.64)">
            <g id="rect6920-5-5" transform="matrix(-0.995538,0,0,-0.996801,3370.4,-549.385)">
                <path d="M1856.26,-460.696C1856.26,-466.608 1851.45,-471.408 1845.53,-471.408L1643.76,-471.408C1637.84,-471.408 1633.03,-466.608 1633.03,-460.696L1633.03,-170.309C1633.03,-164.397 1637.84,-159.597 1643.76,-159.597L1845.53,-159.597C1851.45,-159.597 1856.26,-164.397 1856.26,-170.309L1856.26,-460.696Z" style="fill:white;stroke:black;stroke-width:1px;"/>
            </g>
            <g id="path6950-9-9" transform="matrix(-0.995538,0,0,-0.996801,3370.4,-549.385)">
                <path d="M1692.88,-438.713C1683.65,-425.556 1673.78,-417.985 1673.62,-407.72C1673.56,-404.396 1675.36,-398.747 1680.99,-397.665C1684.64,-396.967 1689.67,-399.923 1689.77,-405.928C1689.76,-407.123 1691.04,-407.092 1691.03,-405.454C1690.86,-400.717 1689.36,-395.202 1686.84,-390.713C1690.86,-390.713 1694.89,-390.713 1698.92,-390.713C1696.4,-395.202 1694.9,-400.717 1694.73,-405.454C1694.72,-407.092 1696,-407.123 1695.98,-405.928C1696.09,-399.923 1701.12,-396.967 1704.77,-397.665C1710.4,-398.747 1712.19,-404.396 1712.14,-407.72C1711.98,-417.985 1702.11,-425.556 1692.88,-438.713L1692.88,-438.713Z" style="fill-rule:nonzero;"/>
            </g>
            <g id="path6952-6-0" transform="matrix(-0.995538,0,0,-0.996801,3370.4,-549.385)">
                <path d="M1650.25,-421.435C1645.94,-415.953 1641.33,-412.798 1641.25,-408.521C1641.22,-407.136 1642.06,-404.782 1644.69,-404.332C1646.4,-404.041 1648.75,-405.272 1648.8,-407.774C1648.79,-408.272 1649.39,-408.259 1649.38,-407.577C1649.3,-405.603 1648.6,-403.305 1647.42,-401.435C1649.31,-401.435 1651.19,-401.435 1653.07,-401.435C1651.89,-403.305 1651.19,-405.603 1651.11,-407.577C1651.1,-408.259 1651.71,-408.272 1651.7,-407.774C1651.75,-405.272 1654.1,-404.041 1655.8,-404.332C1658.43,-404.782 1659.27,-407.136 1659.25,-408.521C1659.17,-412.798 1654.56,-415.953 1650.25,-421.435Z" style="fill-rule:nonzero;"/>
            </g>
            <g id="path6956-5-0" transform="matrix(-0.995538,0,0,-0.996801,3370.4,-549.385)">
                <path d="M1839.04,-209.57C1834.73,-215.052 1830.12,-218.207 1830.04,-222.484C1830.02,-223.869 1830.86,-226.223 1833.49,-226.674C1835.19,-226.965 1837.54,-225.733 1837.59,-223.231C1837.58,-222.733 1838.18,-222.746 1838.18,-223.428C1838.1,-225.402 1837.4,-227.7 1836.22,-229.57C1838.1,-229.57 1839.98,-229.57 1841.87,-229.57C1840.69,-227.7 1839.99,-225.402 1839.91,-223.428C1839.9,-222.746 1840.5,-222.733 1840.49,-223.231C1840.54,-225.733 1842.89,-226.965 1844.6,-226.674C1847.23,-226.223 1848.07,-223.869 1848.04,-222.484C1847.97,-218.207 1843.35,-215.052 1839.04,-209.57Z" style="fill-rule:nonzero;"/>
            </g>
            <g id="path6958-4-1" transform="matrix(-0.995538,0,0,-0.996801,3370.4,-549.385)">
                <path d="M1796.41,-438.713C1787.18,-425.556 1777.31,-417.985 1777.15,-407.72C1777.1,-404.396 1778.89,-398.747 1784.52,-397.665C1788.17,-396.967 1793.2,-399.923 1793.31,-405.928C1793.29,-407.123 1794.57,-407.092 1794.56,-405.454C1794.39,-400.717 1792.89,-395.202 1790.37,-390.713C1794.4,-390.713 1798.43,-390.713 1802.45,-390.713C1799.93,-395.202 1798.43,-400.717 1798.26,-405.454C1798.25,-407.092 1799.53,-407.123 1799.52,-405.928C1799.62,-399.923 1804.65,-396.967 1808.3,-397.665C1813.93,-398.747 1815.73,-404.396 1815.67,-407.72C1815.51,-417.985 1805.64,-425.556 1796.41,-438.713L1796.41,-438.713Z" style="fill-rule:nonzero;"/>
            </g>
            <g id="path6970-5-5" transform="matrix(-0.995538,0,0,-0.996801,3370.4,-549.385)">
                <path d="M1692.88,-192.292C1683.65,-205.449 1673.78,-213.021 1673.62,-223.285C1673.56,-226.609 1675.36,-232.259 1680.99,-233.34C1684.64,-234.038 1689.67,-231.083 1689.77,-225.078C1689.76,-223.882 1691.04,-223.913 1691.03,-225.551C1690.86,-230.288 1689.36,-235.803 1686.84,-240.292C1690.86,-240.292 1694.89,-240.292 1698.92,-240.292C1696.4,-235.803 1694.9,-230.288 1694.73,-225.551C1694.72,-223.913 1696,-223.882 1695.98,-225.078C1696.09,-231.083 1701.12,-234.038 1704.77,-233.34C1710.4,-232.259 1712.19,-226.609 1712.14,-223.285C1711.98,-213.021 1702.11,-205.449 1692.88,-192.292L1692.88,-192.292Z" style="fill-rule:nonzero;"/>
            </g>
            <g id="path6972-5-8" transform="matrix(-0.995538,0,0,-0.996801,3370.4,-549.385)">
                <path d="M1796.41,-192.292C1787.18,-205.449 1777.31,-213.021 1777.15,-223.285C1777.1,-226.609 1778.89,-232.259 1784.52,-233.34C1788.17,-234.038 1793.2,-231.083 1793.31,-225.078C1793.29,-223.882 1794.57,-223.913 1794.56,-225.551C1794.39,-230.288 1792.89,-235.803 1790.37,-240.292C1794.4,-240.292 1798.43,-240.292 1802.45,-240.292C1799.93,-235.803 1798.43,-230.288 1798.26,-225.551C1798.25,-223.913 1799.53,-223.882 1799.52,-225.078C1799.62,-231.083 1804.65,-234.038 1808.3,-233.34C1813.93,-232.259 1815.73,-226.609 1815.67,-223.285C1815.51,-213.021 1805.64,-205.449 1796.41,-192.292L1796.41,-192.292Z" style="fill-rule:nonzero;"/>
            </g>
            <g id="path6980-6-3" transform="matrix(-0.995538,0,0,-0.996801,3370.4,-549.385)">
                <path d="M1744.64,-339.503C1735.42,-326.346 1725.55,-318.774 1725.38,-308.509C1725.33,-305.185 1727.12,-299.536 1732.75,-298.455C1736.41,-297.756 1741.43,-300.712 1741.54,-306.717C1741.52,-307.913 1742.81,-307.882 1742.79,-306.243C1742.62,-301.507 1741.12,-295.992 1738.6,-291.503C1742.63,-291.503 1746.66,-291.503 1750.69,-291.503C1748.17,-295.992 1746.67,-301.507 1746.5,-306.243C1746.49,-307.882 1747.77,-307.913 1747.75,-306.717C1747.86,-300.712 1752.88,-297.756 1756.54,-298.455C1762.16,-299.536 1763.96,-305.185 1763.91,-308.509C1763.74,-318.774 1753.87,-326.346 1744.64,-339.503L1744.64,-339.503Z" style="fill-rule:nonzero;"/>
            </g>
            <g id="path21-4-5-5" transform="matrix(-0.995538,0,0,-0.996801,3370.4,-549.385)">
                <path d="M1639.85,-433.114L1643.08,-433.145C1643.7,-431.153 1645.06,-429.128 1646.92,-428.567C1652.15,-427.313 1655.52,-430.295 1656.63,-433.733C1657.98,-437.902 1656.6,-443.757 1653,-445.836C1650.01,-447.559 1645.57,-446.105 1643.53,-442.419L1641.27,-443.831L1642.48,-457.57L1657.28,-457.57L1657.28,-454.323L1645.29,-454.323L1645.1,-448.599C1647.68,-450.445 1651.65,-450.426 1654.23,-449.13C1659.12,-446.756 1661.39,-441.358 1660.44,-434.996C1659.12,-428.669 1656.22,-425.083 1649.67,-424.571C1642.39,-424.504 1639.81,-429.605 1639.85,-433.113L1639.85,-433.114Z" style="fill-rule:nonzero;"/>
            </g>
            <g id="path21-4-9-2-8" transform="matrix(-0.995538,0,0,-0.996801,3370.4,-549.385)">
                <path d="M1849.44,-197.892L1846.21,-197.861C1845.59,-199.852 1844.23,-201.877 1842.37,-202.439C1837.13,-203.692 1833.76,-200.71 1832.65,-197.273C1831.31,-193.103 1832.68,-187.248 1836.29,-185.17C1839.28,-183.446 1843.72,-184.9 1845.76,-188.586L1848.02,-187.175L1846.81,-173.435L1832.01,-173.435L1832.01,-176.683L1844,-176.683L1844.19,-182.407C1841.61,-180.56 1837.64,-180.58 1835.06,-181.875C1830.17,-184.249 1827.9,-189.647 1828.85,-196.009C1830.17,-202.337 1833.07,-205.922 1839.62,-206.434C1846.9,-206.501 1849.47,-201.4 1849.44,-197.892L1849.44,-197.892Z" style="fill-rule:nonzero;"/>
            </g>
        </g>
    </g>
</svg>
