<?xml version="1.0" encoding="UTF-8" standalone="no"?>
<!DOCTYPE svg PUBLIC "-//W3C//DTD SVG 1.1//EN" "http://www.w3.org/Graphics/SVG/1.1/DTD/svg11.dtd">
<svg width="100%" height="100%" viewBox="0 0 227 316" version="1.1" xmlns="http://www.w3.org/2000/svg" xmlns:xlink="http://www.w3.org/1999/xlink" xml:space="preserve" style="fill-rule:evenodd;clip-rule:evenodd;">
    <g transform="matrix(1,0,0,1,-1783,-1091)">
        <g transform="matrix(1,0,0,1,0,2187.64)">
            <g id="rect6355-6-85-3-2-3-6" transform="matrix(0.999997,0,0,1,1.00207,-5.55051)">
                <path d="M2006.89,-1077.74C2006.89,-1083.61 2002.13,-1088.37 1996.26,-1088.37L1795.29,-1088.37C1789.42,-1088.37 1784.66,-1083.61 1784.66,-1077.74L1784.66,-788.186C1784.66,-782.319 1789.42,-777.556 1795.29,-777.556L1996.26,-777.556C2002.13,-777.556 2006.89,-782.319 2006.89,-788.186L2006.89,-1077.74Z" style="fill:white;stroke:black;stroke-width:1px;"/>
            </g>
            <g id="path147-0-8-1-6-13-2-5-7-1" transform="matrix(0.999997,0,0,1,1.00207,-5.55051)">
                <path d="M1947.31,-1055.37C1937.53,-1055.15 1933.15,-1044.15 1940.39,-1035.6C1941.44,-1034.36 1941.55,-1033.64 1939.62,-1034.84C1934.75,-1038.1 1925.4,-1035.95 1924.92,-1025.99C1924.33,-1013.71 1941.49,-1010.18 1944.71,-1023.23C1944.88,-1024.61 1946,-1024.58 1945.73,-1022.62C1945.43,-1017.31 1943.78,-1012.36 1941.5,-1007.52C1945.34,-1007.52 1949.63,-1007.52 1953.12,-1007.52C1950.84,-1012.36 1949.18,-1017.31 1948.89,-1022.62C1948.62,-1024.58 1949.74,-1024.61 1949.91,-1023.23C1953.13,-1010.18 1970.29,-1013.71 1969.69,-1025.99C1969.22,-1035.95 1959.87,-1038.1 1955,-1034.84C1953.07,-1033.64 1953.18,-1034.36 1954.23,-1035.6C1961.47,-1044.15 1957.09,-1055.15 1947.31,-1055.37C1947.31,-1055.37 1947.31,-1055.37 1947.3,-1055.37L1947.31,-1055.37Z" style="fill-rule:nonzero;"/>
            </g>
            <g id="path147-0-8-1-6-75-2-83-8-8-7" transform="matrix(0.999997,0,0,1,1.00207,-5.55051)">
                <path d="M1844.24,-1055.37C1834.46,-1055.15 1830.08,-1044.15 1837.32,-1035.6C1838.37,-1034.36 1838.48,-1033.64 1836.55,-1034.84C1831.68,-1038.1 1822.33,-1035.95 1821.86,-1025.99C1821.26,-1013.71 1838.42,-1010.18 1841.64,-1023.23C1841.81,-1024.61 1842.93,-1024.58 1842.66,-1022.62C1842.36,-1017.31 1840.71,-1012.36 1838.43,-1007.52C1842.27,-1007.52 1846.56,-1007.52 1850.05,-1007.52C1847.77,-1012.36 1846.12,-1017.31 1845.82,-1022.62C1845.55,-1024.58 1846.67,-1024.61 1846.84,-1023.23C1850.06,-1010.18 1867.22,-1013.71 1866.62,-1025.99C1866.15,-1035.95 1856.8,-1038.1 1851.93,-1034.84C1850,-1033.64 1850.11,-1034.36 1851.16,-1035.6C1858.4,-1044.15 1854.02,-1055.15 1844.24,-1055.37C1844.24,-1055.37 1844.24,-1055.37 1844.23,-1055.37L1844.24,-1055.37Z" style="fill-rule:nonzero;"/>
            </g>
            <g id="path147-0-8-1-6-7-5-5-7-8-7-8" transform="matrix(0.999997,0,0,1,1.00207,-5.55051)">
                <path d="M1947.31,-809.732C1937.53,-809.944 1933.15,-820.949 1940.39,-829.495C1941.44,-830.742 1941.55,-831.457 1939.62,-830.26C1934.75,-827 1925.4,-829.143 1924.92,-839.107C1924.33,-851.384 1941.49,-854.921 1944.71,-841.866C1944.88,-840.489 1946,-840.521 1945.73,-842.476C1945.43,-847.782 1943.78,-852.742 1941.5,-857.578C1945.34,-857.578 1949.63,-857.578 1953.12,-857.578C1950.84,-852.742 1949.18,-847.782 1948.89,-842.476C1948.62,-840.521 1949.74,-840.489 1949.91,-841.866C1953.13,-854.921 1970.29,-851.384 1969.69,-839.107C1969.22,-829.143 1959.87,-827 1955,-830.26C1953.07,-831.457 1953.18,-830.742 1954.23,-829.495C1961.47,-820.949 1957.09,-809.944 1947.31,-809.732C1947.31,-809.732 1947.31,-809.732 1947.3,-809.732L1947.31,-809.732Z" style="fill-rule:nonzero;"/>
            </g>
            <g id="path147-0-8-1-6-75-6-1-2-0-6-8" transform="matrix(0.999997,0,0,1,1.00207,-5.55051)">
                <path d="M1844.24,-809.732C1834.46,-809.944 1830.08,-820.949 1837.32,-829.495C1838.37,-830.742 1838.48,-831.457 1836.55,-830.26C1831.68,-827 1822.33,-829.143 1821.86,-839.107C1821.26,-851.384 1838.42,-854.921 1841.64,-841.866C1841.81,-840.489 1842.93,-840.521 1842.66,-842.476C1842.36,-847.782 1840.71,-852.742 1838.43,-857.578C1842.27,-857.578 1846.56,-857.578 1850.05,-857.578C1847.77,-852.742 1846.12,-847.782 1845.82,-842.476C1845.55,-840.521 1846.67,-840.489 1846.84,-841.866C1850.06,-854.921 1867.22,-851.384 1866.62,-839.107C1866.15,-829.143 1856.8,-827 1851.93,-830.26C1850,-831.457 1850.11,-830.742 1851.16,-829.495C1858.4,-820.949 1854.02,-809.944 1844.24,-809.732C1844.24,-809.732 1844.24,-809.732 1844.23,-809.732L1844.24,-809.732Z" style="fill-rule:nonzero;"/>
            </g>
            <g id="path147-0-8-1-6-7-5-7-3-0-9-6-4" transform="matrix(0.999997,0,0,1,1.00207,-5.55051)">
                <path d="M1947.31,-956.471C1937.53,-956.259 1933.15,-945.254 1940.39,-936.708C1941.44,-935.462 1941.55,-934.746 1939.62,-935.944C1934.75,-939.203 1925.4,-937.06 1924.92,-927.096C1924.33,-914.819 1941.49,-911.282 1944.71,-924.337C1944.88,-925.714 1946,-925.683 1945.73,-923.728C1945.43,-918.421 1943.78,-913.461 1941.5,-908.625C1945.34,-908.625 1949.63,-908.625 1953.12,-908.625C1950.84,-913.461 1949.18,-918.421 1948.89,-923.728C1948.62,-925.683 1949.74,-925.714 1949.91,-924.337C1953.13,-911.282 1970.29,-914.819 1969.69,-927.096C1969.22,-937.06 1959.87,-939.203 1955,-935.944C1953.07,-934.746 1953.18,-935.462 1954.23,-936.708C1961.47,-945.254 1957.09,-956.259 1947.31,-956.471C1947.31,-956.472 1947.31,-956.471 1947.3,-956.471L1947.31,-956.471Z" style="fill-rule:nonzero;"/>
            </g>
            <g id="path147-0-8-1-6-75-6-6-5-3-0-0-2" transform="matrix(0.999997,0,0,1,1.00207,-5.55051)">
                <path d="M1844.24,-956.471C1834.46,-956.259 1830.08,-945.254 1837.32,-936.708C1838.37,-935.462 1838.48,-934.746 1836.55,-935.944C1831.68,-939.203 1822.33,-937.06 1821.86,-927.096C1821.26,-914.819 1838.42,-911.282 1841.64,-924.337C1841.81,-925.714 1842.93,-925.683 1842.66,-923.728C1842.36,-918.421 1840.71,-913.461 1838.43,-908.625C1842.27,-908.625 1846.56,-908.625 1850.05,-908.625C1847.77,-913.461 1846.12,-918.421 1845.82,-923.728C1845.55,-925.683 1846.67,-925.714 1846.84,-924.337C1850.06,-911.282 1867.22,-914.819 1866.62,-927.096C1866.15,-937.06 1856.8,-939.203 1851.93,-935.944C1850,-934.746 1850.11,-935.462 1851.16,-936.708C1858.4,-945.254 1854.02,-956.259 1844.24,-956.471C1844.24,-956.472 1844.24,-956.471 1844.23,-956.471L1844.24,-956.471Z" style="fill-rule:nonzero;"/>
            </g>
            <g id="path147-6-9-8-7-0-5-6-4-2-8" transform="matrix(0.999997,0,0,1,1.00207,-5.55051)">
                <path d="M1989.75,-827.369C1993.66,-827.458 1995.42,-832.043 1992.52,-835.604C1992.1,-836.123 1992.06,-836.421 1992.83,-835.922C1994.78,-834.564 1998.51,-835.457 1998.71,-839.609C1998.94,-844.724 1992.08,-846.198 1990.79,-840.759C1990.72,-840.185 1990.28,-840.198 1990.38,-841.012C1990.5,-843.223 1991.16,-845.29 1992.08,-847.305C1990.53,-847.305 1988.98,-847.305 1987.43,-847.305C1988.34,-845.29 1989,-843.223 1989.12,-841.012C1989.23,-840.198 1988.78,-840.185 1988.71,-840.759C1987.42,-846.198 1980.56,-844.724 1980.8,-839.609C1980.99,-835.457 1984.73,-834.564 1986.68,-835.922C1987.45,-836.421 1987.4,-836.123 1986.98,-835.604C1984.09,-832.043 1985.84,-827.458 1989.75,-827.369C1989.75,-827.369 1989.75,-827.369 1989.75,-827.369L1989.75,-827.369Z" style="fill-rule:nonzero;"/>
            </g>
            <g id="path147-6-9-8-7-4-5-62-0-2-9" transform="matrix(0.999997,0,0,1,1.00207,-5.55051)">
                <path d="M1801.8,-1038.56C1797.89,-1038.47 1796.13,-1033.88 1799.03,-1030.32C1799.45,-1029.8 1799.49,-1029.5 1798.73,-1030C1796.78,-1031.36 1793.04,-1030.47 1792.85,-1026.32C1792.61,-1021.2 1799.47,-1019.73 1800.76,-1025.17C1800.83,-1025.74 1801.28,-1025.73 1801.17,-1024.91C1801.05,-1022.7 1800.39,-1020.63 1799.48,-1018.62C1801.03,-1018.62 1802.57,-1018.62 1804.12,-1018.62C1803.21,-1020.63 1802.55,-1022.7 1802.43,-1024.91C1802.32,-1025.73 1802.77,-1025.74 1802.84,-1025.17C1804.13,-1019.73 1810.99,-1021.2 1810.75,-1026.32C1810.56,-1030.47 1806.82,-1031.36 1804.87,-1030C1804.11,-1029.5 1804.15,-1029.8 1804.57,-1030.32C1807.46,-1033.88 1805.71,-1038.47 1801.8,-1038.56C1801.8,-1038.56 1801.8,-1038.56 1801.8,-1038.56L1801.8,-1038.56Z" style="fill-rule:nonzero;"/>
            </g>
            <g id="path23-8-1-4" transform="matrix(0.999997,0,0,1,1.00207,-5.55051)">
                <path d="M1792.15,-1051.8C1791.75,-1054.57 1791.76,-1061.73 1792.09,-1063.85C1793.11,-1070.33 1795.58,-1073.3 1799.73,-1074.27C1803.75,-1075.21 1809.4,-1074.16 1810.64,-1068.74L1807.28,-1068.67C1805.46,-1072.34 1800.86,-1071.36 1798.26,-1069.77C1796.19,-1068.5 1795.26,-1063.19 1795.66,-1062.87C1795.66,-1062.87 1799.57,-1065.77 1802.66,-1065.56C1809.25,-1064.87 1811.97,-1059.14 1811.74,-1053.73C1811.53,-1047.23 1809.47,-1042.03 1802.48,-1041.68C1795.84,-1041.94 1792.79,-1045.57 1792.15,-1051.8L1792.15,-1051.8ZM1808.54,-1053.52C1808.58,-1058.03 1806.53,-1061.41 1802.66,-1061.79C1798.79,-1062.16 1794.88,-1058.38 1795.15,-1053.78C1795.42,-1049.16 1797.21,-1045.27 1801.9,-1045.29C1806.95,-1045.31 1808.52,-1050.31 1808.54,-1053.52Z" style="fill-rule:nonzero;"/>
            </g>
            <g id="path23-6-8-9-6" transform="matrix(0.999997,0,0,1,1.00207,-5.55051)">
                <path d="M1999.4,-814.124C1999.8,-811.355 1999.79,-804.198 1999.46,-802.081C1998.44,-795.595 1995.97,-792.627 1991.82,-791.658C1987.8,-790.714 1982.14,-791.765 1980.9,-797.186L1984.27,-797.251C1986.09,-793.586 1990.69,-794.565 1993.29,-796.16C1995.36,-797.43 1996.29,-802.733 1995.89,-803.06C1995.89,-803.06 1991.98,-800.157 1988.89,-800.371C1982.3,-801.059 1979.58,-806.785 1979.81,-812.191C1980.02,-818.696 1982.08,-823.898 1989.07,-824.243C1995.71,-823.986 1998.76,-820.359 1999.4,-814.123L1999.4,-814.124ZM1983.01,-812.406C1982.97,-807.894 1985.02,-804.512 1988.89,-804.141C1992.76,-803.768 1996.67,-807.55 1996.4,-812.15C1996.13,-816.77 1994.34,-820.656 1989.65,-820.635C1984.6,-820.615 1983.03,-815.618 1983.01,-812.406Z" style="fill-rule:nonzero;"/>
            </g>
        </g>
    </g>
</svg>
