<?xml version="1.0" encoding="UTF-8" standalone="no"?>
<!DOCTYPE svg PUBLIC "-//W3C//DTD SVG 1.1//EN" "http://www.w3.org/Graphics/SVG/1.1/DTD/svg11.dtd">
<svg width="100%" height="100%" viewBox="0 0 227 316" version="1.1" xmlns="http://www.w3.org/2000/svg" xmlns:xlink="http://www.w3.org/1999/xlink" xml:space="preserve" style="fill-rule:evenodd;clip-rule:evenodd;">
    <g transform="matrix(1,0,0,1,-1783,-2147)">
        <g transform="matrix(1,0,0,1,0,2187.64)">
            <g id="rect6758-6" transform="matrix(0.995535,0,0,0.996803,9.46152,-8.13974)">
                <path d="M2007.39,-19.733C2007.39,-25.645 2002.58,-30.445 1996.66,-30.445L1794.89,-30.445C1788.97,-30.445 1784.16,-25.645 1784.16,-19.733L1784.16,270.654C1784.16,276.566 1788.97,281.366 1794.89,281.366L1996.66,281.366C2002.58,281.366 2007.39,276.566 2007.39,270.654L2007.39,-19.733Z" style="fill:white;stroke:black;stroke-width:1px;"/>
            </g>
            <g id="path6790-5" transform="matrix(0.995535,0,0,0.996803,9.46152,-8.13974)">
                <path d="M1801.38,39.528C1799.22,35.96 1796.94,32.491 1794.1,29.528C1796.94,26.566 1799.22,23.097 1801.38,19.528C1803.54,23.097 1805.81,26.566 1808.65,29.528C1805.81,32.491 1803.54,35.96 1801.38,39.528Z" style="fill:rgb(212,0,0);fill-rule:nonzero;"/>
            </g>
            <g id="path6792-5" transform="matrix(0.995535,0,0,0.996803,9.46152,-8.13974)">
                <path d="M1947.54,50.25C1942.36,41.685 1936.9,33.361 1930.08,26.25C1936.9,19.139 1942.36,10.815 1947.54,2.25C1952.73,10.815 1958.18,19.139 1965,26.25C1958.18,33.361 1952.73,41.685 1947.54,50.25Z" style="fill:rgb(212,0,0);fill-rule:nonzero;"/>
            </g>
            <g id="path6794-1" transform="matrix(0.995535,0,0,0.996803,9.46152,-8.13974)">
                <path d="M1990.17,231.393C1988.01,227.824 1985.74,224.356 1982.9,221.393C1985.74,218.43 1988.01,214.962 1990.17,211.393C1992.33,214.962 1994.61,218.43 1997.45,221.393C1994.61,224.356 1992.33,227.824 1990.17,231.393Z" style="fill:rgb(212,0,0);fill-rule:nonzero;"/>
            </g>
            <g id="path6796-2" transform="matrix(0.995535,0,0,0.996803,9.46152,-8.13974)">
                <path d="M1844.01,50.25C1838.82,41.685 1833.37,33.361 1826.55,26.25C1833.37,19.139 1838.82,10.815 1844.01,2.25C1849.19,10.815 1854.65,19.139 1861.47,26.25C1854.65,33.361 1849.19,41.685 1844.01,50.25Z" style="fill:rgb(212,0,0);fill-rule:nonzero;"/>
            </g>
            <g id="path6806-6" transform="matrix(0.995535,0,0,0.996803,9.46152,-8.13974)">
                <path d="M1844.01,149.428C1838.82,140.863 1833.37,132.539 1826.55,125.428C1833.37,118.317 1838.82,109.993 1844.01,101.428C1849.19,109.993 1854.65,118.317 1861.47,125.428C1854.65,132.539 1849.19,140.863 1844.01,149.428Z" style="fill:rgb(212,0,0);fill-rule:nonzero;"/>
            </g>
            <g id="path6808-6" transform="matrix(0.995535,0,0,0.996803,9.46152,-8.13974)">
                <path d="M1947.54,149.444C1942.36,140.879 1936.9,132.555 1930.08,125.444C1936.9,118.333 1942.36,110.009 1947.54,101.444C1952.73,110.009 1958.18,118.333 1965,125.444C1958.18,132.555 1952.73,140.879 1947.54,149.444Z" style="fill:rgb(212,0,0);fill-rule:nonzero;"/>
            </g>
            <g id="path6812-0" transform="matrix(0.995535,0,0,0.996803,9.46152,-8.13974)">
                <path d="M1844.01,248.676C1838.82,240.112 1833.37,231.787 1826.55,224.676C1833.37,217.566 1838.82,209.241 1844.01,200.676C1849.19,209.241 1854.65,217.566 1861.47,224.676C1854.65,231.787 1849.19,240.112 1844.01,248.676Z" style="fill:rgb(212,0,0);fill-rule:nonzero;"/>
            </g>
            <g id="path6814-4" transform="matrix(0.995535,0,0,0.996803,9.46152,-8.13974)">
                <path d="M1947.54,248.683C1942.36,240.118 1936.9,231.794 1930.08,224.683C1936.9,217.572 1942.36,209.248 1947.54,200.683C1952.73,209.248 1958.18,217.572 1965,224.683C1958.18,231.794 1952.73,240.118 1947.54,248.683Z" style="fill:rgb(212,0,0);fill-rule:nonzero;"/>
            </g>
            <g id="path23-5-3-5-5" transform="matrix(0.995535,0,0,0.996803,9.46152,-8.13974)">
                <path d="M1791.69,6.24C1791.28,3.463 1791.29,-3.717 1791.62,-5.841C1792.65,-12.348 1795.13,-15.326 1799.3,-16.298C1803.34,-17.245 1809.02,-16.19 1810.26,-10.752L1806.88,-10.686C1805.06,-14.363 1800.43,-13.381 1797.82,-11.781C1795.75,-10.507 1794.81,-5.186 1795.21,-4.859C1795.21,-4.859 1799.14,-7.771 1802.24,-7.556C1808.86,-6.866 1811.6,-1.121 1811.36,4.303C1811.15,10.828 1809.08,16.046 1802.06,16.393C1795.39,16.135 1792.33,12.496 1791.69,6.241L1791.69,6.24ZM1808.15,4.517C1808.18,-0.01 1806.13,-3.403 1802.24,-3.775C1798.35,-4.15 1794.43,-0.355 1794.7,4.26C1794.97,8.894 1796.76,12.793 1801.48,12.772C1806.55,12.752 1808.12,7.739 1808.15,4.517L1808.15,4.517Z" style="fill:rgb(212,0,0);fill-rule:nonzero;"/>
            </g>
            <g id="path23-6-5-6-6" transform="matrix(0.995535,0,0,0.996803,9.46152,-8.13974)">
                <path d="M1999.86,244.681C2000.27,247.458 2000.26,254.638 1999.93,256.762C1998.9,263.269 1996.42,266.247 1992.25,267.219C1988.21,268.165 1982.53,267.111 1981.28,261.673L1984.66,261.608C1986.49,265.285 1991.12,264.303 1993.72,262.703C1995.8,261.428 1996.74,256.108 1996.34,255.78C1996.34,255.78 1992.41,258.693 1989.31,258.478C1982.68,257.788 1979.95,252.043 1980.18,246.619C1980.39,240.094 1982.46,234.876 1989.49,234.529C1996.16,234.787 1999.22,238.426 1999.86,244.681L1999.86,244.681ZM1983.4,246.404C1983.36,250.931 1985.42,254.324 1989.31,254.696C1993.2,255.07 1997.12,251.275 1996.85,246.661C1996.58,242.027 1994.78,238.128 1990.07,238.149C1985,238.169 1983.42,243.182 1983.4,246.404Z" style="fill:rgb(212,0,0);fill-rule:nonzero;"/>
            </g>
        </g>
    </g>
</svg>
