<?xml version="1.0" encoding="UTF-8" standalone="no"?>
<!DOCTYPE svg PUBLIC "-//W3C//DTD SVG 1.1//EN" "http://www.w3.org/Graphics/SVG/1.1/DTD/svg11.dtd">
<svg width="100%" height="100%" viewBox="0 0 227 316" version="1.1" xmlns="http://www.w3.org/2000/svg" xmlns:xlink="http://www.w3.org/1999/xlink" xml:space="preserve" style="fill-rule:evenodd;clip-rule:evenodd;">
    <g transform="matrix(1,0,0,1,-1783,-1443)">
        <g transform="matrix(1,0,0,1,0,2187.64)">
            <g id="rect10006-6-1" transform="matrix(0.995538,0,0,0.996801,1526.38,-1111.2)">
                <path d="M483.661,380.987C483.661,375.075 478.855,370.276 472.936,370.276L271.158,370.276C265.239,370.276 260.433,375.075 260.433,380.987L260.433,671.375C260.433,677.287 265.239,682.087 271.158,682.087L472.936,682.087C478.855,682.087 483.661,677.287 483.661,671.375L483.661,380.987Z" style="fill:white;stroke:black;stroke-width:1px;"/>
            </g>
            <g id="path10038-5-0" transform="matrix(0.995538,0,0,0.996801,1897.77,-532.688)">
                <path d="M-95.397,-140.121C-95.397,-140.121 -97.622,-143.311 -100.623,-147.061C-102.63,-149.571 -104.235,-152.289 -104.385,-154.629C-104.556,-157.303 -102.936,-159.986 -100.002,-160.116C-97.071,-160.246 -95.881,-158.054 -95.397,-156.247C-94.912,-158.054 -93.723,-160.246 -90.791,-160.116C-87.858,-159.986 -86.238,-157.303 -86.409,-154.629C-86.558,-152.289 -88.163,-149.571 -90.171,-147.061C-93.172,-143.311 -95.397,-140.121 -95.397,-140.121L-95.397,-140.121Z" style="fill:rgb(212,0,0);fill-rule:nonzero;"/>
            </g>
            <g id="path10040-7-6" transform="matrix(0.995538,0,0,0.996801,1897.77,-532.688)">
                <path d="M93.398,31.743C93.398,31.743 91.173,34.933 88.172,38.684C86.164,41.193 84.559,43.911 84.41,46.251C84.239,48.925 85.859,51.608 88.792,51.738C91.723,51.868 92.913,49.676 93.398,47.869C93.882,49.676 95.072,51.868 98.003,51.738C100.936,51.608 102.556,48.925 102.385,46.251C102.236,43.911 100.631,41.193 98.623,38.684C95.622,34.933 93.398,31.743 93.398,31.743L93.398,31.743Z" style="fill:rgb(212,0,0);fill-rule:nonzero;"/>
            </g>
            <g id="path10046-1-1" transform="matrix(0.995538,0,0,0.996801,1897.77,-532.688)">
                <path d="M-52.766,-129.4C-52.766,-129.4 -57.433,-137.055 -63.727,-146.056C-67.938,-152.079 -71.305,-158.601 -71.618,-164.219C-71.977,-170.636 -68.579,-177.074 -62.427,-177.386C-56.278,-177.698 -53.782,-172.438 -52.766,-168.102C-51.75,-172.438 -49.255,-177.698 -43.106,-177.386C-36.954,-177.074 -33.556,-170.636 -33.915,-164.219C-34.228,-158.601 -37.594,-152.079 -41.805,-146.056C-48.1,-137.055 -52.766,-129.4 -52.766,-129.4Z" style="fill:rgb(212,0,0);fill-rule:nonzero;"/>
            </g>
            <g id="path10048-2-0" transform="matrix(0.995538,0,0,0.996801,1897.77,-532.688)">
                <path d="M50.766,-30.189C50.766,-30.189 46.1,-37.844 39.805,-46.845C35.594,-52.868 32.228,-59.391 31.915,-65.008C31.556,-71.426 34.954,-77.864 41.106,-78.176C47.255,-78.488 49.75,-73.228 50.766,-68.891C51.782,-73.228 54.278,-78.488 60.427,-78.176C66.579,-77.864 69.977,-71.426 69.618,-65.008C69.305,-59.391 65.938,-52.868 61.727,-46.845C55.433,-37.844 50.766,-30.189 50.766,-30.189L50.766,-30.189Z" style="fill:rgb(212,0,0);fill-rule:nonzero;"/>
            </g>
            <g id="path10052-3-1" transform="matrix(0.995538,0,0,0.996801,1897.77,-532.688)">
                <path d="M50.766,-129.4C50.766,-129.4 46.1,-137.055 39.805,-146.056C35.594,-152.079 32.228,-158.601 31.915,-164.219C31.556,-170.636 34.954,-177.074 41.106,-177.386C47.255,-177.698 49.75,-172.438 50.766,-168.102C51.782,-172.438 54.278,-177.698 60.427,-177.386C66.579,-177.074 69.977,-170.636 69.618,-164.219C69.305,-158.601 65.938,-152.079 61.727,-146.056C55.433,-137.055 50.766,-129.4 50.766,-129.4Z" style="fill:rgb(212,0,0);fill-rule:nonzero;"/>
            </g>
            <g id="path10056-4-2" transform="matrix(0.995538,0,0,0.996801,1897.77,-532.688)">
                <path d="M-52.766,-30.189C-52.766,-30.189 -57.433,-37.844 -63.727,-46.845C-67.938,-52.868 -71.305,-59.391 -71.618,-65.008C-71.977,-71.426 -68.579,-77.864 -62.427,-78.176C-56.278,-78.488 -53.782,-73.228 -52.766,-68.891C-51.75,-73.228 -49.255,-78.488 -43.106,-78.176C-36.954,-77.864 -33.556,-71.426 -33.915,-65.008C-34.228,-59.391 -37.594,-52.868 -41.805,-46.845C-48.1,-37.844 -52.766,-30.189 -52.766,-30.189L-52.766,-30.189Z" style="fill:rgb(212,0,0);fill-rule:nonzero;"/>
            </g>
            <g id="path10066-9-2" transform="matrix(0.995538,0,0,0.996801,1897.77,-532.688)">
                <path d="M50.766,21.022C50.766,21.022 46.1,28.677 39.805,37.678C35.594,43.701 32.228,50.223 31.915,55.841C31.556,62.258 34.954,68.696 41.106,69.008C47.255,69.32 49.75,64.06 50.766,59.724C51.782,64.06 54.278,69.32 60.427,69.008C66.579,68.696 69.977,62.258 69.618,55.841C69.305,50.223 65.938,43.701 61.727,37.678C55.433,28.677 50.766,21.022 50.766,21.022L50.766,21.022Z" style="fill:rgb(212,0,0);fill-rule:nonzero;"/>
            </g>
            <g id="path10068-1-2" transform="matrix(0.995538,0,0,0.996801,1897.77,-532.688)">
                <path d="M-52.766,21.022C-52.766,21.022 -57.433,28.677 -63.727,37.678C-67.938,43.701 -71.305,50.223 -71.618,55.841C-71.977,62.258 -68.579,68.696 -62.427,69.008C-56.278,69.32 -53.782,64.06 -52.766,59.724C-51.75,64.06 -49.255,69.32 -43.106,69.008C-36.954,68.696 -33.556,62.258 -33.915,55.841C-34.228,50.223 -37.594,43.701 -41.805,37.678C-48.1,28.677 -52.766,21.022 -52.766,21.022L-52.766,21.022Z" style="fill:rgb(212,0,0);fill-rule:nonzero;"/>
            </g>
            <g id="path23-5-2-7-3" transform="matrix(0.995538,0,0,0.996801,-74.6229,318.486)">
                <path d="M1876.14,-1027.31C1875.74,-1030.09 1875.75,-1037.27 1876.08,-1039.4C1877.1,-1045.9 1879.59,-1048.88 1883.75,-1049.85C1887.79,-1050.8 1893.47,-1049.75 1894.72,-1044.31L1891.34,-1044.24C1889.51,-1047.92 1884.89,-1046.94 1882.28,-1045.34C1880.2,-1044.06 1879.26,-1038.74 1879.66,-1038.41C1879.66,-1038.41 1883.6,-1041.33 1886.69,-1041.11C1893.32,-1040.42 1896.05,-1034.68 1895.82,-1029.25C1895.61,-1022.73 1893.54,-1017.51 1886.52,-1017.16C1879.84,-1017.42 1876.79,-1021.06 1876.14,-1027.32L1876.14,-1027.31ZM1892.61,-1029.04C1892.64,-1033.57 1890.59,-1036.96 1886.69,-1037.33C1882.81,-1037.7 1878.88,-1033.91 1879.15,-1029.3C1879.43,-1024.66 1881.22,-1020.76 1885.94,-1020.78C1891.01,-1020.8 1892.58,-1025.82 1892.61,-1029.04Z" style="fill:rgb(212,0,0);fill-rule:nonzero;stroke:black;stroke-width:1px;"/>
            </g>
            <g id="path23-6-5-1-7-1" transform="matrix(0.995538,0,0,0.996801,-74.6229,318.486)">
                <path d="M2084.32,-788.874C2084.72,-786.097 2084.71,-778.917 2084.38,-776.793C2083.36,-770.286 2080.87,-767.308 2076.71,-766.337C2072.67,-765.39 2066.99,-766.444 2065.74,-771.882L2069.12,-771.947C2070.95,-768.27 2075.57,-769.252 2078.18,-770.853C2080.26,-772.127 2081.2,-777.447 2080.8,-777.775C2080.8,-777.775 2076.87,-774.862 2073.76,-775.077C2067.14,-775.767 2064.41,-781.512 2064.64,-786.936C2064.85,-793.461 2066.92,-798.679 2073.94,-799.026C2080.62,-798.768 2083.68,-795.129 2084.32,-788.874L2084.32,-788.874ZM2067.86,-787.151C2067.82,-782.624 2069.87,-779.231 2073.76,-778.859C2077.65,-778.485 2081.58,-782.28 2081.3,-786.894C2081.03,-791.529 2079.24,-795.427 2074.52,-795.406C2069.45,-795.386 2067.88,-790.374 2067.86,-787.151L2067.86,-787.151Z" style="fill:rgb(212,0,0);fill-rule:nonzero;"/>
            </g>
        </g>
    </g>
</svg>
