<?xml version="1.0" encoding="UTF-8" standalone="no"?>
<!DOCTYPE svg PUBLIC "-//W3C//DTD SVG 1.1//EN" "http://www.w3.org/Graphics/SVG/1.1/DTD/svg11.dtd">
<svg width="100%" height="100%" viewBox="0 0 227 316" version="1.1" xmlns="http://www.w3.org/2000/svg" xmlns:xlink="http://www.w3.org/1999/xlink" xml:space="preserve" style="fill-rule:evenodd;clip-rule:evenodd;">
    <g transform="matrix(1,0,0,1,-1783,-1795)">
        <g transform="matrix(1,0,0,1,0,2187.64)">
            <g id="rect6988-1-0" transform="matrix(0.995538,0,0,0.996801,-163.743,79.6016)">
                <path d="M2181.37,-460.696C2181.37,-466.608 2176.56,-471.408 2170.64,-471.408L1968.86,-471.408C1962.94,-471.408 1958.14,-466.608 1958.14,-460.696L1958.14,-170.309C1958.14,-164.397 1962.94,-159.597 1968.86,-159.597L2170.64,-159.597C2176.56,-159.597 2181.37,-164.397 2181.37,-170.309L2181.37,-460.696Z" style="fill:white;stroke:black;stroke-width:1px;"/>
            </g>
            <g id="path7018-7-4" transform="matrix(0.995538,0,0,0.996801,-163.743,79.6016)">
                <path d="M2017.98,-438.713C2008.76,-425.556 1998.89,-417.985 1998.72,-407.72C1998.67,-404.396 2000.47,-398.747 2006.09,-397.665C2009.75,-396.967 2014.77,-399.923 2014.88,-405.928C2014.86,-407.123 2016.14,-407.092 2016.13,-405.454C2015.96,-400.717 2014.46,-395.202 2011.94,-390.713C2015.97,-390.713 2020,-390.713 2024.03,-390.713C2021.51,-395.202 2020.01,-400.717 2019.84,-405.454C2019.82,-407.092 2021.11,-407.123 2021.09,-405.928C2021.19,-399.923 2026.22,-396.967 2029.88,-397.665C2035.5,-398.747 2037.3,-404.396 2037.25,-407.72C2037.08,-417.985 2027.21,-425.556 2017.98,-438.713L2017.98,-438.713Z" style="fill-rule:nonzero;"/>
            </g>
            <g id="path7020-0-8" transform="matrix(0.995538,0,0,0.996801,-163.743,79.6016)">
                <path d="M1975.35,-421.435C1971.04,-415.953 1966.43,-412.798 1966.35,-408.521C1966.33,-407.136 1967.17,-404.782 1969.8,-404.332C1971.51,-404.041 1973.85,-405.272 1973.9,-407.774C1973.89,-408.272 1974.49,-408.259 1974.49,-407.577C1974.41,-405.603 1973.71,-403.305 1972.53,-401.435C1974.41,-401.435 1976.3,-401.435 1978.18,-401.435C1977,-403.305 1976.3,-405.603 1976.22,-407.577C1976.21,-408.259 1976.81,-408.272 1976.81,-407.774C1976.85,-405.272 1979.2,-404.041 1980.91,-404.332C1983.54,-404.782 1984.38,-407.136 1984.35,-408.521C1984.28,-412.798 1979.66,-415.953 1975.35,-421.435Z" style="fill-rule:nonzero;"/>
            </g>
            <g id="path7024-7-1" transform="matrix(0.995538,0,0,0.996801,-163.743,79.6016)">
                <path d="M2164.15,-209.57C2159.84,-215.052 2155.23,-218.207 2155.15,-222.484C2155.12,-223.869 2155.96,-226.223 2158.59,-226.674C2160.3,-226.965 2162.65,-225.733 2162.7,-223.231C2162.69,-222.733 2163.29,-222.746 2163.28,-223.428C2163.2,-225.402 2162.5,-227.7 2161.32,-229.57C2163.21,-229.57 2165.09,-229.57 2166.97,-229.57C2165.79,-227.7 2165.09,-225.402 2165.01,-223.428C2165,-222.746 2165.61,-222.733 2165.6,-223.231C2165.65,-225.733 2168,-226.965 2169.7,-226.674C2172.33,-226.223 2173.17,-223.869 2173.15,-222.484C2173.07,-218.207 2168.46,-215.052 2164.15,-209.57L2164.15,-209.57Z" style="fill-rule:nonzero;"/>
            </g>
            <g id="path7026-2-6" transform="matrix(0.995538,0,0,0.996801,-163.743,79.6016)">
                <path d="M2121.52,-438.713C2112.29,-425.556 2102.42,-417.985 2102.26,-407.72C2102.2,-404.396 2104,-398.747 2109.63,-397.665C2113.28,-396.967 2118.31,-399.923 2118.41,-405.928C2118.4,-407.123 2119.68,-407.092 2119.67,-405.454C2119.49,-400.717 2117.99,-395.202 2115.47,-390.713C2119.5,-390.713 2123.53,-390.713 2127.56,-390.713C2125.04,-395.202 2123.54,-400.717 2123.37,-405.454C2123.36,-407.092 2124.64,-407.123 2124.62,-405.928C2124.73,-399.923 2129.76,-396.967 2133.41,-397.665C2139.04,-398.747 2140.83,-404.396 2140.78,-407.72C2140.62,-417.985 2130.74,-425.556 2121.52,-438.713L2121.52,-438.713Z" style="fill-rule:nonzero;"/>
            </g>
            <g id="path7036-9-6" transform="matrix(0.995538,0,0,0.996801,-163.743,79.6016)">
                <path d="M2017.98,-339.503C2008.76,-326.346 1998.89,-318.774 1998.72,-308.509C1998.67,-305.185 2000.47,-299.536 2006.09,-298.455C2009.75,-297.756 2014.77,-300.712 2014.88,-306.717C2014.86,-307.913 2016.14,-307.882 2016.13,-306.243C2015.96,-301.507 2014.46,-295.992 2011.94,-291.503C2015.97,-291.503 2020,-291.503 2024.03,-291.503C2021.51,-295.992 2020.01,-301.507 2019.84,-306.243C2019.82,-307.882 2021.11,-307.913 2021.09,-306.717C2021.19,-300.712 2026.22,-297.756 2029.88,-298.455C2035.5,-299.536 2037.3,-305.185 2037.25,-308.509C2037.08,-318.774 2027.21,-326.346 2017.98,-339.503L2017.98,-339.503Z" style="fill-rule:nonzero;"/>
            </g>
            <g id="path7038-9-6" transform="matrix(0.995538,0,0,0.996801,-163.743,79.6016)">
                <path d="M2017.98,-192.292C2008.76,-205.449 1998.89,-213.021 1998.72,-223.285C1998.67,-226.609 2000.47,-232.259 2006.09,-233.34C2009.75,-234.038 2014.77,-231.083 2014.88,-225.078C2014.86,-223.882 2016.14,-223.913 2016.13,-225.551C2015.96,-230.288 2014.46,-235.803 2011.94,-240.292C2015.97,-240.292 2020,-240.292 2024.03,-240.292C2021.51,-235.803 2020.01,-230.288 2019.84,-225.551C2019.82,-223.913 2021.11,-223.882 2021.09,-225.078C2021.19,-231.083 2026.22,-234.038 2029.88,-233.34C2035.5,-232.259 2037.3,-226.609 2037.25,-223.285C2037.08,-213.021 2027.21,-205.449 2017.98,-192.292L2017.98,-192.292Z" style="fill-rule:nonzero;"/>
            </g>
            <g id="path7040-0-9" transform="matrix(0.995538,0,0,0.996801,-163.743,79.6016)">
                <path d="M2121.52,-192.292C2112.29,-205.449 2102.42,-213.021 2102.26,-223.285C2102.2,-226.609 2104,-232.259 2109.63,-233.34C2113.28,-234.038 2118.31,-231.083 2118.41,-225.078C2118.4,-223.882 2119.68,-223.913 2119.67,-225.551C2119.49,-230.288 2117.99,-235.803 2115.47,-240.292C2119.5,-240.292 2123.53,-240.292 2127.56,-240.292C2125.04,-235.803 2123.54,-230.288 2123.37,-225.551C2123.36,-223.913 2124.64,-223.882 2124.62,-225.078C2124.73,-231.083 2129.76,-234.038 2133.41,-233.34C2139.04,-232.259 2140.83,-226.609 2140.78,-223.285C2140.62,-213.021 2130.74,-205.449 2121.52,-192.292L2121.52,-192.292Z" style="fill-rule:nonzero;"/>
            </g>
            <g id="path7050-2-9" transform="matrix(0.995538,0,0,0.996801,-163.743,79.6016)">
                <path d="M2121.52,-339.503C2112.29,-326.346 2102.42,-318.774 2102.26,-308.509C2102.2,-305.185 2104,-299.536 2109.63,-298.455C2113.28,-297.756 2118.31,-300.712 2118.41,-306.717C2118.4,-307.913 2119.68,-307.882 2119.67,-306.243C2119.49,-301.507 2117.99,-295.992 2115.47,-291.503C2119.5,-291.503 2123.53,-291.503 2127.56,-291.503C2125.04,-295.992 2123.54,-301.507 2123.37,-306.243C2123.36,-307.882 2124.64,-307.913 2124.62,-306.717C2124.73,-300.712 2129.76,-297.756 2133.41,-298.455C2139.04,-299.536 2140.83,-305.185 2140.78,-308.509C2140.62,-318.774 2130.74,-326.346 2121.52,-339.503L2121.52,-339.503Z" style="fill-rule:nonzero;"/>
            </g>
            <g id="path23-1-9-8" transform="matrix(0.995538,0,0,0.996801,-163.743,79.6016)">
                <path d="M1965.66,-434.723C1965.26,-437.501 1965.27,-444.681 1965.6,-446.805C1966.62,-453.312 1969.11,-456.289 1973.27,-457.261C1977.31,-458.208 1982.99,-457.154 1984.24,-451.715L1980.86,-451.649C1979.03,-455.326 1974.41,-454.344 1971.8,-452.744C1969.72,-451.47 1968.78,-446.149 1969.18,-445.822C1969.18,-445.822 1973.12,-448.734 1976.22,-448.52C1982.84,-447.829 1985.57,-442.085 1985.34,-436.661C1985.13,-430.136 1983.06,-424.917 1976.04,-424.57C1969.36,-424.828 1966.3,-428.467 1965.66,-434.723L1965.66,-434.723ZM1982.12,-436.447C1982.16,-440.973 1980.11,-444.366 1976.21,-444.738C1972.33,-445.113 1968.4,-441.318 1968.67,-436.703C1968.95,-432.069 1970.74,-428.171 1975.46,-428.191C1980.53,-428.211 1982.1,-433.224 1982.12,-436.447Z" style="fill-rule:nonzero;"/>
            </g>
            <g id="path23-1-5-6-4" transform="matrix(0.995538,0,0,0.996801,-163.743,79.6016)">
                <path d="M2173.84,-196.282C2174.24,-193.505 2174.23,-186.325 2173.9,-184.201C2172.88,-177.694 2170.39,-174.716 2166.23,-173.744C2162.18,-172.797 2156.51,-173.852 2155.26,-179.29L2158.64,-179.356C2160.47,-175.679 2165.09,-176.661 2167.7,-178.261C2169.78,-179.535 2170.72,-184.856 2170.32,-185.183C2170.32,-185.183 2166.38,-182.271 2163.28,-182.486C2156.66,-183.176 2153.93,-188.92 2154.16,-194.344C2154.37,-200.87 2156.44,-206.088 2163.46,-206.435C2170.14,-206.177 2173.2,-202.538 2173.84,-196.282L2173.84,-196.282ZM2157.38,-194.559C2157.34,-190.032 2159.39,-186.639 2163.28,-186.267C2167.17,-185.892 2171.1,-189.687 2170.82,-194.302C2170.55,-198.936 2168.76,-202.835 2164.04,-202.814C2158.97,-202.794 2157.4,-197.781 2157.38,-194.559Z" style="fill-rule:nonzero;"/>
            </g>
        </g>
    </g>
</svg>
