<?xml version="1.0" encoding="UTF-8" standalone="no"?>
<!DOCTYPE svg PUBLIC "-//W3C//DTD SVG 1.1//EN" "http://www.w3.org/Graphics/SVG/1.1/DTD/svg11.dtd">
<svg width="100%" height="100%" viewBox="0 0 228 316" version="1.1" xmlns="http://www.w3.org/2000/svg" xmlns:xlink="http://www.w3.org/1999/xlink" xml:space="preserve" style="fill-rule:evenodd;clip-rule:evenodd;">
    <g transform="matrix(1,0,0,1,-2046,-1091)">
        <g transform="matrix(1,0,0,1,0,2187.64)">
            <g id="rect6355-6-85-3-1-8-1" transform="matrix(0.999997,0,0,1,0.0059402,-5.55051)">
                <path d="M2271.12,-1077.74C2271.12,-1083.61 2266.35,-1088.37 2260.49,-1088.37L2059.51,-1088.37C2053.65,-1088.37 2048.88,-1083.61 2048.88,-1077.74L2048.88,-788.186C2048.88,-782.319 2053.65,-777.556 2059.51,-777.556L2260.49,-777.556C2266.35,-777.556 2271.12,-782.319 2271.12,-788.186L2271.12,-1077.74Z" style="fill:white;stroke:black;stroke-width:1px;"/>
            </g>
            <g id="path147-0-8-1-6-13-2-0-1-5" transform="matrix(0.999997,0,0,1,0.0059402,-5.55051)">
                <path d="M2211.53,-1055.37C2201.76,-1055.15 2197.37,-1044.15 2204.61,-1035.6C2205.66,-1034.36 2205.77,-1033.64 2203.85,-1034.84C2198.97,-1038.1 2189.63,-1035.95 2189.15,-1025.99C2188.56,-1013.71 2205.71,-1010.18 2208.93,-1023.23C2209.1,-1024.61 2210.22,-1024.58 2209.95,-1022.62C2209.66,-1017.31 2208,-1012.36 2205.72,-1007.52C2209.56,-1007.52 2213.86,-1007.52 2217.35,-1007.52C2215.07,-1012.36 2213.41,-1017.31 2213.12,-1022.62C2212.85,-1024.58 2213.97,-1024.61 2214.14,-1023.23C2217.36,-1010.18 2234.51,-1013.71 2233.92,-1025.99C2233.44,-1035.95 2224.1,-1038.1 2219.22,-1034.84C2217.3,-1033.64 2217.41,-1034.36 2218.46,-1035.6C2225.7,-1044.15 2221.31,-1055.15 2211.54,-1055.37C2211.54,-1055.37 2211.54,-1055.37 2211.53,-1055.37L2211.53,-1055.37Z" style="fill-rule:nonzero;"/>
            </g>
            <g id="path147-0-8-1-6-75-2-83-2-0-7" transform="matrix(0.999997,0,0,1,0.0059402,-5.55051)">
                <path d="M2108.46,-1055.37C2098.69,-1055.15 2094.3,-1044.15 2101.54,-1035.6C2102.59,-1034.36 2102.7,-1033.64 2100.78,-1034.84C2095.9,-1038.1 2086.56,-1035.95 2086.08,-1025.99C2085.49,-1013.71 2102.64,-1010.18 2105.86,-1023.23C2106.03,-1024.61 2107.15,-1024.58 2106.88,-1022.62C2106.59,-1017.31 2104.93,-1012.36 2102.65,-1007.52C2106.49,-1007.52 2110.78,-1007.52 2114.28,-1007.52C2112,-1012.36 2110.34,-1017.31 2110.05,-1022.62C2109.78,-1024.58 2110.89,-1024.61 2111.07,-1023.23C2114.29,-1010.18 2131.44,-1013.71 2130.85,-1025.99C2130.37,-1035.95 2121.03,-1038.1 2116.15,-1034.84C2114.23,-1033.64 2114.34,-1034.36 2115.39,-1035.6C2122.63,-1044.15 2118.24,-1055.15 2108.47,-1055.37C2108.47,-1055.37 2108.47,-1055.37 2108.46,-1055.37L2108.46,-1055.37Z" style="fill-rule:nonzero;"/>
            </g>
            <g id="path147-0-8-1-6-7-5-5-7-7-7-6" transform="matrix(0.999997,0,0,1,0.0059402,-5.55051)">
                <path d="M2211.53,-809.732C2201.76,-809.944 2197.37,-820.949 2204.61,-829.495C2205.66,-830.741 2205.77,-831.457 2203.85,-830.259C2198.97,-827 2189.63,-829.143 2189.15,-839.107C2188.56,-851.384 2205.71,-854.921 2208.93,-841.866C2209.1,-840.489 2210.22,-840.521 2209.95,-842.476C2209.66,-847.782 2208,-852.742 2205.72,-857.578C2209.56,-857.578 2213.86,-857.578 2217.35,-857.578C2215.07,-852.742 2213.41,-847.782 2213.12,-842.476C2212.85,-840.521 2213.97,-840.489 2214.14,-841.866C2217.36,-854.921 2234.51,-851.384 2233.92,-839.107C2233.44,-829.143 2224.1,-827 2219.22,-830.259C2217.3,-831.457 2217.41,-830.741 2218.46,-829.495C2225.7,-820.949 2221.31,-809.944 2211.54,-809.732C2211.54,-809.732 2211.54,-809.732 2211.53,-809.732L2211.53,-809.732Z" style="fill-rule:nonzero;"/>
            </g>
            <g id="path147-0-8-1-6-75-6-1-2-9-1-9" transform="matrix(0.999997,0,0,1,0.0059402,-5.55051)">
                <path d="M2108.46,-809.732C2098.69,-809.944 2094.3,-820.949 2101.54,-829.495C2102.59,-830.741 2102.7,-831.457 2100.78,-830.259C2095.9,-827 2086.56,-829.143 2086.08,-839.107C2085.49,-851.384 2102.64,-854.921 2105.86,-841.866C2106.03,-840.489 2107.15,-840.521 2106.88,-842.476C2106.59,-847.782 2104.93,-852.742 2102.65,-857.578C2106.49,-857.578 2110.78,-857.578 2114.28,-857.578C2112,-852.742 2110.34,-847.782 2110.05,-842.476C2109.78,-840.521 2110.89,-840.489 2111.07,-841.866C2114.29,-854.921 2131.44,-851.384 2130.85,-839.107C2130.37,-829.143 2121.03,-827 2116.15,-830.259C2114.23,-831.457 2114.34,-830.741 2115.39,-829.495C2122.63,-820.949 2118.24,-809.944 2108.47,-809.732C2108.47,-809.732 2108.47,-809.732 2108.46,-809.732L2108.46,-809.732Z" style="fill-rule:nonzero;"/>
            </g>
            <g id="path147-0-8-1-6-2-00-7-2-3-4" transform="matrix(0.999997,0,0,1,0.0059402,-5.55051)">
                <path d="M2160,-1005.92C2150.22,-1005.71 2145.84,-994.701 2153.08,-986.155C2154.13,-984.908 2154.24,-984.193 2152.31,-985.39C2147.44,-988.649 2138.09,-986.507 2137.62,-976.543C2137.02,-964.266 2154.18,-960.729 2157.4,-973.783C2157.57,-975.161 2158.69,-975.129 2158.42,-973.174C2158.12,-967.868 2156.47,-962.908 2154.19,-958.071C2158.03,-958.071 2162.32,-958.071 2165.81,-958.071C2163.53,-962.908 2161.88,-967.868 2161.58,-973.174C2161.31,-975.129 2162.43,-975.161 2162.6,-973.783C2165.82,-960.729 2182.98,-964.266 2182.39,-976.543C2181.91,-986.507 2172.56,-988.649 2167.69,-985.39C2165.76,-984.193 2165.87,-984.908 2166.92,-986.155C2174.16,-994.701 2169.78,-1005.71 2160,-1005.92C2160,-1005.92 2160,-1005.92 2159.99,-1005.92L2160,-1005.92Z" style="fill-rule:nonzero;"/>
            </g>
            <g id="path147-0-8-1-6-7-5-7-3-0-1-7-4" transform="matrix(0.999997,0,0,1,0.0059402,-5.55051)">
                <path d="M2211.53,-956.471C2201.76,-956.259 2197.37,-945.254 2204.61,-936.708C2205.66,-935.462 2205.77,-934.746 2203.85,-935.944C2198.97,-939.203 2189.63,-937.06 2189.15,-927.096C2188.56,-914.819 2205.71,-911.282 2208.93,-924.337C2209.1,-925.714 2210.22,-925.683 2209.95,-923.728C2209.66,-918.421 2208,-913.461 2205.72,-908.625C2209.56,-908.625 2213.86,-908.625 2217.35,-908.625C2215.07,-913.461 2213.41,-918.421 2213.12,-923.728C2212.85,-925.683 2213.97,-925.714 2214.14,-924.337C2217.36,-911.282 2234.51,-914.819 2233.92,-927.096C2233.44,-937.06 2224.1,-939.203 2219.22,-935.944C2217.3,-934.746 2217.41,-935.462 2218.46,-936.708C2225.7,-945.254 2221.31,-956.259 2211.54,-956.471C2211.54,-956.471 2211.54,-956.471 2211.53,-956.471L2211.53,-956.471Z" style="fill-rule:nonzero;"/>
            </g>
            <g id="path147-0-8-1-6-75-6-6-5-3-9-6-0" transform="matrix(0.999997,0,0,1,0.0059402,-5.55051)">
                <path d="M2108.46,-956.471C2098.69,-956.259 2094.3,-945.254 2101.54,-936.708C2102.59,-935.462 2102.7,-934.746 2100.78,-935.944C2095.9,-939.203 2086.56,-937.06 2086.08,-927.096C2085.49,-914.819 2102.64,-911.282 2105.86,-924.337C2106.03,-925.714 2107.15,-925.683 2106.88,-923.728C2106.59,-918.421 2104.93,-913.461 2102.65,-908.625C2106.49,-908.625 2110.78,-908.625 2114.27,-908.625C2112,-913.461 2110.34,-918.421 2110.05,-923.728C2109.78,-925.683 2110.89,-925.714 2111.07,-924.337C2114.29,-911.282 2131.44,-914.819 2130.85,-927.096C2130.37,-937.06 2121.03,-939.203 2116.15,-935.944C2114.23,-934.746 2114.34,-935.462 2115.39,-936.708C2122.63,-945.254 2118.24,-956.259 2108.47,-956.471C2108.47,-956.471 2108.47,-956.471 2108.46,-956.471L2108.46,-956.471Z" style="fill-rule:nonzero;"/>
            </g>
            <g id="path147-6-9-8-7-0-5-6-8-4-3" transform="matrix(0.999997,0,0,1,0.0059402,-5.55051)">
                <path d="M2253.98,-827.369C2257.89,-827.458 2259.64,-832.043 2256.74,-835.604C2256.33,-836.123 2256.28,-836.421 2257.05,-835.922C2259,-834.564 2262.74,-835.457 2262.93,-839.609C2263.17,-844.724 2256.3,-846.198 2255.02,-840.759C2254.95,-840.185 2254.5,-840.198 2254.61,-841.012C2254.73,-843.223 2255.39,-845.29 2256.3,-847.305C2254.75,-847.305 2253.2,-847.305 2251.65,-847.305C2252.56,-845.29 2253.23,-843.223 2253.34,-841.012C2253.45,-840.198 2253,-840.185 2252.94,-840.759C2251.65,-846.198 2244.79,-844.724 2245.02,-839.609C2245.21,-835.457 2248.95,-834.564 2250.9,-835.922C2251.67,-836.421 2251.63,-836.123 2251.21,-835.604C2248.31,-832.043 2250.07,-827.458 2253.97,-827.369C2253.98,-827.369 2253.97,-827.369 2253.97,-827.369L2253.98,-827.369Z" style="fill-rule:nonzero;"/>
            </g>
            <g id="path147-6-9-8-7-4-5-62-5-2-9" transform="matrix(0.999997,0,0,1,0.0059402,-5.55051)">
                <path d="M2066.02,-1038.56C2062.11,-1038.47 2060.36,-1033.88 2063.26,-1030.32C2063.68,-1029.8 2063.72,-1029.5 2062.95,-1030C2061,-1031.36 2057.26,-1030.47 2057.07,-1026.32C2056.83,-1021.2 2063.7,-1019.73 2064.98,-1025.17C2065.05,-1025.74 2065.5,-1025.73 2065.39,-1024.91C2065.27,-1022.7 2064.61,-1020.63 2063.7,-1018.62C2065.25,-1018.62 2066.8,-1018.62 2068.35,-1018.62C2067.44,-1020.63 2066.77,-1022.7 2066.66,-1024.91C2066.55,-1025.73 2067,-1025.74 2067.07,-1025.17C2068.35,-1019.73 2075.22,-1021.2 2074.98,-1026.32C2074.79,-1030.47 2071.05,-1031.36 2069.1,-1030C2068.33,-1029.5 2068.37,-1029.8 2068.79,-1030.32C2071.69,-1033.88 2069.94,-1038.47 2066.03,-1038.56L2066.02,-1038.56Z" style="fill-rule:nonzero;"/>
            </g>
            <g id="path25-6-8-8" transform="matrix(0.999997,0,0,1,0.0059402,-5.55051)">
                <path d="M2060.97,-1041.68C2063.13,-1053.12 2065.43,-1061.71 2071.47,-1071.03L2059.2,-1071.03L2059.2,-1067.02L2055.94,-1067.02L2055.94,-1074.58L2073.89,-1074.58L2076.11,-1071.03C2069.69,-1064.02 2063.82,-1041.35 2064.86,-1041.68L2060.97,-1041.68L2060.97,-1041.68Z" style="fill-rule:nonzero;"/>
            </g>
            <g id="path25-7-7-3-9" transform="matrix(0.999997,0,0,1,0.0059402,-5.55051)">
                <path d="M2259.03,-824.24C2256.86,-812.804 2254.56,-804.218 2248.53,-794.9L2260.8,-794.9L2260.8,-798.911L2264.06,-798.911L2264.06,-791.349L2246.11,-791.349L2243.89,-794.9C2250.3,-801.91 2256.18,-824.572 2255.14,-824.24L2259.03,-824.24Z" style="fill-rule:nonzero;"/>
            </g>
        </g>
    </g>
</svg>
