<?xml version="1.0" encoding="UTF-8" standalone="no"?>
<!DOCTYPE svg PUBLIC "-//W3C//DTD SVG 1.1//EN" "http://www.w3.org/Graphics/SVG/1.1/DTD/svg11.dtd">
<svg width="100%" height="100%" viewBox="0 0 228 316" version="1.1" xmlns="http://www.w3.org/2000/svg" xmlns:xlink="http://www.w3.org/1999/xlink" xml:space="preserve" style="fill-rule:evenodd;clip-rule:evenodd;">
    <g transform="matrix(1,0,0,1,-2046,-2147)">
        <g transform="matrix(1,0,0,1,0,2187.64)">
            <g id="rect6826-9" transform="matrix(0.995535,0,0,0.996803,9.64468,-8.13974)">
                <path d="M2271.61,-19.733C2271.61,-25.645 2266.81,-30.445 2260.89,-30.445L2059.11,-30.445C2053.19,-30.445 2048.39,-25.645 2048.39,-19.733L2048.39,270.654C2048.39,276.566 2053.19,281.366 2059.11,281.366L2260.89,281.366C2266.81,281.366 2271.61,276.566 2271.61,270.654L2271.61,-19.733Z" style="fill:white;stroke:black;stroke-width:1px;"/>
            </g>
            <g id="path6858-4" transform="matrix(0.995535,0,0,0.996803,9.64468,-8.13974)">
                <path d="M2065.6,39.528C2063.44,35.96 2061.17,32.491 2058.33,29.528C2061.17,26.566 2063.44,23.097 2065.6,19.528C2067.76,23.097 2070.04,26.566 2072.88,29.528C2070.04,32.491 2067.76,35.96 2065.6,39.528Z" style="fill:rgb(212,0,0);fill-rule:nonzero;"/>
            </g>
            <g id="path6860-1" transform="matrix(0.995535,0,0,0.996803,9.64468,-8.13974)">
                <path d="M2211.77,50.25C2206.58,41.685 2201.12,33.361 2194.3,26.25C2201.12,19.139 2206.58,10.815 2211.77,2.25C2216.95,10.815 2222.41,19.139 2229.23,26.25C2222.41,33.361 2216.95,41.685 2211.77,50.25Z" style="fill:rgb(212,0,0);fill-rule:nonzero;"/>
            </g>
            <g id="path6862-0" transform="matrix(0.995535,0,0,0.996803,9.64468,-8.13974)">
                <path d="M2254.4,231.393C2252.24,227.824 2249.96,224.356 2247.12,221.393C2249.96,218.43 2252.24,214.962 2254.4,211.393C2256.56,214.962 2258.83,218.43 2261.67,221.393C2258.83,224.356 2256.56,227.824 2254.4,231.393Z" style="fill:rgb(212,0,0);fill-rule:nonzero;"/>
            </g>
            <g id="path6864-5" transform="matrix(0.995535,0,0,0.996803,9.64468,-8.13974)">
                <path d="M2108.23,50.25C2103.05,41.685 2097.59,33.361 2090.77,26.25C2097.59,19.139 2103.05,10.815 2108.23,2.25C2113.42,10.815 2118.88,19.139 2125.7,26.25C2118.88,33.361 2113.42,41.685 2108.23,50.25Z" style="fill:rgb(212,0,0);fill-rule:nonzero;"/>
            </g>
            <g id="path6870-5" transform="matrix(0.995535,0,0,0.996803,9.64468,-8.13974)">
                <path d="M2160,99.839C2154.81,91.274 2149.36,82.95 2142.54,75.839C2149.36,68.728 2154.81,60.404 2160,51.839C2165.19,60.404 2170.64,68.728 2177.46,75.839C2170.64,82.95 2165.19,91.274 2160,99.839Z" style="fill:rgb(212,0,0);fill-rule:nonzero;"/>
            </g>
            <g id="path6874-1" transform="matrix(0.995535,0,0,0.996803,9.64468,-8.13974)">
                <path d="M2108.23,149.428C2103.05,140.863 2097.59,132.539 2090.77,125.428C2097.59,118.317 2103.05,109.993 2108.23,101.428C2113.42,109.993 2118.88,118.317 2125.7,125.428C2118.88,132.539 2113.42,140.863 2108.23,149.428Z" style="fill:rgb(212,0,0);fill-rule:nonzero;"/>
            </g>
            <g id="path6876-6" transform="matrix(0.995535,0,0,0.996803,9.64468,-8.13974)">
                <path d="M2211.77,149.444C2206.58,140.879 2201.12,132.555 2194.3,125.444C2201.12,118.333 2206.58,110.009 2211.77,101.444C2216.95,110.009 2222.41,118.333 2229.23,125.444C2222.41,132.555 2216.95,140.879 2211.77,149.444Z" style="fill:rgb(212,0,0);fill-rule:nonzero;"/>
            </g>
            <g id="path6880-5" transform="matrix(0.995535,0,0,0.996803,9.64468,-8.13974)">
                <path d="M2108.23,248.676C2103.05,240.112 2097.59,231.787 2090.77,224.676C2097.59,217.566 2103.05,209.241 2108.23,200.676C2113.42,209.241 2118.88,217.566 2125.7,224.676C2118.88,231.787 2113.42,240.112 2108.23,248.676Z" style="fill:rgb(212,0,0);fill-rule:nonzero;"/>
            </g>
            <g id="path6882-9" transform="matrix(0.995535,0,0,0.996803,9.64468,-8.13974)">
                <path d="M2211.77,248.683C2206.58,240.118 2201.12,231.794 2194.3,224.683C2201.12,217.572 2206.58,209.248 2211.77,200.683C2216.95,209.248 2222.41,217.572 2229.23,224.683C2222.41,231.794 2216.95,240.118 2211.77,248.683Z" style="fill:rgb(212,0,0);fill-rule:nonzero;"/>
            </g>
            <g id="path25-43-4-8-8" transform="matrix(0.995535,0,0,0.996803,9.64468,-8.13974)">
                <path d="M2060.53,16.389C2062.7,4.916 2065.01,-3.698 2071.07,-13.046L2058.75,-13.046L2058.75,-9.022L2055.47,-9.022L2055.47,-16.607L2073.51,-16.607L2075.73,-13.045C2069.29,-6.013 2063.39,16.722 2064.44,16.389L2060.53,16.389L2060.53,16.389Z" style="fill:rgb(212,0,0);fill-rule:nonzero;"/>
            </g>
            <g id="path25-7-0-7-6" transform="matrix(0.995535,0,0,0.996803,9.64468,-8.13974)">
                <path d="M2259.47,234.532C2257.3,246.005 2254.99,254.619 2248.92,263.967L2261.25,263.967L2261.25,259.943L2264.53,259.943L2264.53,267.529L2246.49,267.529L2244.27,263.967C2250.71,256.934 2256.61,234.2 2255.56,234.532L2259.47,234.532Z" style="fill:rgb(212,0,0);fill-rule:nonzero;"/>
            </g>
        </g>
    </g>
</svg>
