<?xml version="1.0" encoding="UTF-8" standalone="no"?>
<!DOCTYPE svg PUBLIC "-//W3C//DTD SVG 1.1//EN" "http://www.w3.org/Graphics/SVG/1.1/DTD/svg11.dtd">
<svg width="100%" height="100%" viewBox="0 0 228 316" version="1.1" xmlns="http://www.w3.org/2000/svg" xmlns:xlink="http://www.w3.org/1999/xlink" xml:space="preserve" style="fill-rule:evenodd;clip-rule:evenodd;">
    <g transform="matrix(1,0,0,1,-2046,-1443)">
        <g transform="matrix(1,0,0,1,0,2187.64)">
            <g id="rect10074-2-8" transform="matrix(0.995538,0,0,0.996801,2161,-532.688)">
                <path d="M110.614,-199.383C110.614,-205.295 105.808,-210.095 99.889,-210.095L-101.889,-210.095C-107.808,-210.095 -112.614,-205.295 -112.614,-199.383L-112.614,91.005C-112.614,96.917 -107.808,101.717 -101.889,101.717L99.889,101.717C105.808,101.717 110.614,96.917 110.614,91.005L110.614,-199.383Z" style="fill:white;stroke:black;stroke-width:1px;"/>
            </g>
            <g id="path10106-2-3" transform="matrix(0.995538,0,0,0.996801,2161,-532.688)">
                <path d="M-95.397,-140.121C-95.397,-140.121 -97.622,-143.311 -100.623,-147.061C-102.63,-149.571 -104.235,-152.289 -104.385,-154.629C-104.556,-157.303 -102.936,-159.986 -100.002,-160.116C-97.071,-160.246 -95.881,-158.054 -95.397,-156.247C-94.912,-158.054 -93.723,-160.246 -90.791,-160.116C-87.858,-159.986 -86.238,-157.303 -86.409,-154.629C-86.558,-152.289 -88.163,-149.571 -90.171,-147.061C-93.172,-143.311 -95.397,-140.121 -95.397,-140.121L-95.397,-140.121Z" style="fill:rgb(212,0,0);fill-rule:nonzero;"/>
            </g>
            <g id="path10108-3-1" transform="matrix(0.995538,0,0,0.996801,2161,-532.688)">
                <path d="M93.398,31.743C93.398,31.743 91.173,34.933 88.172,38.684C86.164,41.193 84.559,43.911 84.41,46.251C84.239,48.925 85.859,51.608 88.792,51.738C91.723,51.868 92.913,49.676 93.398,47.869C93.882,49.676 95.072,51.868 98.003,51.738C100.936,51.608 102.556,48.925 102.385,46.251C102.236,43.911 100.631,41.193 98.623,38.684C95.622,34.933 93.398,31.743 93.398,31.743L93.398,31.743Z" style="fill:rgb(212,0,0);fill-rule:nonzero;"/>
            </g>
            <g id="path10110-3-5" transform="matrix(0.995538,0,0,0.996801,2161,-532.688)">
                <path d="M-1,-79.794C-1,-79.794 -5.666,-87.45 -11.961,-96.451C-16.172,-102.474 -19.539,-108.996 -19.852,-114.614C-20.211,-121.031 -16.812,-127.469 -10.66,-127.781C-4.512,-128.093 -2.016,-122.833 -1,-118.497C0.016,-122.833 2.512,-128.093 8.66,-127.781C14.812,-127.469 18.211,-121.031 17.852,-114.614C17.539,-108.996 14.172,-102.474 9.961,-96.451C3.666,-87.45 -1,-79.794 -1,-79.794L-1,-79.794Z" style="fill:rgb(212,0,0);fill-rule:nonzero;"/>
            </g>
            <g id="path10114-8-3" transform="matrix(0.995538,0,0,0.996801,2161,-532.688)">
                <path d="M-52.766,-129.4C-52.766,-129.4 -57.433,-137.055 -63.727,-146.056C-67.938,-152.079 -71.305,-158.601 -71.618,-164.219C-71.977,-170.636 -68.579,-177.074 -62.427,-177.386C-56.278,-177.698 -53.782,-172.438 -52.766,-168.102C-51.75,-172.438 -49.255,-177.698 -43.106,-177.386C-36.954,-177.074 -33.556,-170.636 -33.915,-164.219C-34.228,-158.601 -37.594,-152.079 -41.805,-146.056C-48.1,-137.055 -52.766,-129.4 -52.766,-129.4Z" style="fill:rgb(212,0,0);fill-rule:nonzero;"/>
            </g>
            <g id="path10116-2-5" transform="matrix(0.995538,0,0,0.996801,2161,-532.688)">
                <path d="M50.766,-30.189C50.766,-30.189 46.1,-37.844 39.805,-46.845C35.594,-52.868 32.228,-59.391 31.915,-65.008C31.556,-71.426 34.954,-77.864 41.106,-78.176C47.255,-78.488 49.75,-73.228 50.766,-68.891C51.782,-73.228 54.278,-78.488 60.427,-78.176C66.579,-77.864 69.977,-71.426 69.618,-65.008C69.305,-59.391 65.938,-52.868 61.727,-46.845C55.433,-37.844 50.766,-30.189 50.766,-30.189L50.766,-30.189Z" style="fill:rgb(212,0,0);fill-rule:nonzero;"/>
            </g>
            <g id="path10120-6-5" transform="matrix(0.995538,0,0,0.996801,2161,-532.688)">
                <path d="M50.766,-129.4C50.766,-129.4 46.1,-137.055 39.805,-146.056C35.594,-152.079 32.228,-158.601 31.915,-164.219C31.556,-170.636 34.954,-177.074 41.106,-177.386C47.255,-177.698 49.75,-172.438 50.766,-168.102C51.782,-172.438 54.278,-177.698 60.427,-177.386C66.579,-177.074 69.977,-170.636 69.618,-164.219C69.305,-158.601 65.938,-152.079 61.727,-146.056C55.433,-137.055 50.766,-129.4 50.766,-129.4Z" style="fill:rgb(212,0,0);fill-rule:nonzero;"/>
            </g>
            <g id="path10124-1-1" transform="matrix(0.995538,0,0,0.996801,2161,-532.688)">
                <path d="M-52.766,-30.189C-52.766,-30.189 -57.433,-37.844 -63.727,-46.845C-67.938,-52.868 -71.305,-59.391 -71.618,-65.008C-71.977,-71.426 -68.579,-77.864 -62.427,-78.176C-56.278,-78.488 -53.782,-73.228 -52.766,-68.891C-51.75,-73.228 -49.255,-78.488 -43.106,-78.176C-36.954,-77.864 -33.556,-71.426 -33.915,-65.008C-34.228,-59.391 -37.594,-52.868 -41.805,-46.845C-48.1,-37.844 -52.766,-30.189 -52.766,-30.189L-52.766,-30.189Z" style="fill:rgb(212,0,0);fill-rule:nonzero;"/>
            </g>
            <g id="path10134-7-3" transform="matrix(0.995538,0,0,0.996801,2161,-532.688)">
                <path d="M50.766,21.022C50.766,21.022 46.1,28.677 39.805,37.678C35.594,43.701 32.228,50.223 31.915,55.841C31.556,62.258 34.954,68.696 41.106,69.008C47.255,69.32 49.75,64.06 50.766,59.724C51.782,64.06 54.278,69.32 60.427,69.008C66.579,68.696 69.977,62.258 69.618,55.841C69.305,50.223 65.938,43.701 61.727,37.678C55.433,28.677 50.766,21.022 50.766,21.022L50.766,21.022Z" style="fill:rgb(212,0,0);fill-rule:nonzero;"/>
            </g>
            <g id="path10136-5-7" transform="matrix(0.995538,0,0,0.996801,2161,-532.688)">
                <path d="M-52.766,21.022C-52.766,21.022 -57.433,28.677 -63.727,37.678C-67.938,43.701 -71.305,50.223 -71.618,55.841C-71.977,62.258 -68.579,68.696 -62.427,69.008C-56.278,69.32 -53.782,64.06 -52.766,59.724C-51.75,64.06 -49.255,69.32 -43.106,69.008C-36.954,68.696 -33.556,62.258 -33.915,55.841C-34.228,50.223 -37.594,43.701 -41.805,37.678C-48.1,28.677 -52.766,21.022 -52.766,21.022L-52.766,21.022Z" style="fill:rgb(212,0,0);fill-rule:nonzero;"/>
            </g>
            <g id="path25-43-2-3-9" transform="matrix(0.995538,0,0,0.996801,-95.9651,318.486)">
                <path d="M2166.61,-1017.17C2168.78,-1028.64 2171.09,-1037.25 2177.15,-1046.6L2164.82,-1046.6L2164.82,-1042.58L2161.55,-1042.58L2161.55,-1050.16L2179.58,-1050.16L2181.81,-1046.6C2175.37,-1039.57 2169.47,-1016.83 2170.51,-1017.17L2166.61,-1017.17L2166.61,-1017.17Z" style="fill:rgb(212,0,0);fill-rule:nonzero;stroke:black;stroke-width:1px;"/>
            </g>
            <g id="path25-7-0-2-8-2" transform="matrix(0.995538,0,0,0.996801,-95.9651,318.486)">
                <path d="M2365.55,-799.023C2363.38,-787.55 2361.07,-778.936 2355,-769.588L2367.33,-769.588L2367.33,-773.612L2370.6,-773.612L2370.6,-766.027L2352.57,-766.027L2350.34,-769.588C2356.79,-776.621 2362.68,-799.356 2361.64,-799.023L2365.55,-799.023Z" style="fill:rgb(212,0,0);fill-rule:nonzero;"/>
            </g>
        </g>
    </g>
</svg>
