<?xml version="1.0" encoding="UTF-8" standalone="no"?>
<!DOCTYPE svg PUBLIC "-//W3C//DTD SVG 1.1//EN" "http://www.w3.org/Graphics/SVG/1.1/DTD/svg11.dtd">
<svg width="100%" height="100%" viewBox="0 0 228 316" version="1.1" xmlns="http://www.w3.org/2000/svg" xmlns:xlink="http://www.w3.org/1999/xlink" xml:space="preserve" style="fill-rule:evenodd;clip-rule:evenodd;">
    <g transform="matrix(1,0,0,1,-2046,-1795)">
        <g transform="matrix(1,0,0,1,0,2187.64)">
            <g id="rect7056-4-2" transform="matrix(0.995538,0,0,0.996801,-224.17,79.6016)">
                <path d="M2506.47,-460.696C2506.47,-466.608 2501.66,-471.408 2495.74,-471.408L2293.97,-471.408C2288.05,-471.408 2283.24,-466.608 2283.24,-460.696L2283.24,-170.309C2283.24,-164.397 2288.05,-159.597 2293.97,-159.597L2495.74,-159.597C2501.66,-159.597 2506.47,-164.397 2506.47,-170.309L2506.47,-460.696Z" style="fill:white;stroke:black;stroke-width:1px;"/>
            </g>
            <g id="path7086-8-0" transform="matrix(0.995538,0,0,0.996801,-224.17,79.6016)">
                <path d="M2343.09,-438.713C2333.86,-425.556 2323.99,-417.985 2323.83,-407.72C2323.77,-404.396 2325.57,-398.747 2331.2,-397.665C2334.85,-396.967 2339.88,-399.923 2339.99,-405.928C2339.97,-407.123 2341.25,-407.092 2341.24,-405.454C2341.07,-400.717 2339.57,-395.202 2337.05,-390.713C2341.08,-390.713 2345.1,-390.713 2349.13,-390.713C2346.61,-395.202 2345.11,-400.717 2344.94,-405.454C2344.93,-407.092 2346.21,-407.123 2346.2,-405.928C2346.3,-399.923 2351.33,-396.967 2354.98,-397.665C2360.61,-398.747 2362.41,-404.396 2362.35,-407.72C2362.19,-417.985 2352.32,-425.556 2343.09,-438.713L2343.09,-438.713Z" style="fill-rule:nonzero;"/>
            </g>
            <g id="path7088-9-3" transform="matrix(0.995538,0,0,0.996801,-224.17,79.6016)">
                <path d="M2300.46,-421.435C2296.15,-415.953 2291.54,-412.798 2291.46,-408.521C2291.43,-407.136 2292.27,-404.782 2294.9,-404.332C2296.61,-404.041 2298.96,-405.272 2299.01,-407.774C2299,-408.272 2299.6,-408.259 2299.6,-407.577C2299.51,-405.603 2298.81,-403.305 2297.64,-401.435C2299.52,-401.435 2301.4,-401.435 2303.28,-401.435C2302.11,-403.305 2301.41,-405.603 2301.33,-407.577C2301.32,-408.259 2301.92,-408.272 2301.91,-407.774C2301.96,-405.272 2304.31,-404.041 2306.01,-404.332C2308.64,-404.782 2309.49,-407.136 2309.46,-408.521C2309.38,-412.798 2304.77,-415.953 2300.46,-421.435L2300.46,-421.435Z" style="fill-rule:nonzero;"/>
            </g>
            <g id="path7092-7-0" transform="matrix(0.995538,0,0,0.996801,-224.17,79.6016)">
                <path d="M2489.25,-209.57C2484.94,-215.052 2480.33,-218.207 2480.26,-222.484C2480.23,-223.869 2481.07,-226.223 2483.7,-226.674C2485.41,-226.965 2487.75,-225.733 2487.8,-223.231C2487.79,-222.733 2488.39,-222.746 2488.39,-223.428C2488.31,-225.402 2487.61,-227.7 2486.43,-229.57C2488.31,-229.57 2490.2,-229.57 2492.08,-229.57C2490.9,-227.7 2490.2,-225.402 2490.12,-223.428C2490.11,-222.746 2490.71,-222.733 2490.7,-223.231C2490.75,-225.733 2493.1,-226.965 2494.81,-226.674C2497.44,-226.223 2498.28,-223.869 2498.25,-222.484C2498.18,-218.207 2493.57,-215.052 2489.25,-209.57L2489.25,-209.57Z" style="fill-rule:nonzero;"/>
            </g>
            <g id="path7094-3-5" transform="matrix(0.995538,0,0,0.996801,-224.17,79.6016)">
                <path d="M2446.62,-438.713C2437.4,-425.556 2427.53,-417.985 2427.36,-407.72C2427.31,-404.396 2429.1,-398.747 2434.73,-397.665C2438.38,-396.967 2443.41,-399.923 2443.52,-405.928C2443.5,-407.123 2444.78,-407.092 2444.77,-405.454C2444.6,-400.717 2443.1,-395.202 2440.58,-390.713C2444.61,-390.713 2448.64,-390.713 2452.67,-390.713C2450.15,-395.202 2448.65,-400.717 2448.47,-405.454C2448.46,-407.092 2449.74,-407.123 2449.73,-405.928C2449.83,-399.923 2454.86,-396.967 2458.51,-397.665C2464.14,-398.747 2465.94,-404.396 2465.89,-407.72C2465.72,-417.985 2455.85,-425.556 2446.62,-438.713L2446.62,-438.713Z" style="fill-rule:nonzero;"/>
            </g>
            <g id="path7098-7-3" transform="matrix(0.995538,0,0,0.996801,-224.17,79.6016)">
                <path d="M2394.86,-389.108C2385.63,-375.951 2375.76,-368.379 2375.6,-358.115C2375.54,-354.791 2377.34,-349.141 2382.97,-348.06C2386.62,-347.362 2391.65,-350.317 2391.75,-356.322C2391.74,-357.518 2393.02,-357.487 2393.01,-355.849C2392.83,-351.112 2391.33,-345.597 2388.81,-341.108C2392.84,-341.108 2396.87,-341.108 2400.9,-341.108C2398.38,-345.597 2396.88,-351.112 2396.71,-355.849C2396.7,-357.487 2397.98,-357.518 2397.96,-356.322C2398.07,-350.317 2403.1,-347.362 2406.75,-348.06C2412.38,-349.141 2414.17,-354.791 2414.12,-358.115C2413.95,-368.379 2404.08,-375.951 2394.86,-389.108L2394.86,-389.108Z" style="fill-rule:nonzero;"/>
            </g>
            <g id="path7105-0-7" transform="matrix(0.995538,0,0,0.996801,-224.17,79.6016)">
                <path d="M2343.09,-339.503C2333.86,-326.346 2323.99,-318.774 2323.83,-308.509C2323.77,-305.185 2325.57,-299.536 2331.2,-298.455C2334.85,-297.756 2339.88,-300.712 2339.99,-306.717C2339.97,-307.913 2341.25,-307.882 2341.24,-306.243C2341.07,-301.507 2339.57,-295.992 2337.05,-291.503C2341.08,-291.503 2345.1,-291.503 2349.13,-291.503C2346.61,-295.992 2345.11,-301.507 2344.94,-306.243C2344.93,-307.882 2346.21,-307.913 2346.2,-306.717C2346.3,-300.712 2351.33,-297.756 2354.98,-298.455C2360.61,-299.536 2362.41,-305.185 2362.35,-308.509C2362.19,-318.774 2352.32,-326.346 2343.09,-339.503L2343.09,-339.503Z" style="fill-rule:nonzero;"/>
            </g>
            <g id="path7107-6-3" transform="matrix(0.995538,0,0,0.996801,-224.17,79.6016)">
                <path d="M2343.09,-192.292C2333.86,-205.449 2323.99,-213.021 2323.83,-223.285C2323.77,-226.609 2325.57,-232.259 2331.2,-233.34C2334.85,-234.038 2339.88,-231.083 2339.99,-225.078C2339.97,-223.882 2341.25,-223.913 2341.24,-225.551C2341.07,-230.288 2339.57,-235.803 2337.05,-240.292C2341.08,-240.292 2345.1,-240.292 2349.13,-240.292C2346.61,-235.803 2345.11,-230.288 2344.94,-225.551C2344.93,-223.913 2346.21,-223.882 2346.2,-225.078C2346.3,-231.083 2351.33,-234.038 2354.98,-233.34C2360.61,-232.259 2362.41,-226.609 2362.35,-223.285C2362.19,-213.021 2352.32,-205.449 2343.09,-192.292L2343.09,-192.292Z" style="fill-rule:nonzero;"/>
            </g>
            <g id="path7109-5-0" transform="matrix(0.995538,0,0,0.996801,-224.17,79.6016)">
                <path d="M2446.62,-192.292C2437.4,-205.449 2427.53,-213.021 2427.36,-223.285C2427.31,-226.609 2429.1,-232.259 2434.73,-233.34C2438.38,-234.038 2443.41,-231.083 2443.52,-225.078C2443.5,-223.882 2444.78,-223.913 2444.77,-225.551C2444.6,-230.288 2443.1,-235.803 2440.58,-240.292C2444.61,-240.292 2448.64,-240.292 2452.67,-240.292C2450.15,-235.803 2448.65,-230.288 2448.47,-225.551C2448.46,-223.913 2449.74,-223.882 2449.73,-225.078C2449.83,-231.083 2454.86,-234.038 2458.51,-233.34C2464.14,-232.259 2465.94,-226.609 2465.89,-223.285C2465.72,-213.021 2455.85,-205.449 2446.62,-192.292L2446.62,-192.292Z" style="fill-rule:nonzero;"/>
            </g>
            <g id="path7119-1-9" transform="matrix(0.995538,0,0,0.996801,-224.17,79.6016)">
                <path d="M2446.62,-339.503C2437.4,-326.346 2427.53,-318.774 2427.36,-308.509C2427.31,-305.185 2429.1,-299.536 2434.73,-298.455C2438.38,-297.756 2443.41,-300.712 2443.52,-306.717C2443.5,-307.913 2444.78,-307.882 2444.77,-306.243C2444.6,-301.507 2443.1,-295.992 2440.58,-291.503C2444.61,-291.503 2448.64,-291.503 2452.67,-291.503C2450.15,-295.992 2448.65,-301.507 2448.47,-306.243C2448.46,-307.882 2449.74,-307.913 2449.73,-306.717C2449.83,-300.712 2454.86,-297.756 2458.51,-298.455C2464.14,-299.536 2465.94,-305.185 2465.89,-308.509C2465.72,-318.774 2455.85,-326.346 2446.62,-339.503L2446.62,-339.503Z" style="fill-rule:nonzero;"/>
            </g>
            <g id="path25-4-6-4" transform="matrix(0.995538,0,0,0.996801,-224.17,79.6016)">
                <path d="M2295.39,-424.574C2297.56,-436.047 2299.87,-444.661 2305.93,-454.009L2293.6,-454.009L2293.6,-449.985L2290.33,-449.985L2290.33,-457.57L2308.36,-457.57L2310.59,-454.009C2304.14,-446.976 2298.25,-424.242 2299.29,-424.574L2295.39,-424.574L2295.39,-424.574Z" style="fill-rule:nonzero;"/>
            </g>
            <g id="path25-4-1-9-1" transform="matrix(0.995538,0,0,0.996801,-224.17,79.6016)">
                <path d="M2494.33,-206.431C2492.16,-194.958 2489.85,-186.344 2483.78,-176.996L2496.11,-176.996L2496.11,-181.02L2499.38,-181.02L2499.38,-173.435L2481.35,-173.435L2479.12,-176.996C2485.57,-184.029 2491.46,-206.764 2490.42,-206.431L2494.33,-206.431Z" style="fill-rule:nonzero;"/>
            </g>
        </g>
    </g>
</svg>
