<?xml version="1.0" encoding="UTF-8" standalone="no"?>
<!DOCTYPE svg PUBLIC "-//W3C//DTD SVG 1.1//EN" "http://www.w3.org/Graphics/SVG/1.1/DTD/svg11.dtd">
<svg width="100%" height="100%" viewBox="0 0 227 316" version="1.1" xmlns="http://www.w3.org/2000/svg" xmlns:xlink="http://www.w3.org/1999/xlink" xml:space="preserve" style="fill-rule:evenodd;clip-rule:evenodd;">
    <g transform="matrix(1,0,0,1,-2310,-1091)">
        <g transform="matrix(1,0,0,1,0,2187.64)">
            <g id="rect6355-6-85-3-3-4-3" transform="matrix(0.999997,0,0,1,-0.989822,-5.55051)">
                <path d="M2535.34,-1077.74C2535.34,-1083.61 2530.58,-1088.37 2524.71,-1088.37L2323.74,-1088.37C2317.87,-1088.37 2313.11,-1083.61 2313.11,-1077.74L2313.11,-788.186C2313.11,-782.319 2317.87,-777.556 2323.74,-777.556L2524.71,-777.556C2530.58,-777.556 2535.34,-782.319 2535.34,-788.186L2535.34,-1077.74Z" style="fill:white;stroke:black;stroke-width:1px;"/>
            </g>
            <g id="path147-0-8-1-6-13-2-2-3-8" transform="matrix(0.999997,0,0,1,-0.989822,-5.55051)">
                <path d="M2475.76,-1055.37C2465.98,-1055.15 2461.6,-1044.15 2468.84,-1035.6C2469.89,-1034.36 2470,-1033.64 2468.07,-1034.84C2463.2,-1038.1 2453.85,-1035.95 2453.38,-1025.99C2452.78,-1013.71 2469.94,-1010.18 2473.16,-1023.23C2473.33,-1024.61 2474.45,-1024.58 2474.18,-1022.62C2473.89,-1017.31 2472.23,-1012.36 2469.95,-1007.52C2473.79,-1007.52 2478.08,-1007.52 2481.57,-1007.52C2479.29,-1012.36 2477.64,-1017.31 2477.34,-1022.62C2477.07,-1024.58 2478.19,-1024.61 2478.36,-1023.23C2481.58,-1010.18 2498.74,-1013.71 2498.14,-1025.99C2497.67,-1035.95 2488.32,-1038.1 2483.45,-1034.84C2481.52,-1033.64 2481.63,-1034.36 2482.68,-1035.6C2489.92,-1044.15 2485.54,-1055.15 2475.76,-1055.37C2475.76,-1055.37 2475.76,-1055.37 2475.75,-1055.37L2475.76,-1055.37Z" style="fill-rule:nonzero;"/>
            </g>
            <g id="path147-0-8-1-6-75-2-83-9-8-9" transform="matrix(0.999997,0,0,1,-0.989822,-5.55051)">
                <path d="M2372.69,-1055.37C2362.91,-1055.15 2358.53,-1044.15 2365.77,-1035.6C2366.82,-1034.36 2366.93,-1033.64 2365,-1034.84C2360.13,-1038.1 2350.78,-1035.95 2350.3,-1025.99C2349.71,-1013.71 2366.87,-1010.18 2370.09,-1023.23C2370.26,-1024.61 2371.38,-1024.58 2371.11,-1022.62C2370.81,-1017.31 2369.16,-1012.36 2366.88,-1007.52C2370.72,-1007.52 2375.01,-1007.52 2378.5,-1007.52C2376.22,-1012.36 2374.57,-1017.31 2374.27,-1022.62C2374,-1024.58 2375.12,-1024.61 2375.29,-1023.23C2378.51,-1010.18 2395.66,-1013.71 2395.07,-1025.99C2394.6,-1035.95 2385.25,-1038.1 2380.38,-1034.84C2378.45,-1033.64 2378.56,-1034.36 2379.61,-1035.6C2386.85,-1044.15 2382.47,-1055.15 2372.69,-1055.37C2372.69,-1055.37 2372.69,-1055.37 2372.68,-1055.37L2372.69,-1055.37Z" style="fill-rule:nonzero;"/>
            </g>
            <g id="path147-0-8-1-6-7-5-5-7-62-3-0" transform="matrix(0.999997,0,0,1,-0.989822,-5.55051)">
                <path d="M2475.76,-809.732C2465.98,-809.944 2461.6,-820.949 2468.84,-829.495C2469.89,-830.742 2470,-831.457 2468.07,-830.259C2463.2,-827 2453.85,-829.143 2453.38,-839.107C2452.78,-851.384 2469.94,-854.921 2473.16,-841.866C2473.33,-840.489 2474.45,-840.521 2474.18,-842.476C2473.89,-847.782 2472.23,-852.742 2469.95,-857.578C2473.79,-857.578 2478.08,-857.578 2481.57,-857.578C2479.29,-852.742 2477.64,-847.782 2477.34,-842.476C2477.07,-840.521 2478.19,-840.489 2478.36,-841.866C2481.58,-854.921 2498.74,-851.384 2498.14,-839.107C2497.67,-829.143 2488.32,-827 2483.45,-830.259C2481.52,-831.457 2481.63,-830.741 2482.68,-829.495C2489.92,-820.949 2485.54,-809.944 2475.76,-809.732C2475.76,-809.732 2475.76,-809.732 2475.75,-809.732L2475.76,-809.732Z" style="fill-rule:nonzero;"/>
            </g>
            <g id="path147-0-8-1-6-75-6-1-2-41-4-5" transform="matrix(0.999997,0,0,1,-0.989822,-5.55051)">
                <path d="M2372.69,-809.732C2362.91,-809.944 2358.53,-820.949 2365.77,-829.495C2366.82,-830.742 2366.93,-831.457 2365,-830.259C2360.13,-827 2350.78,-829.143 2350.3,-839.107C2349.71,-851.384 2366.87,-854.921 2370.09,-841.866C2370.26,-840.489 2371.38,-840.521 2371.11,-842.476C2370.81,-847.782 2369.16,-852.742 2366.88,-857.578C2370.72,-857.578 2375.01,-857.578 2378.5,-857.578C2376.22,-852.742 2374.57,-847.782 2374.27,-842.476C2374,-840.521 2375.12,-840.489 2375.29,-841.866C2378.51,-854.921 2395.66,-851.384 2395.07,-839.107C2394.6,-829.143 2385.25,-827 2380.38,-830.259C2378.45,-831.457 2378.56,-830.741 2379.61,-829.495C2386.85,-820.949 2382.47,-809.944 2372.69,-809.732C2372.69,-809.732 2372.69,-809.732 2372.68,-809.732L2372.69,-809.732Z" style="fill-rule:nonzero;"/>
            </g>
            <g id="path147-0-8-1-6-2-00-7-5-5-3" transform="matrix(0.999997,0,0,1,-0.989822,-5.55051)">
                <path d="M2424.22,-1005.92C2414.45,-1005.71 2410.06,-994.701 2417.3,-986.155C2418.35,-984.908 2418.46,-984.193 2416.54,-985.39C2411.66,-988.649 2402.32,-986.507 2401.84,-976.543C2401.25,-964.266 2418.4,-960.729 2421.62,-973.783C2421.79,-975.161 2422.91,-975.129 2422.64,-973.174C2422.35,-967.868 2420.69,-962.908 2418.41,-958.071C2422.25,-958.071 2426.55,-958.071 2430.03,-958.071C2427.76,-962.908 2426.1,-967.868 2425.81,-973.174C2425.54,-975.129 2426.66,-975.161 2426.83,-973.783C2430.05,-960.729 2447.2,-964.266 2446.61,-976.543C2446.13,-986.507 2436.79,-988.649 2431.91,-985.39C2429.99,-984.193 2430.1,-984.908 2431.15,-986.155C2438.39,-994.701 2434,-1005.71 2424.23,-1005.92C2424.23,-1005.92 2424.23,-1005.92 2424.22,-1005.92L2424.22,-1005.92Z" style="fill-rule:nonzero;"/>
            </g>
            <g id="path147-0-8-1-6-7-5-7-3-0-4-4-6" transform="matrix(0.999997,0,0,1,-0.989822,-5.55051)">
                <path d="M2475.76,-956.471C2465.98,-956.259 2461.6,-945.254 2468.84,-936.708C2469.89,-935.462 2470,-934.746 2468.07,-935.944C2463.2,-939.203 2453.85,-937.06 2453.38,-927.096C2452.78,-914.819 2469.94,-911.282 2473.16,-924.337C2473.33,-925.714 2474.45,-925.683 2474.18,-923.728C2473.89,-918.421 2472.23,-913.461 2469.95,-908.625C2473.79,-908.625 2478.08,-908.625 2481.57,-908.625C2479.29,-913.461 2477.64,-918.421 2477.34,-923.728C2477.07,-925.683 2478.19,-925.714 2478.36,-924.337C2481.58,-911.282 2498.74,-914.819 2498.14,-927.096C2497.67,-937.06 2488.32,-939.203 2483.45,-935.944C2481.52,-934.746 2481.63,-935.462 2482.68,-936.708C2489.92,-945.254 2485.54,-956.259 2475.76,-956.471C2475.76,-956.471 2475.76,-956.471 2475.75,-956.471L2475.76,-956.471Z" style="fill-rule:nonzero;"/>
            </g>
            <g id="path147-0-8-1-6-75-6-6-5-3-2-4-8" transform="matrix(0.999997,0,0,1,-0.989822,-5.55051)">
                <path d="M2372.69,-956.471C2362.91,-956.259 2358.53,-945.254 2365.77,-936.708C2366.82,-935.462 2366.93,-934.746 2365,-935.944C2360.13,-939.203 2350.78,-937.06 2350.3,-927.096C2349.71,-914.819 2366.87,-911.282 2370.09,-924.337C2370.26,-925.714 2371.38,-925.683 2371.11,-923.728C2370.81,-918.421 2369.16,-913.461 2366.88,-908.625C2370.72,-908.625 2375.01,-908.625 2378.5,-908.625C2376.22,-913.461 2374.57,-918.421 2374.27,-923.728C2374,-925.683 2375.12,-925.714 2375.29,-924.337C2378.51,-911.282 2395.66,-914.819 2395.07,-927.096C2394.6,-937.06 2385.25,-939.203 2380.38,-935.944C2378.45,-934.746 2378.56,-935.462 2379.61,-936.708C2386.85,-945.254 2382.47,-956.259 2372.69,-956.471C2372.69,-956.471 2372.69,-956.471 2372.68,-956.471L2372.69,-956.471Z" style="fill-rule:nonzero;"/>
            </g>
            <g id="path147-0-8-1-6-2-0-8-6-42-9-6" transform="matrix(0.999997,0,0,1,-0.989822,-5.55051)">
                <path d="M2424.22,-859.178C2414.45,-859.391 2410.06,-870.396 2417.3,-878.942C2418.35,-880.188 2418.46,-880.903 2416.54,-879.706C2411.66,-876.447 2402.32,-878.59 2401.84,-888.553C2401.25,-900.83 2418.4,-904.368 2421.62,-891.313C2421.79,-889.936 2422.91,-889.967 2422.64,-891.922C2422.35,-897.229 2420.69,-902.188 2418.41,-907.025C2422.25,-907.025 2426.55,-907.025 2430.03,-907.025C2427.76,-902.188 2426.1,-897.229 2425.81,-891.922C2425.54,-889.967 2426.66,-889.936 2426.83,-891.313C2430.05,-904.368 2447.2,-900.83 2446.61,-888.553C2446.13,-878.59 2436.79,-876.447 2431.91,-879.706C2429.99,-880.903 2430.1,-880.188 2431.15,-878.942C2438.39,-870.396 2434,-859.391 2424.23,-859.178C2424.23,-859.178 2424.23,-859.178 2424.22,-859.178L2424.22,-859.178Z" style="fill-rule:nonzero;"/>
            </g>
            <g id="path147-6-9-8-7-0-5-6-1-6-9" transform="matrix(0.999997,0,0,1,-0.989822,-5.55051)">
                <path d="M2518.2,-827.369C2522.11,-827.458 2523.87,-832.043 2520.97,-835.604C2520.55,-836.123 2520.51,-836.421 2521.28,-835.922C2523.23,-834.564 2526.96,-835.457 2527.16,-839.609C2527.39,-844.724 2520.53,-846.198 2519.24,-840.759C2519.17,-840.185 2518.73,-840.198 2518.83,-841.012C2518.95,-843.223 2519.61,-845.29 2520.53,-847.305C2518.98,-847.305 2517.43,-847.305 2515.88,-847.305C2516.79,-845.29 2517.45,-843.223 2517.57,-841.012C2517.68,-840.198 2517.23,-840.185 2517.16,-840.759C2515.87,-846.198 2509.01,-844.724 2509.25,-839.609C2509.44,-835.457 2513.18,-834.564 2515.13,-835.922C2515.9,-836.421 2515.85,-836.123 2515.43,-835.604C2512.54,-832.043 2514.29,-827.458 2518.2,-827.369C2518.2,-827.369 2518.2,-827.369 2518.2,-827.369L2518.2,-827.369Z" style="fill-rule:nonzero;"/>
            </g>
            <g id="path147-6-9-8-7-4-5-62-4-0-0" transform="matrix(0.999997,0,0,1,-0.989822,-5.55051)">
                <path d="M2330.25,-1038.56C2326.34,-1038.47 2324.59,-1033.88 2327.48,-1030.32C2327.9,-1029.8 2327.94,-1029.5 2327.18,-1030C2325.22,-1031.36 2321.49,-1030.47 2321.3,-1026.32C2321.06,-1021.2 2327.92,-1019.73 2329.21,-1025.17C2329.28,-1025.74 2329.72,-1025.73 2329.62,-1024.91C2329.5,-1022.7 2328.84,-1020.63 2327.93,-1018.62C2329.47,-1018.62 2331.02,-1018.62 2332.57,-1018.62C2331.66,-1020.63 2331,-1022.7 2330.88,-1024.91C2330.77,-1025.73 2331.22,-1025.74 2331.29,-1025.17C2332.58,-1019.73 2339.44,-1021.2 2339.2,-1026.32C2339.01,-1030.47 2335.27,-1031.36 2333.32,-1030C2332.55,-1029.5 2332.6,-1029.8 2333.02,-1030.32C2335.91,-1033.88 2334.16,-1038.47 2330.25,-1038.56L2330.25,-1038.56Z" style="fill-rule:nonzero;"/>
            </g>
            <g id="path27-3-3-2" transform="matrix(0.999997,0,0,1,-0.989822,-5.55051)">
                <path d="M2319.58,-1051.32C2319.73,-1055.73 2321.33,-1057.39 2324.47,-1059.7C2321.96,-1061.51 2320.91,-1064.18 2321.12,-1066.45C2321.64,-1071.94 2325.88,-1074.69 2330.5,-1074.57C2335.13,-1074.45 2339.12,-1070.78 2339.43,-1066.78C2339.7,-1063.31 2338.67,-1061.63 2336.21,-1059.81C2339.13,-1057.34 2340.99,-1055.72 2340.92,-1051.37C2340.85,-1047.02 2337.16,-1041.84 2330.72,-1041.68C2324.28,-1041.53 2319.42,-1046.9 2319.58,-1051.32L2319.58,-1051.32ZM2337.56,-1051.3C2337.83,-1055.3 2334.3,-1058 2330.32,-1058.04C2326.44,-1058.08 2322.97,-1054.76 2322.97,-1051.17C2322.97,-1047.32 2327.48,-1045.22 2330.4,-1045.21C2333.94,-1045.2 2337.32,-1047.86 2337.56,-1051.3ZM2336.28,-1065.6C2336.36,-1068.97 2333.26,-1071.38 2330.06,-1071.28C2327.21,-1071.2 2324.2,-1069.02 2324.2,-1066.21C2324.2,-1062.69 2327.62,-1060.93 2330.55,-1060.86C2333.2,-1060.8 2336.22,-1063.06 2336.28,-1065.6L2336.28,-1065.6Z" style="fill-rule:nonzero;"/>
            </g>
            <g id="path27-0-0-5-0" transform="matrix(0.999997,0,0,1,-0.989822,-5.55051)">
                <path d="M2507.53,-814.608C2507.68,-810.192 2509.28,-808.536 2512.42,-806.226C2509.91,-804.416 2508.86,-801.75 2509.07,-799.48C2509.59,-793.983 2513.83,-791.235 2518.45,-791.353C2523.08,-791.476 2527.07,-795.15 2527.38,-799.144C2527.65,-802.616 2526.62,-804.292 2524.16,-806.119C2527.08,-808.587 2528.94,-810.208 2528.87,-814.557C2528.8,-818.907 2525.11,-824.082 2518.67,-824.24C2512.23,-824.398 2507.37,-819.024 2507.53,-814.608ZM2525.51,-814.624C2525.78,-810.626 2522.25,-807.929 2518.27,-807.89C2514.39,-807.848 2510.92,-811.164 2510.92,-814.753C2510.92,-818.608 2515.43,-820.703 2518.35,-820.712C2521.89,-820.728 2525.27,-818.066 2525.51,-814.624L2525.51,-814.624ZM2524.23,-800.322C2524.31,-796.958 2521.21,-794.545 2518.01,-794.641C2515.16,-794.729 2512.15,-796.901 2512.15,-799.715C2512.15,-803.238 2515.57,-804.998 2518.5,-805.065C2521.15,-805.125 2524.17,-802.866 2524.23,-800.322L2524.23,-800.322Z" style="fill-rule:nonzero;"/>
            </g>
        </g>
    </g>
</svg>
