<?xml version="1.0" encoding="UTF-8" standalone="no"?>
<!DOCTYPE svg PUBLIC "-//W3C//DTD SVG 1.1//EN" "http://www.w3.org/Graphics/SVG/1.1/DTD/svg11.dtd">
<svg width="100%" height="100%" viewBox="0 0 227 316" version="1.1" xmlns="http://www.w3.org/2000/svg" xmlns:xlink="http://www.w3.org/1999/xlink" xml:space="preserve" style="fill-rule:evenodd;clip-rule:evenodd;">
    <g transform="matrix(1,0,0,1,-2310,-2147)">
        <g transform="matrix(1,0,0,1,0,2187.64)">
            <g id="rect6894-2" transform="matrix(0.995535,0,0,0.996803,9.82772,-8.13974)">
                <path d="M2535.84,-19.733C2535.84,-25.645 2531.03,-30.445 2525.11,-30.445L2323.34,-30.445C2317.42,-30.445 2312.61,-25.645 2312.61,-19.733L2312.61,270.654C2312.61,276.566 2317.42,281.366 2323.34,281.366L2525.11,281.366C2531.03,281.366 2535.84,276.566 2535.84,270.654L2535.84,-19.733Z" style="fill:white;stroke:black;stroke-width:1px;"/>
            </g>
            <g id="path6926-2" transform="matrix(0.995535,0,0,0.996803,9.82772,-8.13974)">
                <path d="M2329.83,39.528C2327.67,35.96 2325.39,32.491 2322.55,29.528C2325.39,26.566 2327.67,23.097 2329.83,19.528C2331.99,23.097 2334.26,26.566 2337.1,29.528C2334.26,32.491 2331.99,35.96 2329.83,39.528Z" style="fill:rgb(212,0,0);fill-rule:nonzero;"/>
            </g>
            <g id="path6928-9" transform="matrix(0.995535,0,0,0.996803,9.82772,-8.13974)">
                <path d="M2475.99,50.25C2470.8,41.685 2465.35,33.361 2458.53,26.25C2465.35,19.139 2470.8,10.815 2475.99,2.25C2481.18,10.815 2486.63,19.139 2493.45,26.25C2486.63,33.361 2481.18,41.685 2475.99,50.25Z" style="fill:rgb(212,0,0);fill-rule:nonzero;"/>
            </g>
            <g id="path6930-6" transform="matrix(0.995535,0,0,0.996803,9.82772,-8.13974)">
                <path d="M2518.62,231.393C2516.46,227.824 2514.19,224.356 2511.35,221.393C2514.19,218.43 2516.46,214.962 2518.62,211.393C2520.78,214.962 2523.06,218.43 2525.9,221.393C2523.06,224.356 2520.78,227.824 2518.62,231.393Z" style="fill:rgb(212,0,0);fill-rule:nonzero;"/>
            </g>
            <g id="path6932-2" transform="matrix(0.995535,0,0,0.996803,9.82772,-8.13974)">
                <path d="M2372.46,50.25C2367.27,41.685 2361.82,33.361 2355,26.25C2361.82,19.139 2367.27,10.815 2372.46,2.25C2377.64,10.815 2383.1,19.139 2389.92,26.25C2383.1,33.361 2377.64,41.685 2372.46,50.25Z" style="fill:rgb(212,0,0);fill-rule:nonzero;"/>
            </g>
            <g id="path6938-4" transform="matrix(0.995535,0,0,0.996803,9.82772,-8.13974)">
                <path d="M2424.22,99.839C2419.04,91.274 2413.58,82.95 2406.76,75.839C2413.58,68.728 2419.04,60.404 2424.22,51.839C2429.41,60.404 2434.87,68.728 2441.69,75.839C2434.87,82.95 2429.41,91.274 2424.22,99.839Z" style="fill:rgb(212,0,0);fill-rule:nonzero;"/>
            </g>
            <g id="path6942-4" transform="matrix(0.995535,0,0,0.996803,9.82772,-8.13974)">
                <path d="M2372.46,149.428C2367.27,140.864 2361.82,132.539 2355,125.428C2361.82,118.318 2367.27,109.993 2372.46,101.428C2377.64,109.993 2383.1,118.318 2389.92,125.428C2383.1,132.539 2377.64,140.864 2372.46,149.428Z" style="fill:rgb(212,0,0);fill-rule:nonzero;"/>
            </g>
            <g id="path6944-9" transform="matrix(0.995535,0,0,0.996803,9.82772,-8.13974)">
                <path d="M2475.99,149.444C2470.8,140.879 2465.35,132.555 2458.53,125.444C2465.35,118.333 2470.8,110.009 2475.99,101.444C2481.18,110.009 2486.63,118.333 2493.45,125.444C2486.63,132.555 2481.18,140.879 2475.99,149.444Z" style="fill:rgb(212,0,0);fill-rule:nonzero;"/>
            </g>
            <g id="path6948-4" transform="matrix(0.995535,0,0,0.996803,9.82772,-8.13974)">
                <path d="M2372.46,248.676C2367.27,240.112 2361.82,231.787 2355,224.676C2361.82,217.565 2367.27,209.241 2372.46,200.676C2377.64,209.241 2383.1,217.565 2389.92,224.676C2383.1,231.787 2377.64,240.112 2372.46,248.676Z" style="fill:rgb(212,0,0);fill-rule:nonzero;"/>
            </g>
            <g id="path6950-4" transform="matrix(0.995535,0,0,0.996803,9.82772,-8.13974)">
                <path d="M2475.99,248.683C2470.8,240.119 2465.35,231.794 2458.53,224.683C2465.35,217.573 2470.8,209.248 2475.99,200.683C2481.18,209.248 2486.63,217.573 2493.45,224.683C2486.63,231.794 2481.18,240.119 2475.99,248.683Z" style="fill:rgb(212,0,0);fill-rule:nonzero;"/>
            </g>
            <g id="path6956-4" transform="matrix(0.995535,0,0,0.996803,9.82772,-8.13974)">
                <path d="M2424.22,199.052C2419.04,190.488 2413.58,182.163 2406.76,175.052C2413.58,167.942 2419.04,159.617 2424.22,151.052C2429.41,159.617 2434.87,167.942 2441.69,175.052C2434.87,182.163 2429.41,190.488 2424.22,199.052Z" style="fill:rgb(212,0,0);fill-rule:nonzero;"/>
            </g>
            <g id="path27-00-7-8-6" transform="matrix(0.995535,0,0,0.996803,9.82772,-8.13974)">
                <path d="M2319.11,6.727C2319.26,2.297 2320.87,0.635 2324.02,-1.683C2321.5,-3.498 2320.44,-6.173 2320.66,-8.451C2321.18,-13.965 2325.43,-16.721 2330.08,-16.604C2334.73,-16.48 2338.73,-12.794 2339.05,-8.787C2339.32,-5.304 2338.28,-3.622 2335.81,-1.79C2338.74,0.686 2340.62,2.312 2340.55,6.676C2340.48,11.039 2336.77,16.231 2330.3,16.389C2323.83,16.548 2318.95,11.157 2319.11,6.727L2319.11,6.727ZM2337.17,6.743C2337.44,2.732 2333.9,0.026 2329.89,-0.013C2326,-0.055 2322.51,3.271 2322.51,6.872C2322.51,10.739 2327.05,12.841 2329.98,12.85C2333.54,12.866 2336.93,10.196 2337.17,6.743L2337.17,6.743ZM2335.89,-7.606C2335.96,-10.98 2332.85,-13.401 2329.63,-13.305C2326.78,-13.217 2323.75,-11.038 2323.75,-8.215C2323.75,-4.68 2327.19,-2.915 2330.13,-2.847C2332.79,-2.787 2335.83,-5.053 2335.89,-7.606L2335.89,-7.606Z" style="fill:rgb(212,0,0);fill-rule:nonzero;"/>
            </g>
            <g id="path27-0-1-9-8" transform="matrix(0.995535,0,0,0.996803,9.82772,-8.13974)">
                <path d="M2507.9,244.195C2508.06,248.625 2509.66,250.287 2512.81,252.604C2510.3,254.419 2509.24,257.095 2509.45,259.372C2509.97,264.886 2514.23,267.643 2518.88,267.525C2523.53,267.402 2527.53,263.716 2527.84,259.708C2528.11,256.225 2527.08,254.544 2524.61,252.712C2527.54,250.236 2529.41,248.609 2529.34,244.246C2529.27,239.883 2525.56,234.69 2519.09,234.532C2512.62,234.373 2507.74,239.765 2507.9,244.195L2507.9,244.195ZM2525.96,244.179C2526.24,248.19 2522.69,250.895 2518.69,250.935C2514.79,250.977 2511.31,247.65 2511.31,244.049C2511.31,240.182 2515.84,238.08 2518.77,238.071C2522.33,238.055 2525.72,240.726 2525.96,244.179L2525.96,244.179ZM2524.68,258.527C2524.76,261.902 2521.64,264.323 2518.43,264.226C2515.57,264.138 2512.55,261.959 2512.54,259.136C2512.54,255.602 2515.98,253.836 2518.92,253.768C2521.59,253.708 2524.62,255.975 2524.68,258.527L2524.68,258.527Z" style="fill:rgb(212,0,0);fill-rule:nonzero;"/>
            </g>
        </g>
    </g>
</svg>
