<?xml version="1.0" encoding="UTF-8" standalone="no"?>
<!DOCTYPE svg PUBLIC "-//W3C//DTD SVG 1.1//EN" "http://www.w3.org/Graphics/SVG/1.1/DTD/svg11.dtd">
<svg width="100%" height="100%" viewBox="0 0 227 316" version="1.1" xmlns="http://www.w3.org/2000/svg" xmlns:xlink="http://www.w3.org/1999/xlink" xml:space="preserve" style="fill-rule:evenodd;clip-rule:evenodd;">
    <g transform="matrix(1,0,0,1,-2310,-1443)">
        <g transform="matrix(1,0,0,1,0,2187.64)">
            <g id="rect10142-4-2" transform="matrix(0.995538,0,0,0.996801,2052.84,-1111.2)">
                <path d="M483.661,380.987C483.661,375.075 478.855,370.276 472.936,370.276L271.158,370.276C265.239,370.276 260.433,375.075 260.433,380.987L260.433,671.375C260.433,677.287 265.239,682.087 271.158,682.087L472.936,682.087C478.855,682.087 483.661,677.287 483.661,671.375L483.661,380.987Z" style="fill:white;stroke:black;stroke-width:1px;"/>
            </g>
            <g id="path10174-9-0" transform="matrix(0.995538,0,0,0.996801,2424.22,-532.688)">
                <path d="M-95.397,-140.121C-95.397,-140.121 -97.622,-143.311 -100.623,-147.061C-102.63,-149.571 -104.235,-152.289 -104.385,-154.629C-104.556,-157.303 -102.936,-159.986 -100.002,-160.116C-97.071,-160.246 -95.881,-158.054 -95.397,-156.247C-94.912,-158.054 -93.723,-160.246 -90.791,-160.116C-87.858,-159.986 -86.238,-157.303 -86.409,-154.629C-86.558,-152.289 -88.163,-149.571 -90.171,-147.061C-93.172,-143.311 -95.397,-140.121 -95.397,-140.121L-95.397,-140.121Z" style="fill:rgb(212,0,0);fill-rule:nonzero;"/>
            </g>
            <g id="path10176-9-9" transform="matrix(0.995538,0,0,0.996801,2424.22,-532.688)">
                <path d="M93.398,31.743C93.398,31.746 91.173,34.933 88.172,38.684C86.164,41.193 84.559,43.911 84.41,46.251C84.239,48.925 85.859,51.608 88.792,51.738C91.723,51.868 92.913,49.676 93.398,47.869C93.882,49.676 95.072,51.868 98.003,51.738C100.936,51.608 102.556,48.925 102.385,46.251C102.236,43.911 100.631,41.193 98.623,38.684C95.622,34.933 93.4,31.746 93.398,31.743L93.398,31.743Z" style="fill:rgb(212,0,0);fill-rule:nonzero;"/>
            </g>
            <g id="path10178-8-4" transform="matrix(0.995538,0,0,0.996801,-117.307,318.486)">
                <path d="M2551.92,-933.7C2551.92,-933.7 2547.26,-941.355 2540.96,-950.356C2536.75,-956.379 2533.38,-962.901 2533.07,-968.519C2532.71,-974.937 2536.11,-981.375 2542.26,-981.687C2548.41,-981.998 2550.91,-976.739 2551.92,-972.402C2552.94,-976.739 2555.43,-981.998 2561.58,-981.687C2567.74,-981.375 2571.13,-974.937 2570.78,-968.519C2570.46,-962.901 2567.1,-956.379 2562.88,-950.356C2556.59,-941.355 2551.92,-933.7 2551.92,-933.7Z" style="fill:rgb(212,0,0);fill-rule:nonzero;"/>
            </g>
            <g id="path10182-1-9" transform="matrix(0.995538,0,0,0.996801,2424.22,-532.688)">
                <path d="M-52.766,-129.4C-52.766,-129.4 -57.433,-137.055 -63.727,-146.056C-67.938,-152.079 -71.305,-158.601 -71.618,-164.219C-71.977,-170.636 -68.579,-177.074 -62.427,-177.386C-56.278,-177.698 -53.782,-172.438 -52.766,-168.102C-51.75,-172.438 -49.255,-177.698 -43.106,-177.386C-36.954,-177.074 -33.556,-170.636 -33.915,-164.219C-34.228,-158.601 -37.594,-152.079 -41.805,-146.056C-48.1,-137.055 -52.766,-129.4 -52.766,-129.4Z" style="fill:rgb(212,0,0);fill-rule:nonzero;"/>
            </g>
            <g id="path10184-9-1" transform="matrix(0.995538,0,0,0.996801,2424.22,-532.688)">
                <path d="M50.766,-30.189C50.766,-30.189 46.1,-37.844 39.805,-46.845C35.594,-52.868 32.228,-59.391 31.915,-65.008C31.556,-71.426 34.954,-77.864 41.106,-78.176C47.255,-78.488 49.75,-73.228 50.766,-68.891C51.782,-73.228 54.278,-78.488 60.427,-78.176C66.579,-77.864 69.977,-71.426 69.618,-65.008C69.305,-59.391 65.938,-52.868 61.727,-46.845C55.433,-37.844 50.766,-30.189 50.766,-30.189L50.766,-30.189Z" style="fill:rgb(212,0,0);fill-rule:nonzero;"/>
            </g>
            <g id="path10188-5-4" transform="matrix(0.995538,0,0,0.996801,2424.22,-532.688)">
                <path d="M50.766,-129.4C50.766,-129.4 46.1,-137.055 39.805,-146.056C35.594,-152.079 32.228,-158.601 31.915,-164.219C31.556,-170.636 34.954,-177.074 41.106,-177.386C47.255,-177.698 49.75,-172.438 50.766,-168.102C51.782,-172.438 54.278,-177.698 60.427,-177.386C66.579,-177.074 69.977,-170.636 69.618,-164.219C69.305,-158.601 65.938,-152.079 61.727,-146.056C55.433,-137.055 50.766,-129.4 50.766,-129.4Z" style="fill:rgb(212,0,0);fill-rule:nonzero;"/>
            </g>
            <g id="path10192-3-6" transform="matrix(0.995538,0,0,0.996801,2424.22,-532.688)">
                <path d="M-52.766,-30.189C-52.766,-30.189 -57.433,-37.844 -63.727,-46.845C-67.938,-52.868 -71.305,-59.391 -71.618,-65.008C-71.977,-71.426 -68.579,-77.864 -62.427,-78.176C-56.278,-78.488 -53.782,-73.228 -52.766,-68.891C-51.75,-73.228 -49.255,-78.488 -43.106,-78.176C-36.954,-77.864 -33.556,-71.426 -33.915,-65.008C-34.228,-59.391 -37.594,-52.868 -41.805,-46.845C-48.1,-37.844 -52.766,-30.189 -52.766,-30.189L-52.766,-30.189Z" style="fill:rgb(212,0,0);fill-rule:nonzero;"/>
            </g>
            <g id="path10196-7-3" transform="matrix(0.995538,0,0,0.996801,-117.307,318.486)">
                <path d="M2551.92,-882.489C2551.92,-882.489 2547.26,-874.834 2540.96,-865.833C2536.75,-859.81 2533.38,-853.288 2533.07,-847.67C2532.71,-841.252 2536.11,-834.814 2542.26,-834.502C2548.41,-834.19 2550.91,-839.45 2551.92,-843.787C2552.94,-839.45 2555.43,-834.191 2561.58,-834.502C2567.74,-834.814 2571.13,-841.252 2570.78,-847.67C2570.46,-853.288 2567.1,-859.81 2562.88,-865.833C2556.59,-874.834 2551.92,-882.489 2551.92,-882.489Z" style="fill:rgb(212,0,0);fill-rule:nonzero;"/>
            </g>
            <g id="path10202-2-8" transform="matrix(0.995538,0,0,0.996801,2424.22,-532.688)">
                <path d="M50.766,21.022C50.766,21.022 46.1,28.677 39.805,37.678C35.594,43.701 32.228,50.223 31.915,55.841C31.556,62.258 34.954,68.696 41.106,69.008C47.255,69.32 49.75,64.06 50.766,59.724C51.782,64.06 54.278,69.32 60.427,69.008C66.579,68.696 69.977,62.258 69.618,55.841C69.305,50.223 65.938,43.701 61.727,37.678C55.433,28.677 50.766,21.022 50.766,21.022L50.766,21.022Z" style="fill:rgb(212,0,0);fill-rule:nonzero;"/>
            </g>
            <g id="path10204-9-4" transform="matrix(0.995538,0,0,0.996801,2424.22,-532.688)">
                <path d="M-52.766,21.022C-52.766,21.022 -57.433,28.677 -63.727,37.678C-67.938,43.701 -71.305,50.223 -71.618,55.841C-71.977,62.258 -68.579,68.696 -62.427,69.008C-56.278,69.32 -53.782,64.06 -52.766,59.724C-51.75,64.06 -49.255,69.32 -43.106,69.008C-36.954,68.696 -33.556,62.258 -33.915,55.841C-34.228,50.223 -37.594,43.701 -41.805,37.678C-48.1,28.677 -52.766,21.022 -52.766,21.022L-52.766,21.022Z" style="fill:rgb(212,0,0);fill-rule:nonzero;"/>
            </g>
            <g id="path27-00-0-7-4" transform="matrix(0.995538,0,0,0.996801,-117.307,318.486)">
                <path d="M2446.8,-1026.83C2446.96,-1031.26 2448.56,-1032.92 2451.72,-1035.24C2449.2,-1037.05 2448.14,-1039.73 2448.36,-1042.01C2448.88,-1047.52 2453.13,-1050.28 2457.78,-1050.16C2462.43,-1050.04 2466.43,-1046.35 2466.74,-1042.34C2467.02,-1038.86 2465.98,-1037.18 2463.51,-1035.35C2466.44,-1032.87 2468.32,-1031.24 2468.25,-1026.88C2468.18,-1022.52 2464.47,-1017.32 2458,-1017.17C2451.53,-1017.01 2446.64,-1022.4 2446.8,-1026.83L2446.8,-1026.83ZM2464.87,-1026.81C2465.14,-1030.82 2461.6,-1033.53 2457.59,-1033.57C2453.7,-1033.61 2450.21,-1030.28 2450.21,-1026.68C2450.21,-1022.82 2454.74,-1020.71 2457.67,-1020.71C2461.23,-1020.69 2464.62,-1023.36 2464.87,-1026.81ZM2463.59,-1041.16C2463.66,-1044.54 2460.55,-1046.96 2457.33,-1046.86C2454.47,-1046.77 2451.45,-1044.59 2451.45,-1041.77C2451.45,-1038.24 2454.89,-1036.47 2457.83,-1036.4C2460.49,-1036.34 2463.52,-1038.61 2463.58,-1041.16L2463.59,-1041.16Z" style="fill:rgb(212,0,0);fill-rule:nonzero;stroke:black;stroke-width:1px;"/>
            </g>
            <g id="path27-0-1-0-8-9" transform="matrix(0.995538,0,0,0.996801,-117.307,318.486)">
                <path d="M2635.6,-789.36C2635.76,-784.93 2637.36,-783.269 2640.51,-780.951C2638,-779.136 2636.93,-776.46 2637.15,-774.183C2637.67,-768.669 2641.93,-765.912 2646.57,-766.03C2651.22,-766.153 2655.23,-769.84 2655.54,-773.847C2655.81,-777.33 2654.78,-779.011 2652.3,-780.843C2655.24,-783.32 2657.11,-784.946 2657.04,-789.309C2656.97,-793.673 2653.26,-798.865 2646.79,-799.023C2640.32,-799.182 2635.44,-793.79 2635.6,-789.36ZM2653.66,-789.376C2653.94,-785.365 2650.39,-782.66 2646.39,-782.621C2642.49,-782.579 2639.01,-785.905 2639.01,-789.506C2639.01,-793.373 2643.54,-795.475 2646.47,-795.484C2650.03,-795.5 2653.42,-792.829 2653.66,-789.376ZM2652.38,-775.028C2652.45,-771.654 2649.34,-769.232 2646.13,-769.329C2643.27,-769.417 2640.25,-771.596 2640.24,-774.419C2640.24,-777.954 2643.68,-779.719 2646.62,-779.787C2649.29,-779.847 2652.32,-777.58 2652.38,-775.028L2652.38,-775.028Z" style="fill:rgb(212,0,0);fill-rule:nonzero;"/>
            </g>
        </g>
    </g>
</svg>
