<?xml version="1.0" encoding="UTF-8" standalone="no"?>
<!DOCTYPE svg PUBLIC "-//W3C//DTD SVG 1.1//EN" "http://www.w3.org/Graphics/SVG/1.1/DTD/svg11.dtd">
<svg width="100%" height="100%" viewBox="0 0 227 316" version="1.1" xmlns="http://www.w3.org/2000/svg" xmlns:xlink="http://www.w3.org/1999/xlink" xml:space="preserve" style="fill-rule:evenodd;clip-rule:evenodd;">
    <g transform="matrix(1,0,0,1,-2310,-1795)">
        <g transform="matrix(1,0,0,1,0,2187.64)">
            <g id="rect7125-2-7" transform="matrix(0.995538,0,0,0.996801,-284.597,79.6016)">
                <path d="M2831.58,-460.696C2831.58,-466.608 2826.77,-471.408 2820.85,-471.408L2619.07,-471.408C2613.15,-471.408 2608.35,-466.608 2608.35,-460.696L2608.35,-170.309C2608.35,-164.397 2613.15,-159.597 2619.07,-159.597L2820.85,-159.597C2826.77,-159.597 2831.58,-164.397 2831.58,-170.309L2831.58,-460.696Z" style="fill:white;stroke:black;stroke-width:1px;"/>
            </g>
            <g id="path7155-4-0" transform="matrix(0.995538,0,0,0.996801,-284.597,79.6016)">
                <path d="M2668.2,-438.713C2658.97,-425.556 2649.1,-417.985 2648.93,-407.72C2648.88,-404.396 2650.68,-398.747 2656.3,-397.665C2659.96,-396.967 2664.99,-399.923 2665.09,-405.928C2665.07,-407.123 2666.36,-407.092 2666.34,-405.454C2666.17,-400.717 2664.67,-395.202 2662.15,-390.713C2666.18,-390.713 2670.21,-390.713 2674.24,-390.713C2671.72,-395.202 2670.22,-400.717 2670.05,-405.454C2670.03,-407.092 2671.32,-407.123 2671.3,-405.928C2671.41,-399.923 2676.43,-396.967 2680.09,-397.665C2685.72,-398.747 2687.51,-404.396 2687.46,-407.72C2687.29,-417.985 2677.42,-425.556 2668.2,-438.713L2668.2,-438.713Z" style="fill-rule:nonzero;"/>
            </g>
            <g id="path7157-2-9" transform="matrix(0.995538,0,0,0.996801,-284.597,79.6016)">
                <path d="M2625.57,-421.435C2621.26,-415.953 2616.64,-412.798 2616.57,-408.521C2616.54,-407.136 2617.38,-404.782 2620.01,-404.332C2621.72,-404.041 2624.07,-405.272 2624.11,-407.774C2624.1,-408.272 2624.71,-408.259 2624.7,-407.577C2624.62,-405.603 2623.92,-403.305 2622.74,-401.435C2624.62,-401.435 2626.51,-401.435 2628.39,-401.435C2627.21,-403.305 2626.51,-405.603 2626.43,-407.577C2626.42,-408.259 2627.02,-408.272 2627.02,-407.774C2627.07,-405.272 2629.41,-404.041 2631.12,-404.332C2633.75,-404.782 2634.59,-407.136 2634.57,-408.521C2634.49,-412.798 2629.88,-415.953 2625.57,-421.435L2625.57,-421.435Z" style="fill-rule:nonzero;"/>
            </g>
            <g id="path7162-7-0" transform="matrix(0.995538,0,0,0.996801,-284.597,79.6016)">
                <path d="M2814.36,-209.57C2810.05,-215.052 2805.44,-218.207 2805.36,-222.484C2805.33,-223.869 2806.17,-226.223 2808.8,-226.674C2810.51,-226.965 2812.86,-225.733 2812.91,-223.231C2812.9,-222.733 2813.5,-222.746 2813.49,-223.428C2813.41,-225.402 2812.71,-227.7 2811.54,-229.57C2813.42,-229.57 2815.3,-229.57 2817.18,-229.57C2816.01,-227.7 2815.3,-225.402 2815.22,-223.428C2815.22,-222.746 2815.82,-222.733 2815.81,-223.231C2815.86,-225.733 2818.21,-226.965 2819.91,-226.674C2822.55,-226.223 2823.39,-223.869 2823.36,-222.484C2823.28,-218.207 2818.67,-215.052 2814.36,-209.57L2814.36,-209.57Z" style="fill-rule:nonzero;"/>
            </g>
            <g id="path7164-8-3" transform="matrix(0.995538,0,0,0.996801,-284.597,79.6016)">
                <path d="M2771.73,-438.713C2762.5,-425.556 2752.63,-417.985 2752.47,-407.72C2752.41,-404.396 2754.21,-398.747 2759.84,-397.665C2763.49,-396.967 2768.52,-399.923 2768.62,-405.928C2768.61,-407.123 2769.89,-407.092 2769.88,-405.454C2769.7,-400.717 2768.2,-395.202 2765.68,-390.713C2769.71,-390.713 2773.74,-390.713 2777.77,-390.713C2775.25,-395.202 2773.75,-400.717 2773.58,-405.454C2773.57,-407.092 2774.85,-407.123 2774.83,-405.928C2774.94,-399.923 2779.97,-396.967 2783.62,-397.665C2789.25,-398.747 2791.05,-404.396 2790.99,-407.72C2790.83,-417.985 2780.95,-425.556 2771.73,-438.713L2771.73,-438.713Z" style="fill-rule:nonzero;"/>
            </g>
            <g id="path7168-3-2" transform="matrix(0.995538,0,0,0.996801,-284.597,79.6016)">
                <path d="M2719.96,-389.108C2710.74,-375.951 2700.86,-368.379 2700.7,-358.115C2700.64,-354.791 2702.44,-349.141 2708.07,-348.06C2711.72,-347.362 2716.75,-350.317 2716.86,-356.322C2716.84,-357.518 2718.12,-357.487 2718.11,-355.849C2717.94,-351.112 2716.44,-345.597 2713.92,-341.108C2717.95,-341.108 2721.98,-341.108 2726.01,-341.108C2723.49,-345.597 2721.99,-351.112 2721.81,-355.849C2721.8,-357.487 2723.08,-357.518 2723.07,-356.322C2723.17,-350.317 2728.2,-347.362 2731.85,-348.06C2737.48,-349.141 2739.28,-354.791 2739.22,-358.115C2739.06,-368.379 2729.19,-375.951 2719.96,-389.108L2719.96,-389.108Z" style="fill-rule:nonzero;"/>
            </g>
            <g id="path7174-5-0" transform="matrix(0.995538,0,0,0.996801,-284.597,79.6016)">
                <path d="M2668.2,-339.503C2658.97,-326.346 2649.1,-318.774 2648.93,-308.509C2648.88,-305.185 2650.68,-299.536 2656.3,-298.455C2659.96,-297.756 2664.99,-300.712 2665.09,-306.717C2665.07,-307.913 2666.36,-307.882 2666.34,-306.243C2666.17,-301.507 2664.67,-295.992 2662.15,-291.503C2666.18,-291.503 2670.21,-291.503 2674.24,-291.503C2671.72,-295.992 2670.22,-301.507 2670.05,-306.243C2670.03,-307.882 2671.32,-307.913 2671.3,-306.717C2671.41,-300.712 2676.43,-297.756 2680.09,-298.455C2685.72,-299.536 2687.51,-305.185 2687.46,-308.509C2687.29,-318.774 2677.42,-326.346 2668.2,-339.503L2668.2,-339.503Z" style="fill-rule:nonzero;"/>
            </g>
            <g id="path7176-7-0" transform="matrix(0.995538,0,0,0.996801,-284.597,79.6016)">
                <path d="M2668.2,-192.292C2658.97,-205.449 2649.1,-213.021 2648.93,-223.285C2648.88,-226.609 2650.68,-232.259 2656.3,-233.34C2659.96,-234.038 2664.99,-231.083 2665.09,-225.078C2665.07,-223.882 2666.36,-223.913 2666.34,-225.551C2666.17,-230.288 2664.67,-235.803 2662.15,-240.292C2666.18,-240.292 2670.21,-240.292 2674.24,-240.292C2671.72,-235.803 2670.22,-230.288 2670.05,-225.551C2670.03,-223.913 2671.32,-223.882 2671.3,-225.078C2671.41,-231.083 2676.43,-234.038 2680.09,-233.34C2685.72,-232.259 2687.51,-226.609 2687.46,-223.285C2687.29,-213.021 2677.42,-205.449 2668.2,-192.292L2668.2,-192.292Z" style="fill-rule:nonzero;"/>
            </g>
            <g id="path7178-9-4" transform="matrix(0.995538,0,0,0.996801,-284.597,79.6016)">
                <path d="M2771.73,-192.292C2762.5,-205.449 2752.63,-213.021 2752.47,-223.285C2752.41,-226.609 2754.21,-232.259 2759.84,-233.34C2763.49,-234.038 2768.52,-231.083 2768.62,-225.078C2768.61,-223.882 2769.89,-223.913 2769.88,-225.551C2769.7,-230.288 2768.2,-235.803 2765.68,-240.292C2769.71,-240.292 2773.74,-240.292 2777.77,-240.292C2775.25,-235.803 2773.75,-230.288 2773.58,-225.551C2773.57,-223.913 2774.85,-223.882 2774.83,-225.078C2774.94,-231.083 2779.97,-234.038 2783.62,-233.34C2789.25,-232.259 2791.05,-226.609 2790.99,-223.285C2790.83,-213.021 2780.95,-205.449 2771.73,-192.292L2771.73,-192.292Z" style="fill-rule:nonzero;"/>
            </g>
            <g id="path7180-5-1" transform="matrix(0.995538,0,0,0.996801,-284.597,79.6016)">
                <path d="M2719.96,-241.897C2710.74,-255.054 2700.86,-262.626 2700.7,-272.891C2700.64,-276.215 2702.44,-281.864 2708.07,-282.945C2711.72,-283.644 2716.75,-280.688 2716.86,-274.683C2716.84,-273.487 2718.12,-273.518 2718.11,-275.157C2717.94,-279.893 2716.44,-285.408 2713.92,-289.897C2717.95,-289.897 2721.98,-289.897 2726.01,-289.897C2723.49,-285.408 2721.99,-279.893 2721.81,-275.157C2721.8,-273.518 2723.08,-273.487 2723.07,-274.683C2723.17,-280.688 2728.2,-283.644 2731.85,-282.945C2737.48,-281.864 2739.28,-276.215 2739.22,-272.891C2739.06,-262.626 2729.19,-255.054 2719.96,-241.897L2719.96,-241.897Z" style="fill-rule:nonzero;"/>
            </g>
            <g id="path7189-7-7" transform="matrix(0.995538,0,0,0.996801,-284.597,79.6016)">
                <path d="M2771.73,-339.503C2762.5,-326.346 2752.63,-318.774 2752.47,-308.509C2752.41,-305.185 2754.21,-299.536 2759.84,-298.455C2763.49,-297.756 2768.52,-300.712 2768.62,-306.717C2768.61,-307.913 2769.89,-307.882 2769.88,-306.243C2769.7,-301.507 2768.2,-295.992 2765.68,-291.503C2769.71,-291.503 2773.74,-291.503 2777.77,-291.503C2775.25,-295.992 2773.75,-301.507 2773.58,-306.243C2773.57,-307.882 2774.85,-307.913 2774.83,-306.717C2774.94,-300.712 2779.97,-297.756 2783.62,-298.455C2789.25,-299.536 2791.05,-305.185 2790.99,-308.509C2790.83,-318.774 2780.95,-326.346 2771.73,-339.503L2771.73,-339.503Z" style="fill-rule:nonzero;"/>
            </g>
            <g id="path27-43-30-7" transform="matrix(0.995538,0,0,0.996801,-284.597,79.6016)">
                <path d="M2614.84,-434.237C2615,-438.667 2616.6,-440.329 2619.76,-442.646C2617.24,-444.461 2616.18,-447.137 2616.4,-449.414C2616.91,-454.928 2621.17,-457.685 2625.82,-457.567C2630.47,-457.444 2634.47,-453.758 2634.78,-449.75C2635.05,-446.267 2634.02,-444.586 2631.55,-442.754C2634.48,-440.277 2636.36,-438.651 2636.28,-434.288C2636.22,-429.925 2632.5,-424.732 2626.03,-424.574C2619.57,-424.415 2614.68,-429.807 2614.84,-434.237L2614.84,-434.237ZM2632.9,-434.221C2633.18,-438.232 2629.64,-440.937 2625.63,-440.976C2621.74,-441.018 2618.25,-437.692 2618.25,-434.091C2618.25,-430.224 2622.78,-428.122 2625.71,-428.113C2629.27,-428.097 2632.66,-430.768 2632.9,-434.221ZM2631.62,-448.569C2631.7,-451.944 2628.59,-454.365 2625.37,-454.268C2622.51,-454.18 2619.49,-452.001 2619.49,-449.178C2619.49,-445.644 2622.93,-443.878 2625.86,-443.81C2628.53,-443.75 2631.56,-446.017 2631.62,-448.569L2631.62,-448.569Z" style="fill-rule:nonzero;"/>
            </g>
            <g id="path27-43-3-4-8" transform="matrix(0.995538,0,0,0.996801,-284.597,79.6016)">
                <path d="M2803.64,-196.768C2803.8,-192.338 2805.4,-190.677 2808.55,-188.359C2806.03,-186.544 2804.97,-183.869 2805.19,-181.591C2805.71,-176.077 2809.97,-173.32 2814.61,-173.438C2819.26,-173.561 2823.27,-177.248 2823.58,-181.255C2823.85,-184.738 2822.81,-186.419 2820.34,-188.251C2823.28,-190.728 2825.15,-192.354 2825.08,-196.717C2825.01,-201.081 2821.3,-206.273 2814.83,-206.431C2808.36,-206.59 2803.48,-201.199 2803.64,-196.768L2803.64,-196.768ZM2821.7,-196.784C2821.97,-192.773 2818.43,-190.068 2814.43,-190.029C2810.53,-189.987 2807.04,-193.313 2807.04,-196.914C2807.04,-200.781 2811.58,-202.883 2814.51,-202.892C2818.07,-202.908 2821.46,-200.238 2821.7,-196.784L2821.7,-196.784ZM2820.42,-182.436C2820.49,-179.062 2817.38,-176.64 2814.16,-176.737C2811.31,-176.825 2808.28,-179.004 2808.28,-181.827C2808.28,-185.362 2811.72,-187.127 2814.66,-187.195C2817.32,-187.255 2820.36,-184.988 2820.42,-182.436L2820.42,-182.436Z" style="fill-rule:nonzero;"/>
            </g>
        </g>
    </g>
</svg>
