<?xml version="1.0" encoding="UTF-8" standalone="no"?>
<!DOCTYPE svg PUBLIC "-//W3C//DTD SVG 1.1//EN" "http://www.w3.org/Graphics/SVG/1.1/DTD/svg11.dtd">
<svg width="100%" height="100%" viewBox="0 0 227 316" version="1.1" xmlns="http://www.w3.org/2000/svg" xmlns:xlink="http://www.w3.org/1999/xlink" xml:space="preserve" style="fill-rule:evenodd;clip-rule:evenodd;">
    <g transform="matrix(1,0,0,1,-2573,-1091)">
        <g transform="matrix(1,0,0,1,0,2187.64)">
            <g id="rect6355-6-85-3-78-4-6" transform="matrix(0.999997,0,0,1,-1.98583,-5.55051)">
                <path d="M2799.57,-1077.74C2799.57,-1083.61 2794.8,-1088.37 2788.94,-1088.37L2587.96,-1088.37C2582.1,-1088.37 2577.33,-1083.61 2577.33,-1077.74L2577.33,-788.186C2577.33,-782.319 2582.1,-777.556 2587.96,-777.556L2788.94,-777.556C2794.8,-777.556 2799.57,-782.319 2799.57,-788.186L2799.57,-1077.74Z" style="fill:white;stroke:black;stroke-width:1px;"/>
            </g>
            <g id="path147-0-8-1-6-13-2-9-8-8" transform="matrix(0.999997,0,0,1,-1.98583,-5.55051)">
                <path d="M2739.98,-1055.37C2730.21,-1055.15 2725.82,-1044.15 2733.06,-1035.6C2734.11,-1034.36 2734.22,-1033.64 2732.3,-1034.84C2727.43,-1038.1 2718.08,-1035.95 2717.6,-1025.99C2717.01,-1013.71 2734.16,-1010.18 2737.38,-1023.23C2737.55,-1024.61 2738.67,-1024.58 2738.4,-1022.62C2738.11,-1017.31 2736.45,-1012.36 2734.18,-1007.52C2738.01,-1007.52 2742.3,-1007.52 2745.8,-1007.52C2743.52,-1012.36 2741.86,-1017.31 2741.57,-1022.62C2741.3,-1024.58 2742.42,-1024.61 2742.59,-1023.23C2745.81,-1010.18 2762.96,-1013.71 2762.37,-1025.99C2761.89,-1035.95 2752.55,-1038.1 2747.67,-1034.84C2745.75,-1033.64 2745.86,-1034.36 2746.91,-1035.6C2754.15,-1044.15 2749.76,-1055.15 2739.99,-1055.37C2739.99,-1055.37 2739.99,-1055.37 2739.98,-1055.37L2739.98,-1055.37Z" style="fill-rule:nonzero;"/>
            </g>
            <g id="path147-0-8-1-6-75-2-83-3-5-0" transform="matrix(0.999997,0,0,1,-1.98583,-5.55051)">
                <path d="M2636.91,-1055.37C2627.14,-1055.15 2622.75,-1044.15 2629.99,-1035.6C2631.04,-1034.36 2631.15,-1033.64 2629.23,-1034.84C2624.35,-1038.1 2615.01,-1035.95 2614.53,-1025.99C2613.94,-1013.71 2631.09,-1010.18 2634.31,-1023.23C2634.48,-1024.61 2635.6,-1024.58 2635.33,-1022.62C2635.04,-1017.31 2633.38,-1012.36 2631.1,-1007.52C2634.94,-1007.52 2639.23,-1007.52 2642.72,-1007.52C2640.45,-1012.36 2638.79,-1017.31 2638.5,-1022.62C2638.23,-1024.58 2639.35,-1024.61 2639.52,-1023.23C2642.74,-1010.18 2659.89,-1013.71 2659.3,-1025.99C2658.82,-1035.95 2649.47,-1038.1 2644.6,-1034.84C2642.68,-1033.64 2642.79,-1034.36 2643.84,-1035.6C2651.08,-1044.15 2646.69,-1055.15 2636.92,-1055.37C2636.92,-1055.37 2636.92,-1055.37 2636.91,-1055.37L2636.91,-1055.37Z" style="fill-rule:nonzero;"/>
            </g>
            <g id="path147-0-8-1-6-7-5-5-7-63-0-4" transform="matrix(0.999997,0,0,1,-1.98583,-5.55051)">
                <path d="M2739.98,-809.732C2730.21,-809.944 2725.82,-820.949 2733.06,-829.495C2734.11,-830.742 2734.22,-831.457 2732.3,-830.26C2727.43,-827 2718.08,-829.143 2717.6,-839.107C2717.01,-851.384 2734.16,-854.921 2737.38,-841.866C2737.55,-840.489 2738.67,-840.521 2738.4,-842.476C2738.11,-847.782 2736.45,-852.742 2734.18,-857.578C2738.01,-857.578 2742.3,-857.578 2745.8,-857.578C2743.52,-852.742 2741.86,-847.782 2741.57,-842.476C2741.3,-840.521 2742.42,-840.489 2742.59,-841.866C2745.81,-854.921 2762.96,-851.384 2762.37,-839.107C2761.89,-829.143 2752.55,-827 2747.67,-830.26C2745.75,-831.457 2745.86,-830.742 2746.91,-829.495C2754.15,-820.949 2749.76,-809.944 2739.99,-809.732C2739.99,-809.732 2739.99,-809.732 2739.98,-809.732L2739.98,-809.732Z" style="fill-rule:nonzero;"/>
            </g>
            <g id="path147-0-8-1-6-75-6-1-2-46-5-0" transform="matrix(0.999997,0,0,1,-1.98583,-5.55051)">
                <path d="M2636.91,-809.732C2627.14,-809.944 2622.75,-820.949 2629.99,-829.495C2631.04,-830.742 2631.15,-831.457 2629.23,-830.26C2624.35,-827 2615.01,-829.143 2614.53,-839.107C2613.94,-851.384 2631.09,-854.921 2634.31,-841.866C2634.48,-840.489 2635.6,-840.521 2635.33,-842.476C2635.04,-847.782 2633.38,-852.742 2631.1,-857.578C2634.94,-857.578 2639.23,-857.578 2642.72,-857.578C2640.45,-852.742 2638.79,-847.782 2638.5,-842.476C2638.23,-840.521 2639.35,-840.489 2639.52,-841.866C2642.74,-854.921 2659.89,-851.384 2659.3,-839.107C2658.82,-829.143 2649.47,-827 2644.6,-830.26C2642.68,-831.457 2642.79,-830.742 2643.84,-829.495C2651.08,-820.949 2646.69,-809.944 2636.92,-809.732C2636.92,-809.732 2636.92,-809.732 2636.91,-809.732L2636.91,-809.732Z" style="fill-rule:nonzero;"/>
            </g>
            <g id="path147-0-8-1-6-1-1-0-5-61-2-0" transform="matrix(0.999997,0,0,1,-1.98583,-5.55051)">
                <path d="M2688.45,-956.471C2678.67,-956.259 2674.29,-945.254 2681.53,-936.708C2682.58,-935.462 2682.69,-934.746 2680.76,-935.944C2675.89,-939.203 2666.54,-937.06 2666.07,-927.096C2665.47,-914.819 2682.63,-911.282 2685.85,-924.337C2686.02,-925.714 2687.14,-925.683 2686.87,-923.728C2686.58,-918.421 2684.92,-913.461 2682.64,-908.625C2686.48,-908.625 2690.77,-908.625 2694.26,-908.625C2691.98,-913.461 2690.33,-918.421 2690.03,-923.728C2689.76,-925.683 2690.88,-925.714 2691.05,-924.337C2694.27,-911.282 2711.43,-914.819 2710.84,-927.096C2710.36,-937.06 2701.01,-939.203 2696.14,-935.944C2694.21,-934.746 2694.32,-935.462 2695.37,-936.708C2702.61,-945.254 2698.23,-956.259 2688.45,-956.471C2688.45,-956.472 2688.45,-956.471 2688.44,-956.471L2688.45,-956.471Z" style="fill-rule:nonzero;"/>
            </g>
            <g id="path147-6-9-8-7-0-5-6-5-2-8" transform="matrix(0.999997,0,0,1,-1.98583,-5.55051)">
                <path d="M2782.43,-827.369C2786.34,-827.458 2788.09,-832.043 2785.2,-835.604C2784.78,-836.123 2784.73,-836.421 2785.5,-835.922C2787.45,-834.564 2791.19,-835.457 2791.38,-839.609C2791.62,-844.724 2784.76,-846.198 2783.47,-840.759C2783.4,-840.185 2782.95,-840.198 2783.06,-841.012C2783.18,-843.223 2783.84,-845.29 2784.75,-847.305C2783.2,-847.305 2781.65,-847.305 2780.1,-847.305C2781.01,-845.29 2781.68,-843.223 2781.79,-841.012C2781.9,-840.198 2781.45,-840.185 2781.39,-840.759C2780.1,-846.198 2773.24,-844.724 2773.47,-839.609C2773.66,-835.457 2777.4,-834.564 2779.35,-835.922C2780.12,-836.421 2780.08,-836.123 2779.66,-835.604C2776.76,-832.043 2778.51,-827.458 2782.43,-827.369C2782.43,-827.369 2782.43,-827.369 2782.43,-827.369L2782.43,-827.369Z" style="fill-rule:nonzero;"/>
            </g>
            <g id="path147-0-8-1-6-75-2-9-77-4-4-2" transform="matrix(0.999997,0,0,1,-1.98583,-5.55051)">
                <path d="M2636.91,-989.436C2627.14,-989.224 2622.75,-978.219 2629.99,-969.673C2631.04,-968.426 2631.15,-967.711 2629.23,-968.908C2624.35,-972.167 2615.01,-970.025 2614.53,-960.061C2613.94,-947.784 2631.09,-944.247 2634.31,-957.301C2634.48,-958.678 2635.6,-958.647 2635.33,-956.692C2635.04,-951.386 2633.38,-946.426 2631.11,-941.589C2634.94,-941.589 2639.23,-941.589 2642.72,-941.589C2640.45,-946.426 2638.79,-951.386 2638.5,-956.692C2638.23,-958.647 2639.35,-958.678 2639.52,-957.301C2642.74,-944.247 2659.89,-947.784 2659.3,-960.061C2658.82,-970.025 2649.47,-972.167 2644.6,-968.908C2642.68,-967.711 2642.79,-968.426 2643.84,-969.673C2651.08,-978.219 2646.69,-989.224 2636.92,-989.436C2636.92,-989.436 2636.92,-989.436 2636.91,-989.436L2636.91,-989.436Z" style="fill-rule:nonzero;"/>
            </g>
            <g id="path147-0-8-1-6-75-2-8-0-6-4-4" transform="matrix(0.999997,0,0,1,-1.98583,-5.55051)">
                <path d="M2636.91,-875.661C2627.14,-875.873 2622.75,-886.878 2629.99,-895.424C2631.04,-896.67 2631.15,-897.386 2629.23,-896.188C2624.35,-892.929 2615.01,-895.072 2614.53,-905.036C2613.94,-917.313 2631.09,-920.85 2634.31,-907.795C2634.48,-906.418 2635.6,-906.449 2635.33,-908.404C2635.04,-913.711 2633.38,-918.671 2631.1,-923.507C2634.94,-923.507 2639.23,-923.507 2642.72,-923.507C2640.45,-918.671 2638.79,-913.711 2638.5,-908.404C2638.23,-906.449 2639.35,-906.418 2639.52,-907.795C2642.74,-920.85 2659.89,-917.313 2659.3,-905.036C2658.82,-895.072 2649.47,-892.929 2644.6,-896.188C2642.68,-897.386 2642.79,-896.67 2643.84,-895.424C2651.08,-886.878 2646.69,-875.873 2636.92,-875.661C2636.92,-875.661 2636.92,-875.661 2636.91,-875.661L2636.91,-875.661Z" style="fill-rule:nonzero;"/>
            </g>
            <g id="path147-0-8-1-6-75-2-9-7-1-36-2-4" transform="matrix(0.999997,0,0,1,-1.98583,-5.55051)">
                <path d="M2739.98,-989.436C2730.21,-989.224 2725.82,-978.219 2733.06,-969.673C2734.11,-968.426 2734.22,-967.711 2732.3,-968.908C2727.43,-972.167 2718.08,-970.025 2717.6,-960.061C2717.01,-947.784 2734.16,-944.247 2737.38,-957.301C2737.55,-958.678 2738.67,-958.647 2738.4,-956.692C2738.11,-951.386 2736.45,-946.426 2734.18,-941.589C2738.01,-941.589 2742.3,-941.589 2745.8,-941.589C2743.52,-946.426 2741.86,-951.386 2741.57,-956.692C2741.3,-958.647 2742.42,-958.678 2742.59,-957.301C2745.81,-944.247 2762.96,-947.784 2762.37,-960.061C2761.89,-970.025 2752.55,-972.167 2747.67,-968.908C2745.75,-967.711 2745.86,-968.426 2746.91,-969.673C2754.15,-978.219 2749.76,-989.224 2739.99,-989.436C2739.99,-989.436 2739.99,-989.436 2739.98,-989.436L2739.98,-989.436Z" style="fill-rule:nonzero;"/>
            </g>
            <g id="path147-0-8-1-6-75-2-8-5-1-55-5-4" transform="matrix(0.999997,0,0,1,-1.98583,-5.55051)">
                <path d="M2739.98,-875.661C2730.21,-875.873 2725.82,-886.878 2733.06,-895.424C2734.11,-896.67 2734.22,-897.386 2732.3,-896.188C2727.43,-892.929 2718.08,-895.072 2717.6,-905.036C2717.01,-917.313 2734.16,-920.85 2737.38,-907.795C2737.55,-906.418 2738.67,-906.449 2738.4,-908.404C2738.11,-913.711 2736.45,-918.671 2734.18,-923.507C2738.01,-923.507 2742.3,-923.507 2745.8,-923.507C2743.52,-918.671 2741.86,-913.711 2741.57,-908.404C2741.3,-906.449 2742.42,-906.418 2742.59,-907.795C2745.81,-920.85 2762.96,-917.313 2762.37,-905.036C2761.89,-895.072 2752.55,-892.929 2747.67,-896.188C2745.75,-897.386 2745.86,-896.67 2746.91,-895.424C2754.15,-886.878 2749.76,-875.873 2739.99,-875.661C2739.99,-875.661 2739.99,-875.661 2739.98,-875.661L2739.98,-875.661Z" style="fill-rule:nonzero;"/>
            </g>
            <g id="path147-6-9-8-7-4-5-62-7-8-4" transform="matrix(0.999997,0,0,1,-1.98583,-5.55051)">
                <path d="M2594.47,-1038.56C2590.56,-1038.47 2588.81,-1033.88 2591.71,-1030.32C2592.13,-1029.8 2592.17,-1029.5 2591.4,-1030C2589.45,-1031.36 2585.71,-1030.47 2585.52,-1026.32C2585.28,-1021.2 2592.15,-1019.73 2593.43,-1025.17C2593.5,-1025.74 2593.95,-1025.73 2593.84,-1024.91C2593.72,-1022.7 2593.06,-1020.63 2592.15,-1018.62C2593.7,-1018.62 2595.25,-1018.62 2596.8,-1018.62C2595.89,-1020.63 2595.22,-1022.7 2595.11,-1024.91C2595,-1025.73 2595.45,-1025.74 2595.51,-1025.17C2596.8,-1019.73 2603.66,-1021.2 2603.43,-1026.32C2603.24,-1030.47 2599.5,-1031.36 2597.55,-1030C2596.78,-1029.5 2596.82,-1029.8 2597.24,-1030.32C2600.14,-1033.88 2598.39,-1038.47 2594.48,-1038.56L2594.47,-1038.56Z" style="fill-rule:nonzero;"/>
            </g>
            <g id="path29-2-3-4" transform="matrix(0.999997,0,0,1,-1.98583,-5.55051)">
                <path d="M2585.3,-1048.02L2588.3,-1048.98C2589.44,-1045.94 2591.73,-1045.05 2594.15,-1045.24C2598.5,-1045.59 2599.95,-1050.46 2600.27,-1054.76C2598.58,-1052.96 2596.03,-1052.05 2593.86,-1052.14C2586.93,-1052.51 2585.15,-1058.07 2585.09,-1063.88C2584.9,-1068.79 2586.92,-1072.34 2590.39,-1073.97C2592.24,-1074.8 2596.45,-1074.8 2598.3,-1073.82C2602.55,-1071.58 2604.12,-1067.7 2603.84,-1058.44C2603.84,-1050.82 2602.22,-1041.95 2594.07,-1041.76C2589.36,-1041.11 2585.78,-1044.78 2585.3,-1048.02L2585.3,-1048.02ZM2597.1,-1056.37C2598.51,-1057.27 2599.31,-1058.11 2599.95,-1059.37C2600.47,-1060.4 2600.65,-1060.94 2600.5,-1063.08C2600.11,-1068.61 2597.22,-1071.74 2593.03,-1071.12C2590.69,-1070.77 2589.41,-1069.46 2588.67,-1067.02C2587.32,-1062.51 2589.04,-1057.24 2592.26,-1056.03C2593.71,-1055.48 2595.95,-1055.63 2597.1,-1056.37L2597.1,-1056.37Z" style="fill-rule:nonzero;"/>
            </g>
            <g id="path29-6-1-3-7" transform="matrix(0.999997,0,0,1,-1.98583,-5.55051)">
                <path d="M2791.6,-817.903L2788.6,-816.948C2787.46,-819.982 2785.17,-820.88 2782.75,-820.685C2778.4,-820.338 2776.95,-815.47 2776.63,-811.166C2778.32,-812.966 2780.87,-813.88 2783.04,-813.787C2789.97,-813.415 2791.75,-807.858 2791.81,-802.04C2792,-797.135 2789.98,-793.583 2786.5,-791.951C2784.66,-791.125 2780.45,-791.125 2778.6,-792.104C2774.35,-794.349 2772.77,-798.226 2773.06,-807.486C2773.06,-815.103 2774.67,-823.974 2782.83,-824.168C2787.54,-824.82 2791.12,-821.15 2791.6,-817.903L2791.6,-817.903ZM2779.8,-809.556C2778.38,-808.659 2777.59,-807.817 2776.95,-806.558C2776.43,-805.523 2776.25,-804.982 2776.4,-802.842C2776.79,-797.319 2779.68,-794.184 2783.87,-794.806C2786.21,-795.158 2787.49,-796.468 2788.23,-798.905C2789.58,-803.412 2787.86,-808.684 2784.64,-809.898C2783.19,-810.449 2780.95,-810.291 2779.8,-809.556L2779.8,-809.556Z" style="fill-rule:nonzero;"/>
            </g>
        </g>
    </g>
</svg>
