<?xml version="1.0" encoding="UTF-8" standalone="no"?>
<!DOCTYPE svg PUBLIC "-//W3C//DTD SVG 1.1//EN" "http://www.w3.org/Graphics/SVG/1.1/DTD/svg11.dtd">
<svg width="100%" height="100%" viewBox="0 0 227 316" version="1.1" xmlns="http://www.w3.org/2000/svg" xmlns:xlink="http://www.w3.org/1999/xlink" xml:space="preserve" style="fill-rule:evenodd;clip-rule:evenodd;">
    <g transform="matrix(1,0,0,1,-2573,-2147)">
        <g transform="matrix(1,0,0,1,0,2187.64)">
            <g id="rect6962-4" transform="matrix(0.995535,0,0,0.996803,10.0108,-8.13974)">
                <path d="M2800.06,-19.733C2800.06,-25.645 2795.26,-30.445 2789.34,-30.445L2587.56,-30.445C2581.64,-30.445 2576.84,-25.645 2576.84,-19.733L2576.84,270.654C2576.84,276.566 2581.64,281.366 2587.56,281.366L2789.34,281.366C2795.26,281.366 2800.06,276.566 2800.06,270.654L2800.06,-19.733Z" style="fill:white;stroke:black;stroke-width:1px;"/>
            </g>
            <g id="path6994-9" transform="matrix(0.995535,0,0,0.996803,10.0108,-8.13974)">
                <path d="M2594.05,39.528C2591.89,35.96 2589.62,32.491 2586.78,29.528C2589.62,26.566 2591.89,23.097 2594.05,19.528C2596.21,23.097 2598.49,26.566 2601.33,29.528C2598.49,32.491 2596.21,35.96 2594.05,39.528Z" style="fill:rgb(212,0,0);fill-rule:nonzero;"/>
            </g>
            <g id="path6996-5" transform="matrix(0.995535,0,0,0.996803,10.0108,-8.13974)">
                <path d="M2740.22,50.25C2735.03,41.685 2729.57,33.361 2722.76,26.25C2729.57,19.139 2735.03,10.815 2740.22,2.25C2745.4,10.815 2750.86,19.139 2757.68,26.25C2750.86,33.361 2745.4,41.685 2740.22,50.25Z" style="fill:rgb(212,0,0);fill-rule:nonzero;"/>
            </g>
            <g id="path6998-7" transform="matrix(0.995535,0,0,0.996803,10.0108,-8.13974)">
                <path d="M2782.85,231.393C2780.69,227.824 2778.41,224.356 2775.57,221.393C2778.41,218.43 2780.69,214.962 2782.85,211.393C2785.01,214.962 2787.28,218.43 2790.12,221.393C2787.28,224.356 2785.01,227.824 2782.85,231.393Z" style="fill:rgb(212,0,0);fill-rule:nonzero;"/>
            </g>
            <g id="path7000-7" transform="matrix(0.995535,0,0,0.996803,10.0108,-8.13974)">
                <path d="M2636.68,50.25C2631.5,41.685 2626.04,33.361 2619.22,26.25C2626.04,19.139 2631.5,10.815 2636.68,2.25C2641.87,10.815 2647.33,19.139 2654.14,26.25C2647.33,33.361 2641.87,41.685 2636.68,50.25Z" style="fill:rgb(212,0,0);fill-rule:nonzero;"/>
            </g>
            <g id="path7002-0" transform="matrix(0.995535,0,0,0.996803,10.0108,-8.13974)">
                <path d="M2740.22,116.397C2735.03,107.833 2729.57,99.508 2722.76,92.397C2729.57,85.287 2735.03,76.962 2740.22,68.397C2745.4,76.962 2750.86,85.287 2757.68,92.397C2750.86,99.508 2745.4,107.833 2740.22,116.397Z" style="fill:rgb(212,0,0);fill-rule:nonzero;"/>
            </g>
            <g id="path7004-0" transform="matrix(0.995535,0,0,0.996803,10.0108,-8.13974)">
                <path d="M2636.68,116.397C2631.5,107.833 2626.04,99.508 2619.22,92.397C2626.04,85.287 2631.5,76.962 2636.68,68.397C2641.87,76.962 2647.33,85.287 2654.14,92.397C2647.33,99.508 2641.87,107.833 2636.68,116.397Z" style="fill:rgb(212,0,0);fill-rule:nonzero;"/>
            </g>
            <g id="path7008-2" transform="matrix(0.995535,0,0,0.996803,10.0108,-8.13974)">
                <path d="M2688.45,149.461C2683.26,140.896 2677.81,132.572 2670.99,125.461C2677.81,118.35 2683.26,110.026 2688.45,101.461C2693.64,110.026 2699.09,118.35 2705.91,125.461C2699.09,132.572 2693.64,140.896 2688.45,149.461Z" style="fill:rgb(212,0,0);fill-rule:nonzero;"/>
            </g>
            <g id="path7016-2" transform="matrix(0.995535,0,0,0.996803,10.0108,-8.13974)">
                <path d="M2636.68,248.676C2631.5,240.112 2626.04,231.787 2619.22,224.676C2626.04,217.566 2631.5,209.241 2636.68,200.676C2641.87,209.241 2647.33,217.566 2654.14,224.676C2647.33,231.787 2641.87,240.112 2636.68,248.676Z" style="fill:rgb(212,0,0);fill-rule:nonzero;"/>
            </g>
            <g id="path7018-0" transform="matrix(0.995535,0,0,0.996803,10.0108,-8.13974)">
                <path d="M2740.22,248.683C2735.03,240.118 2729.57,231.794 2722.76,224.683C2729.57,217.572 2735.03,209.248 2740.22,200.683C2745.4,209.248 2750.86,217.572 2757.68,224.683C2750.86,231.794 2745.4,240.118 2740.22,248.683Z" style="fill:rgb(212,0,0);fill-rule:nonzero;"/>
            </g>
            <g id="path7020-7" transform="matrix(0.995535,0,0,0.996803,10.0108,-8.13974)">
                <path d="M2740.22,182.529C2735.03,173.965 2729.57,165.64 2722.76,158.529C2729.57,151.419 2735.03,143.094 2740.22,134.529C2745.4,143.094 2750.86,151.419 2757.68,158.529C2750.86,165.64 2745.4,173.965 2740.22,182.529Z" style="fill:rgb(212,0,0);fill-rule:nonzero;"/>
            </g>
            <g id="path7022-4" transform="matrix(0.995535,0,0,0.996803,10.0108,-8.13974)">
                <path d="M2636.68,182.497C2631.5,173.932 2626.04,165.608 2619.22,158.497C2626.04,151.386 2631.5,143.062 2636.68,134.497C2641.87,143.062 2647.33,151.386 2654.14,158.497C2647.33,165.608 2641.87,173.932 2636.68,182.497Z" style="fill:rgb(212,0,0);fill-rule:nonzero;"/>
            </g>
            <g id="path29-5-3-7-8" transform="matrix(0.995535,0,0,0.996803,10.0108,-8.13974)">
                <path d="M2584.83,10.031L2587.85,9.074C2588.99,12.117 2591.29,13.018 2593.73,12.823C2598.1,12.475 2599.55,7.591 2599.88,3.274C2598.17,5.079 2595.62,5.996 2593.44,5.903C2586.47,5.53 2584.69,-0.046 2584.62,-5.882C2584.43,-10.802 2586.47,-14.367 2589.96,-16.003C2591.8,-16.832 2596.04,-16.832 2597.9,-15.85C2602.16,-13.598 2603.75,-9.708 2603.46,-0.419C2603.46,7.223 2601.84,16.123 2593.65,16.316C2588.92,16.971 2585.32,13.289 2584.83,10.031L2584.83,10.031ZM2596.69,1.658C2598.11,0.758 2598.91,-0.086 2599.55,-1.35C2600.07,-2.388 2600.25,-2.93 2600.1,-5.078C2599.72,-10.618 2596.81,-13.763 2592.6,-13.14C2590.25,-12.786 2588.96,-11.472 2588.22,-9.027C2586.86,-4.506 2588.59,0.783 2591.83,2.001C2593.28,2.553 2595.53,2.395 2596.69,1.658L2596.69,1.658Z" style="fill:rgb(212,0,0);fill-rule:nonzero;"/>
            </g>
            <g id="path29-6-2-9-2" transform="matrix(0.995535,0,0,0.996803,10.0108,-8.13974)">
                <path d="M2792.07,240.89L2789.05,241.847C2787.91,238.804 2785.61,237.903 2783.17,238.098C2778.8,238.447 2777.35,243.331 2777.02,247.648C2778.73,245.842 2781.28,244.926 2783.46,245.019C2790.43,245.392 2792.21,250.967 2792.28,256.803C2792.47,261.724 2790.43,265.288 2786.94,266.925C2785.09,267.754 2780.86,267.754 2779,266.772C2774.73,264.519 2773.15,260.629 2773.44,251.34C2773.44,243.699 2775.06,234.799 2783.25,234.605C2787.98,233.95 2791.58,237.632 2792.07,240.89L2792.07,240.89ZM2780.21,249.264C2778.79,250.163 2777.99,251.008 2777.35,252.271C2776.83,253.31 2776.64,253.852 2776.8,255.999C2777.18,261.539 2780.09,264.684 2784.3,264.061C2786.65,263.708 2787.93,262.393 2788.67,259.948C2790.03,255.427 2788.31,250.138 2785.07,248.921C2783.62,248.368 2781.37,248.526 2780.21,249.264L2780.21,249.264Z" style="fill:rgb(212,0,0);fill-rule:nonzero;"/>
            </g>
        </g>
    </g>
</svg>
