<?xml version="1.0" encoding="UTF-8" standalone="no"?>
<!DOCTYPE svg PUBLIC "-//W3C//DTD SVG 1.1//EN" "http://www.w3.org/Graphics/SVG/1.1/DTD/svg11.dtd">
<svg width="100%" height="100%" viewBox="0 0 227 316" version="1.1" xmlns="http://www.w3.org/2000/svg" xmlns:xlink="http://www.w3.org/1999/xlink" xml:space="preserve" style="fill-rule:evenodd;clip-rule:evenodd;">
    <g transform="matrix(1,0,0,1,-2573,-1443)">
        <g transform="matrix(1,0,0,1,0,2187.64)">
            <g id="rect10210-5-4" transform="matrix(0.995538,0,0,0.996801,2316.07,-1111.2)">
                <path d="M483.661,380.987C483.661,375.075 478.855,370.276 472.936,370.276L271.158,370.276C265.239,370.276 260.433,375.075 260.433,380.987L260.433,671.375C260.433,677.287 265.239,682.087 271.158,682.087L472.936,682.087C478.855,682.087 483.661,677.287 483.661,671.375L483.661,380.987Z" style="fill:white;stroke:black;stroke-width:1px;"/>
            </g>
            <g id="path10240-7-9" transform="matrix(0.995538,0,0,0.996801,2687.45,-532.688)">
                <path d="M-52.766,-63.259C-52.766,-63.259 -57.433,-70.915 -63.727,-79.915C-67.938,-85.939 -71.305,-92.461 -71.618,-98.079C-71.977,-104.496 -68.579,-110.934 -62.427,-111.246C-56.278,-111.558 -53.782,-106.298 -52.766,-101.961C-51.75,-106.298 -49.255,-111.558 -43.106,-111.246C-36.954,-110.934 -33.556,-104.496 -33.915,-98.079C-34.228,-92.461 -37.594,-85.939 -41.805,-79.915C-48.1,-70.915 -52.766,-63.259 -52.766,-63.259L-52.766,-63.259Z" style="fill:rgb(212,0,0);fill-rule:nonzero;"/>
            </g>
            <g id="path10242-3-8" transform="matrix(0.995538,0,0,0.996801,2687.45,-532.688)">
                <path d="M-95.397,-140.121C-95.397,-140.124 -97.622,-143.311 -100.623,-147.061C-102.63,-149.571 -104.235,-152.289 -104.385,-154.629C-104.556,-157.303 -102.936,-159.986 -100.002,-160.116C-97.071,-160.246 -95.881,-158.054 -95.397,-156.247C-94.912,-158.054 -93.723,-160.246 -90.791,-160.116C-87.858,-159.986 -86.238,-157.303 -86.409,-154.629C-86.558,-152.289 -88.163,-149.571 -90.171,-147.061C-93.172,-143.311 -95.395,-140.124 -95.397,-140.121L-95.397,-140.121Z" style="fill:rgb(212,0,0);fill-rule:nonzero;"/>
            </g>
            <g id="path10244-4-5" transform="matrix(0.995538,0,0,0.996801,2687.45,-532.688)">
                <path d="M93.398,31.743C93.398,31.743 91.173,34.933 88.172,38.684C86.164,41.193 84.559,43.911 84.41,46.251C84.239,48.925 85.859,51.608 88.792,51.738C91.723,51.868 92.913,49.676 93.398,47.869C93.882,49.676 95.072,51.868 98.003,51.738C100.936,51.608 102.556,48.925 102.385,46.251C102.236,43.911 100.631,41.193 98.623,38.684C95.622,34.933 93.398,31.743 93.398,31.743L93.398,31.743Z" style="fill:rgb(212,0,0);fill-rule:nonzero;"/>
            </g>
            <g id="path10250-9-0" transform="matrix(0.995538,0,0,0.996801,2687.45,-532.688)">
                <path d="M-52.766,-129.4C-52.766,-129.4 -57.433,-137.055 -63.727,-146.056C-67.938,-152.079 -71.305,-158.601 -71.618,-164.219C-71.977,-170.636 -68.579,-177.074 -62.427,-177.386C-56.278,-177.698 -53.782,-172.438 -52.766,-168.102C-51.75,-172.438 -49.255,-177.698 -43.106,-177.386C-36.954,-177.074 -33.556,-170.636 -33.915,-164.219C-34.228,-158.601 -37.594,-152.079 -41.805,-146.056C-48.1,-137.055 -52.766,-129.4 -52.766,-129.4Z" style="fill:rgb(212,0,0);fill-rule:nonzero;"/>
            </g>
            <g id="path10254-7-3" transform="matrix(0.995538,0,0,0.996801,2687.45,-532.688)">
                <path d="M50.766,-63.259C50.766,-63.259 46.1,-70.915 39.805,-79.915C35.594,-85.939 32.228,-92.461 31.915,-98.079C31.556,-104.496 34.954,-110.934 41.106,-111.246C47.255,-111.558 49.75,-106.298 50.766,-101.961C51.782,-106.298 54.278,-111.558 60.427,-111.246C66.579,-110.934 69.977,-104.496 69.618,-98.079C69.305,-92.461 65.938,-85.939 61.727,-79.915C55.433,-70.915 50.766,-63.259 50.766,-63.259L50.766,-63.259Z" style="fill:rgb(212,0,0);fill-rule:nonzero;"/>
            </g>
            <g id="path10256-4-7" transform="matrix(0.995538,0,0,0.996801,2687.45,-532.688)">
                <path d="M50.766,-129.4C50.766,-129.4 46.1,-137.055 39.805,-146.056C35.594,-152.079 32.228,-158.601 31.915,-164.219C31.556,-170.636 34.954,-177.074 41.106,-177.386C47.255,-177.698 49.75,-172.438 50.766,-168.102C51.782,-172.438 54.278,-177.698 60.427,-177.386C66.579,-177.074 69.977,-170.636 69.618,-164.219C69.305,-158.601 65.938,-152.079 61.727,-146.056C55.433,-137.055 50.766,-129.4 50.766,-129.4Z" style="fill:rgb(212,0,0);fill-rule:nonzero;"/>
            </g>
            <g id="path10258-5-9" transform="matrix(0.995538,0,0,0.996801,2687.45,-532.688)">
                <path d="M-1,-30.189C-1,-30.189 -5.666,-37.844 -11.961,-46.845C-16.172,-52.868 -19.539,-59.391 -19.852,-65.008C-20.211,-71.426 -16.812,-77.864 -10.66,-78.176C-4.512,-78.488 -2.016,-73.228 -1,-68.891C0.016,-73.228 2.512,-78.488 8.66,-78.176C14.812,-77.864 18.211,-71.426 17.852,-65.008C17.539,-59.391 14.172,-52.868 9.961,-46.845C3.666,-37.844 -1,-30.189 -1,-30.189L-1,-30.189Z" style="fill:rgb(212,0,0);fill-rule:nonzero;"/>
            </g>
            <g id="path10266-8-9" transform="matrix(0.995538,0,0,0.996801,2687.45,-532.688)">
                <path d="M50.766,-45.119C50.766,-45.119 46.1,-37.463 39.805,-28.462C35.594,-22.439 32.228,-15.917 31.915,-10.299C31.556,-3.882 34.954,2.556 41.106,2.868C47.255,3.18 49.75,-2.08 50.766,-6.417C51.782,-2.08 54.278,3.18 60.427,2.868C66.579,2.556 69.977,-3.882 69.618,-10.299C69.305,-15.917 65.938,-22.439 61.727,-28.462C55.433,-37.463 50.766,-45.119 50.766,-45.119Z" style="fill:rgb(212,0,0);fill-rule:nonzero;"/>
            </g>
            <g id="path10268-2-7" transform="matrix(0.995538,0,0,0.996801,2687.45,-532.688)">
                <path d="M-52.766,-45.119C-52.766,-45.119 -57.433,-37.463 -63.727,-28.462C-67.938,-22.439 -71.305,-15.917 -71.618,-10.299C-71.977,-3.882 -68.579,2.556 -62.427,2.868C-56.278,3.18 -53.782,-2.08 -52.766,-6.417C-51.75,-2.08 -49.255,3.18 -43.106,2.868C-36.954,2.556 -33.556,-3.882 -33.915,-10.299C-34.228,-15.917 -37.594,-22.439 -41.805,-28.462C-48.1,-37.463 -52.766,-45.119 -52.766,-45.119Z" style="fill:rgb(212,0,0);fill-rule:nonzero;"/>
            </g>
            <g id="path10270-1-4" transform="matrix(0.995538,0,0,0.996801,2687.45,-532.688)">
                <path d="M50.766,21.022C50.766,21.022 46.1,28.677 39.805,37.678C35.594,43.701 32.228,50.223 31.915,55.841C31.556,62.258 34.954,68.696 41.106,69.008C47.255,69.32 49.75,64.06 50.766,59.724C51.782,64.06 54.278,69.32 60.427,69.008C66.579,68.696 69.977,62.258 69.618,55.841C69.305,50.223 65.938,43.701 61.727,37.678C55.433,28.677 50.766,21.022 50.766,21.022L50.766,21.022Z" style="fill:rgb(212,0,0);fill-rule:nonzero;"/>
            </g>
            <g id="path10272-0-7" transform="matrix(0.995538,0,0,0.996801,2687.45,-532.688)">
                <path d="M-52.766,21.022C-52.766,21.022 -57.433,28.677 -63.727,37.678C-67.938,43.701 -71.305,50.223 -71.618,55.841C-71.977,62.258 -68.579,68.696 -62.427,69.008C-56.278,69.32 -53.782,64.06 -52.766,59.724C-51.75,64.06 -49.255,69.32 -43.106,69.008C-36.954,68.696 -33.556,62.258 -33.915,55.841C-34.228,50.223 -37.594,43.701 -41.805,37.678C-48.1,28.677 -52.766,21.022 -52.766,21.022L-52.766,21.022Z" style="fill:rgb(212,0,0);fill-rule:nonzero;"/>
            </g>
            <g id="path29-5-8-5-4" transform="matrix(0.995538,0,0,0.996801,-138.65,318.486)">
                <path d="M2734.15,-1023.52L2737.17,-1024.48C2738.31,-1021.44 2740.61,-1020.54 2743.05,-1020.73C2747.42,-1021.08 2748.87,-1025.96 2749.19,-1030.28C2747.49,-1028.48 2744.93,-1027.56 2742.76,-1027.65C2735.79,-1028.03 2734.01,-1033.6 2733.94,-1039.44C2733.75,-1044.36 2735.78,-1047.92 2739.28,-1049.56C2741.12,-1050.39 2745.36,-1050.39 2747.22,-1049.4C2751.48,-1047.15 2753.07,-1043.26 2752.78,-1033.97C2752.78,-1026.33 2751.16,-1017.43 2742.97,-1017.24C2738.24,-1016.58 2734.64,-1020.27 2734.15,-1023.52L2734.15,-1023.52ZM2746.01,-1031.9C2747.43,-1032.8 2748.23,-1033.64 2748.87,-1034.9C2749.39,-1035.94 2749.57,-1036.49 2749.42,-1038.63C2749.03,-1044.17 2746.13,-1047.32 2741.92,-1046.69C2739.57,-1046.34 2738.28,-1045.03 2737.54,-1042.58C2736.18,-1038.06 2737.91,-1032.77 2741.14,-1031.55C2742.6,-1031 2744.85,-1031.16 2746.01,-1031.9L2746.01,-1031.9Z" style="fill:rgb(212,0,0);fill-rule:nonzero;stroke:black;stroke-width:1px;"/>
            </g>
            <g id="path29-6-2-3-6-6" transform="matrix(0.995538,0,0,0.996801,-138.65,318.486)">
                <path d="M2941.38,-792.665L2938.37,-791.708C2937.22,-794.751 2934.92,-795.652 2932.49,-795.457C2928.12,-795.108 2926.67,-790.224 2926.34,-785.907C2928.05,-787.713 2930.6,-788.63 2932.78,-788.537C2939.75,-788.163 2941.53,-782.588 2941.6,-776.752C2941.78,-771.831 2939.75,-768.267 2936.26,-766.63C2934.41,-765.801 2930.18,-765.801 2928.32,-766.783C2924.05,-769.036 2922.47,-772.926 2922.76,-782.215C2922.76,-789.856 2924.38,-798.756 2932.57,-798.95C2937.3,-799.605 2940.9,-795.923 2941.38,-792.665ZM2929.53,-784.291C2928.11,-783.392 2927.3,-782.547 2926.67,-781.284C2926.15,-780.245 2925.97,-779.703 2926.12,-777.556C2926.5,-772.016 2929.41,-768.871 2933.62,-769.494C2935.97,-769.847 2937.25,-771.162 2937.99,-773.607C2939.35,-778.128 2937.63,-783.417 2934.39,-784.635C2932.93,-785.187 2930.69,-785.029 2929.53,-784.291L2929.53,-784.291Z" style="fill:rgb(212,0,0);fill-rule:nonzero;"/>
            </g>
        </g>
    </g>
</svg>
