<?xml version="1.0" encoding="UTF-8" standalone="no"?>
<!DOCTYPE svg PUBLIC "-//W3C//DTD SVG 1.1//EN" "http://www.w3.org/Graphics/SVG/1.1/DTD/svg11.dtd">
<svg width="100%" height="100%" viewBox="0 0 227 316" version="1.1" xmlns="http://www.w3.org/2000/svg" xmlns:xlink="http://www.w3.org/1999/xlink" xml:space="preserve" style="fill-rule:evenodd;clip-rule:evenodd;">
    <g transform="matrix(1,0,0,1,-2573,-1795)">
        <g transform="matrix(1,0,0,1,0,2187.64)">
            <g id="rect7195-8-7" transform="matrix(0.995538,0,0,0.996801,-345.023,79.6016)">
                <path d="M3156.68,-460.696C3156.68,-466.608 3151.88,-471.408 3145.96,-471.408L2944.18,-471.408C2938.26,-471.408 2933.45,-466.608 2933.45,-460.696L2933.45,-170.309C2933.45,-164.397 2938.26,-159.597 2944.18,-159.597L3145.96,-159.597C3151.88,-159.597 3156.68,-164.397 3156.68,-170.309L3156.68,-460.696Z" style="fill:white;stroke:black;stroke-width:1px;"/>
            </g>
            <g id="path7225-5-2" transform="matrix(0.995538,0,0,0.996801,-345.023,79.6016)">
                <path d="M2993.3,-438.713C2984.08,-425.556 2974.2,-417.985 2974.04,-407.72C2973.99,-404.396 2975.78,-398.747 2981.41,-397.665C2985.06,-396.967 2990.09,-399.923 2990.2,-405.928C2990.18,-407.123 2991.46,-407.092 2991.45,-405.454C2991.28,-400.717 2989.78,-395.202 2987.26,-390.713C2991.29,-390.713 2995.32,-390.713 2999.34,-390.713C2996.82,-395.202 2995.33,-400.717 2995.15,-405.454C2995.14,-407.092 2996.42,-407.123 2996.41,-405.928C2996.51,-399.923 3001.54,-396.967 3005.19,-397.665C3010.82,-398.747 3012.62,-404.396 3012.56,-407.72C3012.4,-417.985 3002.53,-425.556 2993.3,-438.713L2993.3,-438.713Z" style="fill-rule:nonzero;"/>
            </g>
            <g id="path7227-2-8" transform="matrix(0.995538,0,0,0.996801,-345.023,79.6016)">
                <path d="M2950.67,-421.435C2946.36,-415.953 2941.75,-412.798 2941.67,-408.521C2941.64,-407.136 2942.49,-404.782 2945.12,-404.332C2946.82,-404.041 2949.17,-405.272 2949.22,-407.774C2949.21,-408.272 2949.81,-408.259 2949.81,-407.577C2949.73,-405.603 2949.03,-403.305 2947.85,-401.435C2949.73,-401.435 2951.61,-401.435 2953.49,-401.435C2952.32,-403.305 2951.62,-405.603 2951.54,-407.577C2951.53,-408.259 2952.13,-408.272 2952.12,-407.774C2952.17,-405.272 2954.52,-404.041 2956.23,-404.332C2958.86,-404.782 2959.7,-407.136 2959.67,-408.521C2959.59,-412.798 2954.98,-415.953 2950.67,-421.435L2950.67,-421.435Z" style="fill-rule:nonzero;"/>
            </g>
            <g id="path7229-4-8" transform="matrix(0.995538,0,0,0.996801,-345.023,79.6016)">
                <path d="M2993.3,-258.432C2984.08,-271.59 2974.2,-279.161 2974.04,-289.426C2973.99,-292.75 2975.78,-298.399 2981.41,-299.481C2985.06,-300.179 2990.09,-297.223 2990.2,-291.218C2990.18,-290.023 2991.46,-290.054 2991.45,-291.692C2991.28,-296.428 2989.78,-301.943 2987.26,-306.432C2991.29,-306.432 2995.32,-306.432 2999.34,-306.432C2996.82,-301.943 2995.33,-296.428 2995.15,-291.692C2995.14,-290.054 2996.42,-290.023 2996.41,-291.218C2996.51,-297.223 3001.54,-300.179 3005.19,-299.481C3010.82,-298.399 3012.62,-292.75 3012.56,-289.426C3012.4,-279.161 3002.53,-271.59 2993.3,-258.432L2993.3,-258.432Z" style="fill-rule:nonzero;"/>
            </g>
            <g id="path7231-7-8" transform="matrix(0.995538,0,0,0.996801,-345.023,79.6016)">
                <path d="M3139.47,-209.57C3135.16,-215.052 3130.54,-218.207 3130.47,-222.484C3130.44,-223.869 3131.28,-226.223 3133.91,-226.674C3135.62,-226.965 3137.97,-225.733 3138.01,-223.231C3138,-222.733 3138.61,-222.746 3138.6,-223.428C3138.52,-225.402 3137.82,-227.7 3136.64,-229.57C3138.52,-229.57 3140.41,-229.57 3142.29,-229.57C3141.11,-227.7 3140.41,-225.402 3140.33,-223.428C3140.32,-222.746 3140.92,-222.733 3140.92,-223.231C3140.97,-225.733 3143.31,-226.965 3145.02,-226.674C3147.65,-226.223 3148.49,-223.869 3148.47,-222.484C3148.39,-218.207 3143.78,-215.052 3139.47,-209.57L3139.47,-209.57Z" style="fill-rule:nonzero;"/>
            </g>
            <g id="path7233-8-9" transform="matrix(0.995538,0,0,0.996801,-345.023,79.6016)">
                <path d="M3096.83,-438.713C3087.61,-425.556 3077.74,-417.985 3077.57,-407.72C3077.52,-404.396 3079.31,-398.747 3084.94,-397.665C3088.6,-396.967 3093.62,-399.923 3093.73,-405.928C3093.71,-407.123 3094.99,-407.092 3094.98,-405.454C3094.81,-400.717 3093.31,-395.202 3090.79,-390.713C3094.82,-390.713 3098.85,-390.713 3102.88,-390.713C3100.36,-395.202 3098.86,-400.717 3098.69,-405.454C3098.67,-407.092 3099.95,-407.123 3099.94,-405.928C3100.04,-399.923 3105.07,-396.967 3108.72,-397.665C3114.35,-398.747 3116.15,-404.396 3116.1,-407.72C3115.93,-417.985 3106.06,-425.556 3096.83,-438.713L3096.83,-438.713Z" style="fill-rule:nonzero;"/>
            </g>
            <g id="path7235-9-4" transform="matrix(0.995538,0,0,0.996801,-345.023,79.6016)">
                <path d="M2993.3,-372.573C2984.08,-359.416 2974.2,-351.844 2974.04,-341.58C2973.99,-338.256 2975.78,-332.606 2981.41,-331.525C2985.06,-330.826 2990.09,-333.782 2990.2,-339.787C2990.18,-340.983 2991.46,-340.952 2991.45,-339.314C2991.28,-334.577 2989.78,-329.062 2987.26,-324.573C2991.29,-324.573 2995.32,-324.573 2999.34,-324.573C2996.82,-329.062 2995.33,-334.577 2995.15,-339.314C2995.14,-340.952 2996.42,-340.983 2996.41,-339.787C2996.51,-333.782 3001.54,-330.826 3005.19,-331.525C3010.82,-332.606 3012.62,-338.256 3012.56,-341.58C3012.4,-351.844 3002.53,-359.416 2993.3,-372.573L2993.3,-372.573Z" style="fill-rule:nonzero;"/>
            </g>
            <g id="path7241-7-2" transform="matrix(0.995538,0,0,0.996801,-345.023,79.6016)">
                <path d="M3096.83,-372.573C3087.61,-359.416 3077.74,-351.844 3077.57,-341.58C3077.52,-338.256 3079.31,-332.606 3084.94,-331.525C3088.6,-330.826 3093.62,-333.782 3093.73,-339.787C3093.71,-340.983 3094.99,-340.952 3094.98,-339.314C3094.81,-334.577 3093.31,-329.062 3090.79,-324.573C3094.82,-324.573 3098.85,-324.573 3102.88,-324.573C3100.36,-329.062 3098.86,-334.577 3098.69,-339.314C3098.67,-340.952 3099.95,-340.983 3099.94,-339.787C3100.04,-333.782 3105.07,-330.826 3108.72,-331.525C3114.35,-332.606 3116.15,-338.256 3116.1,-341.58C3115.93,-351.844 3106.06,-359.416 3096.83,-372.573L3096.83,-372.573Z" style="fill-rule:nonzero;"/>
            </g>
            <g id="path7245-1-6" transform="matrix(0.995538,0,0,0.996801,-345.023,79.6016)">
                <path d="M2993.3,-192.292C2984.08,-205.449 2974.2,-213.021 2974.04,-223.285C2973.99,-226.609 2975.78,-232.259 2981.41,-233.34C2985.06,-234.038 2990.09,-231.083 2990.2,-225.078C2990.18,-223.882 2991.46,-223.913 2991.45,-225.551C2991.28,-230.288 2989.78,-235.803 2987.26,-240.292C2991.29,-240.292 2995.32,-240.292 2999.34,-240.292C2996.82,-235.803 2995.33,-230.288 2995.15,-225.551C2995.14,-223.913 2996.42,-223.882 2996.41,-225.078C2996.51,-231.083 3001.54,-234.038 3005.19,-233.34C3010.82,-232.259 3012.62,-226.609 3012.56,-223.285C3012.4,-213.021 3002.53,-205.449 2993.3,-192.292L2993.3,-192.292Z" style="fill-rule:nonzero;"/>
            </g>
            <g id="path7247-0-6" transform="matrix(0.995538,0,0,0.996801,-345.023,79.6016)">
                <path d="M3096.83,-192.292C3087.61,-205.449 3077.74,-213.021 3077.57,-223.285C3077.52,-226.609 3079.31,-232.259 3084.94,-233.34C3088.6,-234.038 3093.62,-231.083 3093.73,-225.078C3093.71,-223.882 3094.99,-223.913 3094.98,-225.551C3094.81,-230.288 3093.31,-235.803 3090.79,-240.292C3094.82,-240.292 3098.85,-240.292 3102.88,-240.292C3100.36,-235.803 3098.86,-230.288 3098.69,-225.551C3098.67,-223.913 3099.95,-223.882 3099.94,-225.078C3100.04,-231.083 3105.07,-234.038 3108.72,-233.34C3114.35,-232.259 3116.15,-226.609 3116.1,-223.285C3115.93,-213.021 3106.06,-205.449 3096.83,-192.292L3096.83,-192.292Z" style="fill-rule:nonzero;"/>
            </g>
            <g id="path7251-3-6" transform="matrix(0.995538,0,0,0.996801,-345.023,79.6016)">
                <path d="M3096.83,-258.432C3087.61,-271.59 3077.74,-279.161 3077.57,-289.426C3077.52,-292.75 3079.31,-298.399 3084.94,-299.481C3088.6,-300.179 3093.62,-297.223 3093.73,-291.218C3093.71,-290.022 3094.99,-290.054 3094.98,-291.692C3094.81,-296.428 3093.31,-301.943 3090.79,-306.432C3094.82,-306.432 3098.85,-306.432 3102.88,-306.432C3100.36,-301.943 3098.86,-296.428 3098.69,-291.692C3098.67,-290.054 3099.95,-290.022 3099.94,-291.218C3100.04,-297.223 3105.07,-300.179 3108.72,-299.481C3114.35,-298.399 3116.15,-292.75 3116.1,-289.426C3115.93,-279.161 3106.06,-271.59 3096.83,-258.432L3096.83,-258.432Z" style="fill-rule:nonzero;"/>
            </g>
            <g id="path7255-7-8" transform="matrix(0.995538,0,0,0.996801,-345.023,79.6016)">
                <path d="M3045.07,-339.503C3035.84,-326.346 3025.97,-318.774 3025.81,-308.509C3025.75,-305.185 3027.55,-299.536 3033.18,-298.455C3036.83,-297.756 3041.86,-300.712 3041.96,-306.717C3041.95,-307.913 3043.23,-307.882 3043.22,-306.243C3043.04,-301.507 3041.55,-295.992 3039.03,-291.503C3043.05,-291.503 3047.08,-291.503 3051.11,-291.503C3048.59,-295.992 3047.09,-301.507 3046.92,-306.243C3046.91,-307.882 3048.19,-307.913 3048.17,-306.717C3048.28,-300.712 3053.31,-297.756 3056.96,-298.455C3062.59,-299.536 3064.38,-305.185 3064.33,-308.509C3064.16,-318.774 3054.29,-326.346 3045.07,-339.503L3045.07,-339.503Z" style="fill-rule:nonzero;"/>
            </g>
            <g id="path29-33-4-4" transform="matrix(0.995538,0,0,0.996801,-345.023,79.6016)">
                <path d="M2941.45,-430.932L2944.47,-431.889C2945.61,-428.846 2947.91,-427.945 2950.35,-428.14C2954.71,-428.489 2956.16,-433.373 2956.49,-437.69C2954.79,-435.884 2952.23,-434.968 2950.05,-435.06C2943.09,-435.434 2941.3,-441.009 2941.24,-446.845C2941.05,-451.766 2943.08,-455.33 2946.57,-456.967C2948.42,-457.796 2952.65,-457.796 2954.51,-456.813C2958.78,-454.561 2960.37,-450.671 2960.08,-441.382C2960.08,-433.741 2958.45,-424.84 2950.26,-424.647C2945.53,-423.992 2941.94,-427.674 2941.45,-430.932L2941.45,-430.932ZM2953.31,-439.306C2954.73,-440.205 2955.53,-441.05 2956.17,-442.313C2956.69,-443.352 2956.87,-443.894 2956.72,-446.041C2956.33,-451.581 2953.43,-454.726 2949.22,-454.103C2946.87,-453.75 2945.58,-452.435 2944.84,-449.99C2943.48,-445.469 2945.21,-440.18 2948.44,-438.962C2949.9,-438.41 2952.15,-438.568 2953.31,-439.305L2953.31,-439.306Z" style="fill-rule:nonzero;"/>
            </g>
            <g id="path29-33-3-8-6" transform="matrix(0.995538,0,0,0.996801,-345.023,79.6016)">
                <path d="M3148.68,-200.073L3145.66,-199.116C3144.52,-202.159 3142.22,-203.06 3139.79,-202.865C3135.42,-202.517 3133.97,-197.633 3133.64,-193.315C3135.34,-195.121 3137.9,-196.038 3140.08,-195.945C3147.05,-195.572 3148.83,-189.996 3148.89,-184.16C3149.08,-179.239 3147.05,-175.675 3143.56,-174.038C3141.71,-173.21 3137.48,-173.21 3135.62,-174.192C3131.35,-176.444 3129.77,-180.334 3130.06,-189.623C3130.06,-197.265 3131.68,-206.165 3139.87,-206.358C3144.6,-207.013 3148.2,-203.331 3148.68,-200.073L3148.68,-200.073ZM3136.82,-191.7C3135.4,-190.8 3134.6,-189.956 3133.97,-188.692C3133.44,-187.654 3133.26,-187.111 3133.41,-184.964C3133.8,-179.424 3136.7,-176.279 3140.92,-176.902C3143.27,-177.256 3144.55,-178.57 3145.29,-181.015C3146.65,-185.536 3144.92,-190.825 3141.69,-192.043C3140.23,-192.595 3137.98,-192.437 3136.82,-191.7L3136.82,-191.7Z" style="fill-rule:nonzero;"/>
            </g>
        </g>
    </g>
</svg>
