<?xml version="1.0" encoding="UTF-8" standalone="no"?>
<!DOCTYPE svg PUBLIC "-//W3C//DTD SVG 1.1//EN" "http://www.w3.org/Graphics/SVG/1.1/DTD/svg11.dtd">
<svg width="100%" height="100%" viewBox="0 0 227 316" version="1.1" xmlns="http://www.w3.org/2000/svg" xmlns:xlink="http://www.w3.org/1999/xlink" xml:space="preserve" style="fill-rule:evenodd;clip-rule:evenodd;">
    <g transform="matrix(1,0,0,1,-467,-1091)">
        <g transform="matrix(1,0,0,1,0,2187.64)">
            <g id="rect6355-6-85-9-3-2" transform="matrix(0.999997,0,0,1,5.98203,-5.55063)">
                <path d="M685.766,-1077.74C685.766,-1083.61 681.003,-1088.37 675.136,-1088.37L474.163,-1088.37C468.297,-1088.37 463.533,-1083.61 463.533,-1077.74L463.533,-788.186C463.533,-782.319 468.297,-777.556 474.163,-777.556L675.136,-777.556C681.003,-777.556 685.766,-782.319 685.766,-788.186L685.766,-1077.74Z" style="fill:white;stroke:black;stroke-width:1px;"/>
            </g>
            <g id="path147-0-8-1-6-1-1-0-9-1-8" transform="matrix(0.999997,0,0,1,5.98203,-5.55063)">
                <path d="M574.645,-956.471C564.871,-956.259 560.488,-945.254 567.727,-936.708C568.777,-935.462 568.885,-934.746 566.962,-935.944C562.089,-939.203 552.743,-937.06 552.265,-927.096C551.673,-914.819 568.827,-911.282 572.048,-924.337C572.218,-925.714 573.338,-925.683 573.068,-923.728C572.774,-918.421 571.117,-913.461 568.839,-908.625C572.678,-908.625 576.969,-908.625 580.459,-908.625C578.182,-913.461 576.524,-918.421 576.231,-923.728C575.961,-925.683 577.08,-925.714 577.25,-924.337C580.471,-911.282 597.625,-914.819 597.034,-927.096C596.556,-937.06 587.21,-939.203 582.336,-935.944C580.413,-934.746 580.522,-935.462 581.572,-936.708C588.811,-945.254 584.428,-956.259 574.653,-956.471C574.653,-956.472 574.653,-956.471 574.643,-956.471L574.645,-956.471Z" style="fill-rule:nonzero;"/>
            </g>
            <g id="path147-6-9-8-7-0-5-0-8-3" transform="matrix(0.999997,0,0,1,5.98203,-5.55063)">
                <path d="M668.627,-827.369C672.537,-827.458 674.29,-832.043 671.395,-835.604C670.975,-836.123 670.931,-836.421 671.701,-835.922C673.65,-834.564 677.388,-835.457 677.58,-839.609C677.816,-844.724 670.955,-846.198 669.666,-840.759C669.599,-840.185 669.15,-840.198 669.258,-841.012C669.376,-843.223 670.039,-845.29 670.95,-847.305C669.401,-847.305 667.851,-847.305 666.302,-847.305C667.213,-845.29 667.876,-843.223 667.993,-841.012C668.101,-840.198 667.654,-840.185 667.586,-840.759C666.297,-846.198 659.436,-844.724 659.672,-839.609C659.864,-835.457 663.602,-834.564 665.551,-835.922C666.32,-836.421 666.277,-836.123 665.857,-835.604C662.961,-832.043 664.715,-827.458 668.624,-827.369C668.625,-827.369 668.624,-827.369 668.624,-827.369L668.627,-827.369Z" style="fill-rule:nonzero;"/>
            </g>
            <g id="path41-6-3-5-1" transform="matrix(0.999997,0,0,1,5.98203,-5.55063)">
                <path d="M470.625,-1041.68L470.625,-1044.49L473.306,-1044.49L479.016,-1074.58L482.265,-1074.58L488.555,-1044.49L490.719,-1044.49L490.719,-1041.68L483.344,-1041.68L483.344,-1044.49L485.335,-1044.49L484.54,-1049.1L477.1,-1049.1L476.525,-1044.49L478.515,-1044.49L478.515,-1041.68L470.625,-1041.68L470.625,-1041.68ZM483.905,-1052.39L480.67,-1068.49L477.641,-1052.39L483.905,-1052.39Z" style="fill-rule:nonzero;"/>
            </g>
            <g id="path41-6-4-0-2-8" transform="matrix(0.999997,0,0,1,5.98203,-5.55063)">
                <path d="M658.577,-824.244L658.577,-821.431L661.258,-821.431L666.968,-791.349L670.217,-791.349L676.507,-821.431L678.671,-821.431L678.671,-824.244L671.296,-824.244L671.296,-821.431L673.287,-821.431L672.492,-816.821L665.052,-816.821L664.477,-821.431L666.467,-821.431L666.467,-824.244L658.577,-824.244ZM671.857,-813.537L668.623,-797.437L665.593,-813.537L671.857,-813.537Z" style="fill-rule:nonzero;"/>
            </g>
            <g id="path147-6-9-8-7-4-5-6-8-9" transform="matrix(0.999997,0,0,1,5.98203,-5.55063)">
                <path d="M480.672,-1038.56C476.763,-1038.47 475.009,-1033.88 477.905,-1030.32C478.325,-1029.8 478.368,-1029.5 477.599,-1030C475.65,-1031.36 471.912,-1030.47 471.72,-1026.32C471.484,-1021.2 478.345,-1019.73 479.634,-1025.17C479.701,-1025.74 480.149,-1025.73 480.041,-1024.91C479.924,-1022.7 479.261,-1020.63 478.35,-1018.62C479.899,-1018.62 481.449,-1018.62 482.998,-1018.62C482.087,-1020.63 481.424,-1022.7 481.306,-1024.91C481.198,-1025.73 481.646,-1025.74 481.714,-1025.17C483.002,-1019.73 489.864,-1021.2 489.628,-1026.32C489.436,-1030.47 485.698,-1031.36 483.749,-1030C482.979,-1029.5 483.023,-1029.8 483.443,-1030.32C486.338,-1033.88 484.585,-1038.47 480.675,-1038.56C480.674,-1038.56 480.675,-1038.56 480.675,-1038.56L480.672,-1038.56Z" style="fill-rule:nonzero;"/>
            </g>
        </g>
    </g>
</svg>
