<?xml version="1.0" encoding="UTF-8" standalone="no"?>
<!DOCTYPE svg PUBLIC "-//W3C//DTD SVG 1.1//EN" "http://www.w3.org/Graphics/SVG/1.1/DTD/svg11.dtd">
<svg width="100%" height="100%" viewBox="0 0 227 316" version="1.1" xmlns="http://www.w3.org/2000/svg" xmlns:xlink="http://www.w3.org/1999/xlink" xml:space="preserve" style="fill-rule:evenodd;clip-rule:evenodd;">
    <g transform="matrix(1,0,0,1,-467,-1443)">
        <g transform="matrix(1,0,0,1,0,2187.64)">
            <g id="rect9666-2-2" transform="matrix(0.995538,0,0,0.996801,210.243,-1111.2)">
                <path d="M483.661,380.987C483.661,375.075 478.855,370.276 472.936,370.276L271.158,370.276C265.239,370.276 260.433,375.075 260.433,380.987L260.433,671.375C260.433,677.287 265.239,682.087 271.158,682.087L472.936,682.087C478.855,682.087 483.661,677.287 483.661,671.375L483.661,380.987Z" style="fill:white;stroke:black;stroke-width:1px;"/>
            </g>
            <g id="path9698-0-0" transform="matrix(0.995538,0,0,0.996801,581.625,-532.688)">
                <path d="M-95.397,-140.121C-95.397,-140.121 -97.622,-143.311 -100.623,-147.061C-102.63,-149.571 -104.235,-152.289 -104.385,-154.629C-104.556,-157.303 -102.936,-159.986 -100.002,-160.116C-97.071,-160.246 -95.881,-158.054 -95.397,-156.247C-94.912,-158.054 -93.723,-160.246 -90.791,-160.116C-87.858,-159.986 -86.238,-157.303 -86.409,-154.629C-86.558,-152.289 -88.163,-149.571 -90.171,-147.061C-93.172,-143.311 -95.397,-140.121 -95.397,-140.121L-95.397,-140.121Z" style="fill:rgb(212,0,0);fill-rule:nonzero;"/>
            </g>
            <g id="path9700-3-2" transform="matrix(0.995538,0,0,0.996801,581.625,-532.688)">
                <path d="M93.398,31.743C93.398,31.743 91.173,34.933 88.172,38.684C86.164,41.193 84.559,43.911 84.41,46.251C84.239,48.925 85.859,51.608 88.792,51.738C91.723,51.868 92.913,49.676 93.398,47.869C93.882,49.676 95.072,51.868 98.003,51.738C100.936,51.608 102.556,48.925 102.385,46.251C102.236,43.911 100.631,41.193 98.623,38.684C95.622,34.933 93.398,31.743 93.398,31.743L93.398,31.743Z" style="fill:rgb(212,0,0);fill-rule:nonzero;"/>
            </g>
            <g id="path9714-6-6" transform="matrix(0.995538,0,0,0.996801,581.625,-532.688)">
                <path d="M-1,-30.189C-1,-30.189 -5.666,-37.844 -11.961,-46.845C-16.172,-52.868 -19.539,-59.391 -19.852,-65.008C-20.211,-71.426 -16.812,-77.864 -10.66,-78.176C-4.512,-78.488 -2.016,-73.228 -1,-68.891C0.016,-73.228 2.512,-78.488 8.66,-78.176C14.812,-77.864 18.211,-71.426 17.852,-65.008C17.539,-59.391 14.172,-52.868 9.961,-46.845C3.666,-37.844 -1,-30.189 -1,-30.189L-1,-30.189Z" style="fill:rgb(212,0,0);fill-rule:nonzero;"/>
            </g>
            <g id="path41-87-8-3-9" transform="matrix(0.995538,0,0,0.996801,32.0886,318.486)">
                <path d="M446.51,-1017.16L446.51,-1019.98L449.202,-1019.98L454.937,-1050.16L458.202,-1050.16L464.52,-1019.98L466.694,-1019.98L466.694,-1017.16L459.286,-1017.16L459.286,-1019.98L461.285,-1019.98L460.486,-1024.61L453.013,-1024.61L452.435,-1019.98L454.435,-1019.98L454.435,-1017.16L446.51,-1017.16L446.51,-1017.16ZM459.849,-1027.9L456.6,-1044.06L453.557,-1027.9L459.849,-1027.9Z" style="fill:rgb(212,0,0);fill-rule:nonzero;stroke:black;stroke-width:1px;"/>
            </g>
            <g id="path41-8-5-1-8-7" transform="matrix(0.995538,0,0,0.996801,32.0886,318.486)">
                <path d="M635.304,-799.027L635.304,-796.205L637.996,-796.205L643.732,-766.027L646.996,-766.027L653.314,-796.205L655.488,-796.205L655.488,-799.027L648.08,-799.027L648.08,-796.205L650.079,-796.205L649.281,-791.58L641.807,-791.58L641.23,-796.205L643.229,-796.205L643.229,-799.027L635.304,-799.027ZM648.643,-788.286L645.394,-772.133L642.351,-788.286L648.643,-788.286Z" style="fill:rgb(212,0,0);fill-rule:nonzero;"/>
            </g>
        </g>
    </g>
</svg>
