<?xml version="1.0" encoding="UTF-8" standalone="no"?>
<!DOCTYPE svg PUBLIC "-//W3C//DTD SVG 1.1//EN" "http://www.w3.org/Graphics/SVG/1.1/DTD/svg11.dtd">
<svg width="100%" height="100%" viewBox="0 0 227 316" version="1.1" xmlns="http://www.w3.org/2000/svg" xmlns:xlink="http://www.w3.org/1999/xlink" xml:space="preserve" style="fill-rule:evenodd;clip-rule:evenodd;">
    <g transform="matrix(1,0,0,1,-467,-1795)">
        <g transform="matrix(1,0,0,1,0,2187.64)">
            <g id="rect6355-6-85-62-9-7" transform="matrix(0.995538,0,0,0.996801,138.39,79.6016)">
                <path d="M555.837,-460.696C555.837,-466.608 551.031,-471.408 545.111,-471.408L343.334,-471.408C337.414,-471.408 332.608,-466.608 332.608,-460.696L332.608,-170.309C332.608,-164.397 337.414,-159.597 343.334,-159.597L545.111,-159.597C551.031,-159.597 555.837,-164.397 555.837,-170.309L555.837,-460.696Z" style="fill:white;stroke:black;stroke-width:1px;"/>
            </g>
            <g id="path153-0-1-2-5-5-5-3-4" transform="matrix(0.995538,0,0,0.996801,138.39,79.6016)">
                <path d="M349.826,-421.435C345.515,-415.953 340.903,-412.798 340.826,-408.521C340.8,-407.136 341.64,-404.782 344.27,-404.332C345.976,-404.041 348.326,-405.272 348.375,-407.774C348.365,-408.272 348.966,-408.259 348.96,-407.577C348.88,-405.603 348.18,-403.305 347.002,-401.435C348.884,-401.435 350.767,-401.435 352.649,-401.435C351.472,-403.305 350.771,-405.603 350.691,-407.577C350.681,-408.259 351.284,-408.272 351.276,-407.774C351.325,-405.272 353.675,-404.041 355.381,-404.332C358.011,-404.782 358.851,-407.136 358.825,-408.521C358.748,-412.798 354.136,-415.953 349.826,-421.435Z" style="fill-rule:nonzero;"/>
            </g>
            <g id="path153-0-1-2-5-6-5-9-1-9" transform="matrix(0.995538,0,0,0.996801,138.39,79.6016)">
                <path d="M538.62,-209.57C534.309,-215.052 529.697,-218.207 529.621,-222.484C529.595,-223.869 530.435,-226.223 533.065,-226.674C534.771,-226.965 537.12,-225.733 537.169,-223.231C537.159,-222.733 537.761,-222.746 537.755,-223.428C537.675,-225.402 536.974,-227.7 535.797,-229.57C537.679,-229.57 539.561,-229.57 541.443,-229.57C540.266,-227.7 539.565,-225.402 539.485,-223.428C539.475,-222.746 540.078,-222.733 540.071,-223.231C540.12,-225.733 542.469,-226.965 544.176,-226.674C546.806,-226.223 547.645,-223.869 547.619,-222.484C547.542,-218.207 542.931,-215.052 538.62,-209.57L538.62,-209.57Z" style="fill-rule:nonzero;"/>
            </g>
            <g id="path153-6-3-1-6-92-7-2-9-8" transform="matrix(0.995538,0,0,0.996801,138.39,79.6016)">
                <path d="M444.222,-339.503C434.996,-326.346 425.125,-318.774 424.961,-308.509C424.906,-305.185 426.703,-299.536 432.332,-298.455C435.984,-297.756 441.012,-300.712 441.117,-306.717C441.101,-307.913 442.383,-307.882 442.371,-306.243C442.199,-301.507 440.699,-295.992 438.179,-291.503C442.208,-291.503 446.237,-291.503 450.265,-291.503C447.745,-295.992 446.246,-301.507 446.074,-306.243C446.062,-307.882 447.344,-307.913 447.328,-306.717C447.433,-300.712 452.461,-297.756 456.113,-298.455C461.742,-299.536 463.539,-305.185 463.484,-308.509C463.32,-318.774 453.448,-326.346 444.222,-339.503L444.222,-339.503Z" style="fill-rule:nonzero;"/>
            </g>
            <g id="path41-4-9-2" transform="matrix(0.995538,0,0,0.996801,138.39,79.6016)">
                <path d="M339.732,-424.57L339.732,-427.392L342.424,-427.392L348.16,-457.57L351.424,-457.57L357.742,-427.392L359.916,-427.392L359.916,-424.57L352.508,-424.57L352.508,-427.392L354.507,-427.392L353.709,-432.017L346.235,-432.017L345.658,-427.392L347.657,-427.392L347.657,-424.57L339.732,-424.57ZM353.071,-435.311L349.822,-451.464L346.779,-435.311L353.071,-435.311Z" style="fill-rule:nonzero;"/>
            </g>
            <g id="path41-4-2-4-0" transform="matrix(0.995538,0,0,0.996801,138.39,79.6016)">
                <path d="M528.527,-206.435L528.527,-203.613L531.219,-203.613L536.954,-173.435L540.219,-173.435L546.537,-203.613L548.711,-203.613L548.711,-206.435L541.302,-206.435L541.302,-203.613L543.302,-203.613L542.503,-198.988L535.03,-198.988L534.452,-203.613L536.452,-203.613L536.452,-206.435L528.527,-206.435ZM541.866,-195.694L538.617,-179.542L535.573,-195.694L541.866,-195.694Z" style="fill-rule:nonzero;"/>
            </g>
        </g>
    </g>
</svg>
