<?xml version="1.0" encoding="UTF-8" standalone="no"?>
<!DOCTYPE svg PUBLIC "-//W3C//DTD SVG 1.1//EN" "http://www.w3.org/Graphics/SVG/1.1/DTD/svg11.dtd">
<svg width="100%" height="100%" viewBox="0 0 227 316" version="1.1" xmlns="http://www.w3.org/2000/svg" xmlns:xlink="http://www.w3.org/1999/xlink" xml:space="preserve" style="fill-rule:evenodd;clip-rule:evenodd;">
    <g transform="matrix(1,0,0,1,-467,-2147)">
        <g transform="matrix(1,0,0,1,0,2187.64)">
            <g id="rect6367-6" transform="matrix(0.995535,0,0,0.996803,8.54627,-8.13974)">
                <path d="M686.264,-19.733C686.264,-25.645 681.458,-30.445 675.538,-30.445L473.761,-30.445C467.841,-30.445 463.035,-25.645 463.035,-19.733L463.035,270.654C463.035,276.566 467.841,281.366 473.761,281.366L675.538,281.366C681.458,281.366 686.264,276.566 686.264,270.654L686.264,-19.733Z" style="fill:white;stroke:black;stroke-width:1px;"/>
            </g>
            <g id="path6399-9" transform="matrix(0.995535,0,0,0.996803,8.54627,-8.13974)">
                <path d="M480.253,39.528C478.092,35.96 475.818,32.491 472.977,29.528C475.818,26.566 478.092,23.097 480.253,19.528C482.414,23.097 484.687,26.566 487.528,29.528C484.687,32.491 482.414,35.96 480.253,39.528Z" style="fill:rgb(212,0,0);fill-rule:nonzero;"/>
            </g>
            <g id="path6403-1" transform="matrix(0.995535,0,0,0.996803,8.54627,-8.13974)">
                <path d="M669.047,231.393C666.886,227.824 664.613,224.356 661.772,221.393C664.613,218.43 666.886,214.962 669.047,211.393C671.208,214.962 673.482,218.43 676.323,221.393C673.482,224.356 671.208,227.824 669.047,231.393Z" style="fill:rgb(212,0,0);fill-rule:nonzero;"/>
            </g>
            <g id="path6413-1" transform="matrix(0.995535,0,0,0.996803,8.54627,-8.13974)">
                <path d="M574.65,149.461C569.463,140.896 564.007,132.572 557.189,125.461C564.007,118.35 569.463,110.025 574.65,101.461C579.836,110.025 585.292,118.35 592.111,125.461C585.292,132.571 579.836,140.896 574.65,149.461Z" style="fill:rgb(212,0,0);fill-rule:nonzero;"/>
            </g>
            <g id="path41-87-9-4-8" transform="matrix(0.995535,0,0,0.996803,8.54627,-8.13974)">
                <path d="M470.159,16.393L470.159,13.571L472.851,13.571L478.587,-16.607L481.851,-16.607L488.169,13.571L490.343,13.571L490.343,16.393L482.935,16.393L482.935,13.571L484.934,13.571L484.136,8.946L476.662,8.946L476.085,13.571L478.084,13.571L478.084,16.393L470.159,16.393ZM483.498,5.652L480.249,-10.5L477.206,5.652L483.498,5.652Z" style="fill:rgb(212,0,0);fill-rule:nonzero;"/>
            </g>
            <g id="path41-8-5-6-1" transform="matrix(0.995535,0,0,0.996803,8.54627,-8.13974)">
                <path d="M658.954,234.528L658.954,237.35L661.646,237.35L667.381,267.528L670.646,267.528L676.964,237.35L679.138,237.35L679.138,234.528L671.73,234.528L671.73,237.35L673.729,237.35L672.93,241.975L665.457,241.975L664.879,237.35L666.879,237.35L666.879,234.528L658.954,234.528L658.954,234.528ZM672.293,245.269L669.044,261.422L666.001,245.269L672.293,245.269Z" style="fill:rgb(212,0,0);fill-rule:nonzero;"/>
            </g>
        </g>
    </g>
</svg>
