<?xml version="1.0" encoding="UTF-8" standalone="no"?>
<!DOCTYPE svg PUBLIC "-//W3C//DTD SVG 1.1//EN" "http://www.w3.org/Graphics/SVG/1.1/DTD/svg11.dtd">
<svg width="100%" height="100%" viewBox="0 0 227 316" version="1.1" xmlns="http://www.w3.org/2000/svg" xmlns:xlink="http://www.w3.org/1999/xlink" xml:space="preserve" style="fill-rule:evenodd;clip-rule:evenodd;">
    <g transform="matrix(1,0,0,1,-3626,-2147)">
        <g transform="matrix(1,0,0,1,0,2187.64)">
            <g id="rect7234-2" transform="matrix(0.995535,0,0,0.996803,10.7429,-8.13976)">
                <path d="M3856.97,-19.733C3856.97,-25.645 3852.16,-30.445 3846.24,-30.445L3644.46,-30.445C3638.54,-30.445 3633.74,-25.645 3633.74,-19.733L3633.74,270.654C3633.74,276.566 3638.54,281.366 3644.46,281.366L3846.24,281.366C3852.16,281.366 3856.97,276.566 3856.97,270.654L3856.97,-19.733Z" style="fill:white;stroke:black;stroke-width:1px;"/>
            </g>
            <g id="path6351-0" transform="matrix(0.995535,0,0,0.996803,10.7429,-8.13976)">
                <path d="M3663.73,-6.117C3663.82,73.256 3663.67,170.59 3663.73,257.038L3826.99,257.038L3826.99,-6.117L3663.73,-6.117ZM3711.51,-4.623C3739.69,-3.854 3768.04,-4.686 3796.42,-4.464C3796.42,-4.464 3786.11,13.6 3782.98,19.286C3782.3,20.536 3782.23,21.421 3782.6,21.939C3783.17,22.742 3783.12,24.098 3782.48,24.883C3782.21,25.219 3782.08,25.437 3782.06,25.639C3782.04,25.839 3782.22,26.059 3782.37,26.423C3782.87,28.155 3781.57,29.353 3780.2,29.909C3779.29,30.282 3777.25,30.528 3775.75,30.456C3766.33,30.007 3747.86,22.002 3740.25,21.378C3734.97,19.895 3728.14,20.413 3722.51,20.734C3721.45,20.798 3721.64,18.308 3721.64,18.308C3720.75,10.084 3714.96,2.924 3711.51,-4.623L3711.51,-4.623ZM3797.95,-3.718L3824.9,-3.718L3824.9,0.48L3813.49,12.028C3812.44,13.108 3811.61,14.003 3811.61,14.003L3811.54,24.423C3803.9,20.296 3802.38,15.365 3800.99,9.941C3788.22,19.413 3787.62,40.141 3801.56,50.812C3801.67,46.176 3805.18,37.068 3811.41,36.392L3811.5,72.499L3803.84,64.979L3787.2,65.197C3789.94,60.72 3790,57.163 3788.23,52.966C3785.23,46.109 3780.62,30.457 3780.97,30.51C3780.97,30.51 3781.1,30.173 3781.48,30.088C3782.86,29.779 3783.74,28.44 3783.34,26.83C3783.27,26.311 3783.27,26.433 3783.62,25.76C3784.98,23.436 3783.36,20.913 3783.36,20.913L3797.95,-3.718ZM3709.64,-3.718L3719.64,14.507C3719.64,14.507 3719.5,15.34 3719.56,15.829C3719.64,16.532 3719.87,17.158 3720.27,17.814C3720.53,18.248 3720.73,18.84 3720.79,19.388C3720.89,20.289 3720.89,20.29 3722.2,21.479C3722.48,21.729 3722.53,21.883 3722.43,22.143C3721.99,23.246 3722.25,25.502 3723.11,28.195C3724.19,31.597 3724.47,31.552 3722.45,36.102C3722.03,37.052 3721.52,38.32 3720.97,39.486C3718.48,44.636 3718.1,46.033 3722.37,48.778C3723.58,49.551 3723.93,50.221 3723.63,51.761C3723.39,52.972 3723.35,53.746 3723.93,54.429C3724.3,54.871 3724.64,54.944 3724.55,55.286C3724.48,55.518 3724.2,56.525 3724.3,57.372C3724.55,59.655 3721.93,63.017 3719.53,64.195C3719.06,64.536 3718.92,64.119 3718.65,63.643C3716.17,59.278 3710,61.047 3709.59,66.253C3709.48,67.629 3709.53,68.226 3709.17,68.519C3709.05,68.618 3708.69,68.824 3708.69,68.824C3708.69,68.824 3699.46,74.861 3693.59,77.965C3693.2,78.167 3692.86,78.501 3692.59,78.556C3692.28,78.619 3692.05,78.562 3691.85,78.367C3689.69,74.221 3690.89,69.325 3691.07,67.589C3691.03,66.974 3690.5,66.862 3689.72,66.853C3688.38,66.837 3686.46,68.199 3686.04,69.468C3685.69,70.546 3685.46,71.244 3685.14,71.24C3684.81,71.235 3684.66,70.8 3683.85,69.245C3682.18,66.009 3681.92,65.599 3680.36,63.72C3679.11,62.221 3678.05,62.023 3676.82,63.139C3675.97,63.915 3676,63.241 3675.28,62.849C3674.03,61.994 3672.15,62.759 3672.1,63.962C3672.06,64.972 3672.06,65.731 3671.04,65.797C3669.91,65.872 3669.42,67.342 3669.74,69.438C3669.9,70.542 3669.93,70.719 3669.6,71.123C3668.51,72.443 3668.36,73.354 3668.96,75.196C3670.68,80.445 3673.17,83.979 3675.51,88.753C3675.51,88.753 3669.74,92.143 3666.21,94.113L3666.21,-3.718L3709.64,-3.718ZM3825.08,1.536L3825.22,86.385L3812.47,73.782C3812.47,73.782 3812.22,57.522 3812.23,50.875C3812.24,44.227 3812.34,37.58 3812.31,36.344C3812.29,35.108 3812.38,29.848 3812.42,24.447C3812.5,13.134 3811.47,14.533 3813.57,12.362L3825.08,1.536ZM3800.16,11.708L3800.86,13.756C3795.52,16.837 3788.99,33.99 3800.99,46.585L3800.74,49.18C3788.17,37.707 3790.49,21.255 3800.16,11.708L3800.16,11.708ZM3801.08,14.129C3802.91,17.935 3805,21.305 3807.84,23.368C3806.31,27.045 3805.65,31.101 3808.24,36.572C3806.43,37.576 3803.9,40.242 3801.28,45.703C3791.81,36.084 3793.92,22.137 3801.08,14.129L3801.08,14.129ZM3730.63,21.32C3735.88,21.328 3741.36,22.19 3746.38,23.711C3749.55,39.81 3755.11,50.633 3755.09,56.937C3755.09,56.937 3754.65,56.863 3753.71,56.186C3751.43,54.525 3748.42,55.452 3746.81,57.566C3745.29,59.57 3746.83,62.358 3746.04,63.527C3744.57,65.706 3740.76,69.736 3740.12,69.603C3739.66,69.506 3739.73,69.302 3741.36,66.785C3743.06,64.164 3744.37,61.788 3743.81,61.207C3743.57,60.961 3743.44,61.481 3742.17,63.696C3739.2,68.894 3736.58,72.108 3735.54,71.69C3735.06,71.494 3735.31,71.064 3737.51,68.136C3740,64.83 3740.69,62.761 3740.44,61.846C3740.25,61.143 3739.87,62.28 3738.84,64.311C3737.74,66.461 3735.75,68.857 3734.14,71.157C3733.63,71.99 3732.97,72.472 3732.13,72.852C3731.51,73.123 3730.52,73.565 3729.95,73.491C3729.65,73.453 3729.86,73.279 3730.26,72.881C3733.44,69.593 3736.16,65.927 3737.71,62.408C3737.95,61.946 3737.61,61.289 3737.22,61.774C3734.84,65.977 3731.54,71.221 3727.95,73.535C3727.17,74.031 3726.01,74.451 3724.97,74.363C3723.2,74.312 3723.83,73.916 3725.44,72.876C3728.88,70.65 3733.72,64.25 3734.5,61.987C3734.68,61.452 3734.48,61.146 3734.14,61.183C3731.3,65.744 3727.56,70.762 3723.2,72.862C3720.86,73.993 3717.9,74.216 3716.44,73.501C3715.38,72.977 3715.64,72.796 3717.53,72.673C3722.09,72.221 3727.42,67.924 3730.06,63.376C3731.61,60.859 3730.53,61.437 3728.76,63.865C3725.74,68.011 3719.76,71.985 3716.05,71.671C3712.29,71.447 3710.13,68.522 3710.62,66.015C3710.91,64.499 3711.98,62.953 3714.08,62.51C3717.67,61.751 3720.03,67.477 3716.74,68.557C3715.62,68.925 3715.19,68.646 3715.6,68.194C3718.04,67.12 3716.95,64.172 3714.89,63.87C3713.6,63.681 3712.1,64.558 3712.03,66.577C3712.07,68.082 3713.3,69.553 3715.77,69.589C3718.7,69.63 3723.2,67.509 3725.93,63.604C3727.86,60.619 3726.08,61.627 3724.64,63.619C3723.36,65.376 3719.25,67.834 3718.94,67.744L3719.08,65.72C3719.14,66.07 3725.41,61.752 3725.04,58.539C3724.81,56.207 3725.14,55.494 3727.56,55.523C3729.37,55.545 3731.66,56.181 3732.33,57.014C3733.01,57.838 3733.78,58.098 3733.44,56.709C3732.89,54.455 3733.55,54.083 3732.25,54.511C3731.36,54.806 3730.56,54.082 3729.66,53.441C3728.68,52.735 3727.43,52.433 3725.93,52.487C3724.82,52.527 3724.32,52.46 3724.49,51.402C3724.62,50.657 3724.76,49.979 3724.55,49.49C3724.2,48.695 3722.8,47.874 3721.22,46.706C3719.36,45.327 3719.71,45.245 3723.67,36.049C3725.34,32.187 3725.35,31.395 3724.35,28.544C3722.77,24.039 3722.52,22.234 3725.48,21.605C3727.16,21.412 3728.88,21.317 3730.63,21.32L3730.63,21.32ZM3747.43,23.929L3748.97,24.37C3748.98,24.371 3753.76,40.836 3756.5,48.875C3757.34,51.328 3757.97,54.642 3758.13,57.755C3758.06,62.041 3755.66,65.117 3752.73,65.454C3750.66,65.692 3748.41,64.611 3747.38,62.292C3746.51,60.087 3747.17,57.485 3749.67,56.588C3754,55.035 3757.17,60.591 3752.92,62.302C3750.73,63.186 3748.64,61.592 3749.63,59.735C3750.32,58.434 3752.28,58.575 3752.74,59.919C3753.11,61.35 3753.73,60.675 3753.47,59.706C3752.66,56.62 3748.72,57.347 3748.4,60.19C3748.4,63.714 3752.24,64.541 3754.53,62.563C3756.3,60.981 3756.49,58.124 3756.04,55.644C3755.43,50.493 3752.54,43.813 3750.48,36.189C3749.45,32.382 3747.96,27.844 3747.43,23.929L3747.43,23.929ZM3808.54,24.113L3811.43,25.261L3811.36,34.819L3808.91,35.666C3805.72,30.748 3808.38,24.118 3808.54,24.113L3808.54,24.113ZM3750.09,24.733L3752.2,25.551C3753.36,32.298 3758.82,45.195 3760.74,54.821C3761.28,60.606 3761.37,62.304 3757.47,65.386L3757.47,65.342L3755.36,65.342C3755.36,65.342 3755.35,65.213 3756.28,64.519C3761.38,60.681 3758.33,52.223 3756.41,45.723C3753.05,35.341 3750.05,24.72 3750.09,24.733L3750.09,24.733ZM3730.33,25.406C3730.07,25.409 3729.79,25.42 3729.52,25.435C3726.33,25.607 3725.81,25.813 3725.8,26.51C3725.78,27.823 3726.31,28.406 3729.28,28.084C3731.85,27.805 3735.56,28.205 3738.12,29.314C3741.05,30.578 3741.74,30.876 3742.79,31.42C3745.43,32.785 3744.97,31.427 3742.58,29.851C3737.71,26.632 3734.35,25.357 3730.33,25.406L3730.33,25.406ZM3753.33,25.871L3755.32,26.631C3755.32,26.631 3755.84,28.186 3756.03,29.076C3757.96,37.689 3763.21,47.375 3763.83,57.45C3763.96,60.751 3763.4,63.83 3760.99,65.318L3759.18,65.318C3761.12,63.377 3762.41,62.816 3761.87,56.07C3761.01,47.405 3755.33,36.579 3753.33,25.871L3753.33,25.871ZM3756.85,27.27L3758.68,27.948C3760.79,39.579 3771.24,56.957 3764.59,65.342L3762.92,65.342C3764.41,63.016 3765.02,60.972 3764.8,57.832C3764.15,47.264 3758.79,37.007 3756.85,27.27L3756.85,27.27ZM3759.92,28.34L3761.89,28.946C3764.56,40.73 3774.84,60.04 3767.51,65.381L3766.07,65.342C3771.59,54.969 3763.22,44.235 3759.92,28.34L3759.92,28.34ZM3763.35,29.439C3763.96,29.778 3764.82,29.94 3765.48,30.132C3767.55,39.042 3771.34,47.805 3773.06,56.104C3773.64,60.647 3772.65,64.05 3769.81,65.342L3769.21,65.342C3771.76,61.475 3771.27,56.597 3769.91,51.325C3768.09,44.235 3764.54,36.436 3763.35,29.439L3763.35,29.439ZM3732.33,29.594C3731.41,29.586 3730.45,29.725 3729.44,30.05C3728.41,30.443 3728.53,31.265 3729.49,31.095C3729.82,31.038 3730.4,30.935 3730.78,30.868C3733.14,30.454 3736.06,31.31 3739.58,33.458C3740.43,33.977 3741.36,34.477 3741.59,34.649C3742.24,35.136 3742.93,35.134 3742.69,34.514C3742.6,34.266 3741.24,33.206 3740.03,32.529C3737.46,30.965 3735.07,29.62 3732.33,29.594L3732.33,29.594ZM3766.7,30.369L3768.68,30.674C3772.41,47.919 3780.6,58.634 3773.6,65.032L3771.85,65.032C3773.76,63.063 3774.63,59.98 3773.99,56.336C3773.35,52.616 3771.43,46.712 3769.85,41.52C3768.01,35.501 3766.53,30.411 3766.7,30.369ZM3769.54,30.853L3771.22,31.168C3773.19,38.178 3776.54,46.867 3778.55,54.104C3779.79,58.555 3779.29,64.037 3776.53,65.047L3775.11,65.071C3777.45,61.921 3777.78,58.639 3776.71,54.395C3774.51,45.684 3771.19,38.081 3769.54,30.853L3769.54,30.853ZM3779.91,30.863C3781.61,38.13 3785.69,49.216 3787.15,53.044C3789.1,56.953 3788.52,62.741 3785.59,65.032L3784.2,65.061C3785.88,63.486 3786.45,60.834 3786.18,58.084C3785.43,50.314 3779.96,39.537 3777.98,31.26L3779.91,30.863ZM3772.54,31.207L3774.28,31.367C3776.01,38.968 3779.39,46.356 3781.58,53.959C3781.99,55.675 3782.35,57.771 3782.2,59.314C3781.9,62.549 3780.57,65.1 3779.4,65.1L3778.21,65.1C3780.64,62.178 3780.53,58.193 3779.48,53.91C3777.76,46.832 3773.58,38.298 3772.54,31.207L3772.54,31.207ZM3727.41,31.246C3726.69,31.249 3726.68,31.914 3727.83,32.93C3728.54,33.552 3728.49,33.345 3728.45,33.739C3728.27,35.423 3728.54,36.963 3729.23,35.23C3729.41,34.768 3729.68,34.246 3729.95,34.31C3730.46,34.468 3730.2,35.408 3730.44,35.884C3730.86,36.723 3730.42,36.928 3729.41,36.668C3728.68,36.482 3728.64,36.877 3728.19,37.38C3727.4,38.261 3727.53,38.787 3728.74,38.513C3728.94,38.468 3729.11,38.526 3729.27,38.562C3729.65,38.649 3729.99,38.891 3730.9,39.583C3732.06,40.473 3733.7,41.658 3734.76,41.84C3736.47,42.13 3736.09,41.308 3734.69,40.77C3733.49,40.308 3732.01,39.027 3732.01,38.673C3732.01,38.401 3732.39,38.562 3734.55,37.966C3735.49,37.707 3736.8,37.129 3737.36,36.872C3738.27,36.448 3738.32,36.451 3739.75,36.494C3742.19,36.567 3742.57,36.484 3740.85,35.206C3737.39,32.625 3732.78,30.944 3730.33,32.015C3729.59,32.34 3729.6,32.141 3729.07,31.831C3728.37,31.427 3727.79,31.244 3727.42,31.246L3727.41,31.246ZM3776.94,31.478C3779.34,40.768 3783.98,49.093 3785.11,57.905C3785.36,60.426 3784.94,62.888 3782.86,65.018L3781.45,65.042C3781.24,65.045 3783.41,61.673 3783.23,58.786C3783.28,57.246 3783.12,55.595 3782.68,53.964C3779.95,46.129 3777.27,39.028 3775.19,31.56L3776.94,31.478ZM3733.78,34.549C3734.33,34.65 3734.34,34.914 3734.16,35.235C3733.87,35.742 3733.38,36.717 3733.38,36.717C3733.38,36.717 3732.71,36.848 3732.58,36.678C3732.35,36.349 3733.12,34.774 3733.56,34.553C3733.63,34.511 3733.71,34.536 3733.78,34.549L3733.78,34.549ZM3735.29,34.829C3735.37,34.827 3735.45,34.865 3735.6,34.921C3736.22,35.17 3737.31,35.682 3736.84,36.078C3736.28,36.547 3734.12,36.757 3734.23,36.562L3734.95,35.221C3735.1,34.936 3735.17,34.83 3735.29,34.829L3735.29,34.829ZM3728.67,42.948C3728.62,42.952 3728.57,42.965 3728.53,42.987C3728.41,43.063 3728.69,43.568 3729.11,44.14C3731.02,46.734 3728.37,47.504 3726.5,46.115C3724.72,44.723 3721.97,44.854 3722.37,46.314C3722.5,46.828 3722.37,47.078 3723.36,47.093C3724.24,47.106 3724.47,47.156 3725.27,47.703C3728.31,49.797 3732.24,46.994 3730.32,43.989C3729.96,43.422 3729.06,42.926 3728.67,42.948L3728.67,42.948ZM3736.18,47.001C3735.08,47.001 3734.38,47.83 3735.76,48.078C3740.71,48.971 3737.39,54.126 3733.91,51.47C3730.76,48.618 3726.56,48.638 3726.51,50.662C3726.5,51.171 3726.53,51.188 3727.27,51.33C3729.02,51.662 3731.64,52.463 3732.64,52.971C3733.23,53.27 3733.85,53.549 3734.02,53.591C3736.11,54.356 3738.8,53.362 3739.33,51.588C3739.81,49.965 3739.42,47.001 3736.18,47.001L3736.18,47.001ZM3674.16,63.589C3674.83,63.597 3675.53,64.18 3676.03,65.032C3677.19,67.002 3678.6,70.315 3679.5,72.14C3679.73,72.601 3679.74,73.011 3679.72,73.23C3679.8,74.3 3680.15,74.704 3680.78,74.222C3681.41,73.748 3682.27,72.955 3681.26,72.828C3680.24,72.058 3679.67,70.926 3680.3,70.237C3680.77,69.73 3680.59,69.401 3680.21,69.38C3678.79,69.359 3676.66,65.098 3677.66,64.18C3679.01,62.942 3680.51,64.476 3683.69,70.818C3685.09,73.62 3685.15,76.685 3683.95,75.166C3683.55,74.784 3683.63,74.982 3683.15,76.188C3682.79,77.095 3682.49,77.525 3681.12,78.851C3679.45,80.466 3678.44,81.743 3678.4,82.023C3678.33,82.558 3679.3,82.058 3680.01,81.127C3681.6,79.568 3681.66,79.152 3681.65,81.219C3681.63,83.088 3681.54,83.43 3681.87,83.417C3682.39,83.397 3682.67,81.919 3682.92,80.134C3683.21,78.527 3684.04,77.716 3685.42,76.822C3685.8,76.577 3685.81,76.408 3685.73,75.699C3685.48,73.429 3686.76,69.195 3687.35,70.242C3687.43,70.478 3687.68,71.028 3687.82,71.414C3687.93,72.012 3688.3,72.686 3688.87,72.731C3689.58,73.265 3689.58,73.554 3689.83,75.51C3689.91,76.149 3690.19,77.107 3690.39,77.617C3690.75,78.565 3691.08,79.12 3690.88,79.403C3690.75,79.543 3690.47,79.805 3690.47,79.805L3678.9,86.705C3678.9,86.705 3677.99,87.21 3677.66,87.349C3676.74,87.765 3676.18,87.457 3675.73,86.768C3673.28,83.094 3671.6,78.968 3669.88,75.162C3668.84,72.902 3669.85,71.408 3671.19,73.23C3671.71,73.938 3671.44,74.389 3671.19,75.757C3671.14,76.005 3671.37,75.91 3671.8,75.98C3672.48,75.907 3672.8,76.514 3672.78,77.544C3672.35,79.02 3672.94,78.223 3673.22,78.149C3673.76,78.157 3673.88,78.48 3674.17,79.093C3674.36,79.957 3674.74,79.707 3675.29,79.137C3675.75,78.666 3675.75,78.677 3674.83,77.573C3673.24,75.842 3671.04,71.934 3670.47,69.555C3670.31,68.898 3670.37,68.374 3670.49,68.025C3671.2,66.399 3672.2,66.394 3673.29,68.664C3673.48,69.05 3673.84,69.673 3674.1,70.049C3674.52,70.658 3674.78,71.181 3674.77,72.15C3674.44,72.962 3674.39,72.978 3674.67,73.089C3675.36,73.364 3676.59,74.619 3676.64,75.743C3676.7,76.884 3676.89,77.49 3677.78,76.813C3678.8,76.041 3678.37,75.73 3677.37,74.74C3676.32,73.482 3676.25,72.39 3676.88,71.482C3676.98,71.177 3676.93,71.091 3676.55,71.128C3675.33,71.247 3674.14,69.692 3674.99,68.509C3675.38,67.816 3675.33,67.637 3674.78,67.618C3674.49,67.608 3674.02,67.663 3673.78,67.531C3673.42,66.85 3672.67,65.898 3672.68,65.12C3673.03,64.024 3673.59,63.582 3674.17,63.589L3674.16,63.589ZM3746.71,63.648C3748.72,64.885 3750.7,66.173 3752.96,66.761C3747.73,76.225 3739.33,81.296 3732.3,83.277C3732.54,84.488 3732.71,85.695 3733.87,86.438C3733.83,86.255 3733.32,84.106 3733.43,83.664C3743.12,81.177 3751.64,71.633 3753.82,66.713L3796.4,66.248C3764.84,96.693 3763.58,139.542 3789.33,175.457L3786.37,177.195C3766.53,147.307 3766.73,118.51 3772.68,99.226C3776.9,85.553 3784.47,75.108 3790.22,69.138C3790.22,69.138 3767.14,68.819 3755.65,69.245C3753.99,71.813 3752.43,73.91 3750.19,76.333C3750.19,76.333 3756.03,70.665 3755.88,69.681C3766.52,69.675 3777.5,69.056 3788.13,69.802C3775.69,84.776 3769.56,100.235 3768.49,114.778C3768.45,116.67 3768.34,115.613 3767.72,116.308L3765.76,119.373L3764.18,116.187C3763.11,115.84 3761.01,116.4 3760.11,116.076C3755.74,135.715 3760.16,159.418 3765.92,174.886C3765.92,174.886 3764.47,175.7 3762.69,175.564C3760.74,175.129 3760.27,175.669 3758.58,176.014C3756.64,176.385 3755.96,176.383 3755.53,176.876C3755.29,177.15 3754.86,177.533 3754.37,177.801C3749.65,179.528 3744.1,186.003 3744.1,185.911L3738.89,183.562C3743.69,174.092 3749.32,170.683 3759.21,166.48L3758.29,162.248C3747.75,166.196 3741.05,170.922 3735.76,180.105C3729.34,180.014 3703.35,179.83 3703.32,179.912C3713.93,167.787 3722.28,149.499 3723.2,135.24C3723.42,132.463 3723.03,133.798 3724.26,132.969L3726.18,130.669L3727.68,132.935C3727.68,132.935 3728.78,134.332 3729.47,133.168C3731.4,113.284 3729.36,90.612 3719.83,74.808C3721.52,74.696 3723.2,74.649 3724.82,75.612C3728.55,84.098 3730.74,94.582 3731.7,102.441C3732.9,112.388 3732.73,123.607 3731.5,133.134L3732.14,133.221C3734,120.84 3733.37,107.671 3731.66,96.161C3730.79,90.157 3727.97,80.766 3726.03,76.43C3725.5,75.232 3725.08,74.923 3725.59,74.745C3737.2,73.763 3742.54,69.867 3746.71,63.648L3746.71,63.648ZM3714.52,64.693C3715.41,64.693 3716.12,65.417 3716.12,66.311C3716.12,67.204 3715.41,67.928 3714.52,67.928C3713.63,67.928 3712.91,67.204 3712.91,66.311C3712.91,65.417 3713.63,64.693 3714.52,64.693ZM3801.78,65.517C3798.38,68.611 3795.65,71.817 3792.78,75.234C3801.27,86.976 3810.71,99.704 3818.64,109.873C3818.64,109.873 3821.39,108.237 3821.38,108.033C3821.37,107.926 3821.16,107.385 3821.11,107.506C3820.99,107.788 3818.88,108.973 3818.88,108.973L3793.77,75.835C3793.77,75.835 3795.13,74.196 3795.55,73.68C3797.51,73.035 3802.93,66.273 3803.2,66.412C3807.45,69.689 3820.28,83.58 3825.22,87.838L3825.28,126.394C3824.77,127.937 3811.1,133.881 3801.44,156.06C3796.58,158.797 3791.2,160.27 3786.19,162.65C3786.19,162.65 3787.47,164.665 3788.09,165.216C3787.33,163.555 3787.19,163.238 3788.92,162.529L3825.07,147.713L3825,150.705C3821.38,153.525 3797.41,170.961 3790.04,175.08C3755.45,126.592 3777.5,85.128 3797.65,65.739L3801.78,65.517ZM3689.16,68.136C3690.1,68.152 3689.86,70.353 3689.51,71.114C3688.82,71.664 3688.12,71.175 3688.14,70.145C3688.14,69.81 3688.08,69.492 3687.99,69.439C3687.47,69.103 3688.34,68.124 3689.16,68.136ZM3710.28,69.511C3711.07,70.118 3711.37,70.925 3711.66,71.734C3710.59,71.564 3707.72,70.737 3709.07,70.092L3710.28,69.511ZM3705.06,72.373C3730,110.309 3728.88,150.6 3701.05,181.141L3736.26,181.088C3740.75,172.192 3748.22,166.77 3757.77,163.43L3758.61,166.223C3747.62,169.769 3742.07,175.646 3737.65,183.79L3695.64,183.79C3711.78,166.328 3719.17,151.577 3720.34,131.623C3721.45,112.62 3716.64,95.264 3702.04,74.382L3705.06,72.373ZM3712.09,72.808L3717.97,75.602L3717.1,81.674L3710.93,78.817L3712.09,72.808ZM3701.48,74.513C3732.94,122.369 3719.44,156.031 3694.33,184.047L3689.7,184.124L3678.92,174.048L3679.11,235.274C3679.11,235.274 3668.6,245.633 3667.39,246.875C3666.2,248.031 3665.3,246.256 3665.3,246.256L3665.33,165.091L3665.8,161.909L3665.94,144.42L3672.64,140.866L3697.78,173.995C3697.78,173.995 3696.77,175.491 3696.3,175.757C3696.83,176.963 3698.62,173.957 3698.77,173.472C3689.65,162.113 3672.7,139.874 3672.7,139.874L3665.64,143.578C3665.64,143.578 3665.85,129.058 3665.72,123.484C3665.99,122.169 3666.97,122.521 3667.63,121.935C3676.81,115.937 3684.38,107.324 3690.81,92.626C3695.7,91.025 3700.84,88.752 3705.75,86.71L3698.68,76.033L3701.48,74.513ZM3682.2,75.123C3681.93,75.119 3681.26,75.428 3680.35,76.261C3678.66,77.799 3676.44,80.326 3676.43,80.807C3676.88,80.971 3677.28,80.71 3677.64,80.342C3679.06,78.249 3681.24,77.431 3682.51,75.597C3682.71,75.258 3682.5,75.119 3682.2,75.123L3682.2,75.123ZM3698.05,77.345C3698.05,77.345 3702.93,84.496 3704.17,86.395C3691.31,91.516 3677.86,98.279 3665.94,102.654L3665.94,99.788C3665.94,99.788 3688.32,82.909 3698.05,77.345L3698.05,77.345ZM3717.18,82.071L3721.99,84.569L3720.63,90.026L3715.78,87.295L3717.18,82.071ZM3721.15,91.15L3725.1,94.045L3723.29,98.674L3719.31,95.919L3721.15,91.15ZM3688.89,94.544C3688.89,94.544 3688.28,96.69 3687.26,98.611C3682.37,107.158 3677.58,114.753 3667.69,121.349C3667.32,121.012 3666.24,119.117 3666.24,119.117L3666.14,116.584C3671.39,112.349 3675.91,109.24 3682.86,96.81L3684.87,95.987L3686.58,96.732L3687.74,94.65L3688.89,94.544ZM3709.47,94.563C3704.91,104.286 3700.42,114.314 3693.16,121.891L3713.03,149.785C3719.57,130.09 3717.14,111.632 3709.47,94.563ZM3684.46,96.684L3683.51,98.345L3685.16,99.303L3686.11,97.643L3684.46,96.684ZM3681.77,96.863C3678.17,104.957 3672.76,111.185 3665.67,115.664L3665.4,103.787L3681.77,96.863ZM3683.03,99.279L3682.08,100.94L3683.73,101.899L3684.68,100.238L3683.03,99.279ZM3723.64,99.628L3727.23,103.046L3725.1,106.818L3721.43,103.763L3723.64,99.628ZM3778.52,101.308C3778.52,101.31 3778.51,101.314 3778.51,101.318C3772.22,120.996 3774.11,139.792 3782.75,156.153C3786.98,145.547 3790.46,138.45 3798.74,127.159C3793.64,120.451 3779.04,101.096 3778.52,101.308L3778.52,101.308ZM3681.63,101.623L3680.63,103.254L3682.25,104.262L3683.25,102.63L3681.63,101.623ZM3709.1,103.918C3714.77,117.561 3714.27,129.862 3711.25,140.523L3697.08,122.516C3702.27,116.033 3705.72,109.895 3709.1,103.918L3709.1,103.918ZM3680.16,103.966L3679.09,105.549L3680.66,106.634L3681.74,105.046L3680.16,103.966ZM3678.58,106.232L3677.4,107.748L3678.91,108.929L3680.08,107.414L3678.58,106.232ZM3725.28,107.845L3728.49,110.909L3726.46,114.885L3723.2,111.888L3725.28,107.845ZM3676.73,108.59L3675.49,110.048L3676.94,111.287L3678.18,109.83L3676.73,108.59ZM3780.26,109.021L3794.56,127.575C3789.78,133.3 3785.8,140.045 3782.25,147.316C3778.27,134.761 3776.47,122.425 3780.26,109.021ZM3674.72,110.9L3673.4,112.285L3674.78,113.611L3676.1,112.226L3674.72,110.9ZM3708.12,112.754L3701.58,122.269L3709.08,131.899C3709.89,126.686 3710.07,120.634 3708.12,112.754ZM3672.59,113.064L3671.18,114.362L3672.47,115.776L3673.88,114.478L3672.59,113.064ZM3670.52,114.919L3669.04,116.129L3670.24,117.62L3671.72,116.41L3670.52,114.919ZM3726.4,115.901L3729.09,119.058L3726.37,122.307L3723.81,119.422L3726.4,115.901ZM3760.56,116.468L3762.39,116.536C3759.39,146.222 3765.27,161.242 3770.48,174.305C3770.48,174.305 3770.47,174.828 3770.29,174.983C3769.44,175.276 3767.73,175.593 3766.35,174.377C3759.35,156.28 3757.82,133.987 3760.56,116.468L3760.56,116.468ZM3668.12,116.85L3666.57,117.974L3667.69,119.528L3669.23,118.405L3668.12,116.85ZM3782.49,117.906C3782.02,117.906 3781.62,130.12 3783.37,136.083L3789.95,127.115L3782.49,117.906ZM3765.47,119.92L3767.67,122.893L3765.34,126.094L3762.95,123.063L3765.47,119.92ZM3666.33,120.729C3666.44,120.711 3666.62,121.021 3666.98,121.266C3667.31,121.612 3667.26,121.586 3666.89,121.881C3666.31,122.343 3666.14,122.268 3666.15,121.547C3666.2,120.954 3666.24,120.742 3666.33,120.729L3666.33,120.729ZM3726.53,122.961L3728.97,126.462L3726.27,129.943L3723.97,126.278L3726.53,122.961ZM3765.28,127.396L3767.84,130.534L3765.64,133.976L3762.84,130.689L3765.28,127.396ZM3824.59,128.06L3824.81,131.676L3823.93,130.355L3822.3,131.609L3823.44,133.124L3824.86,132.011L3824.94,133.468C3815.92,140.024 3812.03,147.555 3808.37,153.204L3806.74,153.896L3804.89,153.305L3803.99,154.918L3802.41,155.29C3802.36,155.28 3805.57,148.368 3811.06,141.331C3815.95,135.066 3824.56,128.002 3824.59,128.06L3824.59,128.06ZM3825.63,133.72L3825.71,146.58L3809.57,152.851C3813.75,145.672 3818.7,139.009 3825.63,133.72L3825.63,133.72ZM3821.62,132.156L3820.15,133.371L3821.42,134.838L3822.89,133.623L3821.62,132.156ZM3819.35,134.093L3817.93,135.366L3819.26,136.785L3820.68,135.502L3819.35,134.093ZM3765.44,134.804L3768.49,138.063L3766.26,141.912L3763.09,138.857L3765.44,134.804ZM3817.06,136.175L3815.73,137.545L3817.19,138.954L3818.52,137.584L3817.06,136.175ZM3814.96,138.339L3813.68,139.762L3815.23,141.113L3816.51,139.69L3814.96,138.339ZM3812.85,140.765L3811.66,142.266L3813.28,143.52L3814.47,142.014L3812.85,140.765ZM3766.49,143.069L3770.29,145.553L3768.43,150.105L3764.63,147.195L3766.49,143.069ZM3811.01,143.089L3809.9,144.648L3811.62,145.829L3812.75,144.217L3811.01,143.089ZM3809.3,145.549L3808.26,147.161L3810,148.284L3811.03,146.619L3809.3,145.549ZM3807.76,147.984L3806.81,149.645L3808.61,150.676L3809.56,148.996L3807.76,147.984ZM3806.37,150.502L3805.42,152.163L3807.41,153.029L3808.2,151.446L3806.37,150.502ZM3768.55,151.528L3772.44,154.182L3770.72,158.951L3766.61,156.026L3768.55,151.528ZM3824.9,156.22L3824.9,254.518L3782.34,254.518C3782.34,254.518 3780.33,250.958 3776.14,242.76C3774.36,239.289 3772.86,237.814 3772.7,235.066C3772.86,233.452 3772.12,231.62 3770.81,230.882C3770.36,230.635 3769.62,230.934 3769.87,230.243C3770.14,229.483 3769.31,228.313 3769.08,228.064C3768.82,227.625 3768.98,227.517 3768.96,225.881C3768.93,224.299 3768.85,223.637 3768.51,222.443C3767.66,219.425 3767.47,217.917 3767.96,216.352C3769.22,212.382 3770.54,209.338 3772.25,205.637C3773.24,203.471 3773.09,202.624 3770.05,201.051C3767.76,199.874 3767.46,199.886 3767.75,198.166C3767.88,197.36 3768.01,196.851 3767.84,196.461C3767.74,196.224 3767.36,195.892 3767.14,195.701C3766.84,195.445 3766.93,194.917 3767.23,194.524C3767.53,194.139 3767.53,193.589 3767.23,192.67C3766.61,190.738 3768.02,188.178 3770.68,186.409C3771.86,185.628 3771.83,185.79 3773.06,187.087C3776.65,190.88 3781.98,188.497 3781.99,183.151C3781.99,181.484 3781.43,181.584 3783,180.798C3788.31,177.398 3799.22,171.216 3799.14,171.385C3799.86,172.84 3800.09,174.083 3800.54,175.651C3800.93,176.995 3800.88,177.097 3800.73,179.713C3800.6,182.077 3800.53,182.627 3801.09,182.778C3804.23,183.126 3804.95,182.007 3805.55,179.965C3805.81,179.062 3806.32,179.246 3806.63,179.626C3807.83,181.817 3809.34,184.096 3810.33,185.654C3811.58,187.643 3813.67,188.632 3814.77,187.693C3815,186.92 3815.19,186.896 3816.58,187.213C3818.26,187.598 3819.22,186.649 3819.39,185.402C3819.45,184.905 3819.09,184.925 3819.99,184.434C3822.23,182.768 3821.38,180.493 3821.04,179.122C3821.07,179.195 3822,178.555 3822.02,177.273C3822.13,170.613 3816.39,161.022 3816.52,161.27L3824.9,156.22ZM3770.88,160.055L3775.44,162.268L3774.36,167.739L3769.68,165.623L3770.88,160.055ZM3815.2,162.089C3817.83,165.147 3819.72,170.247 3820.7,173.569C3821.18,175.223 3821.24,177.112 3820.81,177.374C3820.39,177.634 3820.19,177.356 3820.27,176.367C3820.34,175.544 3820.36,174.906 3820.01,174.915C3818.99,175.179 3818.95,173.628 3819.06,173.264C3819.12,173.02 3819.25,172.849 3819.31,172.716C3819.56,172.116 3818.9,172.197 3818.22,172.189C3817.62,172.203 3817.47,171.836 3817.49,171.264C3817.48,170.629 3816.64,170.753 3816.17,171.235C3815.73,171.675 3815.82,172.194 3816.41,172.557C3817.26,173.078 3818.06,174.358 3820.03,178.774C3821.17,181.337 3820.83,183.156 3819.47,183.136C3818.52,183.108 3817.42,180.504 3816.53,178.585C3816.3,178.089 3816.88,177.535 3817.08,177.268C3817.6,176.578 3817.52,176.359 3816.75,176.348C3816.02,176.337 3815.71,176.402 3815.28,175.501C3815.11,175.161 3814.99,174.644 3815.05,174.314C3815.42,173.32 3814.65,173.08 3813.91,173.462C3812.97,173.856 3812.97,174.7 3814.41,176.082C3815.33,177.606 3815.09,177.5 3814.22,178.527C3814.03,178.889 3814.14,179.112 3814.53,179.117C3815.64,178.777 3816.85,180.787 3816.52,181.475C3816.18,181.771 3815.25,182.844 3816.15,182.638C3817.97,182.138 3819.09,184.829 3818.01,185.741C3816.4,186.551 3816.02,186.298 3813.55,181.33C3812.78,179.788 3811.86,178.13 3811.75,177.96C3811.63,177.79 3811.58,177.335 3811.59,176.968C3811.7,176.069 3811.31,175.865 3810.54,176.222C3809.95,176.362 3809.43,176.844 3810.17,177.302C3811.03,178.797 3811.33,179.038 3810.86,179.418C3809.78,180.281 3810.25,180.246 3811.46,180.488C3812.05,180.666 3812.35,180.973 3812.51,181.34C3813.14,182.749 3814.24,184.736 3814.35,185.141C3814.72,186.174 3814.06,186.638 3813.15,186.593C3812.21,186.616 3811.77,185.865 3811.31,185.223C3809.59,182.82 3808.35,180.438 3806.6,177.708L3806.84,175.157C3806.84,175.157 3807.3,175.257 3807.55,175.133C3808.06,174.888 3808.36,174.091 3808.64,173.031C3809.11,172.11 3811.83,170.013 3812.87,168.887C3813.07,168.759 3813.23,168.549 3813.23,168.422C3813.22,168.009 3812.05,168.285 3811.27,169.177C3810.14,170.191 3809.65,169.843 3809.69,168.548C3809.58,166.947 3808.61,167.75 3808.56,169.313C3808.43,170.547 3808.01,171.299 3807.15,171.99C3805.53,173.294 3805.8,172.964 3805.87,174.774C3806,177.932 3804.79,180.528 3804,178.808C3803.72,178.196 3803.39,177.502 3802.68,177.471C3802.18,177.449 3801.93,176.955 3801.65,175.733C3801.24,173.756 3800.67,172.484 3800.15,170.663L3815.2,162.089ZM3774.83,168.891L3780.08,170.993L3779.1,176.513L3773.9,174.513L3774.83,168.891ZM3814.85,169.4C3814.81,169.402 3814.77,169.41 3814.73,169.429C3813.25,170.552 3811.88,171.813 3810.27,172.779C3809.67,173.138 3808.96,174.066 3808.96,174.314C3808.96,174.556 3809.68,174.55 3810.38,174.242C3811.05,173.949 3814.85,170.355 3814.86,170.024C3815.12,169.734 3815.09,169.384 3814.85,169.4L3814.85,169.4ZM3766.66,176.101C3767.9,176.098 3767.17,176.468 3764.47,178.357C3761.82,180.201 3757.47,186.032 3756.96,188.196C3756.73,189.179 3757.35,189.255 3758.05,187.906C3761.26,181.702 3767.33,176.033 3772.89,176.285C3775.61,176.408 3777.08,177.147 3774.83,177.471C3768.65,178.234 3764.03,181.777 3759.99,188.84C3759.99,188.998 3760.35,188.991 3760.78,188.719C3764.48,184.17 3768.64,178.146 3775.97,178.633C3781.25,178.953 3782.75,185.27 3778.37,187.426C3774.54,189.306 3771.02,184.728 3774.19,182.013C3775.22,181.131 3775.86,181.518 3774.87,182.42C3772.75,184.354 3775.35,187.8 3777.93,186.492C3779.5,185.829 3780.14,183.566 3778.76,181.858C3775.67,178.058 3769.03,180.947 3764.41,187.087C3763.92,187.733 3763.5,189.136 3763.91,188.985C3764.63,188.688 3765.06,188.122 3765.49,187.484C3767.14,185.181 3768.41,184.026 3770.64,182.788C3772.37,181.831 3772.48,182.011 3771.83,183.669C3771.56,184.368 3771.34,184.6 3770.67,185.034C3767.85,186.969 3766.1,189.561 3766.03,191.213C3765.98,192.418 3766.86,193.993 3765.91,194.316C3764.3,195.083 3759.89,194.458 3758.71,192.931C3757.85,191.834 3757.52,192.47 3758.16,194.253C3758.59,195.431 3758.57,196.097 3759.21,195.977C3760.02,195.547 3760.57,195.647 3762.14,196.51C3762.89,196.925 3764.24,197.313 3765.05,197.502C3766.54,197.848 3766.85,197.702 3766.82,198.35C3766.81,198.548 3766.88,199.107 3766.83,199.458C3766.59,201.41 3768.21,202.074 3770.42,203.356C3771.71,204.106 3771.2,204.877 3769.71,208.59C3768.93,210.27 3768.27,212.53 3767.31,214.236C3766.41,216.152 3766.34,218.25 3766.91,220.642C3767.99,225.08 3768.76,227.335 3766.85,227.735C3761.93,228.483 3751.08,228.452 3745.15,226.162C3743.64,214.723 3735.61,197.751 3736.64,193.362C3738.69,196.479 3747.31,195.654 3744.72,186.942C3744.72,186.942 3745.42,185.879 3746.82,184.448C3750.44,180.758 3751.33,180.148 3749.62,183.398C3748.3,185.896 3746.61,189.157 3746.57,189.789C3746.54,190.293 3746.93,190.409 3747.24,190.007C3747.46,189.709 3747.73,188.984 3747.97,188.433C3750.12,183.357 3753.81,178.781 3756.35,177.679C3757,177.396 3756.97,177.698 3756.52,178.256C3753.53,181.995 3751.24,185.454 3749.62,189.968C3749.55,190.434 3750.21,190.628 3750.41,190.186C3753.22,184.277 3754.06,182.936 3757.5,178.774C3758.86,177.137 3760.12,176.312 3761.12,176.401C3761.99,176.479 3761.74,176.622 3760.93,177.486C3760.32,178.145 3759.41,179.063 3757.94,180.924C3755.34,184.205 3752.73,189.545 3753.69,189.266C3753.86,189.711 3754.68,188.292 3755.37,186.937C3757.26,183.737 3759.28,179.508 3763.78,176.727C3764.72,176.336 3765.75,176.111 3766.66,176.101L3766.66,176.101ZM3679.6,177.132L3687.61,185.189L3703.74,184.981C3701.08,189.136 3702.5,195.578 3703.96,199.342C3706.84,206.722 3711.05,218.905 3710.74,219.083C3710.74,219.083 3708.39,219.689 3708.18,221.184C3707.87,223.4 3708.82,223.236 3707.44,225.237C3707.13,225.687 3707.33,226.537 3707.66,227.212C3707.88,227.707 3708.09,228.453 3707.68,229.033L3693.46,254.518L3666.21,254.518L3666.21,249.577L3679.99,235.816L3679.82,225.692C3687.19,227.895 3689.72,235.544 3690.36,241.21C3703.67,228.99 3703.34,210.593 3690.76,199.052C3688.31,211.25 3679.52,213.785 3679.72,213.544L3679.6,177.132ZM3779.87,178.58C3780.74,178.643 3781.9,178.782 3782.69,179.21C3782.15,179.531 3781.77,179.915 3781.42,180.309C3780.99,179.538 3780.4,179.117 3779.87,178.58ZM3802.22,178.667C3802.94,178.665 3803.82,180.778 3803.32,181.272C3803.03,181.551 3802.11,181.656 3801.77,181.446C3801.35,181.131 3801.57,178.67 3802.22,178.667L3802.22,178.667ZM3776.79,182.333C3777.72,182.333 3778.47,183.087 3778.47,184.018C3778.47,184.948 3777.72,185.703 3776.79,185.703C3775.87,185.703 3775.12,184.948 3775.12,184.018C3775.12,183.087 3775.87,182.333 3776.79,182.333ZM3705.87,184.734L3707.08,184.763C3704.89,187.717 3704.59,190.259 3705.37,193.944C3706.24,198.09 3712.93,213.673 3713.36,217.964C3713.38,218.158 3713.39,218.705 3713.39,218.705L3711.75,218.816C3711.75,218.816 3711.63,218.373 3711.58,218.202C3709.28,210.432 3707,204.506 3705.4,199.977C3703.81,195.092 3701.37,187.85 3705.88,184.734L3705.87,184.734ZM3714.7,184.763C3714.72,184.761 3714.72,184.765 3714.73,184.768L3715.89,184.778C3715.85,184.804 3714.16,188.447 3714.04,190.656C3713.9,193.161 3714.51,195.89 3715.33,198.583C3717.28,204.408 3720.13,210.897 3721.72,218.25C3721.74,218.336 3721.91,219.049 3721.91,219.049L3720.19,218.817C3720.19,218.817 3720.03,218.064 3720.01,217.96C3718.82,211.492 3715.51,204.775 3713.53,198.408C3712.52,195.514 3711.82,191.957 3712.18,189.238C3712.44,187.319 3714.35,184.801 3714.7,184.764L3714.7,184.763ZM3728.74,184.778C3727.51,186.692 3726.39,189.09 3726.31,190.971C3726.24,194.469 3727.26,197.423 3728.27,200.514C3731.38,210.031 3732.9,215.052 3734.45,222.685L3732.8,221.973C3732.8,221.973 3732.73,221.545 3732.7,221.421C3731.81,216.642 3731.76,217.059 3726.56,200.984C3725.34,197.125 3724.18,193.742 3724.41,190.53C3724.46,188.7 3726.05,185.077 3727.72,184.788L3728.74,184.778ZM3730.73,184.778L3732.27,184.778C3732.27,184.778 3731.42,185.684 3731.18,186.022C3728.48,189.788 3729.26,193.828 3730.6,198.645C3732.44,205.273 3735.85,212.685 3737.64,222.787C3737.67,222.974 3737.64,223.949 3737.64,223.949L3735.8,223.203C3734.13,213.941 3730,204.337 3728.02,196.006C3726.85,191.115 3727.18,188.023 3729.88,185.359C3730.56,184.833 3730.73,184.778 3730.73,184.778L3730.73,184.778ZM3711.87,184.831L3713.02,184.831C3713.02,184.831 3711.09,188.022 3711.09,189.901C3710.77,193.263 3711.98,196.979 3713.37,200.872C3715.51,206.856 3718.33,214.092 3719.2,217.901C3719.23,218.051 3719.35,218.734 3719.35,218.734L3717.33,218.628C3717.33,218.628 3717.22,217.706 3717.1,217.282C3714.77,209.091 3712.51,203.794 3709.83,196.316C3709.43,195.184 3708.78,190.709 3709.54,187.809C3710.14,185.532 3711.87,184.831 3711.87,184.831L3711.87,184.831ZM3708.77,184.836L3710.02,184.87C3710.02,184.87 3709.83,185.211 3709.36,186.032C3707.08,190.175 3708.1,193.957 3709.51,198.171C3711.39,203.793 3714.34,210.659 3716.19,217.156C3716.29,217.522 3716.43,218.628 3716.43,218.628L3714.63,218.604C3714.63,218.604 3714.27,217.28 3714.24,217.136C3713.23,211.114 3707.76,201.075 3706.33,193.435C3705.55,189.337 3706.22,186.799 3708.77,184.836L3708.77,184.836ZM3725.47,184.836C3725.47,184.836 3723.51,188.266 3723.33,190.177C3722.97,193.923 3724.16,197.025 3725.51,201.25C3727.84,208.54 3731.13,217.095 3731.43,221.005C3731.44,221.134 3731.48,221.61 3731.48,221.61L3729.46,220.884C3729.46,220.884 3729.37,220.476 3729.33,220.332C3727.56,213.257 3725.47,206.21 3722.66,198.268C3721.97,195.588 3721.06,192.892 3721.14,190.588C3721.55,187.512 3722.07,186.683 3723.9,184.86L3725.47,184.836ZM3734.39,184.841L3736.02,184.875C3736.02,184.875 3735.54,185.138 3734.37,186.386C3727.93,192.303 3738.38,209.009 3740.79,224.22C3740.82,224.383 3740.89,224.956 3740.89,224.956L3739.1,224.308C3738.93,223.55 3738.8,222.628 3738.59,221.799C3736.64,214.024 3734.03,206.028 3731.64,198.776C3730.3,193.492 3729.81,188.838 3732.22,186.236C3732.97,185.337 3734.39,184.841 3734.39,184.841L3734.39,184.841ZM3717.6,184.851L3719.34,184.899C3718.09,186.483 3717.35,188.951 3717.28,191.146C3717.21,193.742 3717.9,196.266 3718.75,198.936C3720.5,204.413 3722.99,210.366 3724.7,217.757C3724.79,218.246 3724.87,218.56 3724.92,218.773C3724.99,219.112 3725.18,219.65 3725.18,219.65L3723.35,219.282C3723.35,219.282 3723.16,218.803 3723.03,218.551C3722.85,218.172 3722.68,217.69 3722.53,217.113C3721.64,213.257 3718.37,204.509 3716.38,198.374C3714.8,194.509 3714.37,187.752 3717.6,184.851L3717.6,184.851ZM3739.3,184.919C3741.53,184.837 3743.54,186.734 3744.01,188.516C3744.47,190.409 3743.88,192.545 3741.81,193.6C3738.45,195.311 3734.84,190.76 3737.49,188.255C3739.5,186.356 3742.47,187.761 3741.82,190.192C3741.4,191.774 3739.02,191.876 3738.62,190.279C3738.52,189.747 3738.25,189.217 3738.06,189.509C3736.83,192.426 3740.98,193.792 3742.7,191.078C3743.72,188.902 3741.78,186.1 3738.91,186.633C3734.99,187.363 3734.53,192.377 3736.16,198.224C3738.44,207.468 3743.87,219.899 3743.86,225.605C3743.86,225.681 3743.88,225.915 3743.88,225.915L3742.15,225.397C3742.15,225.397 3742.14,225.301 3742.13,225.218C3741.1,217.248 3735.21,204.053 3733.52,193.91C3732.79,189.285 3734.58,185.929 3738.61,185.011C3738.84,184.958 3739.07,184.927 3739.3,184.919L3739.3,184.919ZM3722.26,184.991C3721.05,186.616 3720.26,189.058 3720.22,190.802C3720.18,193.355 3721.1,195.842 3721.85,198.5C3723.75,205.066 3728.2,217.191 3728.04,219.461C3728.09,219.705 3728.21,220.458 3728.21,220.458L3726.49,219.945C3726.49,219.945 3726.42,219.836 3726.29,219.524C3725.72,217.27 3723,207.614 3719.94,199.265C3718.77,195.909 3718.2,193.294 3718.28,191.068C3718.53,187.997 3719.4,186.715 3720.74,185.006L3722.26,184.991ZM3754.99,195.876C3750.53,196.132 3750.96,201.594 3753.72,202.519C3754.71,202.793 3755.29,202.556 3755.45,202.34C3755.62,202.094 3755.43,201.718 3754.78,201.623C3752.91,201.005 3752.24,198.788 3753.93,197.858C3754.85,197.371 3756.33,197.684 3758.11,199.009C3761.28,201.376 3765.18,201.525 3764.67,199.13C3764.55,198.549 3764.3,198.471 3761.97,198.152C3760.08,197.893 3759.23,197.292 3758.4,196.844C3757.1,196.14 3755.96,195.847 3754.99,195.876L3754.99,195.876ZM3691.2,200.955C3702.71,212.26 3701.01,229.978 3691.18,238.848C3690.97,238.132 3690.54,236.377 3690.5,236.427C3697.89,228.689 3701.37,216.005 3690.67,203.003C3690.72,203.053 3690.91,202.065 3691.2,200.955L3691.2,200.955ZM3763.34,201.256C3763.23,201.258 3763.14,201.27 3763.05,201.299C3760.07,202.119 3759.45,205.082 3761.39,206.301C3762.57,207.048 3763.48,206.59 3762.01,205.686C3760.75,204.911 3761.37,202.874 3762.9,202.897C3763.57,202.907 3764.03,203.199 3765.73,204.461C3767.13,205.499 3768.45,205.582 3768.74,204.175C3768.92,203.336 3768.64,202.963 3767.75,203.183C3767.36,203.28 3767.13,203.048 3766.59,202.674C3765.4,201.844 3764.1,201.239 3763.34,201.256L3763.34,201.256ZM3690.01,203.473C3700.39,215.584 3697.06,228.214 3690.06,235.614C3688.14,229.913 3683.43,226.356 3683.43,226.356C3685.21,222.397 3686.26,218.262 3682.95,213.041C3686.03,210.235 3688.59,207.152 3690.01,203.473L3690.01,203.473ZM3757.43,207.894C3756.94,207.885 3757.1,208.357 3758.24,209.162C3760.98,211.033 3761.21,211.371 3758.56,211.327C3757.89,211.287 3756.84,211.766 3756.24,211.966C3752.78,213.126 3752.62,213.034 3750.96,212.644C3750.41,212.514 3749.85,212.282 3749.61,212.503C3749.23,212.846 3748.81,213.072 3749.28,213.583C3749.63,213.956 3750.26,214.24 3751.04,214.687C3755.06,217.001 3755.42,217.555 3760.15,217.679C3760.69,217.694 3760.97,217.412 3761.28,217.408C3762.05,217.399 3762.46,217.589 3763.24,218.304C3764.66,219.614 3764.73,218.662 3763.88,216.943C3763.44,216.042 3763.05,215.828 3763.27,215.142C3763.76,213.58 3763.06,213.269 3762.12,214.653C3761.43,215.737 3761.35,215.712 3760.69,214.319C3759.82,212.58 3760.23,211.777 3761.55,212.91C3762.56,213.769 3762.81,213.13 3763.2,212.45C3763.72,211.556 3763.64,210.753 3762.72,210.823C3762.19,210.863 3761.7,210.619 3761.29,210.165C3760.47,209.274 3758.92,208.156 3757.43,207.894L3757.43,207.894ZM3758.56,212.6C3758.67,212.606 3758.75,212.651 3758.78,212.765C3758.79,213.338 3758.4,214.508 3758.08,215.123C3757.98,215.397 3757.8,215.431 3757.56,215.481C3756.73,215.635 3756.67,215.377 3756.82,214.861C3757.12,214.065 3757.37,212.932 3758.44,212.605C3758.49,212.6 3758.53,212.598 3758.56,212.6L3758.56,212.6ZM3756.46,212.997C3756.79,212.972 3756.8,213.113 3756.67,213.418C3756.43,213.935 3756.01,214.423 3755.7,214.828C3755.03,215.259 3753.95,213.94 3754.43,213.598C3755.1,213.333 3755.6,213.06 3756.29,213.017C3756.36,213.006 3756.41,213.001 3756.46,212.997L3756.46,212.997ZM3682.13,213.859C3682.31,213.859 3682.49,213.895 3682.68,213.975C3685.19,217.384 3685.02,222.571 3683.07,225.441C3682.93,225.655 3682.78,225.694 3682.53,225.61C3681.69,225.111 3680.63,224.926 3679.83,224.637L3679.83,214.658C3680.65,214.483 3681.36,213.857 3682.13,213.859L3682.13,213.859ZM3748.3,214.673C3748.11,214.682 3748.03,214.812 3748.27,215.065C3751.93,217.729 3756.97,220.817 3761.62,219.621C3762.04,219.528 3762.39,219.293 3762.3,218.851C3762.25,218.576 3761.78,218.338 3761.27,218.473C3760.2,218.756 3758.16,218.793 3757.32,218.657C3754.12,218.13 3751.3,216.075 3748.85,214.871C3748.66,214.731 3748.45,214.666 3748.3,214.673L3748.3,214.673ZM3747.23,217.215C3747.06,217.207 3747.08,217.371 3747.18,217.679C3747.7,219.223 3752.88,222.819 3756.97,224.008C3760.48,225.029 3765.53,224.025 3765.24,222.347C3765.08,221.472 3764.44,221.263 3762.2,221.548C3757.27,222.513 3752.51,220.483 3748.91,218.227C3747.94,217.611 3747.44,217.224 3747.23,217.215L3747.23,217.215ZM3714.9,219.326C3717.06,219.3 3719.2,219.476 3721.51,219.863C3726.01,220.635 3731.22,222.036 3735.63,224.09C3743.12,226.919 3752.55,229.102 3760.55,228.806C3762.5,228.861 3766.03,228.693 3766.71,228.467C3768.49,228.065 3768.98,228.446 3769.41,230.67C3769.49,231.154 3769.63,231.295 3770.25,231.716C3771.2,232.361 3771.04,232.999 3770.93,234.423C3770.83,235.621 3771.55,236.294 3774.44,241.652C3777.72,247.75 3780.93,254.836 3780.93,254.836C3752.13,254.816 3724.65,253.742 3695.18,254.662C3697.83,248.343 3705.06,236.947 3709.59,227.8C3708.49,224.986 3709.84,224.507 3709.28,223.84C3708.36,222.276 3709.02,220.081 3710.96,219.587C3712.31,219.431 3713.61,219.341 3714.9,219.326L3714.9,219.326Z" style="fill:rgb(19,31,103);fill-rule:nonzero;"/>
            </g>
            <g id="path6353-8" transform="matrix(0.995535,0,0,0.996803,10.7429,-8.13976)">
                <path d="M3695.52,254.858C3695.52,254.858 3704.95,235.67 3708.93,229.922C3714.65,222.629 3740.48,233.092 3753.32,235.706C3758.54,236.718 3770.64,236.244 3770.64,236.244L3780.75,254.576L3695.52,254.858ZM3675.92,233.057L3675.52,173.324L3678.47,175.178L3679.15,235.178L3666.38,247.476L3666.31,243.873L3675.92,233.057ZM3683.65,226.241C3686.69,220.083 3683.3,212.564 3683.3,212.567C3685.06,213.005 3689.98,203.621 3690.41,203.892C3697.94,213.173 3699.24,227.001 3690.05,235.572C3687.73,229.614 3683.68,226.241 3683.65,226.241L3683.65,226.241ZM3689.27,183.994C3694.98,178.118 3699.52,173.541 3704.05,166.965C3704.42,166.43 3679.93,135.141 3680.31,134.593C3684.09,130.393 3689.15,127.307 3693.09,122.236C3693.09,122.236 3713.18,148.681 3713.64,148.448C3715.68,140.173 3717.17,132.68 3716.78,124.03C3715.54,101.898 3706.14,88.349 3706.06,88.616C3702.88,108.95 3671.63,139.749 3665.47,137.555L3665.44,123.345C3665.81,124.056 3685.24,110.774 3690.36,93.22C3690.73,91.959 3705.81,87.108 3705.7,86.922C3705.06,85.275 3698.47,75.892 3698.47,75.892C3698.47,75.892 3701.13,74.644 3701.43,74.649C3709.98,85.338 3716.43,99.421 3718.62,112.831C3721.29,127.274 3723.01,154.427 3694.21,184.081L3689.27,183.994ZM3775.61,146.628C3771.1,132.562 3771.22,117.999 3773.29,107.83C3776.46,89.405 3788.04,76.212 3797.32,66.152L3801.35,66.154C3801.35,66.154 3796.53,71.167 3794.78,72.991C3791.77,76.461 3787.42,83.7 3787.42,83.7L3811.45,115.293L3825.15,112.315C3825.15,112.315 3824.74,126.448 3825.16,126.448C3814.52,135.311 3806.86,143.332 3801.37,156.245C3798.01,157.497 3786.84,162.336 3786.84,162.336C3781.54,161.032 3802.63,127.774 3798.62,127.211C3796.97,125.84 3778.67,101.019 3778.31,101.07C3769.88,127.038 3778.11,154.309 3792.95,173.356C3791.26,174.453 3789.74,175.307 3789.88,175.05C3783.52,166.183 3777.95,155.596 3775.61,146.628L3775.61,146.628ZM3731.7,133.608C3732.65,135.089 3736.93,101.916 3725.69,75.363C3726.76,74.548 3736.03,72.765 3736.03,72.765L3738.52,80.715L3732.2,83.408L3733.37,87.135C3738.28,84.74 3748.91,81.205 3755.45,70.279C3755.45,70.279 3787.23,70.005 3787.91,70.061C3788.57,70.117 3781.42,76.999 3774.65,90.931C3771.56,97.294 3769.1,105.528 3768.58,115.188C3768.48,117.097 3761.31,106.213 3761.31,106.213C3763.1,97.018 3767.88,87.965 3772.64,78.912C3772.64,78.912 3765.33,78.494 3760.23,78.645C3752.29,87.37 3747.31,91.969 3735.34,96.136C3739.7,110.199 3766.41,116.959 3760.47,115.674C3759.26,115.386 3757.72,128.602 3759.01,143.494C3759.25,155.402 3765.62,175.251 3765.85,175.091C3765.85,175.091 3761.6,176.053 3761.26,175.368C3761.98,175.195 3754.94,176.986 3754.94,176.986L3752.43,169.588L3759.23,166.438L3758.13,162.263C3758.11,162.265 3743.11,166.826 3735.77,179.98L3702.92,180.018C3715.59,166.196 3720.76,152.524 3723.51,134.45C3726.19,134.935 3731.7,133.608 3731.7,133.608L3731.7,133.608ZM3812.48,14.275C3816.61,10.8 3824.89,1.75 3824.89,1.75L3825,6.387L3815.6,16.225L3815.69,76.966L3812.51,73.899L3812.48,14.275ZM3808.13,36.507C3806.43,37.318 3803.06,41.311 3801.45,45.797C3790.55,36.005 3795.04,18.01 3801,14.264C3802.74,18.193 3807.75,23.402 3807.63,23.293C3806.48,27.407 3805.6,31.581 3808.13,36.507L3808.13,36.507ZM3711.64,-4.27L3795.69,-4.122C3790.89,5.372 3786.49,13.046 3781.4,22.392C3778.75,25.608 3721.35,12.004 3721.08,13.36L3711.64,-4.27Z" style="fill:rgb(226,207,0);fill-rule:nonzero;"/>
            </g>
            <g id="path6355-9" transform="matrix(0.995535,0,0,0.996803,10.7429,-8.13976)">
                <path d="M3666.2,242.767L3665.64,163.011L3675.19,172.344L3675.76,233.593L3666.2,242.767ZM3710.04,227.312C3708.06,227.615 3709.18,225.774 3709.54,224.024C3709.74,223.049 3708.81,222.132 3708.81,221.834C3708.84,220.103 3710.13,219.372 3715.97,219.44C3729.75,220.402 3736.87,224.837 3744.78,226.899C3752.35,228.874 3759.85,228.834 3768.2,228.641C3768.81,228.995 3771.05,234.794 3770.64,235.375C3751.74,239.119 3727.63,225.17 3710.04,227.312L3710.04,227.312ZM3744.09,186.013C3742.1,184.562 3740.24,184.294 3738.39,183.979C3741.63,178.247 3745.55,173.024 3752.11,169.755L3755.16,177.343C3751.3,179.336 3747.52,181.708 3744.09,186.013L3744.09,186.013ZM3704.29,166.308C3704.29,166.308 3701.46,170.957 3698.79,173.219C3690.86,162.519 3673.12,139.739 3673.12,139.739L3665.59,143.573C3665.59,143.573 3665.56,139.163 3665.73,138.854C3686.06,128.317 3700.02,108.4 3706.16,89.75C3706.16,89.75 3709.43,93.109 3709,94.531C3703.51,109.242 3694.1,123.995 3680.28,135.06L3704.29,166.308ZM3729.65,144.604L3755.33,144.641L3756.46,153.615C3746.63,156.928 3738.52,163.695 3730.93,171.522L3718.76,171.309C3722.75,162.513 3728.29,153.589 3729.65,144.604L3729.65,144.604ZM3824.7,106.793C3825.53,109.323 3824.69,112.053 3825.01,111.939C3794.26,127.232 3785.47,160.799 3785.47,160.799C3785.47,160.799 3782.56,156.151 3782.69,155.432C3798.61,119.857 3809.25,118.797 3811.3,114.934L3787.09,83.429L3792.57,75.94L3818.53,109.917C3821.11,108.722 3822.58,107.721 3824.7,106.793L3824.7,106.793ZM3809.54,152.817C3814.75,143.386 3820.13,137.904 3825.49,134.133L3825.23,146.579L3809.54,152.817ZM3665.77,115.802L3665.91,103.727L3681.74,96.873C3677.37,106.473 3671.42,111.618 3665.77,115.802ZM3736.34,104.946L3735.4,96.453C3745.02,92.235 3753.51,86.594 3760.37,78.873C3767.74,78.517 3772.77,79.019 3772.73,78.919C3772.74,78.904 3765.72,89.259 3761.07,105.563L3736.34,104.946ZM3816.01,15.734L3824.76,6.841L3825.03,86.363L3816.24,77.795L3816.01,15.734ZM3739.08,80.36L3736.31,72.491C3740.68,70.845 3743.98,67.259 3747.06,63.708C3749.15,65.588 3751.85,66.25 3752.78,66.611C3754.06,66.912 3743.93,79.151 3739.08,80.36L3739.08,80.36ZM3722.68,20.767C3722.68,20.767 3721.58,20.132 3721.7,19.236C3722.06,18.076 3720.54,15.449 3720.53,15.449C3739.17,9.763 3766.32,25.765 3782.42,22.399C3782.29,23.53 3782.47,24.879 3782.02,25.946C3782.53,28.213 3782.88,28.286 3780.68,29.67C3769.37,32.89 3757.44,26.023 3746.39,22.741C3737.37,19.884 3730.04,20.612 3722.68,20.767L3722.68,20.767Z" style="fill:rgb(212,0,0);fill-rule:nonzero;"/>
            </g>
            <g id="path6357-5" transform="matrix(0.995535,0,0,0.996803,10.7429,-8.13976)">
                <path d="M3710.67,-5.389L3714.08,1.059L3713.49,1.46C3714.42,3.013 3715.2,4.761 3716.15,6.301L3716.84,6.222C3717.95,8.377 3718.41,9.174 3719.87,11.727L3719.21,11.724C3719.55,12.859 3720.42,13.613 3720.44,14.427C3720.45,15.44 3720.19,16.469 3720.81,17.155C3721.54,17.968 3721.63,18.193 3721.48,18.669C3721.08,19.933 3722.22,21.333 3723.38,21.208C3731.52,20.112 3739.83,21.042 3748.13,23.564C3754.1,25.457 3759.39,27.577 3764.41,29.068C3765.99,29.543 3769.19,30.292 3771.94,30.494C3779.58,31.057 3783.86,29.493 3782.57,26.301C3782.47,26.045 3782.24,25.858 3782.22,25.726C3782.18,25.483 3782.22,25.22 3782.66,24.863C3783.91,23.577 3783.21,22.641 3782.45,21.217C3782.45,21.217 3792.25,3.608 3797.14,-5.166L3710.67,-5.389ZM3795.54,-3.807L3788.39,8.614C3784.57,7.917 3783.67,11.151 3783.61,11.606C3778.64,10.326 3779.4,16.802 3781.9,17.239C3782.06,18.179 3777.81,19.346 3775.58,17.145C3779.01,17.608 3780.23,13.036 3776.03,12.02C3781.57,7.883 3771.18,1.689 3771.06,10.247C3766.18,9.382 3766.81,15.87 3769.91,16.374C3768.33,18.131 3763.67,18.179 3761.23,14.477C3765.38,16.64 3767.62,11.058 3763.31,9.495C3768.62,4.813 3758.23,0.496 3758.47,8.062C3754.55,5.726 3751.86,11.68 3757.09,12.594C3756.79,13.665 3749.94,13.674 3748.2,10.904C3753.06,12.019 3753.28,6.072 3748.99,5.588C3753.3,0.096 3742.38,-2.681 3744.21,4.813C3739.99,3.135 3738.39,8.425 3742.51,10.124C3742.73,10.966 3735.85,11.683 3733.44,8.645C3738.73,7.847 3736.88,2.691 3733.45,3.104C3733.45,3.104 3733.5,2.955 3733.7,2.454C3735.31,-2.722 3726.61,-3.154 3727.82,2.334C3728.01,2.839 3728.22,3.512 3728.22,3.512C3725.83,3.021 3724.36,4.003 3724.54,6.265C3725.13,9.269 3726.71,9.048 3728.73,8.449C3729.58,9.339 3723.86,12.313 3720.27,9.657C3724.67,8.387 3722.44,3.207 3718.76,3.906C3718.61,2.253 3716.82,-0.066 3714.49,1.065L3712.03,-3.811L3795.54,-3.807ZM3802.73,65.196L3797.57,65.272C3793.94,68.996 3767.68,93.326 3772.1,130.078C3773.99,145.797 3778.36,159.396 3790.03,175.462L3793.14,173.621L3793.62,173.942L3825.96,155.234L3825.98,149.552L3788.44,165.39C3787.7,164.593 3787.26,163.704 3786.63,162.723L3801.67,156.293C3801.67,156.293 3802.03,155.374 3802.15,154.951C3807.1,142.368 3817.14,133.258 3825.89,126.22C3825.84,113.831 3825.79,87.894 3825.79,87.894L3803.17,65.242C3800.27,67.909 3797.7,70.652 3795.12,73.628L3821.09,108.002L3818.79,109.508L3793.09,75.313C3796.14,71.633 3799.44,68.424 3802.73,65.196L3802.73,65.196ZM3825.8,87.545C3825.8,87.545 3825.68,28.529 3825.51,0.031L3825.51,0.031L3812.03,13.935L3812.08,73.755L3825.8,87.545ZM3824.66,5.649L3815.14,15.529L3815.24,76.335L3812.8,73.909L3812.8,14.74L3824.69,2.207L3824.66,5.649ZM3731.99,4.186C3732.28,4.691 3732.15,5.39 3731.7,5.96C3729.75,8.39 3735.87,12.611 3740.27,11.877C3743.62,11.319 3746.47,9.296 3745.24,7.757C3744.24,6.503 3744.89,5.235 3746.1,5.244C3747.34,5.253 3748.33,6.244 3747.26,7.602C3744.87,10.623 3748.51,14.167 3754.08,14.24C3758.03,14.292 3759.34,13.316 3759.12,10.492C3759.03,9.17 3759.28,8.805 3760.2,8.604C3761.66,8.284 3762.4,9.968 3761.19,11.253C3758.57,14.027 3761.54,18.107 3766.49,18.37C3768.3,18.467 3768.66,18.37 3770.68,17.223C3772.26,16.326 3772.82,14.973 3772.04,13.921C3771.05,12.567 3772.39,10.949 3773.94,11.616C3775.05,12.092 3775.59,12.947 3774.37,14.395C3772.76,16.298 3773.52,17.868 3776.62,18.927C3779.04,19.752 3780.71,19.65 3781.84,18.612C3782.19,18.29 3782.98,17.615 3782.97,17.821C3782.2,19.141 3781.53,20.367 3781.53,20.367C3776.47,22.637 3772.52,18.389 3772.65,18.23C3767.44,21.255 3762.82,20.617 3758.91,15.535C3757.9,16.101 3750.63,17.434 3745.38,11.641C3740.08,14.313 3735.16,13.192 3730.78,10.204C3727.55,13.273 3724.14,13.759 3720.6,12.285L3719.55,10.163C3719.82,10.063 3720.96,12.291 3726.5,11.253C3728.36,10.904 3731.56,7.76 3729.77,6.227C3728.95,5.059 3728.92,4.533 3729.65,3.825C3730.36,3.128 3731.58,3.487 3731.99,4.186L3731.99,4.186ZM3718.42,6.968C3718.73,7.57 3718.77,8.571 3718.43,7.97C3718.25,7.653 3717.31,6.236 3717.35,6.193C3717.79,6.156 3718.22,6.609 3718.42,6.968L3718.42,6.968ZM3824.66,7.451L3824.72,85.919L3816.61,77.829L3816.22,16.358L3824.66,7.451ZM3730.76,11.251L3733.31,12.866L3728.74,12.838L3730.76,11.251ZM3745.11,12.601L3747.25,14.696L3742.75,13.745L3745.11,12.601ZM3785.27,13.688L3784.32,15.664C3783.76,15.042 3783.6,13.724 3785.27,13.688ZM3801.48,46.309C3803.11,42.635 3805.28,37.956 3808.81,36.468C3806.18,31.225 3806.52,25.984 3808.39,23.111C3805.72,20.619 3802.99,17.634 3801.3,13.341C3792.88,20.809 3791.53,36.149 3801.48,46.309L3801.48,46.309ZM3801.22,14.776L3801.8,16.21C3794.31,25.429 3796.63,37.531 3802.05,43.989L3801.27,45.615C3794.64,38.583 3791.74,23.718 3801.22,14.776L3801.22,14.776ZM3756.45,19.991C3765.13,22.552 3772.08,26.544 3782.11,22.987L3782.16,24.952C3775.77,29.075 3763.05,24.719 3754.45,21.528C3740.64,16.4 3729.88,16.699 3722.2,17.285C3721.53,17.152 3720.99,15.376 3722.07,15.364C3736.44,15.204 3734.12,13.402 3756.45,19.991L3756.45,19.991ZM3758.41,16.516L3761.26,19.557C3759.12,18.881 3757.04,18.131 3755.1,17.199L3758.41,16.516ZM3801.91,17.266L3802.47,18.041C3802.71,18.376 3800.89,18.55 3801.2,18.157L3801.91,17.266ZM3752.94,22.831C3763.3,26.743 3774.71,30.648 3782.19,27.146C3782.19,27.146 3782.24,28.637 3781.39,29.059C3781.39,29.059 3780.6,29.701 3777.95,30.067C3765.84,31.067 3757.98,26.023 3748.2,23.043C3744.49,21.912 3738.53,20.543 3732.41,20.288C3728.78,20.121 3723.22,20.646 3723.22,20.646C3722.01,20.545 3722.03,19.826 3722.02,19.121C3732.55,17.708 3742.24,18.762 3752.94,22.831ZM3803.04,19.08C3803.17,19.074 3803.31,19.084 3803.44,19.104L3804.5,20.465L3803.25,22.474C3803.25,22.474 3802.14,21.448 3801.58,20.441C3801.26,19.789 3802.1,19.124 3803.04,19.08L3803.04,19.08ZM3772.51,19.463L3775.79,21.953C3773.33,22.075 3770.55,22.168 3767.8,21.07L3772.51,19.463ZM3800.3,20.731C3800.56,20.725 3800.83,20.999 3801.15,21.545C3801.76,22.593 3801.68,22.793 3800.49,23.176C3798.94,23.679 3798.82,23.569 3799.32,22.164C3799.66,21.208 3799.97,20.739 3800.3,20.731L3800.3,20.731ZM3805.29,21.374L3807.5,23.246C3806.28,26.451 3805.48,30.518 3807.94,36.358C3807.66,36.376 3806.07,37.958 3805.57,38.228C3804.16,37.636 3801.07,26.065 3805.29,21.374L3805.29,21.374ZM3802.76,23.825L3802.2,27.369C3802.15,27.66 3799.75,25.691 3799.97,24.706C3800.4,23.537 3801.87,23.786 3802.76,23.825ZM3798.78,25.069C3799.07,25.071 3799.53,25.78 3800.09,26.706C3800.53,27.428 3800.44,27.701 3799.47,28.58C3798.04,30.031 3797.76,29.557 3798.08,27.088C3798.24,25.869 3798.45,25.067 3798.78,25.069L3798.78,25.069ZM3801.73,28.281C3801.93,28.285 3802.1,28.332 3802.22,28.431L3802.38,31.884C3802.4,32.195 3799.7,31.761 3799.35,30.446C3798.9,29.603 3800.69,28.26 3801.73,28.281ZM3798.18,31.199C3798.37,31.172 3798.97,31.575 3799.55,31.916C3800.54,32.508 3800.56,32.768 3799.7,33.872C3798.7,35.169 3798.2,34.961 3798.05,32.705C3797.99,31.877 3797.93,31.235 3798.18,31.199L3798.18,31.199ZM3802.13,32.52C3802.22,32.52 3802.3,32.545 3802.36,32.602C3802.84,33.012 3803.57,36.473 3803.26,36.834C3802.83,37.348 3800.53,36.664 3800.01,35.851C3799.53,35.077 3801.29,32.52 3802.13,32.52L3802.13,32.52ZM3799.32,36.593C3799.58,36.575 3800.06,36.758 3800.78,37.107C3801.21,37.316 3801.93,37.711 3802.09,38.047C3802.37,38.639 3801.9,39.516 3801.3,40.244C3800.9,40.726 3800.53,40.367 3799.76,38.753C3799.13,37.454 3798.88,36.623 3799.32,36.593L3799.32,36.593ZM3803.96,38.141C3804.01,38.14 3804.06,38.15 3804.1,38.175C3804.89,38.611 3804.76,39.908 3803.83,40.867C3802.72,42.018 3801.75,41.151 3802.52,39.69C3803.01,38.765 3803.59,38.15 3803.96,38.141L3803.96,38.141ZM3739.35,70.334C3738.67,70.364 3737.61,70.981 3737.15,71.578C3736.57,72.332 3736.06,72.234 3735.41,72.178C3734.64,72.167 3733.47,72.338 3731.89,73.065C3730.99,73.476 3730.58,73.569 3729.26,73.636C3728.41,73.68 3727.54,73.796 3727.35,73.897C3727.16,73.998 3726.54,74.216 3725.98,74.382C3724.83,74.72 3725.24,75.048 3725.9,76.539C3729.26,85.192 3731.66,95.275 3732.54,103.488C3733.52,112.909 3733.22,124.334 3731.91,133.06C3728.7,133.081 3726.68,132.916 3723.3,132.973C3720.99,151.841 3714.73,166.824 3702.21,180.299L3736.05,180.386C3739.92,169.989 3757.61,162.059 3758.19,162.644L3759.12,166.438C3759.12,166.438 3746.4,168.267 3737.83,184.505C3738.71,183.972 3741.9,184.342 3744.01,186.542C3748.21,181.176 3755.12,177.669 3755.16,177.752L3755.39,177.104C3755.39,177.104 3756.66,176.672 3757.77,176.459C3758.13,176.391 3758.86,176.252 3759.35,176.081C3760.1,175.817 3760.47,175.536 3761.63,175.636C3764.04,175.868 3766.46,175.164 3766.41,175.151C3759.23,155.232 3757.53,137.252 3760.34,116.364C3762.98,116.385 3768.78,116.485 3768.78,116.485C3769.37,110.617 3770.11,104.745 3771.9,99.204C3774.2,92.09 3776.98,85.477 3781.45,79.43C3783.97,75.632 3786.17,72.93 3788.78,69.37L3755.66,69.447C3751.28,76.855 3742.84,83.042 3736.05,85.62C3733.74,86.492 3733.41,86.363 3733.03,85.271C3732.35,83.319 3732.38,83.402 3734.18,82.884C3734.79,82.711 3736.72,81.689 3739.73,80.269C3746.12,77.006 3750.52,71.031 3753.11,66.998C3754.14,65.405 3753.45,65.764 3751.69,65.748C3750.08,65.622 3749.34,65.121 3747.89,63.763C3747.36,63.263 3747.13,62.906 3746.89,62.935C3745,65.665 3741.82,69.267 3739.35,70.334L3739.35,70.334ZM3747.12,64.027C3748.61,65.63 3750.37,66.567 3752.7,66.873C3748.98,72.736 3744.45,77.32 3739.23,80.108L3736.58,72.607C3743.08,69.563 3744.82,66.514 3747.12,64.027ZM3801.1,66.413C3766.08,98.978 3768.14,140.033 3792.66,173.38L3790.09,174.934C3767.06,143.89 3762.89,97.966 3798.09,66.274L3801.1,66.413ZM3779.02,70.385L3787.61,70.367L3781.76,77.987L3773.92,77.958L3779.02,70.385ZM3777.67,70.448L3772.9,78.02L3760.02,78.186C3752.31,87.742 3744.03,92.404 3735.6,95.585L3733.96,87.425C3733.96,87.425 3747.3,84.189 3755.95,70.345L3777.67,70.448ZM3764.59,71.074L3761.6,74.396L3764.7,77.568L3767.53,74.348L3764.59,71.074ZM3771.35,70.997L3768.32,74.159L3770.68,77.34L3773.82,74.251L3771.35,70.997ZM3756.43,71.573L3755.92,76.546L3759.81,77.829L3760.38,73.578L3756.43,71.573ZM3780.1,71.759L3777.28,76.197L3781.53,76.265L3784.5,71.846L3780.1,71.759ZM3735.66,72.893L3738.41,80.574L3735.99,81.747L3733.54,73.726L3735.66,72.893ZM3732.39,74.125L3735.23,82.07L3732.86,82.86L3730.25,74.59L3732.39,74.125ZM3735.8,105.496C3736.12,116.546 3736.27,123.207 3734.43,132.92C3734.34,133.428 3732.37,132.978 3732.37,132.978C3732.62,133.062 3733.48,122.002 3733.41,115.055C3733.28,101.825 3731.05,88.737 3725.89,75.626C3726.87,75.021 3729.3,74.712 3729.3,74.712C3732.56,84.654 3735.44,95.35 3735.8,105.496L3735.8,105.496ZM3701.41,74.858C3712.72,89.944 3720.8,110.412 3719.45,130.607C3718.15,154.09 3709.3,167.624 3693.75,183.886L3689.74,183.979C3708.14,166.232 3716.29,151.044 3716.93,131.006C3717.67,107.96 3710.67,92.632 3698.88,76.298L3701.41,74.858ZM3665.24,95.597L3665.28,101.092L3703.8,84.477L3698.25,76.246L3665.24,95.597ZM3755.53,77.597L3751.34,77.81L3751.47,82.066L3755.85,81.959L3755.53,77.597ZM3792.91,76.788L3817.88,109.708L3811.7,114.322L3787.9,83.387L3792.91,76.788ZM3773.34,79.036L3780.82,79.153L3777.93,83.973L3770.7,83.915L3773.34,79.036ZM3771.96,79.155C3768.53,85.581 3763.79,92.907 3761.13,104.748L3736.53,104.769C3736.48,102.066 3736.14,99.363 3735.74,96.659C3746.34,92.758 3754.55,86.927 3760.58,79.219L3771.96,79.155ZM3776.51,79.494L3773.31,81.354L3775.27,83.62L3778.8,82.259L3776.51,79.494ZM3747.23,81.862L3746.17,86.055L3750.16,87.6L3750.9,82.618L3747.23,81.862ZM3770.17,84.995L3777.34,85.039L3774.32,91.101L3767.22,90.994L3770.17,84.995ZM3787.24,84.201L3810.86,114.996L3808.65,116.758L3785.56,86.657L3787.24,84.201ZM3772.89,85.484L3769.66,88.191L3772.09,91.013L3775.07,88.622C3775.14,88.571 3772.89,85.484 3772.89,85.484ZM3741.54,85.707L3740.55,89.784L3744.69,90.892L3745.43,86.52L3741.54,85.707ZM3735.8,88.418L3734.96,92.432L3738.87,93.493L3739.69,89.624L3735.8,88.418ZM3703.56,88.016C3703.76,87.975 3702.91,92.793 3701.66,93.661C3701.06,94.076 3700.74,93.985 3700.22,93.42C3699.87,93.03 3698.24,90.366 3698.24,90.366L3699.63,89.665C3701.31,92.372 3701.31,91.063 3701.95,88.755L3703.56,88.016ZM3697.09,90.79C3697.64,90.786 3698.31,91.474 3699.06,92.805C3700.15,94.73 3700.11,94.855 3698.32,95.41C3695.1,96.267 3693.9,96.472 3694.89,94.335C3695.96,92.033 3696.38,90.796 3697.09,90.79L3697.09,90.79ZM3706.68,90.409L3708.88,94.203C3700.04,116.836 3685.79,133.071 3666.16,142.895L3666.12,139.135C3689.25,125.891 3698.74,110.247 3706.68,90.409L3706.68,90.409ZM3766.78,92.045L3773.73,92.171L3771.88,97.521L3764.48,97.468L3766.78,92.045ZM3695,91.811C3689.34,105.382 3681.6,117.223 3666.13,127.219L3666.07,123.614C3683.44,113.084 3690.95,93.361 3690.95,93.355L3695,91.811ZM3782.93,91.788C3787.05,91.902 3791.39,96.418 3790.95,100.141C3790.64,102.764 3791.14,104.71 3791.85,103.636C3793.42,101.263 3798.04,102.841 3798,105.691C3797.98,107.207 3796.97,107.456 3796.39,106.088C3795.53,104.065 3793.14,104.015 3792.78,106.135C3792.45,108.122 3794.12,109.582 3798.6,111.209C3803.85,112.447 3807.01,117.176 3805.14,119.895C3804.49,120.614 3804.1,120.791 3803.98,120.418C3803.95,120.311 3803.82,119.75 3803.7,119.174C3803.1,116.324 3801.74,115.127 3800.09,116.106C3799.27,116.596 3799.37,117.246 3799.85,118.102C3800.5,119.242 3800.09,119.685 3798.94,119.104C3797.13,118.187 3796.53,116.013 3798.29,115.01C3800.38,114.168 3799.67,113.987 3797,113.078C3791.31,111.122 3788.86,107.534 3788.56,100.697C3788.67,97.581 3788.25,96.47 3786.79,96.044C3785.46,95.655 3783.95,97.359 3784.9,98.257C3785.42,98.745 3785.85,99.188 3785.57,99.458C3784.69,100.322 3782.47,98.919 3782.5,97.415C3782.51,96.431 3782.88,96.228 3784.35,95.071C3784.75,94.75 3784.41,94.145 3783.81,94.137C3781.57,94.862 3781.73,91.885 3782.93,91.788L3782.93,91.788ZM3770.04,92.577L3766.56,94.587L3768.37,97.133L3772.22,95.314L3770.04,92.577ZM3702.37,94.553C3702.76,94.553 3703.09,94.877 3703.09,95.279C3703.09,95.681 3702.76,96.01 3702.37,96.01C3701.97,96.01 3701.64,95.681 3701.64,95.279C3701.64,94.877 3701.97,94.553 3702.37,94.553ZM3709.49,94.868C3716.84,110.979 3718.58,129.402 3713.47,147.812L3693.65,121.876C3701.26,113.265 3706.37,103.407 3709.49,94.868L3709.49,94.868ZM3682.68,96.051L3665,103.524L3664.9,116.862C3674.78,110.08 3678.97,103.136 3682.68,96.051L3682.68,96.051ZM3699.69,95.94C3701.43,95.885 3700.57,100.617 3698.31,102.231C3697.48,102.872 3696.92,102.794 3696.64,101.511C3696.5,100.847 3695.81,99.44 3694.93,98.308C3693.91,96.991 3693.92,96.958 3695.41,96.865C3697.06,96.89 3698.4,96.096 3699.69,95.94L3699.69,95.94ZM3697.97,97.95C3696.68,97.931 3696.29,98.536 3697.06,99.364C3697.7,100.061 3698.22,99.912 3698.65,98.904C3698.91,98.29 3698.68,97.961 3697.97,97.95ZM3666.06,115.252L3666.1,103.932L3681.23,97.527C3678.2,104.141 3672.58,110.699 3666.06,115.252L3666.06,115.252ZM3800.44,124.397L3798.43,126.435L3778.9,100.834L3780.12,97.603L3800.44,124.397ZM3693.42,98.502C3694.08,98.512 3695.56,100.795 3695.98,102.434C3696.28,103.65 3695.96,103.907 3693.66,104.25C3692.72,104.511 3690.15,104.259 3690.36,103.572C3690.73,102.58 3693.19,98.499 3693.42,98.502ZM3764.17,98.764L3771.29,98.841L3769.66,104.719L3762.2,104.608L3764.17,98.764ZM3767.32,99.122L3764,101.431L3766.62,104.032L3770.14,101.848L3767.32,99.122ZM3778.49,101.651L3798.25,127.434C3792.36,134.973 3786.48,143.633 3782.61,155.081C3775.58,138.537 3773,122.433 3778.49,101.651L3778.49,101.651ZM3698.26,103.844C3698.66,103.844 3698.99,104.169 3698.99,104.571C3698.99,104.973 3698.66,105.302 3698.26,105.302C3697.86,105.302 3697.54,104.973 3697.54,104.571C3697.54,104.169 3697.86,103.844 3698.26,103.844ZM3695.99,104.827C3697.22,104.915 3696.06,108.865 3694.2,110.306C3692.74,111.441 3692.11,110.914 3691.77,108.836C3691.65,108.086 3690.86,106.81 3690.17,105.802C3689.4,104.677 3689.72,104.498 3691.67,104.95C3693.04,105.216 3694.72,104.891 3695.99,104.827L3695.99,104.827ZM3762.01,105.793L3769.48,105.838L3768.33,114.764L3762.01,105.793ZM3689.21,106.206C3690.39,107.31 3691.88,111.182 3691.12,111.461C3690.23,111.785 3686.21,111.316 3685.76,110.851C3685.45,110.53 3685.45,110.528 3686.11,109.645C3686.47,109.159 3687.16,108.19 3687.64,107.49C3688.07,106.979 3688.55,105.594 3689.21,106.206ZM3693.37,106.338C3692.24,106.376 3692.16,106.533 3692.7,107.766C3693.14,108.772 3693.45,108.862 3694.2,108.202C3695.25,107.284 3694.81,106.289 3693.37,106.338L3693.37,106.338ZM3824.51,107.113L3824.78,111.514C3796.06,125.84 3785.31,159.663 3785.15,159.662L3783.07,155.76C3796.25,123.102 3813.78,113.645 3824.51,107.113L3824.51,107.113ZM3689.18,112.318C3690.89,112.282 3691.39,112.165 3691.38,112.802C3691.4,114.516 3689.81,116.949 3687.86,117.867C3686.55,118.485 3686.52,118.499 3686.37,116.947C3686.26,115.752 3685.87,114.215 3685.26,112.991C3685.06,112.537 3684.32,111.496 3685.26,111.792C3686.19,112.088 3688.12,112.34 3689.18,112.318L3689.18,112.318ZM3693.02,111.92C3693.42,111.92 3693.74,112.244 3693.74,112.646C3693.74,113.048 3693.42,113.372 3693.02,113.372C3692.62,113.372 3692.3,113.048 3692.3,112.646C3692.3,112.244 3692.62,111.92 3693.02,111.92ZM3683.87,112.923C3684.18,112.914 3684.47,113.555 3684.82,114.497C3685.59,116.545 3685.83,117.656 3685.6,118.138C3685.25,118.881 3680.54,118.401 3679.74,117.571C3679.58,117.686 3683.2,113.335 3683.87,112.923L3683.87,112.923ZM3687.26,113.432C3686.59,113.478 3686.94,113.887 3687.44,115.073C3687.79,115.894 3688.26,116.026 3688.8,115.451C3689.51,114.681 3689.61,114.069 3689.16,113.741C3688.49,113.472 3688,113.435 3687.26,113.432ZM3824.72,117.884L3824.74,119.358C3823.62,119.022 3822.93,118.546 3821.65,118.119C3820.87,117.856 3820.41,117.668 3821.1,116.84C3822.18,115.543 3823.34,114.732 3824.66,113.929L3824.67,115.599C3822.56,116.538 3822.77,117.405 3824.72,117.884L3824.72,117.884ZM3741.7,116.385L3749.63,116.385L3749.63,121.653L3755.84,121.653L3755.36,127.657L3749.63,127.657L3749.63,132.925L3741.7,132.925L3741.7,127.657L3736.03,127.657L3736.49,121.653L3741.7,121.653L3741.7,116.385ZM3759.62,116.403C3755.6,136.425 3759.28,157.681 3765.48,174.998L3762.36,175.344C3757.52,161.496 3753.68,141.779 3757.59,116.415C3757.59,116.415 3758.99,116.389 3759.62,116.403L3759.62,116.403ZM3818.51,116.792C3818.91,116.792 3819.23,117.116 3819.23,117.518C3819.23,117.92 3818.91,118.244 3818.51,118.244C3818.11,118.244 3817.79,117.92 3817.79,117.518C3817.79,117.116 3818.11,116.792 3818.51,116.792ZM3678.93,118.472C3679.19,118.464 3680,118.814 3680.71,119.014C3681.79,119.315 3682.64,119.446 3683.62,119.465C3685.59,119.503 3685.85,119.485 3685,121.116C3684.39,122.29 3683.01,123.843 3682.05,124.316C3680.69,125.048 3680.16,124.949 3680.24,123.6C3680.26,122.684 3679.86,121.093 3679.35,119.958C3678.94,119.076 3678.49,118.485 3678.93,118.472L3678.93,118.472ZM3687.27,119.115C3687.67,119.115 3688,119.439 3688,119.841C3688,120.243 3687.67,120.572 3687.27,120.572C3686.87,120.572 3686.55,120.243 3686.55,119.841C3686.55,119.439 3686.87,119.115 3687.27,119.115ZM3820.78,119.019C3821.34,119.007 3822.3,119.352 3823.17,119.779C3825.49,120.913 3825.43,121.173 3822.28,123.416C3820,125.157 3819.46,125.352 3819.38,122.607C3819.3,120.293 3819.55,119.046 3820.78,119.019L3820.78,119.019ZM3677.74,119.682C3678.66,119.696 3679.68,124.516 3678.85,124.946C3677.56,125.615 3673.57,124.311 3673.59,123.212C3673.59,122.855 3677.33,119.676 3677.74,119.682ZM3818.01,119.484C3818.56,119.46 3818.63,119.894 3818.58,121.43C3818.55,122.244 3818.69,123.572 3818.75,124.19C3818.86,125.475 3818.76,125.563 3817.74,124.989C3817.1,124.621 3815.79,124.019 3814.37,123.895C3813.2,123.794 3813.12,123.312 3813.48,122.54C3814.51,120.83 3816.37,119.629 3818.01,119.484L3818.01,119.484ZM3681.16,120.21C3680.35,120.204 3680.55,120.634 3681.05,121.842C3681.4,122.698 3682.01,122.78 3682.64,122.05C3683.52,121.029 3683.35,120.488 3682.07,120.293C3681.8,120.251 3681.34,120.212 3681.16,120.21L3681.16,120.21ZM3816.94,121.358C3816.61,121.389 3816.15,121.655 3815.93,121.798C3815.18,122.274 3814.87,122.617 3815.96,122.994C3816.94,123.33 3817.46,123.476 3817.38,122.631C3817.33,122.122 3817.37,121.383 3816.94,121.358L3816.94,121.358ZM3742.47,121.982L3742.47,127.231L3748.78,127.231L3748.78,121.982L3742.47,121.982ZM3811.3,122.438C3811.7,122.438 3812.02,122.762 3812.02,123.164C3812.02,123.566 3811.7,123.89 3811.3,123.89C3810.9,123.89 3810.58,123.566 3810.58,123.164C3810.58,122.762 3810.9,122.438 3811.3,122.438ZM3693.05,123.256L3712.98,148.978L3711.65,152.331L3691.13,125.178L3693.05,123.256ZM3824.84,123.135L3824.89,126.496C3822.63,128.153 3808.34,138.571 3800.94,156.108L3797.07,157.766C3802.52,142.673 3814.18,129.746 3824.84,123.135L3824.84,123.135ZM3673.24,124.558C3674.54,124.955 3675.78,125.862 3677.01,126.025C3678.41,126.198 3678.9,126.108 3678.52,126.839C3677.66,128.476 3676.05,130.191 3674.35,130.751C3673.14,131.152 3672.56,131.002 3672.75,130.243C3673.11,128.821 3673.17,127.654 3673.12,126.36C3673.32,125.654 3672.72,124.665 3673.24,124.558ZM3671.72,124.858C3672.55,125.57 3672.39,130.064 3671.46,131.032C3670.98,131.538 3669.58,131.076 3667.48,129.88C3666.11,129.098 3665.85,128.62 3666.54,128.141C3667.7,127.433 3671.1,124.69 3671.72,124.858L3671.72,124.858ZM3814.1,124.955C3814.53,124.946 3815.06,125.021 3815.7,125.168C3818.18,125.729 3818.74,126.3 3816.62,127.991C3815.84,128.616 3815.01,129.393 3814.76,129.691C3813.63,131.095 3812.83,130.077 3812.58,127.526C3812.41,125.741 3812.68,124.725 3814.1,124.955L3814.1,124.955ZM3810.99,125.197C3811.39,125.197 3811.65,125.409 3811.64,125.914C3811.63,126.559 3812.09,129.348 3812.35,130.117C3812.8,131.423 3812.47,131.718 3811.39,131.148C3810.61,130.723 3808.53,130.401 3807.41,130.49C3806.14,130.59 3806.17,130.247 3806.55,129.168C3807.21,127.256 3809.78,125.198 3810.99,125.197L3810.99,125.197ZM3674.46,126.127C3673.97,126.125 3673.95,126.784 3674.28,128.291C3674.39,128.771 3674.8,128.742 3675.58,128.195C3676.49,127.548 3676.45,127.141 3675.42,126.519C3674.99,126.263 3674.68,126.128 3674.46,126.127L3674.46,126.127ZM3680.11,126.292C3680.51,126.292 3680.83,126.616 3680.83,127.018C3680.83,127.42 3680.51,127.744 3680.11,127.744C3679.71,127.744 3679.38,127.42 3679.38,127.018C3679.38,126.616 3679.71,126.292 3680.11,126.292ZM3808.63,129.114C3808.97,129.454 3810.25,129.44 3810.47,129.236C3810.81,128.922 3810.66,127.464 3810.37,127.289C3809.65,127.042 3808.19,128.577 3808.63,129.114L3808.63,129.114ZM3689.02,131.889C3689.45,133.967 3692.36,133.852 3692.03,131.686C3691.84,130.42 3691.8,130.447 3692.43,130.475C3695.43,130.623 3694.91,135.38 3691.45,135.012C3690.73,135.099 3690.63,135.396 3691.24,135.651C3691.85,135.905 3694.17,136.504 3694.53,136.503C3698.29,136.49 3703.72,142.308 3703.59,147.47C3703.5,150.847 3704.64,153.276 3705.8,153.552C3706.73,153.77 3708.07,152.925 3707.95,151.891C3707.79,150.465 3708.95,150.91 3709.61,151.934C3710.62,153.35 3709.32,155.392 3706.9,155.232C3705.88,155.433 3707.66,156.088 3708.98,156.472C3710.18,156.54 3709.16,158.023 3708.94,158.287C3708.26,159.077 3706.05,158.473 3704.31,157.062C3702.18,155.329 3701.26,153.006 3701.01,148.443C3700.84,145.51 3700.63,144.914 3699.78,146.124C3698.25,148.822 3694.6,147.502 3694.14,144.652C3693.89,143.143 3695.21,142.054 3695.64,143.422C3696.77,146.265 3699.54,145.582 3699.09,142.759C3698.79,140.896 3696.94,139.869 3693.28,138.832C3688.88,137.586 3687.57,136.071 3686.71,132.441C3686.33,130.834 3686.39,129.993 3687.24,129.153C3687.65,128.738 3688.18,128.316 3688.18,128.316C3688.18,128.316 3688.77,130.758 3689.02,131.889L3689.02,131.889ZM3804.14,129.585C3804.54,129.585 3804.86,129.91 3804.86,130.311C3804.86,130.713 3804.54,131.038 3804.14,131.038C3803.74,131.038 3803.42,130.713 3803.42,130.311C3803.42,129.91 3803.74,129.585 3804.14,129.585ZM3666,130.275C3667.31,130.753 3668.44,131.459 3669.79,131.922C3670.67,132.222 3670.43,132.927 3669.52,133.929C3668.51,135.131 3667.51,135.723 3666.11,136.393L3666.12,134.361C3667.83,133.762 3668.91,132.333 3666.05,131.875L3666,130.275ZM3807.55,131.409C3808.05,131.414 3808.75,131.432 3809.57,131.603C3811.66,132.037 3811.91,132.224 3810.65,133.7C3810.19,134.247 3809.5,135.072 3809.12,135.535C3807.88,137.265 3807.22,136.671 3806.64,134.436C3805.93,132.102 3805.77,131.206 3807.55,131.409L3807.55,131.409ZM3672.55,132.242C3672.95,132.242 3673.27,132.567 3673.27,132.969C3673.27,133.37 3672.95,133.695 3672.55,133.695C3672.15,133.695 3671.83,133.37 3671.83,132.969C3671.83,132.567 3672.15,132.242 3672.55,132.242ZM3805.45,133.824C3805.64,134.561 3805.95,135.5 3806.18,136.166C3807.31,138.679 3806.59,137.707 3804.56,137.485C3803.2,137.336 3801.03,137.565 3800.49,137.186C3800.25,136.88 3800.47,136.073 3800.91,135.162C3801.52,133.88 3802.64,132.788 3803.48,132.292C3805.6,131.309 3805.1,132.559 3805.45,133.824L3805.45,133.824ZM3683.44,132.93L3706.2,163.195L3704.41,165.754L3681,134.636L3683.44,132.93ZM3826.09,133.043C3814.26,141.642 3809.71,152.078 3808.79,153.442L3826.14,146.711L3826.09,133.043ZM3803.5,134.029C3802.85,134.208 3801.92,135.418 3802.32,135.893C3802.56,136.141 3803.51,136.173 3803.97,136.004C3804.67,135.745 3804.19,134.025 3803.5,134.029L3803.5,134.029ZM3703.75,166.76L3698.9,172.905L3673.64,140.043L3680.01,135.414L3703.75,166.76ZM3824.83,134.821L3825.01,146.116L3810.17,152.337C3815.14,143.896 3820.01,138.678 3824.83,134.821ZM3723.37,135.779L3729.32,143.559L3722.05,143.393L3723.37,135.779ZM3798.52,136.415C3798.92,136.415 3799.24,136.74 3799.24,137.142C3799.24,137.543 3798.92,137.868 3798.52,137.868C3798.12,137.868 3797.8,137.543 3797.8,137.142C3797.8,136.74 3798.12,136.415 3798.52,136.415ZM3802.87,138.256C3805.59,138.294 3806.5,138.442 3805.71,139.785C3804.65,141.096 3804.03,142.342 3802.88,143.554C3802.22,144.234 3801.39,142.832 3800.69,140.59C3800.13,138.779 3800.41,138.323 3801.48,138.308C3802.54,138.293 3802.72,138.254 3802.87,138.256L3802.87,138.256ZM3799.73,140.706C3799.95,141.421 3800.47,142.598 3800.89,143.316C3801.3,144.034 3801.76,144.832 3801.74,144.971C3801.67,145.308 3801.35,145.334 3800.63,145.063C3799.09,144.361 3795.45,145.103 3795.35,144.757C3794.81,143.982 3795.62,141.869 3797.15,140.406C3797.89,139.691 3798.58,139.226 3798.97,139.219C3799.37,139.212 3799.44,139.762 3799.73,140.706L3799.73,140.706ZM3672.76,140.15L3698.47,173.721L3696.69,175.899L3670.7,141.679C3670.7,141.679 3666.59,143.701 3665.38,144.376L3665.55,161.739L3664.84,161.705L3664.95,249.652L3679.29,235.269L3679.11,175.594C3682.15,178.473 3684.75,181.544 3688.24,184.367L3694.2,184.319C3709.78,168.391 3718.3,154.759 3720.18,130.348C3721.43,114.017 3716.03,93.481 3701.72,73.579L3698.23,75.713L3705.13,86.176L3690.51,92.694C3684.68,105.044 3677.78,116.441 3665.15,122.969L3665.08,138.952L3664.86,139.283L3665.02,144.302L3672.76,140.15ZM3798.44,141.296C3797.76,141.348 3796.69,142.828 3797.18,143.335C3797.76,143.61 3798.65,143.59 3799.02,143.094C3799.27,142.609 3799.21,141.58 3798.44,141.296ZM3721.76,144.754L3729.31,144.797L3727.34,151.31L3719.98,151.17L3721.76,144.754ZM3793.47,144.725C3793.87,144.725 3794.2,145.049 3794.2,145.451C3794.2,145.853 3793.87,146.178 3793.47,146.178C3793.08,146.178 3792.75,145.853 3792.75,145.451C3792.75,145.049 3793.08,144.725 3793.47,144.725ZM3755.01,144.923L3755.99,153.381C3747.76,156.392 3738.88,161.499 3731.11,170.891C3729.78,170.804 3719.2,170.983 3719.2,170.983C3719.46,171.021 3729.01,152.907 3730.11,145.044L3755.01,144.923ZM3725.11,145.711L3721.65,148.103L3724.36,151.003L3727.94,148.563L3725.11,145.711ZM3797.16,145.746C3797.9,145.742 3798.89,145.833 3799.68,145.974C3800.95,146.223 3801.14,146.247 3800.71,147.306C3800.14,148.711 3798.84,151.245 3798.51,151.447C3797.34,152.175 3794.75,146.949 3795.63,146.045C3795.87,145.86 3796.36,145.75 3797.16,145.746ZM3793.85,147.354C3794.19,147.324 3794.63,147.978 3794.76,148.542C3794.92,149.226 3796.1,150.951 3796.85,151.778C3797.78,152.818 3797.73,152.963 3796.39,153.071C3794.8,153.199 3793.24,153.514 3792.35,153.841C3790.96,154.349 3790.77,154.237 3790.95,152.603C3791.21,150.142 3792.85,147.441 3793.85,147.354ZM3792.63,152.443C3792.81,152.919 3794.96,152.044 3795.08,151.473C3795.06,151.216 3794.22,149.732 3793.71,149.665C3792.84,149.801 3792.48,151.769 3792.63,152.443ZM3719.78,152.109L3726.92,152.177L3724.58,158.089L3717.53,158.069L3719.78,152.109ZM3722.98,152.901L3719.56,155.075L3722.22,157.666L3725.5,155.395L3722.98,152.901ZM3795.54,153.973C3796.14,153.967 3796.79,154.026 3796.92,154.249C3797.3,154.877 3795.76,158.385 3795.76,158.385L3793.24,159.387C3792.7,158.268 3791.78,157.105 3791.55,155.892C3791.46,155.362 3791.73,155.169 3792.31,154.84C3793.18,154.351 3794.53,153.983 3795.54,153.973ZM3788.8,154.26C3789.2,154.26 3789.53,154.584 3789.53,154.986C3789.53,155.388 3789.2,155.712 3788.8,155.712C3788.4,155.712 3788.08,155.388 3788.08,154.986C3788.08,154.584 3788.4,154.26 3788.8,154.26ZM3756.26,154.361C3756.26,154.361 3757.81,163.121 3757.89,162.156C3745.99,166.663 3739.03,173.313 3735.73,179.801L3713.4,179.785L3718.39,172.009L3731.61,171.942C3737.99,164.146 3745.88,157.928 3756.26,154.361L3756.26,154.361ZM3753.41,156.423L3752.3,159.962L3755.64,162.102L3756.9,158.302L3753.41,156.423ZM3789.98,156.491C3790.26,156.465 3790.54,156.944 3791.11,157.968C3791.54,158.725 3792.1,159.825 3792.1,159.825L3791.1,160.198C3790.29,157.431 3789.55,158.46 3789.47,160.902L3788.1,161.451C3788.1,161.451 3788.25,159.096 3789.03,157.721C3789.48,156.931 3789.73,156.515 3789.98,156.491ZM3717.2,158.912L3724.12,158.999L3721.23,165.027L3714.19,164.833L3717.2,158.912ZM3747.38,159.396L3746.83,163.87L3750.56,164.664L3751.07,160.413L3747.38,159.396ZM3720.14,159.449L3716.73,161.672L3718.97,164.64L3722.26,162.417L3720.14,159.449ZM3742.04,163.366L3741.33,167.487L3744.83,168.286L3745.62,164.141L3742.04,163.366ZM3666.07,163.608L3674.82,172.328L3675.3,233.167L3666.6,241.941L3666.07,163.608ZM3713.67,165.836C3713.64,165.884 3720.65,166.037 3720.65,166.037L3717.84,171.129L3715.44,171.021L3718.6,168.857L3716.58,166.257L3713.34,168.383L3715.14,171.012L3710.41,170.91L3713.67,165.836ZM3758.8,167.342L3761.17,175.236L3758.32,175.735L3756.17,168.308C3757.04,167.852 3757.92,167.627 3758.8,167.342ZM3736.35,167.835L3736.4,172.571L3740.21,172.895L3740.36,168.455L3736.35,167.835ZM3755.31,168.591L3757.48,176.091L3755.67,176.61L3753.07,169.491C3753.78,169.068 3754.53,168.758 3755.31,168.591ZM3752,170.139L3754.79,177.482C3750.93,179.055 3746.93,182.422 3743.92,185.783C3741.69,184.134 3740.38,183.961 3739,183.588C3742.8,176.472 3747.28,172.736 3752,170.139ZM3709.85,171.98L3717.18,172.203L3712.08,179.868L3703.78,179.858L3709.85,171.98ZM3731.69,172.266L3731.21,176.749L3735.14,179.083L3735.74,174.478L3731.69,172.266ZM3726.96,172.895L3724.16,175.863L3727.13,179.267L3729.85,175.713L3726.96,172.895ZM3720.71,173.05L3717.4,176.11L3720.03,179.572L3723.07,176.091L3720.71,173.05ZM3678.45,175.905L3678.77,235.34L3666.58,247.219L3666.49,244.022L3676.18,233.846C3676.19,213.742 3676.13,193.638 3676.06,173.535L3678.45,175.905ZM3710.88,173.985L3707.51,178.599L3711.5,178.609L3714.4,174.14L3710.88,173.985ZM3690.12,202.746C3688.79,207.548 3682.68,212.756 3682.57,212.668C3685.6,217.034 3685.49,223.259 3682.82,226.326C3682.83,226.257 3687.69,230.311 3688.37,232.417C3688.76,233.255 3688.91,234.276 3689.4,235.109C3689.53,235.329 3689.94,235.877 3689.94,235.877C3701.8,223.778 3696.15,209.6 3690.12,202.746L3690.12,202.746ZM3690.3,204.001C3701.82,218.374 3694.22,231.529 3690.2,235.199L3689.44,233.924C3698,223.919 3694.37,211.629 3689.38,205.81L3690.3,204.001ZM3689.05,206.798C3689.13,207.032 3689.58,207.709 3689.24,207.665L3688.67,207.549L3689.05,206.798ZM3688.96,208.401C3689.22,208.401 3689.42,208.479 3689.54,208.653C3689.77,209.045 3688.58,212.35 3687.85,211.58C3687.62,211.143 3687.36,210.765 3687.16,210.313C3686.92,209.774 3687.08,209.513 3687.63,208.977C3688,208.607 3688.55,208.401 3688.96,208.401L3688.96,208.401ZM3690.62,209.297C3691.2,209.342 3692.03,211.185 3692.11,212.502C3692.14,212.639 3690.14,212.192 3689.61,211.577C3689.67,211.038 3690.18,209.666 3690.62,209.297L3690.62,209.297ZM3686.11,210.801C3689.58,217.814 3689.37,223.292 3686.31,228.328L3683.92,226.27C3685.53,222.441 3686.32,218.352 3683.62,213.148L3686.11,210.801ZM3688.45,212.555C3688.69,212.534 3689.43,212.645 3690.09,212.855C3692.41,213.602 3692.5,215.129 3690.26,216.25C3689.34,216.714 3689.05,216.508 3688.52,214.172C3688.25,213.017 3688.05,212.59 3688.45,212.555L3688.45,212.555ZM3692.94,215.243C3693.38,215.241 3693.59,216.091 3693.64,217.557C3693.7,218.95 3693.4,219.059 3692.29,218.065C3691.08,216.991 3690.87,216.736 3691.98,215.853C3692.3,215.594 3692.73,215.243 3692.94,215.243L3692.94,215.243ZM3689.77,217.542C3689.99,217.523 3690.64,217.934 3691.26,218.414C3692.85,219.63 3692.5,220.464 3690.69,221.053C3689.44,221.46 3689.51,221.512 3689.54,219.339C3689.55,218.264 3689.49,217.567 3689.77,217.542ZM3710.78,219.521C3708.85,220.015 3708.03,221.753 3708.68,223.317C3708.97,224.028 3709.41,224.034 3708.89,224.469C3708.31,225.144 3708,226.706 3708.64,227.275C3709.4,227.71 3709.59,226.96 3708.8,228.429L3694.2,255.386L3781.8,255.222L3771.27,235.393C3771.29,235.365 3772.11,232.121 3770.43,231.73C3769.89,231.605 3769.58,231.1 3769.47,230.616C3769.6,229.236 3768.98,228.649 3768.46,227.937C3760.13,229.119 3752.9,228.53 3746.92,227.179C3738.32,225.232 3732.16,221.861 3728.16,220.802C3722.65,219.342 3715.99,218.708 3710.78,219.521L3710.78,219.521ZM3715.5,219.707C3722.29,219.666 3729.89,221.755 3735.2,224.069C3740.72,226.361 3746.57,228.068 3752.47,228.945C3757.34,229.562 3762.2,229.252 3766.87,228.88C3767.38,228.803 3767.9,228.873 3768.28,229.279C3769.25,230.359 3768.59,231.035 3766.17,231.259C3762.29,231.582 3757.48,231.444 3753.21,230.8C3746.45,230.018 3739.29,227.963 3733.11,225.386C3725.38,222.471 3718.28,221.495 3712.68,222.355C3709.6,222.828 3709.14,222.902 3709.16,222.07C3709.18,220.447 3710.52,219.705 3715.5,219.707L3715.5,219.707ZM3693.26,224.412C3692.97,225.1 3690.86,222.85 3690.88,222.215C3690.92,221.935 3692.63,220.813 3693.31,220.358C3693.64,220.105 3693.61,220.236 3693.62,220.533C3693.63,221.381 3693.56,223.572 3693.26,224.412ZM3690.01,222.752C3690.99,222.884 3692.59,225.529 3691.18,225.938C3689.93,226.301 3688.79,226.534 3688.64,225.692C3689.28,223.623 3689.53,222.805 3689.9,222.757C3689.94,222.752 3689.98,222.752 3690.01,222.752L3690.01,222.752ZM3746.66,231.784C3752.88,232.865 3761.04,233.512 3766.37,233.093C3769.43,232.784 3770.07,232.883 3770.05,234.165C3770.04,234.968 3770.13,234.948 3766.18,234.944C3762.9,235.164 3759.95,234.81 3756.78,234.645C3750.21,234.317 3744.24,233.185 3738.72,231.26C3732.6,229.663 3727.3,226.596 3721.31,225.963C3715.82,225.421 3710.88,226.399 3709.84,226.977C3709.5,226.972 3709.32,226.457 3709.34,225.982C3709.36,225.517 3709.53,225.144 3709.91,224.847C3725.66,220.854 3734.08,229.407 3746.66,231.784L3746.66,231.784ZM3692.07,226.495C3692.59,226.501 3692.43,227.281 3691.57,228.935C3690.84,230.342 3690.55,230.334 3690.14,228.892C3689.7,227.351 3689.74,227.181 3690.62,226.955C3691.13,226.831 3691.57,226.56 3692.07,226.495L3692.07,226.495ZM3688.4,227.28C3689.01,227.289 3689.88,230.089 3689.44,230.616C3689.08,231.032 3687.8,230.749 3687.43,230.258C3686.83,229.466 3687.6,227.268 3688.4,227.28ZM3715.92,228.036C3718.36,228.011 3720.79,228.274 3723.03,228.661C3721.74,229.14 3720.46,229.582 3719.12,230.359C3718.2,229.56 3717.15,228.783 3715.92,228.036ZM3719.09,231.435C3727.72,226.596 3731.36,233.276 3732.61,234.353C3740.15,232.674 3741.63,233.501 3745.84,238.074C3753.39,234.36 3757.06,237.517 3760.21,239.515C3763.91,236.038 3768.6,235.943 3771.04,237.687C3771.5,238.456 3772.14,239.432 3772.19,239.724C3772.23,239.95 3771.88,239.686 3771.03,239.074C3766.6,235.882 3759.23,239.858 3761.2,244.066C3761.73,245.2 3761.64,245.689 3760.85,246.144C3759.73,246.909 3758.35,245.639 3759.13,244.342C3760.44,242.178 3759.45,240.366 3756.27,238.692C3751.78,236.333 3744.45,238.976 3745.96,242.454C3746.93,243.565 3746.03,244.348 3744.76,244.309C3743.32,244.263 3742.83,243.293 3743.75,242.256C3744.91,240.931 3744.6,239.588 3743.26,238.058C3739.23,232.287 3731.08,234.575 3732.16,239.632C3732.63,240.889 3731.28,241.396 3729.89,240.837C3728.99,240.482 3729.13,239.098 3730.1,238.61C3731.22,238.496 3731.38,236.864 3731.25,235.816C3731.05,234.292 3728.82,232.789 3726.61,231.992C3725.01,231.416 3723.52,231.292 3722.35,231.4C3719.87,231.628 3718.49,233.319 3718.89,235.855C3719.13,237.35 3718.72,238.901 3716.97,238.078C3716.02,237.628 3716.26,236.541 3717.23,235.54C3720.66,232.171 3713.76,228.073 3709.59,230.896C3708.88,231.481 3708.36,231.582 3708.36,231.582C3710.98,225.037 3719.16,231.167 3719.09,231.435L3719.09,231.435ZM3730.45,230.553L3735.66,232.526C3734.46,232.765 3733.62,233.106 3732.76,233.445L3730.45,230.553ZM3716.85,232.681C3712.04,231.765 3711.78,237.169 3714.91,238.05C3710.6,244.007 3721.89,246.318 3719.82,238.969C3725.54,240.005 3724.5,233.459 3720.25,233.519C3721.24,231.08 3729.1,232.928 3728.76,234.74C3723.45,235.306 3725.57,240.17 3727.87,240.175C3722.32,245.461 3733.42,250.333 3733.13,242.366C3737.59,243.308 3738.11,237.358 3733.83,236.967C3735.39,234.747 3741,236.147 3742.55,238.686C3738.13,239.275 3738.41,243.182 3741.87,243.813C3737.48,249.429 3748.28,251.505 3747.15,244.976C3751.02,246.313 3753.14,241.123 3748.13,239.64C3753.27,236.564 3758.84,241.148 3758.24,241.242C3752.38,240.893 3753.55,246.797 3757.78,246.477C3755.09,252.607 3765.78,252.948 3763.07,246.59C3767.87,246.679 3767.45,241.077 3762.85,240.702C3765.75,238.576 3769.02,238.39 3771.12,240.379C3766.74,241.539 3768.56,246.662 3772.97,245.244C3773.38,249.531 3776.84,248.622 3776.92,248.492L3780.02,254.312L3695.97,254.447L3703.15,241.134C3707.39,241.352 3707.24,237.248 3707.05,237.147C3709.87,239.171 3712.9,234.14 3708.78,232.698C3712.15,229.151 3717.14,232.427 3716.85,232.681L3716.85,232.681ZM3689.48,232.31C3689.31,232.491 3689.26,232.599 3688.97,232.33C3688.24,231.487 3690.23,231.416 3689.48,232.31ZM3706.86,234.54C3707.23,234.845 3706.98,235.68 3706.68,235.965C3705.92,236.781 3705.66,236.716 3706.33,235.308C3706.53,234.881 3706.72,234.536 3706.86,234.54L3706.86,234.54ZM3743.69,234.918L3748.06,235.98L3745.98,237.157C3745.21,236.32 3744.48,235.597 3743.69,234.918ZM3757.34,236.687L3762.1,236.992C3761.47,237.422 3760.85,237.822 3760.08,238.605C3759.49,237.966 3758.35,237.327 3757.34,236.687ZM3773.18,241.561C3773.44,242.115 3774.49,244.043 3774.39,244.094C3772.85,244.363 3772.44,242.063 3773.18,241.561Z" style="fill:rgb(16,15,8);fill-rule:nonzero;"/>
            </g>
            <g id="path12536" transform="matrix(0.995535,0,0,0.996803,10.7429,-8.13976)">
                <path d="M3693.82,50.25C3688.63,41.685 3683.17,33.361 3676.35,26.25C3683.17,19.139 3688.63,10.815 3693.82,2.25C3699,10.815 3704.46,19.139 3711.28,26.25C3704.46,33.361 3699,41.685 3693.82,50.25Z" style="fill:rgb(212,0,0);fill-rule:nonzero;"/>
            </g>
            <g id="path12538" transform="matrix(0.995535,0,0,0.996803,10.7429,-8.13976)">
                <path d="M3651.38,39.528C3649.21,35.96 3646.94,32.491 3644.1,29.528C3646.94,26.566 3649.21,23.097 3651.38,19.528C3653.54,23.097 3655.81,26.566 3658.65,29.528C3655.81,32.491 3653.54,35.96 3651.38,39.528Z" style="fill:rgb(212,0,0);fill-rule:nonzero;"/>
            </g>
            <g id="path12540" transform="matrix(0.995535,0,0,0.996803,10.7429,-8.13976)">
                <path d="M3796.89,200.683C3791.7,209.248 3786.24,217.573 3779.43,224.683C3786.24,231.794 3791.7,240.119 3796.89,248.683C3802.07,240.119 3807.53,231.794 3814.35,224.683C3807.53,217.573 3802.07,209.248 3796.89,200.683Z" style="fill:rgb(212,0,0);fill-rule:nonzero;"/>
            </g>
            <g id="path12542" transform="matrix(0.995535,0,0,0.996803,10.7429,-8.13976)">
                <path d="M3839.33,211.393C3837.17,214.962 3834.89,218.43 3832.05,221.393C3834.89,224.356 3837.17,227.824 3839.33,231.393C3841.49,227.824 3843.76,224.356 3846.6,221.393C3843.76,218.43 3841.49,214.962 3839.33,211.393Z" style="fill:rgb(212,0,0);fill-rule:nonzero;"/>
            </g>
            <g id="path12544" transform="matrix(0.995535,0,0,0.996803,10.7429,-8.13976)">
                <path d="M3652.17,12.758L3655.49,12.758L3650.62,0.573L3646.89,5.72L3646.91,12.758L3649.53,12.758L3649.53,16.387L3640.31,16.387L3640.31,12.758L3643.35,12.758L3643.35,-13.447L3640.31,-13.435L3640.31,-16.607L3649.67,-16.607L3649.67,-13.327L3647.09,-13.327L3647.03,-0.556L3655.2,-13.435L3652.31,-13.435L3652.31,-16.607L3662.27,-16.607L3662.27,-13.435L3659.64,-13.435L3652.92,-2.91L3659.5,12.763L3662.42,12.763L3662.44,16.393L3652.2,16.393L3652.17,12.758L3652.17,12.758Z" style="fill:rgb(212,0,0);fill-rule:nonzero;"/>
            </g>
            <g id="path12546" transform="matrix(0.995535,0,0,0.996803,10.7429,-8.13976)">
                <path d="M3838.53,238.164L3835.21,238.164L3840.09,250.349L3843.81,245.201L3843.79,238.164L3841.17,238.164L3841.17,234.534L3850.39,234.534L3850.39,238.164L3847.35,238.164L3847.35,264.368L3850.39,264.356L3850.39,267.529L3841.03,267.529L3841.03,264.249L3843.62,264.249L3843.67,251.477L3835.51,264.356L3838.39,264.356L3838.39,267.529L3828.43,267.529L3828.43,264.356L3831.06,264.356L3837.78,253.831L3831.2,238.158L3828.28,238.158L3828.26,234.529L3838.5,234.529L3838.53,238.163L3838.53,238.164Z" style="fill:rgb(212,0,0);fill-rule:nonzero;"/>
            </g>
        </g>
    </g>
</svg>
