<?xml version="1.0" encoding="UTF-8" standalone="no"?>
<!DOCTYPE svg PUBLIC "-//W3C//DTD SVG 1.1//EN" "http://www.w3.org/Graphics/SVG/1.1/DTD/svg11.dtd">
<svg width="100%" height="100%" viewBox="0 0 228 316" version="1.1" xmlns="http://www.w3.org/2000/svg" xmlns:xlink="http://www.w3.org/1999/xlink" xml:space="preserve" style="fill-rule:evenodd;clip-rule:evenodd;">
    <g transform="matrix(1,0,0,1,-3362,-2147)">
        <g transform="matrix(1,0,0,1,0,2187.64)">
            <g id="rect7166-7" transform="matrix(0.995535,0,0,0.996803,10.5599,-8.13973)">
                <path d="M3592.74,-19.733C3592.74,-25.645 3587.93,-30.445 3582.01,-30.445L3380.24,-30.445C3374.32,-30.445 3369.51,-25.645 3369.51,-19.733L3369.51,270.654C3369.51,276.566 3374.32,281.366 3380.24,281.366L3582.01,281.366C3587.93,281.366 3592.74,276.566 3592.74,270.654L3592.74,-19.733Z" style="fill:white;stroke:black;stroke-width:1px;"/>
            </g>
            <g id="path6307-8" transform="matrix(0.995535,0,0,0.996803,10.5599,-8.13973)">
                <path d="M3509.96,-4.153C3509.96,-4.153 3535.31,32.585 3543.91,39.105C3544.55,39.403 3555.15,37.373 3555.15,37.373C3549.71,24.333 3546.22,10.842 3549.74,-4.284L3509.96,-4.153ZM3524.05,53.949C3506.57,58.895 3489.12,63.546 3470.18,55.484L3449.48,75.526C3449.31,76.043 3474.48,86.944 3474.91,85.668C3462.57,118.96 3481.8,125.005 3494.05,88.384C3510.09,86.279 3529.32,84.099 3545.22,73.035C3531.46,64.744 3524.03,53.85 3524.05,53.949L3524.05,53.949ZM3418.92,59.876C3412.29,55.8 3407.12,64.188 3411.97,68.376C3411.4,70.823 3411.2,74.464 3413.56,76.064C3415.73,77.439 3419.78,76.013 3420.37,76.028C3420.41,76.029 3420.47,80.432 3420.13,80.42C3419.51,80.399 3417.14,78.376 3415.68,77.937C3410.74,76.453 3403.79,75.721 3403.91,75.976C3404.12,76.405 3402.68,77.42 3408.2,80.888C3410.24,82.176 3416.71,80.725 3421.86,82.354C3424.99,83.346 3427.81,84.929 3429.52,84.107C3434.01,82.877 3435.76,76.993 3435.46,77.036C3435.31,76.859 3421.87,80.501 3423.14,81.14L3423.1,76.032C3428.39,76.617 3433.18,72.767 3427.97,66.168C3431.85,62.303 3426.42,53.094 3418.92,59.876L3418.92,59.876ZM3440.99,83.239C3427.96,96.408 3401.33,121.121 3401.33,121.121L3401.61,139.566L3427.63,162.91C3429.69,138.129 3443.74,115.002 3457.12,103.432C3458.35,99.913 3443.83,84.474 3440.99,83.239ZM3533.84,87.795C3531.88,103.032 3530.09,123.811 3504.3,146.908C3508.77,154.537 3514.46,162.301 3522.64,166.006C3523.23,167.317 3546.3,142.068 3560.5,130.13L3560.42,113.96L3533.84,87.795ZM3417.62,91.065C3417.57,91.397 3416.62,95.4 3416.37,95.294C3416.39,95.512 3419.01,94.318 3419.31,93.22C3419.57,92.258 3420.17,90.954 3420.21,90.77C3419.62,86.65 3418.5,89.576 3417.62,91.065L3417.62,91.065ZM3407.97,101.718C3407.03,103.986 3406.16,108.151 3406.48,110.862C3411.1,113.179 3412.35,103.543 3411.11,102.621C3410.36,102.307 3408.6,101.696 3407.97,101.718L3407.97,101.718ZM3550.54,145.9C3550.11,147.822 3550.2,148.392 3551.06,148.767C3552.55,149.424 3553.22,148.631 3554.42,145.501C3555.14,143.638 3555.77,140.835 3555.2,139.72C3552.37,137.74 3550.87,144.449 3550.54,145.9ZM3469.8,162.07C3450.85,165.079 3431.89,166.936 3416.85,178.703C3418.54,178.504 3436.78,195.672 3437.72,198.087C3465.59,184.439 3492.66,194.748 3492.66,194.748L3513.06,175.042C3513.85,174.669 3490.88,165.183 3486.55,163.584C3502.19,121.373 3477.42,127.717 3469.8,162.07L3469.8,162.07ZM3544.39,157.251C3543.15,158.252 3542.53,159.16 3541.56,160.459L3542.53,162.036L3545.03,159.28L3544.39,157.251ZM3526.54,175.011C3529.16,173.823 3538.49,169.293 3538.89,170.34L3538.69,174.876C3537.26,174.408 3528.06,175.933 3533.38,185.458C3530.03,193.025 3537.5,196.927 3542.73,191.924C3553.7,195.696 3552.24,184.694 3549.97,182.917C3551.76,180.139 3549.51,174.225 3548.4,174.205C3548.4,174.205 3557.97,176.368 3557.03,174.66C3556.61,173.88 3556.07,172.536 3553.94,171.112C3551.49,169.471 3547.19,170.067 3543.7,169.336C3539.97,168.554 3537.57,167.218 3534.44,167.03C3529.72,167.461 3525.3,171.621 3526.54,175.011L3526.54,175.011ZM3419.87,210.72L3406.68,214.254C3406.68,214.254 3410.95,224.178 3412.43,233.026C3414.23,243.85 3412.79,255.619 3412.79,255.619L3451.07,255.813L3419.87,210.72Z" style="fill:rgb(226,207,0);fill-rule:nonzero;"/>
            </g>
            <g id="path6309-7" transform="matrix(0.995535,0,0,0.996803,10.5599,-8.13973)">
                <path d="M3454.24,255.678C3437.45,231.649 3421.89,208.791 3401.22,183.599C3401.22,183.599 3401.24,173.862 3401.32,164.205L3464.79,255.441L3454.24,255.678ZM3488.24,216.881C3487.7,212.317 3486.77,206.855 3485.44,202.154L3497.03,191.201C3495.78,200.989 3493.86,208.498 3488.24,216.881L3488.24,216.881ZM3543.63,182.356C3546.22,185.809 3541.84,187.726 3540.19,186.19C3536.84,183.074 3541.75,179.855 3543.63,182.356ZM3428.72,160.609C3426.8,161.844 3432.18,130.496 3446.94,114.294C3455.92,140.081 3440.08,154.538 3428.72,160.609ZM3501.56,160.493L3491.75,157.84L3496.37,144.092C3496.37,144.092 3505.84,146.255 3505.06,149.109C3502.5,158.402 3501.56,160.493 3501.56,160.493L3501.56,160.493ZM3456.16,155.208C3458.82,150.832 3460.84,146.008 3462.69,141.071L3472.51,140.865L3467.58,154.49L3456.16,155.208ZM3515.26,135.917C3507.67,120.769 3516.62,96.793 3533.13,90.193C3532.53,105.555 3527.78,121.115 3515.26,135.917ZM3464.26,131.613C3464.59,126.232 3463.98,120.594 3463.23,115.597C3473.7,118.015 3485.11,119.633 3497.75,120.209L3498.95,134.712C3487.73,132.651 3476.31,131.178 3464.26,131.613ZM3489.33,109.514C3490.44,105.017 3491.88,100.615 3493.83,96.369L3505.79,95.81C3505.72,95.576 3500.68,103.788 3499.48,109.715C3497.57,109.513 3489.33,109.514 3489.33,109.514L3489.33,109.514ZM3466.65,105.929C3463.16,104.694 3458.39,104.349 3456.53,101.643L3460.16,90.109L3470.92,93.416L3466.65,105.929ZM3496.83,-4.126L3505.26,-4.207C3505.26,-4.207 3545.75,47.735 3560.93,67.948C3560.43,70.006 3561.1,87.442 3561.1,87.442C3539.6,57.114 3496.83,-4.126 3496.83,-4.126L3496.83,-4.126ZM3419.18,68.348C3416.91,65.911 3420.51,63.752 3422.01,65.929C3423.33,67.847 3420.37,69.633 3419.18,68.348ZM3464.61,59.831C3464.74,47.795 3473.26,33.51 3473.17,33.875C3473.07,33.851 3474.39,45.642 3476.02,49.352C3475.58,50.006 3465.02,60.586 3464.61,59.831L3464.61,59.831Z" style="fill:rgb(212,0,0);fill-rule:nonzero;"/>
            </g>
            <g id="path6311-0" transform="matrix(0.995535,0,0,0.996803,10.5599,-8.13973)">
                <path d="M3399.49,-6.117L3399.49,257.038L3562.76,257.038L3562.76,-6.117L3399.49,-6.117ZM3549.03,-4.118C3547.7,10.454 3547.47,21.722 3555.01,36.834C3553.64,38.266 3543.38,38.672 3540.15,40.368C3540.09,40.775 3540.98,41.479 3540.98,41.479C3544.36,39.905 3557.56,38.47 3557.56,38.47C3552.03,28.815 3547.48,10.124 3550.91,-4.118L3560.81,-4.118L3560.81,66.202C3560.81,66.202 3560.93,79.568 3561.21,87.199C3556.14,80.631 3549.61,71.634 3545.22,64.823C3539.89,57.311 3533.96,48.499 3527.87,40.231C3526.07,37.627 3523.51,34.247 3521.43,31.204C3518.14,26.505 3515.43,22.858 3512.03,17.799C3508.4,12.561 3504.92,7.807 3500.6,1.725C3496.94,-3.452 3496.77,-4.118 3496.77,-4.118L3549.03,-4.118ZM3486.49,-4.118C3492.66,6.636 3503.71,10.399 3506.49,11.124L3508.1,13.492C3495.08,10.932 3488.1,2.548 3484.82,-2.636C3484.57,-3.04 3484.6,-4.118 3484.6,-4.118L3486.49,-4.118ZM3480.38,-4.118C3478.67,-0.057 3476.28,2.397 3474.01,4.856L3474.09,2.245C3474.16,2.408 3477.48,-1.407 3478.62,-4.118L3480.38,-4.118ZM3483.36,-4.118C3483.36,-4.118 3483.41,-3.303 3483.21,-2.733C3481.9,1.501 3473.78,9.538 3474.01,8.334L3473.93,6.26C3473.89,6.349 3480.03,0.282 3481.64,-4.118L3483.36,-4.118ZM3477.46,-4.118C3476.82,-2.936 3474.46,0.755 3474.25,-0.234L3474.46,-4.118L3477.46,-4.118ZM3496.01,-4.118C3497.04,-2.633 3497.97,-1.426 3499.04,0.093C3499.24,0.382 3499.36,0.724 3499.31,0.855C3499.15,1.277 3498.66,0.963 3497.32,-0.231C3495.12,-2.191 3493.61,-4.118 3493.61,-4.118L3496.01,-4.118ZM3487.8,-4.118L3489.79,-4.118C3493.93,2.76 3501.34,6.546 3503.9,7.346C3504.59,8.103 3505.33,9.486 3505.61,9.792C3498.69,7.913 3490.94,1.929 3487.8,-4.118L3487.8,-4.118ZM3492.65,-4.118C3494.85,-0.935 3498.3,1.388 3500.24,2.911C3501.28,3.732 3502.66,5.408 3502.53,5.741C3498.21,4.37 3493.15,-0.557 3490.83,-4.118L3492.65,-4.118ZM3484.17,-2.057L3485.37,-0.138C3482.46,4.676 3478.81,9.013 3473.94,12.432L3473.91,9.918C3479.44,5.927 3481.83,1.917 3484.17,-2.057L3484.17,-2.057ZM3486.12,0.724C3489.59,5.413 3497.08,12.671 3509.08,14.84C3509.08,14.84 3509.76,15.457 3510.75,16.814C3512.02,18.535 3512.04,18.603 3512.2,21.424C3512.31,26.588 3513.99,33.595 3515.65,38.004C3515.44,39.1 3515.25,39.658 3513.19,42.449C3504.6,54.081 3486.3,65.083 3477.28,50.067C3474.27,45.256 3473.98,36.033 3473.79,30.282C3473.79,30.282 3473.85,29.877 3473.87,29.768C3474.09,28.724 3474.38,28.888 3476.01,29.335C3477.66,30.046 3479.38,29.472 3481.13,28.996C3483.12,28.191 3483.28,28.811 3481.36,30.605C3480.7,31.226 3479.89,32.174 3479.97,32.129C3480.06,32.083 3481.17,31.626 3481.67,31.25C3483.2,30.081 3483.56,30.529 3482.99,31.816C3480.59,37.274 3480.16,37.492 3483.55,39.008C3484.25,39.324 3484.73,39.677 3485.13,40.024C3487.45,42.21 3486.62,41.032 3485.97,40.029C3484.97,38.458 3485.87,37.628 3487.55,38.601C3488.68,39.25 3490.16,39.775 3490.96,39.526C3492.52,39.017 3492.99,37.305 3492.53,35.422C3492.16,34.38 3490.03,32.539 3490.52,34.465C3491.8,34.408 3492.91,36.228 3491.8,37.46C3490.96,38.595 3489.46,37.982 3487.16,36.46C3485.89,35.504 3484.35,35.993 3484.41,37.169C3484.45,37.958 3483.34,37.777 3482.61,36.771C3482.21,36.212 3482.48,34.604 3483.24,33.08C3488,23.485 3483.99,14.181 3475.74,16.804C3474.84,17.092 3474.02,17.326 3474.02,17.326L3473.97,13.656C3478.71,10.349 3483.73,5.076 3486.12,0.724L3486.12,0.724ZM3490.93,17.949C3489.69,19.454 3490.13,20.793 3492.86,19.444C3495.08,18.346 3495.39,18.217 3497.81,18.129C3501.25,18.004 3504.34,19.101 3508.16,21.449C3510.68,23.005 3511.05,23.123 3510.37,22.148C3508.32,18.226 3496.24,12.273 3490.93,17.949ZM3479.26,18.398C3481.64,19.001 3483.93,20.581 3483.54,21.235C3483.39,21.471 3483.25,21.515 3482.95,21.357C3481.2,20.492 3478.42,19.079 3474.4,20.803C3473.96,20.993 3473.71,20.699 3473.71,20.163C3473.71,19.122 3475.46,18.291 3477.31,18.224C3477.97,18.224 3478.68,18.257 3479.26,18.398L3479.26,18.398ZM3493.12,21.44C3491.7,22.181 3491.21,22.576 3490.61,22.245C3489.16,21.454 3489.47,22.074 3490.36,23.667C3490.99,24.79 3490.99,25.021 3490.89,25.71C3490.79,26.458 3490.81,26.487 3491.53,27.287C3492.89,29.075 3494.24,30.8 3496.27,32.157C3496.91,32.58 3497.75,33.061 3497.82,33.063C3498.02,33.069 3497.94,32.907 3497.58,32.553C3494.98,30.044 3492.93,27.794 3495.58,28.75C3498.66,29.758 3501.6,28.502 3504,27.681C3504.99,27.378 3506.02,27.122 3506.27,27.122C3508.49,27.125 3509.02,26.197 3507.6,24.783C3502.79,19.378 3498.8,18.106 3493.12,21.44L3493.12,21.44ZM3504.53,22.453C3505.52,23.374 3506.05,23.874 3505.95,24.113C3505.84,24.37 3505.08,23.935 3503.79,23.249C3501.21,21.87 3498.29,21.546 3494.63,22.604C3491.8,23.425 3492.63,22.122 3495.8,20.895C3498.33,19.725 3501.82,20.075 3504.53,22.453ZM3478.03,20.592C3480.2,20.557 3482.46,21.27 3483.97,22.575C3485.02,23.485 3484.25,23.697 3482.54,22.987C3479.95,21.914 3477.77,21.743 3475.64,22.74C3474.98,23.053 3474.21,23.425 3474,23.405C3473.64,23.164 3473.49,22.464 3473.8,21.968C3474.65,21.128 3476.35,20.619 3478.03,20.592L3478.03,20.592ZM3513.76,21.337C3513.91,21.344 3514.16,21.598 3514.51,22.099C3515.16,23.012 3515.18,23.462 3514.65,25.06C3513.99,27.01 3513.73,26.694 3513.56,23.973C3513.45,22.207 3513.45,21.324 3513.76,21.337L3513.76,21.337ZM3515.91,24.278C3516.15,24.243 3516.44,24.68 3516.9,25.584C3517.22,26.214 3517.15,26.403 3516.14,29.355C3515.72,30.59 3515.33,31.574 3515.32,31.583C3515.01,31.827 3515.05,31.805 3514.91,31.636C3514.2,30.717 3514.25,28.925 3514.87,26.778C3515.33,25.15 3515.59,24.323 3515.91,24.278L3515.91,24.278ZM3496.38,24.502C3496.45,24.495 3496.93,24.6 3496.93,24.6C3496.88,28.972 3500.26,28.092 3500.7,24.987C3500.7,24.987 3501.54,24.901 3501.66,25.108C3502.06,25.758 3501.14,27.629 3499.75,28.241C3498.73,28.694 3497.36,28.584 3496.53,27.824C3496.3,27.397 3495.61,25.772 3495.74,25.098C3495.9,24.705 3496.14,24.522 3496.38,24.502ZM3494.37,25.012C3494.4,25.011 3494.43,25.011 3494.47,25.012C3494.8,25.029 3495.04,25.119 3495.17,25.521L3495.89,27.742C3495.36,28.379 3493.34,27.088 3493.35,26.119C3493.35,25.45 3493.85,25.038 3494.37,25.012L3494.37,25.012ZM3480.65,25.008C3481.16,24.958 3481.34,25.015 3481.4,25.492C3481.57,26.935 3480.13,28.504 3478.27,28.589C3476.46,28.791 3475.48,27.386 3475.54,26.016C3475.54,24.974 3476.44,24.844 3476.54,25.667C3476.82,28.045 3478.85,28.181 3479.78,26.869C3480.12,26.354 3480.05,25.087 3480.65,25.008L3480.65,25.008ZM3502.84,25.492C3502.99,25.486 3503.18,25.54 3503.46,25.637C3505.33,26.234 3505.38,26.522 3503.78,27.098C3501.88,27.785 3501.76,27.875 3502.2,26.545C3502.45,25.803 3502.53,25.505 3502.84,25.492L3502.84,25.492ZM3483.08,25.701C3484.47,25.787 3484.58,26.959 3483.37,27.35C3481.56,28.151 3480.95,28.099 3481.65,26.918C3482.03,26.081 3482.37,25.717 3483.08,25.701ZM3474.44,26.123C3474.6,26.121 3474.79,26.185 3475,26.336C3475.2,26.965 3475.56,27.448 3475.83,28.098C3475.55,28.38 3474.87,28.376 3474.44,28.033C3473.58,27.345 3473.72,26.129 3474.44,26.123L3474.44,26.123ZM3517.89,27.477C3518.42,27.48 3518.97,28.332 3519.15,28.967C3517.27,31.382 3517.57,35.89 3517.13,37.251C3516.75,38.358 3516.63,37.402 3515.59,34.534C3515.17,33.376 3517.29,27.619 3517.78,27.491C3517.81,27.482 3517.85,27.476 3517.89,27.477L3517.89,27.477ZM3519.8,29.952C3520.22,30.191 3520.79,30.739 3520.89,31.602C3520.95,32.103 3520.7,32.768 3520.54,33.427C3520.16,34.992 3519.65,37.95 3519.46,40.683C3519.39,41.846 3519.39,42.892 3519.34,42.993C3518.77,44.101 3517.59,41.119 3517.69,38.746C3518.06,36.851 3518.26,30.212 3519.8,29.952L3519.8,29.952ZM3522.45,33.359C3522.72,33.728 3522.88,34.01 3522.97,34.329C3523.11,34.882 3522.99,35.542 3522.66,36.95C3521.8,40.683 3521.93,44.706 3522.49,48.836C3522.61,49.705 3522.01,49.27 3521.1,47.773C3520.59,46.944 3520.27,45.806 3520.11,44.463C3519.8,41.528 3520.41,37.548 3520.93,34.408C3521.16,33.018 3521.32,31.794 3522.45,33.359ZM3523.88,35.63L3525.39,37.45C3525.39,37.45 3524.74,41.634 3524.75,43.866C3524.64,44.702 3525.49,53.794 3525.77,54.529C3524.85,53.49 3524.41,52.879 3523.4,51.574C3523.28,51.593 3522.41,42.616 3523.01,39.183C3523.38,37.106 3523.88,35.63 3523.88,35.63ZM3526.24,39.246C3526.49,39.237 3526.82,39.522 3527.22,40.091C3527.58,40.603 3527.76,41.024 3527.78,41.663C3527.8,42.128 3527.57,42.488 3527.56,43.318C3527.52,48.263 3528.18,52.931 3529.02,57.431C3529.32,59.041 3528.74,58.384 3527.79,57.365C3526.92,56.433 3526.9,56.078 3526.43,54.752C3526.34,54.488 3525.41,45.368 3525.42,44.678C3525.45,41.844 3525.53,40.266 3525.86,39.586C3525.97,39.364 3526.09,39.252 3526.24,39.246L3526.24,39.246ZM3520.77,49.183C3520.77,49.183 3519.02,50.088 3518.56,49.77C3517.82,47.747 3515.15,42.329 3515.1,41.37C3515.15,41.055 3516.2,39.63 3516.2,39.63C3517.67,42.839 3519,46.122 3520.77,49.183ZM3487.78,42.677C3487.25,43.299 3486.62,43.04 3485.35,42.479C3484.69,42.278 3484.8,42.547 3483.72,43.109C3482.88,43.546 3482.58,43.557 3482.03,43.552C3481.3,43.546 3481.03,43.289 3481.03,43.804C3481.03,44.09 3480.99,45.379 3480.82,46.046C3480.58,46.953 3480.38,47.353 3480.5,47.511C3480.88,47.852 3481.19,47.644 3481.97,46.884C3483.28,45.624 3484.15,45.985 3485.6,46.454C3487.25,46.987 3487.59,47.183 3489.1,46.655C3491.24,45.906 3492.52,45.905 3493.37,46.448C3494.84,47.384 3495.28,47.329 3494.68,44.77C3494.48,43.945 3494.47,42.666 3494.35,42.444C3494.21,42.193 3493.84,42.909 3493.45,43.173C3492.71,43.676 3492.32,43.666 3490.64,43.114C3489.64,42.787 3488.53,41.717 3487.78,42.677L3487.78,42.677ZM3514.82,43.011C3515.47,44.548 3518.06,49.684 3517.98,50.258C3517.48,50.712 3516.81,51.043 3516.4,50.637C3515.11,48.268 3514.72,46.992 3513.67,44.334C3513.36,43.698 3514.29,42.079 3514.82,43.011ZM3528.73,42.822C3528.91,42.797 3529.3,43.179 3529.58,43.561C3530.47,44.75 3530.52,44.897 3530.55,46.172C3530.65,50.793 3531.23,56.232 3532.53,60.426C3532.79,61.252 3533.27,62.255 3533.22,62.392C3532.78,63.028 3530.76,61.324 3530.15,58.732C3529.31,55.441 3528.82,52.007 3528.55,49.772C3528.22,45.841 3528.22,43.027 3528.73,42.822L3528.73,42.822ZM3513.19,45.371C3513.94,46.813 3514.88,49.302 3515.51,50.795C3515.8,51.443 3514.33,51.954 3513.99,51.734C3513.4,51.293 3513.12,50.051 3512.73,49.307C3511.5,46.609 3511.28,46.552 3511.96,45.711C3512.38,45.127 3512.88,44.411 3513.19,45.371L3513.19,45.371ZM3531.66,47.026C3531.76,47.026 3531.9,47.132 3532.08,47.361C3532.86,48.283 3533.39,48.988 3533.59,49.671C3533.74,50.167 3533.62,50.539 3533.67,51.438C3533.81,53.792 3534.43,57.005 3536.18,63.581C3536.35,64.222 3536.58,64.981 3536.55,65.187C3536.38,66.395 3534.61,64.438 3534.1,62.416C3533.5,60.121 3532.41,57.191 3532.1,54.481C3531.43,50.179 3531.07,47.026 3531.65,47.026L3531.66,47.026ZM3511.64,48.765C3513.11,52.201 3513.22,52.195 3512.3,52.467C3511.32,52.754 3511.26,52.66 3510.11,50.32C3509.28,48.613 3509.11,48.399 3509.82,47.783C3510.89,46.512 3511.17,47.724 3511.64,48.765L3511.64,48.765ZM3491.18,47.945C3491.01,47.948 3490.52,48.322 3490.03,48.519C3488.81,49 3486.66,49.033 3485.35,48.637C3483.02,47.7 3483.67,48.916 3485.73,49.657C3487.33,50.195 3490.49,49.778 3490.99,48.779C3491.29,48.46 3491.4,47.941 3491.18,47.945L3491.18,47.945ZM3508.88,49.752C3510.19,51.784 3510.58,52.595 3510.36,52.753C3510.15,52.963 3509.11,53.356 3508.69,53.146C3508.15,52.883 3507.68,51.628 3507.45,50.645C3507.61,50.164 3508.47,49.303 3508.88,49.752L3508.88,49.752ZM3476.03,50.608C3476.62,50.61 3478.14,52.664 3477.83,53.034C3477.75,53.225 3477.18,53.044 3475.84,52.673C3475.39,52.508 3474.39,52.376 3474.71,51.728C3474.87,51.434 3475.8,50.607 3476.03,50.608ZM3507.47,53.423C3507.34,53.774 3506.35,53.856 3505.93,53.83C3505.57,53.077 3505.48,52.718 3505.38,52.219C3505.51,51.92 3506.19,51.145 3506.52,51.297C3506.72,51.476 3507.37,53.052 3507.47,53.423L3507.47,53.423ZM3534.75,51.443C3534.96,51.45 3535.32,51.817 3535.86,52.588C3536.88,54.044 3536.74,53.938 3537.47,57.417C3538.3,61.362 3539.29,64.172 3540.29,68.201C3540.3,68.87 3540.03,68.692 3539.29,68.24C3538.08,67.501 3537.68,66.68 3537.3,64.542C3536.65,61.009 3535.28,57.741 3534.75,53.568C3534.47,52.188 3534.45,51.432 3534.75,51.443L3534.75,51.443ZM3504.26,52.852C3504.97,52.828 3504.88,53.931 3504.67,54.11C3504.15,54.566 3502.71,54.43 3502.46,54.456C3501.91,53.587 3503.79,52.881 3504.26,52.852ZM3538.38,56.607C3538.59,56.636 3539.16,57.434 3540.21,58.922C3541.23,60.351 3541.01,60.117 3541.61,62.469C3542.47,65.72 3543.89,68.064 3544.73,71.055C3544.73,71.397 3544.31,71.353 3543.92,71.191C3543.15,70.868 3542.46,70.323 3541.81,69.788C3541.37,69.306 3541.37,68.694 3540.05,64.158C3539.58,62.522 3539.46,62.097 3538.86,59.611C3538.37,57.532 3538.15,56.574 3538.38,56.607L3538.38,56.607ZM3428.41,66.317C3431.86,72.679 3430.58,75.501 3423.16,76.382C3422.62,76.307 3423.13,79.642 3423.12,81.132C3426.83,79.001 3431.33,78.503 3435.47,77.164C3434.34,80.785 3432.36,84.888 3426.37,84.256C3420.1,79.401 3412.72,82.318 3407.71,80.347C3404.99,79.33 3403.95,76.299 3403.92,75.779C3407.18,76.107 3410.87,76.808 3414.03,76.579C3410.58,73.91 3411.59,70.217 3412.08,68.528C3408.03,63.417 3411.41,57.667 3417.28,59.004C3417.89,59.142 3419.09,59.734 3419.09,59.734C3424.75,54.649 3431.32,59.426 3428.41,66.317L3428.41,66.317ZM3543.04,63.222C3543.27,63.199 3543.79,63.813 3544.83,65.27C3547.91,69.59 3550.58,73.61 3550.54,73.836C3550.4,74.58 3547.19,73.276 3546.38,72.21C3545.46,70.996 3542.86,64.744 3542.87,63.751C3542.87,63.419 3542.91,63.233 3543.04,63.222L3543.04,63.222ZM3417.57,81.728C3419.17,81.964 3419.62,82.099 3419.6,82.727C3419.74,83.261 3415.71,83.332 3415.17,82.936C3414.73,82.62 3415.29,81.928 3415.72,81.762C3416.35,81.573 3416.97,81.639 3417.57,81.728L3417.57,81.728ZM3528.55,82.3C3506.06,92.95 3496.86,121.277 3508.21,142.984L3506.65,144.116C3495.51,121.165 3503.8,96.571 3521.88,84.15C3522.61,83.629 3524.23,83.226 3524.99,82.725C3524.99,82.725 3517.61,84.413 3515.11,85.392C3514.61,85.375 3513.12,85.901 3511.52,87.639C3510.12,88.937 3505.75,94.977 3505.89,95.187L3494.28,95.656L3494.29,96.086L3505.68,95.822C3493.95,115.194 3496.83,133.626 3504.08,146.526L3504.26,146.646C3504.68,146.93 3505.79,146.117 3508.09,143.933C3509.03,143.034 3510.23,141.916 3510.74,141.448C3512.16,140.143 3514.19,137.891 3515.58,136.265C3507.68,120.14 3515.47,98.903 3533.94,89.332C3533.97,88.823 3533.74,87.267 3533.74,87.267C3533.74,87.267 3533.04,86.639 3532.63,86.703C3512.06,95.788 3503.81,118.349 3512.18,138.865L3510.8,140.371C3500.29,119.125 3511.57,92.57 3531.24,85.047C3531.23,84.567 3530.81,83.954 3530.28,84.323C3509.04,94.208 3499.78,119.451 3510.19,140.967L3508.88,142.128C3497.04,118.57 3509.51,92.17 3529.07,83.15C3529.64,83.016 3528.55,82.3 3528.55,82.3L3528.55,82.3ZM3414.07,82.52C3414.07,82.52 3413.92,83.775 3414.36,84.203C3414.57,85.098 3414.24,85.001 3413.48,84.819C3411.61,84.372 3413.07,85.439 3414.6,86.299C3416.11,87.147 3415.91,87.119 3414.59,87.954C3413.71,88.516 3413.8,88.727 3413.92,89.153C3414.09,89.786 3414.21,89.365 3414.58,89.027C3415.35,88.318 3415.96,88.141 3416.65,88.144C3417.67,88.148 3417.78,88.972 3417.6,89.614C3417.19,90.963 3415.8,90.891 3414.67,90.556C3412.81,90.007 3409.78,86.777 3409.82,84.875C3409.69,83.171 3412.02,82.442 3414.07,82.52L3414.07,82.52ZM3422.42,82.936C3423.14,83.201 3424.05,83.556 3425.05,83.975C3426.43,84.413 3427.82,85.127 3428.72,85.729C3431.46,87.56 3431.29,91.223 3431.1,91.587L3416.94,105.039C3416.94,105.039 3416.14,104.647 3415.38,104.262C3413,103.044 3412.43,102.403 3413.75,101.728C3414.39,101.401 3414.6,100.698 3414.69,100.01C3414.82,99.089 3414.77,99.246 3415.32,98.826C3416.27,98.095 3416.32,97.794 3416.32,96.579C3416.32,95.775 3416.41,95.405 3416.7,94.9C3416.93,94.499 3417.18,93.662 3417.34,92.701C3417.37,92.543 3417.38,92.149 3417.41,92.01C3417.57,91.258 3417.81,91.037 3417.97,90.866C3418.13,90.696 3418.38,90.117 3418.56,89.614C3418.96,88.494 3418.88,88.66 3419.52,88.784C3420.45,88.965 3420.31,89.507 3420.21,90.367C3420.16,90.784 3419.89,91.077 3419.98,90.983C3420.11,90.857 3420.68,90.588 3420.79,90.561C3421.09,90.493 3421.39,90.595 3421.46,91.061C3421.5,91.32 3421.39,91.798 3421.4,92.167C3421.42,93.124 3421.46,94.271 3421.67,95.026C3422.72,98.663 3422.52,98.159 3422.16,95.133C3422.07,94.408 3421.97,93.344 3422.08,92.458C3422.15,91.834 3422.33,91.061 3422.57,90.638C3423.19,89.553 3423.22,89.338 3421.88,88.804C3421.38,88.605 3420.52,88.257 3420.35,87.911C3420.13,87.486 3419.49,86.909 3418.65,86.712C3416.62,86.232 3415.43,84.262 3415.73,83.97C3415.92,83.778 3416.74,84.029 3417.26,84.047C3419.12,84.114 3419.51,84.018 3420.33,83.31C3420.77,82.933 3420.97,82.597 3421.32,82.573C3421.68,82.565 3422.15,82.84 3422.43,82.936L3422.42,82.936ZM3518.8,85.115C3499.78,100.542 3496.44,125.497 3505.93,144.754L3504.29,146.047C3492.37,123.459 3500.38,99.093 3515.03,85.767L3518.8,85.115ZM3408.98,86.955C3409.32,86.923 3409.69,87.417 3411.02,88.847C3411.92,89.811 3412.86,90.648 3413.35,90.93C3414.47,91.466 3414.22,91.243 3413.29,92.128C3412.34,93.223 3412.87,94.123 3411.73,93.575C3408.77,92.182 3406.69,88.079 3408.62,87.091C3408.76,87.016 3408.87,86.965 3408.98,86.955L3408.98,86.955ZM3407.51,91.269C3407.59,91.264 3407.66,91.275 3407.74,91.294C3408.11,91.383 3408.55,92.071 3409.02,92.551C3410.34,93.878 3410.95,94.467 3412,94.934C3413.03,95.392 3413.06,95.503 3412.34,96.312C3412.07,96.606 3411.91,96.96 3411.85,97.156C3411.79,97.353 3411.77,97.604 3411.55,97.647C3410.4,97.868 3406.57,95.54 3406.42,93.934C3406.54,92.431 3406.92,91.315 3407.51,91.269L3407.51,91.269ZM3415.63,91.716C3416.29,91.699 3416.68,92.292 3416.68,93.254C3416.68,93.921 3416.3,94.192 3415.54,94.477C3413.91,95.088 3412.91,93.921 3414.05,92.633C3414.53,92.092 3415.17,91.728 3415.63,91.716ZM3414.63,95.632C3415.86,95.637 3416.22,96.674 3415.32,97.569C3414.47,98.409 3412.77,98.414 3412.77,97.491C3412.77,96.768 3413.85,95.629 3414.63,95.632L3414.63,95.632ZM3407.03,96.873C3407.86,97.119 3409.88,98.578 3410.77,98.75C3410.81,99.242 3410.22,99.376 3411.06,100.301C3411.44,100.722 3411.47,101.008 3411.14,101.185C3410.13,101.726 3406.62,100.015 3406.38,98.253C3406.27,97.393 3406.56,96.904 3407.03,96.873L3407.03,96.873ZM3411.61,98.981C3412.82,99.032 3414.18,99.068 3414.04,99.646C3413.93,100.066 3413.5,101.174 3412.95,100.966C3412.68,100.866 3412.42,100.597 3412.23,100.418C3411.59,99.798 3411.42,98.973 3411.61,98.981L3411.61,98.981ZM3457.28,103.994C3460.8,107.187 3473.59,140.544 3446.95,164.847L3441.3,166.544C3466.87,146.413 3462.62,117.834 3455.71,105.504C3455.71,105.142 3455.61,105.184 3454.98,105.761C3454.42,106.267 3454.36,106.377 3454.59,106.47C3462.38,118.501 3465.3,152.482 3434.57,168.88C3434.06,169.416 3435.1,169.334 3435.1,169.334C3435.15,168.893 3448.93,165.536 3447.96,165.451C3460.81,154.069 3471.99,126.923 3458.07,103.262C3457.73,103.041 3457.28,103.994 3457.28,103.994ZM3452.85,107.771L3452.67,108.523C3463.82,130.465 3453.18,157.348 3432.45,167.297C3432.79,167.548 3433.17,167.721 3433.55,167.9C3457.06,155.209 3463.84,128.35 3453.58,107.546L3452.85,107.771ZM3450.98,109.327L3450.85,110.123C3460.08,128.798 3452.76,154.712 3430.73,165.225C3430.52,166.355 3430.73,166.025 3431.76,165.971C3457.25,152.269 3459.64,126.211 3451.67,109.289L3450.98,109.327ZM3449.4,111.566C3448.68,112.52 3447.36,113.014 3446.92,114.242C3454.33,133.86 3444.76,152.745 3428.56,160.706C3428.55,161.693 3427.84,164.136 3429.55,163.745C3449.57,154.656 3458.28,130.496 3449.53,111.478C3449.53,111.478 3449.41,111.562 3449.4,111.566L3449.4,111.566ZM3549.94,149.498C3550.67,149.549 3551.33,149.773 3552.02,149.863C3554.5,150.186 3556.12,152.003 3555.01,153.108C3554.64,153.471 3554.13,153.262 3552.52,152.47C3551.77,152.106 3551.66,151.765 3551.5,150.945C3551.32,149.961 3551.12,149.861 3550.87,150.625C3550.62,151.396 3550.35,151.874 3549.5,151.679C3547.12,151.124 3548.02,149.479 3549.94,149.498L3549.94,149.498ZM3523.34,166.2C3517.37,162.804 3510,156.68 3505.78,149.721C3503.69,153.663 3501.23,160.835 3501.23,160.835L3491.86,158.211L3491.75,158.407L3501.01,161.082L3500.11,164.18C3500.01,164.515 3498.57,168.041 3498.57,168.041L3513.04,174.809C3512.14,176.215 3511.17,177.124 3509.92,178.435C3509.22,179.175 3509.2,180.133 3509.2,180.133L3529.26,160.954C3529.26,160.954 3531.85,164.801 3532.81,165.673C3533.71,166.491 3533.99,166.689 3532.94,166.933C3528.22,167.626 3524.57,171.203 3525.84,176.001C3526.05,176.535 3526.46,176.338 3527.36,175.775C3530.49,172.934 3538.13,170.305 3538.39,170.972L3538.43,174.028C3530.19,174.147 3531.04,180.215 3531.64,183.47C3531.64,183.54 3529.26,185.626 3529.26,185.626C3530.1,186.069 3530.92,186.527 3531.7,187.072C3530.98,191.12 3534.42,196.987 3541.18,193.984C3541.76,194.585 3542.31,195.189 3542.96,195.943C3543.65,195.14 3544.45,193.249 3544.45,193.249C3547.8,194.772 3554.77,191.363 3551.21,183.556L3553.17,181.678L3551.28,180.486C3551.24,178.501 3550.93,176.727 3549.75,174.998C3549.75,174.998 3552.91,175.808 3555.26,175.944L3555.26,175.944C3556.71,176.076 3557.93,176.113 3557.81,175.235C3557.77,174.977 3557.56,173.713 3557.41,173.299C3556.72,171.254 3553.09,169.753 3549.56,169.554C3548.99,169.522 3548.37,169.54 3548.25,169.39C3548.02,169.11 3548.43,168.712 3548.81,168.778C3550.74,169.114 3552.59,167.684 3552.93,165.866C3552.99,165.547 3553.39,164.963 3553.95,164.342C3554.96,163.24 3555.04,163.269 3555.02,161.677C3555.01,160.571 3555.2,160.326 3555.71,159.585C3556.36,158.529 3556.67,157.151 3556.34,155.725C3556.23,155.273 3555.81,154.634 3556.17,153.508C3556.76,151.677 3555.46,150.002 3553.76,149.047C3553.62,149.009 3553.66,149.142 3553.55,149.278C3552,149.76 3550.12,148.65 3550.12,148.65C3549.73,148.458 3551.44,138.523 3554.97,139.411C3555.56,139.768 3555.81,141.495 3555.76,141.525C3555.92,141.521 3556.01,140.509 3555.78,139.833C3555.54,139.125 3554.99,138.45 3553.94,138.65C3553.12,138.805 3552.18,139.892 3551.75,140.438C3550.1,142.547 3550.08,143.893 3549.53,146.136C3549.27,147.197 3549.24,147.135 3547.77,145.989C3546.72,145.165 3546.21,144.902 3546.58,144.42C3546.74,144.203 3547.43,143.517 3547.43,143.517L3560.81,131.177L3560.81,255.166L3487.88,255.166L3488.38,238.87C3489.74,227.704 3487.35,204.256 3485.55,202.05C3486.94,200.481 3491.26,196.697 3491.03,196.526L3490.45,196.186L3488.17,198.294L3482.52,196.58C3480.11,194.913 3477.65,193.371 3475.1,192.715C3470.94,191.643 3462.92,195.057 3462.91,195.092C3450.1,196.043 3439.85,201.258 3439.99,201.218C3439.43,200.705 3438.69,199.065 3438.67,199.075C3432.07,189.862 3425.58,184.702 3416.71,178.405L3427.94,172.185L3401.32,144.302L3401.09,121.661L3439.65,84.703C3439.88,84.065 3451.95,93.253 3456.45,100.73C3457.31,97.075 3458.92,93.756 3460.26,90.167C3460.4,89.839 3467.93,92.959 3470.16,93.091C3470.5,93.111 3470.77,92.758 3470.77,92.758L3460.83,89.517L3462.86,83.68C3462.86,83.68 3463.57,82.094 3462.77,81.831C3458.24,80.361 3453.98,77.771 3449.65,75.565C3449.65,75.565 3451.67,73.309 3451.7,73.209C3451.73,73.115 3452.55,71.904 3452.36,71.487C3450.15,73.631 3432.16,90.358 3432.16,90.358C3431.65,87.487 3430.85,86.484 3429.1,84.712C3430.05,84.666 3431.54,83.722 3432.4,83.093C3435.04,81.167 3436.47,77.731 3436.13,75.723C3433.6,76.53 3431.31,77.477 3428.14,78.054C3426.36,78.378 3424.67,79.185 3423.65,80.05L3423.49,76.847C3423.5,76.883 3427.75,77.595 3429.73,74.73C3431.43,72.26 3430.73,69.434 3430.34,67.993C3430.38,67.673 3430.29,67.708 3431.02,67.032C3431.56,66.532 3432.41,65.886 3432.41,65.886C3432.44,65.704 3430.21,64.874 3429.83,64.115C3430.42,58.178 3425.69,55.887 3421.69,56.941C3420.94,57.168 3420.58,57.308 3419.69,56.315C3419.56,56.166 3418.49,55.035 3418.49,55.035C3418.49,55.035 3418.02,56.125 3417.78,56.603C3416.99,58.155 3416.78,57.688 3415.08,57.771C3410.8,57.982 3408.88,61.454 3409.87,65.716C3410.1,66.717 3409.99,66.563 3409.34,67.828C3409,68.474 3408.46,69.298 3408.46,69.298C3408.46,69.298 3409.24,69.735 3409.77,69.973C3410.56,70.325 3410.6,70.736 3410.6,71.521C3410.71,73.251 3411.09,74.409 3412.08,75.894C3408.72,75.972 3406.14,75.657 3403.1,74.644C3403.56,79.334 3407.01,81.081 3411.24,81.768C3411.24,81.768 3410.79,82.183 3410.33,82.368C3409.34,82.655 3408.72,83.525 3408.73,84.305C3408.59,85.049 3408.11,85.796 3407.66,86.194C3407.01,86.765 3406.46,87.569 3406.72,89.124C3406.66,90.251 3406.39,90.577 3406.06,91.007C3405.39,91.871 3405.17,92.73 3405.33,93.866C3405.41,94.394 3405.57,95.526 3405.46,96.695C3405.28,98.645 3405.98,99.376 3406.86,100.748C3407.44,101.637 3407.32,101.661 3407.18,102.306C3406.87,103.855 3406.53,104.651 3406.19,105.829C3405.42,108.466 3405.39,110.464 3406.02,110.979C3406.97,111.754 3408.04,111.521 3408.54,111.366C3412.28,110.21 3411.63,106.531 3411.83,104.062C3411.93,103.427 3412.15,103.122 3412.36,103.152C3413.42,104.392 3414.53,105.109 3415.97,105.89C3411,110.965 3407.81,114.07 3401.53,119.606L3401.53,-4.118L3473.36,-4.118C3473.36,-4.118 3473.43,-3.083 3473.26,1.39C3472.95,10.479 3472.57,20.001 3473.17,29.268C3473.27,32.474 3473.2,35.641 3473.66,38.814C3474.11,41.905 3474.31,45.239 3475.75,48.118C3476.33,49.679 3476.34,49.559 3474.14,51.603C3473.06,52.605 3472.14,53.673 3472.18,53.861C3472.19,53.924 3472.13,54.159 3472.29,54.026C3472.41,53.937 3473.2,53.144 3473.29,53.039C3473.89,52.333 3474.89,53.239 3478.3,54.204C3478.97,54.393 3479.91,55.025 3480.64,55.549C3485.74,59.857 3492.91,58.514 3498.28,56.164C3499.8,55.497 3500.17,55.428 3502.62,55.137C3511.68,54.06 3521.36,50.092 3521.34,50.104L3522.53,52.046C3522.53,52.046 3522.97,51.964 3523.29,52.453C3528.5,62.32 3545.51,73.595 3545.21,73.073L3534.09,79.245C3542.19,89.274 3560.81,106.288 3560.81,106.288L3560.81,130.742C3555.84,134.727 3550.93,139.296 3546.56,143.757C3545.31,145.005 3544.42,145.717 3544.9,145.74C3546.03,145.567 3547.01,146.688 3547.93,147.466C3548.52,148.12 3548.38,148.061 3547.7,148.954C3547.23,149.581 3547.06,149.762 3547.05,150.216C3547.07,151.093 3547.06,151.681 3546.28,152.339C3545.8,152.948 3545.52,153.338 3545.44,154.059C3545.35,154.78 3545.36,155.242 3544.86,155.879C3544.02,156.058 3543.95,157.28 3544.09,157.827C3544.97,158.699 3544.57,159.643 3544.65,159.445C3542.97,161.268 3541.22,162.847 3542.34,160.299C3542.85,159.35 3543.02,158.564 3543.02,158.564C3543.02,158.564 3542.22,159.401 3541.79,159.797C3541.15,160.396 3540.91,160.043 3540.89,158.183C3540.81,156.775 3540.22,154.81 3539.98,154.435C3539.85,154.225 3539.83,154.588 3539.89,155.944C3539.97,157.727 3540.18,158.245 3539.56,160.025C3538.71,162.431 3538.11,162.772 3539.48,162.689C3540.78,162.61 3541.89,162.596 3542.45,163.375C3542.65,163.638 3542.89,164.087 3543.42,164.353C3544.49,164.939 3545.34,165.59 3545.94,166.239C3547.86,168.339 3547.31,170.215 3543.59,168.943C3541.63,168.273 3542.91,167.429 3545.02,167.624C3546.31,167.746 3546.53,167.266 3545.41,166.922C3543.33,166.536 3542.99,166.301 3541.62,167.939C3535.85,167.366 3532.61,164.132 3531.05,161.498C3530.4,160.396 3530.2,160.185 3530.65,159.561C3530.83,159.315 3530.72,159.39 3530.41,159.731C3530.11,160.071 3529.27,160.357 3528.99,160.602C3527.05,162.54 3525.09,164.624 3523.34,166.2L3523.34,166.2ZM3548.46,152.621C3549.44,152.742 3549.42,153.566 3548.55,154.359C3547.72,154.983 3547.16,155.103 3546.7,154.635C3545.89,153.814 3546.93,152.615 3548.46,152.621L3548.46,152.621ZM3551.31,153.192C3552.1,153.189 3553.11,153.553 3554.3,154.55C3555.73,155.739 3556.06,158.62 3554.75,159.119C3554.2,159.327 3554.11,159.123 3552.94,158.008C3552.15,157.256 3551.3,156.576 3550.45,156.173C3548.73,155.352 3548.51,155.042 3549.68,154.483C3549.92,154.357 3550.24,154.06 3550.38,153.827C3550.68,153.348 3550.77,153.194 3551.31,153.192ZM3549.45,157.027C3549.68,157.034 3549.99,157.174 3550.46,157.43C3553.37,159.019 3554.78,161.509 3553.8,162.915C3553.16,163.836 3552.11,163.485 3551.31,162.177C3550.86,161.441 3549.66,160.498 3548.31,159.809C3546.76,159.019 3546.72,158.906 3547.84,158.367C3548.31,158.146 3548.65,157.833 3548.88,157.435C3549.14,156.974 3549.16,157.019 3549.45,157.027ZM3550.38,162.962C3552.57,165.152 3552.32,166.338 3550.9,167.23C3549.93,167.839 3548.37,167.991 3547.86,167.487C3547.03,166.763 3547.05,165.933 3547.97,165.667C3548.82,165.484 3548.5,165.142 3547.7,164.939C3544.86,164.131 3543.11,162.619 3546.2,162.947C3547.09,163.041 3547.95,162.35 3548.41,161.798C3549.08,160.983 3549.99,162.567 3550.38,162.962L3550.38,162.962ZM3400.91,163.805L3464.75,255.166L3413.16,255.166C3414.98,240.635 3411.33,224.508 3406.51,213.986C3411.76,213.093 3416.76,211.702 3421.76,210.32L3420.75,208.998C3414.78,211.39 3409.27,212.265 3404.08,212.859C3410.97,224.606 3413.42,240.801 3411.36,255.166L3401.53,255.166L3401.53,184.238L3400.91,163.805ZM3412.34,177.402C3413.25,177.367 3415.5,178.96 3415.77,180.158C3415.83,180.403 3416.41,181.876 3417.07,183.245C3417.08,183.498 3419.3,187.513 3418.33,187.163C3416.39,184.522 3412.92,180.025 3412.05,177.834C3412.05,177.542 3412.09,177.412 3412.34,177.402L3412.34,177.402ZM3419.25,181.418C3419.37,182.081 3420.05,183.816 3420.58,184.959C3421.95,187.938 3424.09,192.608 3423.66,193.937C3423.37,194.834 3423.67,194.787 3422.88,193.68C3422.5,193.139 3421.31,191.469 3421.02,191.084C3420.32,190.143 3420.79,191.006 3420.39,189.474C3419.44,185.142 3417.9,182.866 3416.9,180.335C3416.55,179.146 3418.8,180.939 3419.25,181.418L3419.25,181.418ZM3420.48,182.078C3420.67,182.209 3423.2,183.996 3423.46,184.253C3424.36,187.456 3427.95,197.72 3427.02,199.554C3426.7,199.299 3425.33,197.644 3425.14,196.791C3424.72,191.884 3423.17,188.354 3421.5,184.697C3421.03,183.594 3420.67,182.492 3420.48,182.078L3420.48,182.078ZM3425.25,185.682C3426.05,186.075 3426.89,186.974 3427.36,187.777C3427.67,188.322 3427.83,188.963 3428.13,190.312C3429.05,194.499 3430.8,198.744 3430.01,203.212C3429.52,203.881 3428.45,202.365 3428.3,200.873C3427.79,195.925 3427.36,193.554 3425.62,187.735C3425.28,186.606 3425.03,185.721 3425.25,185.682L3425.25,185.682ZM3429.32,189.521C3429.49,189.528 3429.85,189.848 3430.43,190.399C3431.57,191.472 3431.73,191.867 3431.74,193.646C3431.78,196.261 3432.64,199.247 3432.78,201.887C3432.86,203.411 3433.14,207.351 3432.9,207.585C3432.57,208.044 3431.1,206.374 3431.21,203.814C3431.4,200.737 3431.25,198.421 3429.94,193.098C3429.33,190.637 3429.03,189.586 3429.29,189.526C3429.3,189.524 3429.31,189.521 3429.32,189.521L3429.32,189.521ZM3547.43,173.979C3552,176.92 3550.39,182.349 3549.41,183.016C3555.72,191.01 3545.91,195.104 3542.8,192.23C3538.19,196.821 3530.28,192.973 3533.32,185.406C3533.32,185.406 3527.53,174.322 3538.95,175.063C3538.95,175.063 3539.15,170.584 3538.83,170.379C3534.75,170.105 3529.21,174.038 3527.64,175.126C3526.77,175.653 3526.58,175.401 3526.58,175.401C3526.36,173.077 3526.36,172.012 3527.3,170.716C3528.94,168.454 3531.66,167.69 3535.23,166.904C3539.65,168.267 3543.86,170.409 3547.96,170.076C3550.21,170.089 3552.52,170.454 3554.7,171.63C3556.18,172.327 3556.94,174.944 3556.94,174.944C3554.63,176.157 3547.43,173.979 3547.43,173.979ZM3545.25,157.542C3545.27,156.748 3546.17,155.863 3547.05,155.967C3548.26,156.054 3548.42,157.49 3547.34,158.019C3547.03,158.271 3546.03,157.899 3545.97,158.178C3546.05,158.667 3545.55,158.461 3545.46,158.285C3545.29,158.077 3545.25,157.78 3545.25,157.542ZM3544.52,160.672C3544.97,160.36 3545.34,160.332 3545.78,160.274C3546.47,160.19 3547.35,160.294 3547.54,161.015C3547.73,161.723 3546.38,162.139 3545.28,162.158C3544.72,162.168 3544.08,162.276 3543.91,161.884C3543.76,161.516 3544.3,160.838 3544.52,160.672ZM3406.18,110.12C3407.06,107.047 3406.51,105.327 3407.98,101.539L3411.56,102.733C3411.56,102.733 3411.71,106.448 3410.99,108.518C3410.27,110.586 3407.89,112.235 3406.18,110.12L3406.18,110.12ZM3432.83,193.224C3433.26,193.275 3434.29,194.755 3434.76,196.107C3435.19,197.361 3435.05,198.954 3435.36,200.305C3436.06,204.936 3436.02,209.575 3435.83,210.978C3435.74,211.676 3435.29,211.391 3434.68,210.725C3433.78,209.757 3433.91,209.736 3433.92,207.046C3433.93,204.742 3433.42,199.045 3433.18,197.888C3432.75,195.748 3432.57,193.706 3432.67,193.355C3432.7,193.257 3432.75,193.215 3432.83,193.224L3432.83,193.224ZM3474.68,193.778C3479.29,194.514 3482.97,197.667 3485.08,202.858C3487.12,208.136 3487.62,215.338 3487.94,221.96C3487.91,223.544 3487.26,223.144 3485.56,222.159C3483.69,221.246 3483.3,221.511 3480.57,222.136C3478.88,222.525 3479.03,221.368 3481.82,219.447C3482.77,218.825 3483.88,217.994 3483.52,217.869C3483.33,217.806 3482.48,218.036 3481.87,218.534C3479.12,220.755 3478.38,221.296 3479.17,219.136C3479.37,218.59 3480.01,217.076 3480.27,216.351C3481.26,213.638 3480.12,212.477 3476.75,210.759C3475.91,210.329 3475.35,209.613 3476.19,211.114C3476.88,212.341 3475.46,213.331 3473.69,211.895C3472.47,210.897 3470.01,211.562 3469.21,212.807C3468.44,214.014 3468.85,216.265 3470.37,216.994C3471.71,217.572 3472.21,217.156 3470.91,216.257C3469.25,215.101 3469.57,213.15 3471.44,213.157C3471.9,213.159 3472.72,213.675 3474.78,214.797C3476.25,215.597 3477.3,215.259 3477.3,214.065C3477.3,213.266 3477.76,213.331 3478.73,213.812C3480.04,214.458 3479.89,215.045 3479.2,216.853C3478.74,218.116 3478.51,219.552 3478.08,220.872C3476.98,225.315 3476.83,230.348 3478.05,231.916C3481.28,236.088 3484.72,235.646 3487.66,232.889L3487.53,237.458C3484.54,239.871 3481.03,241.516 3475.62,250.461C3473.74,248.085 3465.64,238.375 3452.66,236.181L3449.74,232.175C3449.79,231.926 3447.56,217.276 3446.1,212.288C3446.1,212.288 3447.71,209.844 3449.16,208.042C3454.99,200.845 3464.84,192.608 3474.68,193.778L3474.68,193.778ZM3457.75,197.937C3457.25,198.095 3457.09,197.097 3457.36,196.907C3457.96,196.857 3458.17,196.876 3458.78,196.92C3459.23,196.948 3459.22,197.47 3457.75,197.937L3457.75,197.937ZM3435.85,197.189C3436.5,197.652 3437.29,198.898 3438.06,200.033C3438.49,200.661 3438.25,201.703 3438.31,202.732C3438.41,204.19 3438.57,206.593 3438.67,208.07C3438.87,210.951 3438.6,213.36 3438.18,214.229C3437.75,215.269 3436.88,214.551 3436.67,213.128C3436.62,212.786 3436.9,209.253 3436.9,207.313C3436.9,203.977 3436.05,199.859 3435.85,197.189L3435.85,197.189ZM3455.49,197.169C3455.72,197.156 3455.9,197.164 3456.05,197.359C3456.75,198.256 3457.03,198.799 3456.4,199.291C3455.55,199.997 3454.78,199.819 3454.32,198.477C3454.01,197.522 3454.72,197.221 3455.49,197.169L3455.49,197.169ZM3452.89,197.96C3453.65,198.466 3454.39,199.798 3454.47,200.76C3454.42,201.024 3454.19,201.247 3453.69,201.657C3453.18,202.117 3453.03,202.088 3452.47,201.203C3451.59,199.828 3451.18,198.923 3451.35,198.449C3451.79,197.992 3452.36,197.809 3452.89,197.96L3452.89,197.96ZM3483.57,198.134C3484.83,198.241 3486.07,198.817 3487.3,199.107L3485.43,200.916C3484.88,199.989 3484.24,199.061 3483.57,198.134ZM3450.1,199.077C3450.79,199.977 3451.99,202.331 3451.93,203.206C3451.75,203.504 3451.48,203.77 3451.19,203.936C3450.96,203.999 3450.76,203.596 3449.98,202.216C3448.62,199.816 3448.23,199.14 3448.93,198.852C3449.3,198.811 3449.86,198.828 3450.1,199.077L3450.1,199.077ZM3447.37,199.635C3448.13,200.306 3449.93,203.882 3449.98,204.887C3449.96,205.17 3449.88,205.416 3449.71,205.606C3448.58,206.83 3448.86,206.633 3447.17,203.145C3445.75,200.277 3445.37,199.994 3446.31,199.671C3446.52,199.6 3447.05,199.505 3447.37,199.635L3447.37,199.635ZM3444.66,200.568C3445.16,200.561 3445.3,201.392 3446.26,203.283C3447.88,206.859 3448.48,207.357 3448.12,207.739C3447.67,208.309 3447.4,208.71 3446.97,208.017C3446,206.428 3445.03,204.4 3444.12,202.62C3443.4,201.291 3443.33,201.13 3443.8,200.805C3444.07,200.618 3444.47,200.571 3444.66,200.568L3444.66,200.568ZM3473.52,201.584C3472.91,201.755 3470.47,202.531 3471.97,202.671C3472.27,202.699 3473.03,202.507 3473.57,202.47C3475.09,202.365 3478.23,202.651 3478.12,202.361C3477.83,201.271 3474.34,201.372 3473.52,201.584ZM3442.55,201.919C3442.55,201.979 3442.94,202.676 3443.33,203.359C3445.63,207.81 3446.9,209.43 3446.49,210.134C3446.16,210.559 3445.64,211.093 3445.33,210.966C3444.84,210.762 3444.18,209.305 3442.54,206.008C3440.84,202.6 3440.66,202.345 3441.53,201.902C3441.89,201.736 3442.33,201.613 3442.55,201.919L3442.55,201.919ZM3440.25,203.489C3441.31,205.21 3441.17,204.983 3441.16,210.584C3441.14,214.07 3440.7,216.293 3440.12,217.151C3439.81,217.6 3439.28,217.336 3439.01,216.457C3438.89,216.055 3439.24,215.458 3439.3,214.821C3439.71,210.627 3439.43,206.436 3439.43,202.466C3439.75,202.433 3440.08,203.208 3440.25,203.489L3440.25,203.489ZM3467.49,204.862C3467.98,205.566 3467.86,206.134 3467.86,207.08C3467.85,208.419 3467.95,208.518 3468.87,207.842C3469.69,207.243 3469.76,207.204 3471.22,208.196C3472.08,208.785 3473.17,208.852 3473.88,208.201C3474.38,207.743 3474.55,207.95 3475.21,208.124C3475.94,208.528 3476.15,208.59 3477.7,207.832C3478.75,207.366 3478.8,207.299 3479.42,207.629C3480.52,208.601 3480.68,208.249 3480.53,206.979C3480.53,206.535 3480.67,205.706 3480.8,205.168C3481.34,202.908 3480.46,202.884 3479.29,204.324C3478.83,204.881 3477.82,205.123 3476.87,204.673C3475.5,204.029 3473.36,204.289 3471.78,204.556C3469.91,204.871 3469.05,204.354 3468.3,203.712C3467.87,203.348 3466.9,203.024 3466.79,203.302C3466.68,203.581 3466.9,204.02 3467.49,204.863L3467.49,204.862ZM3442.43,208.032C3442.67,207.981 3443.03,208.676 3443.55,210.148C3444.23,212.047 3443.04,218.652 3442.33,219.733C3441.95,220.301 3441.71,220.649 3440.94,219.597C3440.63,219.135 3440.87,218.988 3441.17,217.69C3441.64,215.714 3442.03,212.518 3442.06,211.031C3442.07,209.101 3442.17,208.089 3442.43,208.032L3442.43,208.032ZM3444.82,214.438C3444.98,214.45 3445.18,214.831 3445.45,215.583C3445.83,216.617 3445.64,218.61 3445.14,220.136C3444.85,221.025 3444.58,221.972 3444.08,222.766C3443.92,223.212 3443.05,223.056 3442.82,222.068C3442.66,221.442 3443.18,220.666 3443.43,219.67C3443.69,218.67 3443.97,217.398 3444.12,216.758C3444.38,215.195 3444.57,214.421 3444.82,214.438ZM3463.25,217.365C3463.23,217.362 3463.21,217.365 3463.2,217.37C3463.2,217.364 3463.19,217.38 3463.18,217.384C3463.14,217.423 3464.98,219.43 3465.47,219.991C3465.73,220.209 3467.94,222.906 3466.57,222.286C3463.1,220.844 3459.03,221.552 3456.53,223.97C3456.22,224.273 3455.96,223.963 3455.01,223.893C3453.07,223.747 3452.36,224.52 3453.54,225.48C3453.72,225.627 3454.1,225.693 3454.27,225.928C3454.43,226.145 3454.38,226.533 3454.46,226.641C3458.22,231.641 3465.18,232.614 3469.55,229.348C3470.1,228.937 3470.41,228.792 3470.92,228.945C3471.94,229.248 3472.03,228.395 3471.13,227.203C3470.74,226.683 3470.25,226.083 3470.53,225.91C3471.09,225.432 3471.36,224.65 3470.4,224.357C3469.73,224.155 3468.99,223.414 3468.62,222.378C3468.18,221.169 3463.9,217.453 3463.25,217.365L3463.25,217.365ZM3446.2,219.554C3447.01,219.534 3447.05,224.371 3446.15,225.839C3445.68,226.394 3444.62,225.361 3444.78,224.3C3444.9,223.494 3445.77,219.858 3445.97,219.67C3446.05,219.594 3446.13,219.555 3446.2,219.554L3446.2,219.554ZM3462.84,222.572C3463.53,222.565 3464.47,222.873 3465.21,223.549C3465.62,223.914 3466.32,225.495 3466.03,226.115C3465.95,226.43 3465.1,226.412 3465.02,226.181C3464.56,222.989 3461.98,222.526 3461.16,225.506C3461.16,225.506 3460.63,225.958 3460.56,225.086C3460.74,223.394 3461.54,222.585 3462.84,222.572L3462.84,222.572ZM3483.63,222.849C3484.45,222.834 3485.23,223.247 3485.63,224.125C3485.91,224.738 3485.94,225.253 3485.83,225.522C3485.75,225.723 3485.47,225.636 3485.47,225.636C3484.16,222.034 3482.38,223.7 3481.73,225.691C3481.73,225.691 3481.06,225.899 3480.98,225.685C3480.89,225.469 3480.94,225.064 3481.21,224.504C3481.72,223.433 3482.7,222.866 3483.63,222.849L3483.63,222.849ZM3466.1,223.072C3466.57,223.047 3467.36,223.425 3467.95,224.025C3468.56,224.635 3468.62,224.999 3468.13,225.451C3467.84,225.722 3466.8,225.991 3466.59,225.519L3465.72,223.466C3465.64,223.271 3465.89,223.084 3466.1,223.072L3466.1,223.072ZM3459.79,223.169C3460.31,223.171 3460.42,223.289 3459.6,225.191C3459.43,225.598 3457.34,225.007 3457.74,224.223C3458.33,223.598 3459.27,223.168 3459.79,223.169L3459.79,223.169ZM3480.75,223.32C3480.96,223.31 3481.13,223.34 3481.2,223.436C3481.01,223.504 3480.22,225.509 3480.22,225.509C3479.47,225.418 3478.58,225.524 3478.42,224.912C3478.27,224.333 3478.57,223.981 3479.62,223.577C3479.94,223.461 3480.4,223.336 3480.75,223.32L3480.75,223.32ZM3486.87,223.834C3487.66,224.125 3487.85,224.798 3487.75,225.145C3487.67,225.407 3487.3,225.41 3487.03,225.208C3486.78,224.914 3486.41,224.414 3486.43,224.077C3486.52,223.742 3486.62,223.738 3486.87,223.834ZM3447.4,225.687C3447.64,226.146 3448.08,228.75 3447.57,228.683C3447.07,228.554 3446.84,227.768 3446.75,227.062C3446.73,226.916 3447.18,225.704 3447.4,225.687L3447.4,225.687ZM3456.12,227.076C3456.35,227.043 3456.93,227.247 3457.8,227.736C3460.64,229.112 3463.55,229.307 3466.64,228.614C3468.43,228.15 3468.88,227.878 3469.13,228.185C3469.56,228.707 3468.89,229.228 3466.37,230.077C3463.6,231.008 3460.74,230.851 3456.97,228.185C3455.95,227.468 3455.82,227.119 3456.12,227.076L3456.12,227.076ZM3487.65,227.794C3488.11,228.669 3486.52,229.499 3485.72,229.732C3484,230.229 3481.4,229.997 3479.94,229.114C3479.81,229.04 3479.7,228.961 3479.58,228.877C3478.39,227.987 3478.89,227.351 3480.21,228.037C3481.64,228.776 3484.55,228.911 3486.09,228.166C3486.86,227.792 3487.39,227.323 3487.65,227.794L3487.65,227.794ZM3452.37,229.425C3452.21,229.461 3452.48,229.862 3453.03,230.464C3456.92,234.837 3466.19,237.209 3471.4,232.702C3473.03,231.167 3472.78,230.476 3470.21,231.702C3467.36,232.642 3463.32,232.765 3459.82,232.245C3458.1,232.012 3455.3,231.351 3453.87,230.309C3452.98,229.652 3452.51,229.394 3452.37,229.425L3452.37,229.425ZM3479.16,229.556C3479.4,229.576 3479.82,229.664 3480.72,230.134C3482.04,230.821 3485.03,230.585 3486.01,230.223C3488.07,229.46 3488.49,230.43 3486.54,231.512C3484.36,232.834 3481.35,232.317 3479.6,230.614C3479.06,230.126 3478.76,229.519 3479,229.47C3479.03,229.465 3479.13,229.554 3479.16,229.556L3479.16,229.556ZM3453.4,237.291C3461.05,237.992 3472.6,246.021 3477.11,255.166L3474.51,255.166C3469.99,247.969 3463.03,241.761 3454.77,239.599C3454.44,239.347 3453.22,237.61 3453.4,237.291ZM3487.37,238.966L3487.02,241.495C3485.74,242.548 3481.03,246.453 3477.55,252.566C3476.82,252.532 3476.47,251.655 3476.59,251.057C3479.38,245.539 3482.72,242.493 3487.37,238.966L3487.37,238.966ZM3456.44,240.945C3458.2,240.824 3469.62,247.39 3473.47,255.166L3471.36,255.166C3467.03,249.517 3462.22,245.416 3457.95,243.937C3456.92,242.839 3455.78,240.993 3456.44,240.945ZM3487.02,242.704L3487,246.121C3484.26,248.788 3482.27,251.887 3480.7,255.166L3478.58,255.166C3478.58,255.166 3478.11,253.813 3478.27,253.229C3480.69,248.877 3483,245.709 3487.02,242.704L3487.02,242.704ZM3469.66,255.166L3467.61,255.166C3465.88,252.709 3463.3,249.93 3460.94,248.523C3459.97,247.32 3458.88,245.835 3459.32,245.594C3459.35,244.705 3468.44,251.279 3469.66,255.166L3469.66,255.166ZM3487.06,247.8L3487.02,249.776C3485.63,251.558 3484.46,253.468 3483.35,255.166L3481.6,255.166C3483.2,251.712 3487.2,246.866 3487.06,247.8L3487.06,247.8ZM3463.49,251.625C3464.12,251.793 3466.44,254.424 3466.36,255.166L3465.32,255.166C3464.74,254.426 3464.04,253.211 3463.63,252.454C3463.38,251.975 3463.21,251.531 3463.49,251.625L3463.49,251.625ZM3486.66,252.236C3486.67,252.234 3486.67,252.234 3486.67,252.236C3486.67,252.238 3486.65,255.166 3486.65,255.166L3484.9,255.166C3484.71,255.131 3485.75,252.852 3486.66,252.236L3486.66,252.236Z" style="fill:rgb(19,31,103);fill-rule:nonzero;"/>
            </g>
            <g id="path6313-8" transform="matrix(0.995535,0,0,0.996803,10.5599,-8.13973)">
                <path d="M3496.21,-4.454L3561.61,88.573L3561.66,67.907L3540.67,40.755C3545.45,39.279 3551.28,38.258 3555.88,37.848C3549.98,24.74 3547.03,12.429 3549.63,-4.444C3531.29,-4.664 3512.88,-4.627 3496.21,-4.454L3496.21,-4.454ZM3548.54,-4.012C3548.02,1.945 3547.35,8.587 3548.43,15.964C3545.03,14.719 3544.23,16.847 3543.66,17.071C3543.02,15.639 3540.65,13.163 3537.97,16.074C3536.57,17.587 3537.25,20.433 3540.49,21.717C3536.78,22.002 3534.85,18.822 3534.2,15.542C3532.19,14.255 3530.08,12.982 3529.88,8.468L3530.91,8.641C3530.57,11.79 3533.83,13.394 3535.74,11.891C3536.98,10.942 3537.11,9.478 3536.62,7.204C3537.61,7.001 3539.94,6.025 3539.32,3.033C3538.47,-1.099 3534.24,-0.614 3532.31,2.103C3530.7,0.108 3527.75,-0.262 3526.57,2.836C3525.91,4.562 3527.41,6.499 3529.12,6.874C3525.33,7.602 3523.42,2.369 3523.21,-1.173L3521.64,-3.963C3531.88,-4.023 3536.35,-4.011 3548.54,-4.012L3548.54,-4.012ZM3497.27,-3.91L3504.87,-3.905L3560.31,68.012L3560.42,85.916L3497.27,-3.91ZM3516.48,-3.905L3517.69,-3.891C3518.64,2.439 3522.27,7.022 3528.48,9.252C3528.8,14.424 3531.29,21.449 3540.73,23.822C3540.45,29.661 3544.19,35.241 3548.2,37.916C3548.2,37.916 3547.12,38.185 3546.27,38.266C3540.88,33.984 3539.56,27.681 3539.02,25.079C3538.84,24.703 3538.33,24.612 3537.92,24.521C3533.31,22.889 3529.43,19.093 3527.84,14.46L3526.85,9.912C3526.85,9.328 3526.73,9.603 3525.36,9.097C3521.81,7.785 3518.52,3.928 3517.04,-0.678C3516.27,-3.1 3516.48,-3.905 3516.48,-3.905L3516.48,-3.905ZM3511.59,-3.891L3515.85,-3.886C3515.85,-3.886 3515.87,-3.133 3515.93,-2.643C3516.51,1.891 3520.57,7.583 3524.71,9.471C3525.3,9.738 3526.11,10.113 3526.31,10.291C3527.46,17.725 3530.82,22.202 3537.92,25.268C3538.03,25.386 3538.35,25.46 3538.45,25.608C3539.41,30.205 3541.53,35.534 3545.55,38.465L3543.81,38.644L3511.59,-3.891ZM3532.38,3.912C3533.34,3.912 3534.12,4.694 3534.12,5.659C3534.12,6.623 3533.34,7.401 3532.38,7.401C3531.42,7.401 3530.64,6.623 3530.64,5.659C3530.64,4.694 3531.42,3.912 3532.38,3.912ZM3473.64,13.446C3473.75,13.698 3449.84,33.967 3452.17,72.103L3451.48,72.88L3451.67,73.152C3450.88,74.05 3450.12,74.771 3449.26,75.646C3454.21,78.813 3462.85,82.27 3462.88,82.179L3461.23,86.013L3471.55,89.357L3470.17,93.002C3470.17,93.002 3462.99,90.614 3460.01,89.619C3458.54,92.884 3457.65,96.332 3456.58,99.729C3456.48,100.003 3456.24,99.871 3455.88,99.34C3450.51,90.17 3439.5,83.552 3439.87,84.208L3400.8,121.37L3400.53,144.336L3427.57,172.272C3427.57,172.272 3419.74,176.132 3416.04,178.664C3418.92,181.019 3422.18,182.833 3425.04,185.061C3430.96,189.247 3434.96,195.4 3438.8,199.567C3456.89,190.572 3475.12,191.073 3490.86,196.534C3489.03,198.468 3486.98,200.144 3485.09,202.242C3489.67,214.276 3488.2,238.176 3487.97,238.826C3497.5,229.071 3511.67,208.154 3509.78,178.703L3513.78,174.674C3513.71,174.468 3503.76,169.126 3499.61,167.963L3500.76,164.303L3490.82,161.192L3491.93,158.285L3501.83,161.158C3503.7,156.546 3505.68,150.087 3505.68,150.087C3509.64,156.014 3513.99,161.405 3522.96,166.89L3561.81,129.63L3561.56,105.674L3535.11,79.16L3546.12,73.409C3545.06,72.554 3543.52,71.742 3542.44,70.885C3542.36,70.824 3542.66,70.64 3542.58,70.579C3542.3,70.366 3542.1,70.193 3541.82,69.997C3541.75,69.953 3541.56,70.24 3541.49,70.196C3537.76,67.57 3534.02,64.985 3531.08,61.843C3531,61.764 3531.11,61.437 3531.04,61.358C3529.51,59.721 3527.99,58.198 3526.43,56.587C3525.71,55.858 3524.52,54.126 3524.52,54.126L3524.45,53.554L3522.78,51.447C3517.41,54.628 3494.47,62.61 3472.28,53.772L3476.5,49.545C3475.38,46.83 3474.65,43.8 3474.36,41.318C3473.2,31.367 3473.64,13.446 3473.64,13.446L3473.64,13.446ZM3543.59,19.08C3544.61,19.08 3545.43,19.907 3545.43,20.925C3545.43,21.942 3544.61,22.769 3543.59,22.769C3542.58,22.769 3541.76,21.942 3541.76,20.925C3541.76,19.907 3542.58,19.08 3543.59,19.08ZM3549.35,21.274C3550.28,25.858 3552.34,32.513 3554.39,37L3551.95,37.272C3549.96,35.976 3547.86,34.085 3547.64,31.403C3542.26,31.444 3540.68,22.984 3542.65,23.999C3542.4,26.889 3544.47,28.028 3546.49,27.745C3548.24,27.501 3549.75,25.082 3547.67,22.412C3548.6,22.052 3549.05,21.78 3549.35,21.274L3549.35,21.274ZM3473.09,34.829C3473.45,40.691 3474.6,44.966 3475.67,49.394L3465.04,59.451C3465.87,50.272 3468.56,42.069 3473.09,34.829ZM3524.08,54.136L3525.43,56.078C3510.07,65.122 3483.85,65.761 3467.87,58.135L3469.99,56.112C3484.04,62.471 3506.91,62.943 3524.08,54.136ZM3424.3,57.155C3422.75,57.136 3420.96,57.728 3419.07,59.174C3412.02,55.955 3407.4,63.48 3411.76,68.463C3411.12,72.05 3410.63,72.719 3413.32,76.35C3410.46,76.715 3406.85,75.965 3403.78,75.491C3404.3,80.803 3411.89,82.04 3415.05,81.456C3418.46,80.715 3421.67,82.407 3421.81,82.446C3423.82,83.007 3425.07,83.975 3427.04,84.441C3430.3,85.218 3435.08,81.387 3435.77,77.748C3435.84,77.259 3435.99,76.816 3435.72,76.743C3433.49,77.315 3431.04,78.12 3428.87,78.597C3426.74,79.12 3425.14,79.636 3423.52,80.907L3423.38,76.52C3434.42,77.047 3429.62,66.523 3428.99,66.071C3431.05,61.918 3428.58,57.208 3424.3,57.155L3424.3,57.155ZM3524.66,57.485L3527.06,63.275L3520.68,65.445L3519.05,59.776L3524.66,57.485ZM3423.84,57.66C3427.59,57.696 3430.95,61.658 3427.34,66.095C3434.33,72.272 3425.38,78.892 3421.11,74.297C3415.43,79.508 3409.41,74.065 3412.58,68.391C3406.52,62.96 3413.99,55.677 3419.09,60.368C3420.34,58.438 3422.13,57.643 3423.84,57.66ZM3467.41,59.781C3468.31,59.781 3469.04,60.511 3469.04,61.411C3469.04,62.312 3468.31,63.042 3467.41,63.042C3466.51,63.042 3465.78,62.312 3465.78,61.411C3465.78,60.511 3466.51,59.781 3467.41,59.781ZM3425.84,59.902C3425.74,59.903 3425.63,59.945 3425.51,60.052C3425.33,60.069 3424.93,60.75 3423.94,61.902C3422.22,63.904 3422.03,63.923 3422.03,63.923C3420.2,63.321 3418.97,63.646 3417.76,64.413C3417.76,64.413 3416.38,64.151 3414.48,62.557C3413.61,61.829 3413.14,61.672 3412.99,62.062C3412.83,62.477 3413.23,62.887 3414.89,64.022C3417.2,65.594 3417.05,65.474 3417.05,65.474C3416.91,66.855 3417.13,67.978 3417.65,69.023C3417.65,69.023 3417.25,70.004 3415.61,72.152C3415.15,72.759 3414.77,73.419 3414.77,73.618C3414.77,74.453 3415.49,73.892 3417.17,71.773C3417.82,70.943 3418.72,69.754 3418.72,69.754C3420.68,70.436 3421.37,70.022 3422.61,69.583C3422.61,69.583 3423.03,69.898 3424.1,70.754C3426.06,72.32 3426.48,72.487 3426.72,72.288C3427.05,72.02 3427,71.933 3426.26,71.395C3424.05,69.79 3423.29,68.863 3423.29,68.863C3423.74,67.108 3423.25,65.656 3422.77,64.74C3422.77,64.74 3422.8,64.517 3424.05,63.12C3424.97,62.094 3426.22,60.475 3426.14,60.242C3426.16,60.097 3426.04,59.9 3425.84,59.902L3425.84,59.902ZM3471.08,60.256L3476.83,62.047L3475.56,68.036L3469.43,66.056L3471.08,60.256ZM3512.67,61.727L3514.27,67.57L3508.29,69.162L3507.31,62.96L3512.67,61.727ZM3516.86,61.824C3517.76,61.824 3518.49,62.554 3518.49,63.455C3518.49,64.355 3517.76,65.085 3516.86,65.085C3515.97,65.085 3515.24,64.355 3515.24,63.455C3515.24,62.554 3515.97,61.824 3516.86,61.824L3516.86,61.824ZM3530.45,62.033L3535.48,66.517L3529.9,69.342L3527.22,63.498L3530.45,62.033ZM3483.07,63.328L3488.91,64.018L3488.67,70.308L3481.97,69.41L3483.07,63.328ZM3462.81,63.396L3469.31,66.255L3466.96,72.817L3460.31,69.953L3462.81,63.396ZM3479.56,63.906C3481.95,64.282 3481.31,67.114 3479.56,67.167C3478.66,67.167 3477.93,66.437 3477.93,65.537C3477.93,64.636 3478.66,63.906 3479.56,63.906L3479.56,63.906ZM3500.56,63.911L3501.36,70.206L3495.3,70.574L3495.17,64.178L3500.56,63.911ZM3504.73,64.629C3505.63,64.629 3506.36,65.359 3506.36,66.26C3506.36,67.16 3505.63,67.891 3504.73,67.891C3503.83,67.891 3503.11,67.16 3503.11,66.26C3503.11,65.359 3503.83,64.629 3504.73,64.629ZM3420.35,65.22C3421.27,65.22 3422.03,65.97 3422.03,66.899C3422.03,67.828 3421.27,68.583 3420.35,68.583C3419.42,68.583 3418.67,67.828 3418.67,66.899C3418.67,65.97 3419.42,65.22 3420.35,65.22ZM3492.12,65.158C3493.02,65.158 3493.75,65.888 3493.75,66.789C3493.75,67.689 3493.02,68.42 3492.12,68.42C3491.23,68.42 3490.5,67.689 3490.5,66.789C3490.5,65.888 3491.23,65.158 3492.12,65.158ZM3520.67,65.561L3523.04,72.031L3516.41,74.171L3514.54,67.527L3520.67,65.561ZM3525.32,65.736C3526.22,65.736 3526.95,66.466 3526.95,67.366C3526.95,68.267 3526.22,68.997 3525.32,68.997C3524.42,68.997 3523.7,68.267 3523.7,67.366C3523.7,66.466 3524.42,65.736 3525.32,65.736ZM3536.77,67.57L3541.05,70.604L3538.93,71.788C3538.38,70.454 3537.39,68.873 3536.77,67.57ZM3475.6,68.158L3481.91,69.531L3480.95,76.166L3474.06,74.787L3475.6,68.158ZM3456.81,68.522L3460.16,70.104L3457.95,75.632L3452.52,72.734L3456.81,68.522ZM3471.81,68.881C3472.7,68.881 3473.43,69.611 3473.43,70.511C3473.43,71.412 3472.7,72.142 3471.81,72.142C3470.91,72.142 3470.18,71.412 3470.18,70.511C3470.18,69.611 3470.91,68.881 3471.81,68.881ZM3508.3,69.245L3509.42,75.879L3502.3,76.884L3501.86,70.118L3508.3,69.245ZM3534.98,69.371C3535.87,69.371 3536.6,70.101 3536.6,71.002C3536.6,71.902 3535.87,72.632 3534.98,72.632C3534.08,72.632 3533.35,71.902 3533.35,71.002C3533.35,70.101 3534.08,69.371 3534.98,69.371ZM3529.92,69.419L3532.28,75.268L3525.31,78.189L3523.24,72.336L3529.92,69.419ZM3512.14,69.842C3513.04,69.842 3513.77,70.572 3513.77,71.472C3513.77,72.373 3513.04,73.103 3512.14,73.103C3511.24,73.103 3510.52,72.373 3510.52,71.472C3510.52,70.572 3511.25,69.842 3512.14,69.842ZM3488.6,70.507L3495.27,70.628L3495.2,77.335L3487.89,77.131L3488.6,70.507ZM3541.96,70.972L3544.58,72.797C3517.58,90.206 3479.64,92.364 3450.03,75.229C3450.03,75.229 3451.24,74.02 3451.93,73.312C3478.62,89.323 3517.58,87.076 3541.96,70.972ZM3484.98,71.73C3485.88,71.73 3486.61,72.46 3486.61,73.36C3486.61,74.261 3485.88,74.991 3484.98,74.991C3484.09,74.991 3483.36,74.261 3483.36,73.36C3483.36,72.46 3484.09,71.73 3484.98,71.73ZM3498.68,72.098C3499.58,72.098 3500.31,72.829 3500.31,73.729C3500.31,74.63 3499.58,75.36 3498.68,75.36C3497.78,75.36 3497.05,74.63 3497.05,73.729C3497.05,72.829 3497.78,72.098 3498.68,72.098ZM3466.91,72.996L3473.87,75.015L3472.69,80.529L3465.05,78.325L3466.91,72.996ZM3462.3,73.035C3463.2,73.035 3463.92,73.765 3463.92,74.666C3463.92,75.567 3463.2,76.297 3462.3,76.297C3461.4,76.297 3460.67,75.567 3460.67,74.666C3460.67,73.765 3461.4,73.035 3462.3,73.035ZM3516.41,74.21L3518.08,80.398L3510.37,82.048L3509.44,75.962L3516.41,74.21ZM3520.83,75.108C3521.73,75.108 3522.46,75.838 3522.46,76.738C3522.46,77.639 3521.73,78.369 3520.83,78.369C3519.94,78.369 3519.21,77.639 3519.21,76.738C3519.21,75.838 3519.94,75.108 3520.83,75.108ZM3420.21,76.069L3420.19,80.407C3418.91,79.352 3417.47,78.228 3415.99,77.093C3417.5,77.173 3418.9,76.756 3420.21,76.069L3420.21,76.069ZM3404.34,76.175C3404.69,76.172 3405.52,76.46 3406.5,76.457C3409.63,76.447 3415.49,77.428 3417.22,78.854C3417.8,79.328 3418.67,79.749 3419.14,80.514C3419.14,80.879 3418.62,80.889 3417.86,80.417C3416.41,79.513 3413.99,78.707 3410.76,78.257C3410.18,78.176 3410.1,78.2 3410.1,78.476C3410.1,78.817 3410.64,79.016 3412.34,79.296C3414.55,79.659 3415.02,79.875 3415.51,80.009C3416.81,80.369 3415.98,80.849 3414.63,80.978C3409.13,81.494 3405.01,79.122 3404.19,76.413C3404.12,76.235 3404.19,76.177 3404.34,76.175L3404.34,76.175ZM3480.95,76.272L3487.86,77.17L3487.55,82.975L3479.98,82.106L3480.95,76.272ZM3422.11,76.777C3423.32,77.728 3422.49,80.612 3421.83,81.461C3421.41,81.937 3420.41,81.684 3420.41,81.014C3420.57,80.412 3420.35,77.544 3420.48,76.656C3420.96,76.381 3421.67,76.458 3422.11,76.777L3422.11,76.777ZM3502.29,77.034L3502.64,83.019L3495.1,83.363L3495.16,77.486L3502.29,77.034ZM3476.82,77.437C3477.72,77.437 3478.45,78.167 3478.45,79.068C3478.45,79.969 3477.72,80.699 3476.82,80.699C3475.92,80.699 3475.2,79.969 3475.2,79.068C3475.2,78.167 3475.92,77.437 3476.82,77.437ZM3434.76,77.52C3435.04,81.911 3428.32,84.891 3425.8,83.543C3424.68,82.946 3425.15,82.578 3427.36,82.13C3430.22,81.371 3432.1,80.632 3432.1,80.097C3432.1,79.768 3431.67,79.808 3430.5,80.242C3428.71,80.847 3426.84,81.106 3425.13,81.878C3423.85,82.461 3423.35,82.665 3423.06,82.315C3422.46,81.58 3425.31,79.726 3428.26,79.233C3430.47,78.863 3432.71,77.68 3434.76,77.52ZM3506.45,78.068C3507.35,78.068 3508.08,78.798 3508.08,79.699C3508.08,80.599 3507.35,81.33 3506.45,81.33C3505.55,81.33 3504.82,80.599 3504.82,79.699C3504.82,78.798 3505.55,78.068 3506.45,78.068ZM3491.32,79.262C3492.22,79.262 3492.95,79.992 3492.95,80.893C3492.95,81.793 3492.22,82.523 3491.32,82.523C3490.42,82.523 3489.7,81.793 3489.7,80.893C3489.7,79.992 3490.42,79.262 3491.32,79.262ZM3527.57,82.033C3538.46,92.426 3550.39,104.39 3560.23,114.231C3560.22,119.38 3560.19,129.679 3560.19,129.679L3522.6,165.492C3515.8,161.326 3510.03,156.119 3504.73,146.869C3505.33,146.352 3505.85,146.023 3506.31,145.457L3504.35,146.632C3497.41,135.514 3494.47,113.365 3506.25,95.608L3494.35,96.045L3496.29,91.983L3509.24,91.274L3514.48,85.639C3514.48,85.639 3516.14,85.331 3517.52,85.013C3518.88,84.698 3521.67,83.899 3523.71,83.237C3525.75,82.575 3527.49,82.033 3527.57,82.033L3527.57,82.033ZM3439.69,84.911C3439.69,84.911 3450.88,91.007 3457.09,103.213C3437.01,120.53 3429.44,140.694 3427.74,161.682C3416.81,151.434 3411.28,145.765 3401.41,135.813L3401.77,120.962L3439.69,84.911ZM3481.93,86.848C3479.03,93.052 3476.54,99.848 3474.31,107.13L3471.2,106.208C3471.2,106.208 3473.21,105.364 3474.11,104.83L3472.49,102.218L3475.56,100.957L3473.75,98.743L3476.86,96.938L3475.3,94.982L3478.15,93.555L3476.38,91.517L3479.37,89.847L3477.81,87.896L3481.93,86.848ZM3482.88,86.862C3482.88,86.862 3483.28,86.939 3483.75,87.032C3483.87,86.989 3483.19,88.658 3483.26,88.716C3484.35,88.941 3484.42,88.88 3484.74,88.978L3485.57,87.26L3486.93,87.518C3484.19,93.726 3481.25,100.519 3479.57,107.873L3477.96,107.538C3477.96,107.538 3478.43,105.987 3478.43,105.781C3478.24,105.741 3477.34,105.36 3477.06,105.247C3476.97,105.489 3476.39,107.285 3476.39,107.285L3475.13,107.251C3477.2,99.223 3480.82,90.32 3482.88,86.862L3482.88,86.862ZM3488.1,87.1L3490.94,89.459L3487.71,90.716L3489.39,92.944L3485.97,94.181L3487.93,96.496L3484.54,97.748L3486.56,100.549L3483.04,101.738L3485.26,104.199L3482.09,105.689L3483.99,107.577C3483.99,107.577 3482.01,108.232 3481.89,108.261C3481.58,108.343 3480.24,108.013 3480.24,108.013C3482.25,100.848 3484.73,93.585 3488.1,87.1L3488.1,87.1ZM3418.96,88.294C3418.17,88.805 3418.62,89.917 3417.64,90.866C3417.48,91.037 3417.47,91.428 3417.4,91.769C3417.36,92.028 3416.58,95.129 3416.58,95.129C3416.58,95.129 3416.78,94.892 3417.09,93.903C3417.35,93.059 3417.58,91.457 3417.73,91.19C3418.45,90.968 3418.56,88.595 3419.3,88.92C3419.72,89.108 3419.64,89.495 3419.4,90.405C3418.88,92.224 3418.67,92.99 3419.57,91.75C3420.91,90.129 3421.05,88.667 3419.53,88.357C3419.37,88.327 3419.05,88.297 3418.96,88.294L3418.96,88.294ZM3439.26,88.969L3404.14,122.03L3404.03,134.367L3416.26,146.787L3424.93,155.217C3428.08,136.337 3435.31,118.325 3453.09,102.738C3450.37,98.344 3445.7,92.81 3439.26,88.969L3439.26,88.969ZM3533.94,89.308C3513.3,99.032 3508.56,118.974 3514.95,137.027C3524.78,124.347 3532.5,112.434 3533.94,89.308L3533.94,89.308ZM3460.49,90.318L3469.86,93.342L3466.33,105.407L3457.89,102.84L3457.03,100.704L3460.49,90.318ZM3532.9,90.633C3532.01,106.768 3525.94,122.526 3515.38,134.891C3510.04,121.686 3513.25,100.574 3532.9,90.633L3532.9,90.633ZM3482.42,90.721L3481.83,92.221L3483.13,92.589L3483.68,91.065L3482.42,90.721ZM3481.12,94.264L3480.59,95.788L3481.92,96.239L3482.42,94.691L3481.12,94.264ZM3536.41,94.54C3533.53,116.921 3521.46,137.287 3508.72,147.665C3512.78,154.268 3517.56,158.515 3522.41,162.06L3558.3,127.592L3558.16,116.094L3536.41,94.54ZM3441.56,100.481C3441.34,101.299 3441.26,101.715 3441.26,101.715C3441.26,101.715 3441.68,101.332 3442.77,100.734C3449.82,97.207 3447.55,102.57 3444.22,104.553C3443.48,104.95 3442.72,105.421 3442.72,105.421C3442.72,105.421 3443.42,105.581 3444.19,105.723C3448.47,106.615 3447.56,109.124 3443.09,108.734C3442.43,108.676 3441.66,108.551 3441.66,108.588C3441.66,108.625 3441.92,109.567 3442.23,110.347C3443.74,114.147 3440.93,114.443 3439.08,112.027C3438.83,111.691 3438.24,110.763 3438.24,110.763C3438.24,110.763 3438.06,111.465 3437.95,112.144C3436.36,118.099 3432.42,117.948 3433.89,111.906C3434.07,111.281 3434.3,110.164 3434.3,110.164C3434.3,110.164 3433.41,110.7 3432.45,111.131C3427.35,113.412 3426.52,111.064 3431.15,107.631C3432.47,106.654 3432.92,106.271 3432.92,106.271C3432.1,106.208 3431.34,106.082 3430.67,105.914C3426.98,104.984 3425.99,102.771 3431.91,102.875C3432.79,102.893 3433.68,102.951 3433.68,102.951C3433.68,102.951 3433.39,101.678 3433.08,100.719C3431.65,96.28 3434.53,95.752 3436.95,99.729C3437.47,100.574 3437.62,100.58 3437.62,100.58C3437.55,100.583 3437.77,99.065 3438.36,97.662C3441.3,92.206 3442.45,97.186 3441.56,100.481L3441.56,100.481ZM3505.04,96.064C3502.58,100.431 3500.43,104.773 3499.4,109.3L3489.81,109.134C3490.47,105.121 3492.17,100.945 3494.19,96.53C3498.1,96.423 3501.62,96.251 3505.04,96.064L3505.04,96.064ZM3479.72,98.001L3479.17,99.607L3480.56,100.034L3481.06,98.472L3479.72,98.001ZM3408,101.015C3406.97,103.691 3406.63,106.672 3406.06,109.062C3405.82,110.447 3406.06,111.023 3406.89,111.333C3408.07,111.774 3409.77,111.173 3410.72,109.809C3411.26,109.04 3411.65,107.451 3411.73,104.645L3411.82,102.146C3410.36,101.874 3409.37,101.483 3408,101.015L3408,101.015ZM3478.42,101.364L3477.96,102.84L3479.31,103.34L3479.82,101.85L3478.42,101.364ZM3540.54,101.918C3542.17,101.958 3542.47,102.104 3543.95,102.98L3546.8,105.922C3546.06,106.639 3545.59,107.647 3545.59,108.766C3545.59,110.941 3547.35,112.707 3549.52,112.707C3550.6,112.707 3552.28,111.571 3552.28,111.571L3556.8,116.263C3554.16,117.42 3551.58,114.758 3550.61,113.705C3550.39,113.458 3550.33,113.288 3550.33,113.288C3550.33,113.288 3550.37,113.418 3550.27,113.939C3549.89,116.028 3547.84,122.193 3545.87,121.865C3543.66,121.495 3545.91,112.681 3545.94,112.884C3544.42,114.497 3537,116.214 3537.52,114.413C3538.55,110.836 3544.1,109.457 3544.83,108.836C3541.88,107.058 3538.14,102.125 3540.54,101.918L3540.54,101.918ZM3408.36,102.033C3409.3,102.099 3409.94,102.213 3410.58,102.481C3410.88,102.56 3410.89,102.809 3410.93,103.044C3410.94,104.1 3411.2,107.2 3410.22,107.232C3409.13,107.209 3408.12,107.442 3407.4,107.989C3406.83,108.429 3406.64,108.111 3406.79,106.984C3406.94,105.893 3407.48,103.599 3407.72,102.67C3407.75,102.287 3408.06,102.016 3408.36,102.033L3408.36,102.033ZM3437.66,102.073C3435.49,102.073 3433.73,103.838 3433.73,106.014C3433.73,108.19 3435.49,109.955 3437.66,109.955C3439.84,109.955 3441.6,108.19 3441.6,106.014C3441.6,103.838 3439.84,102.073 3437.66,102.073ZM3437.66,103.451C3439.08,103.451 3440.22,104.599 3440.22,106.014C3440.22,107.428 3439.08,108.571 3437.66,108.571C3436.25,108.571 3435.11,107.428 3435.11,106.014C3435.11,104.599 3436.25,103.451 3437.66,103.451ZM3457.95,103.499C3466.96,119.091 3465.91,140.493 3455.29,156.062L3466.71,155.261L3465.21,158.192L3453.04,159.381C3451.18,161.088 3449.48,163.04 3447.65,164.866L3447.63,165.511C3443.46,166.483 3439.28,167.601 3435.03,169.138C3432.78,166.928 3428.56,162.508 3428.58,162.397L3428.86,160.966C3457.81,146.156 3449.34,116.454 3447.3,114.011C3450.41,110.272 3454.12,106.753 3457.95,103.499L3457.95,103.499ZM3538.32,106.334C3539.49,106.334 3540.44,107.289 3540.44,108.465C3540.44,109.64 3539.49,110.595 3538.32,110.595C3537.14,110.595 3536.19,109.64 3536.19,108.465C3536.19,107.289 3537.14,106.334 3538.32,106.334ZM3547.76,106.907L3551.32,110.581C3550.85,111.038 3550.22,111.323 3549.52,111.323C3548.11,111.323 3546.96,110.18 3546.96,108.766C3546.96,108.036 3547.27,107.374 3547.76,106.907ZM3425.54,107.363C3426.71,107.363 3427.66,108.313 3427.66,109.489C3427.66,110.665 3426.71,111.619 3425.54,111.619C3424.36,111.619 3423.41,110.665 3423.41,109.489C3423.41,108.313 3424.36,107.363 3425.54,107.363ZM3409.74,108.256C3410.73,108.589 3410.5,109.521 3409.21,110.341C3408.38,110.871 3407.62,110.988 3406.89,110.595C3405.5,109.852 3408.38,107.771 3409.74,108.256ZM3426.15,113.469L3413.36,125.879C3414.16,123.817 3414.19,121.76 3414.25,119.7C3418.1,120.098 3419.71,118.14 3419.15,114.109C3421.64,114.258 3424.22,113.995 3426.15,113.469L3426.15,113.469ZM3446.66,114.886C3452.59,131.845 3447.43,149.793 3428.88,160.187C3429.64,143.936 3436.45,128.399 3446.66,114.886L3446.66,114.886ZM3463.56,116.371C3473.74,119.043 3485.33,120.289 3497.37,120.297C3497.46,124.888 3497.68,129.744 3498.62,134.43C3488.36,131.742 3476.91,130.492 3464.4,130.713C3464.92,125.86 3464.09,120.356 3463.56,116.371L3463.56,116.371ZM3539.07,118.88L3528.23,131.591L3528.68,124.651C3532.34,125.117 3533.64,123.186 3533.1,119.37C3535.09,119.617 3537.08,119.268 3539.07,118.88L3539.07,118.88ZM3433.69,119.584L3432.84,124.66C3430.67,124.719 3428.55,125.49 3428.58,130.334L3422.11,130.256L3433.69,119.584ZM3553.04,120.52C3554.22,120.52 3555.16,121.475 3555.16,122.651C3555.16,123.827 3554.22,124.782 3553.04,124.782C3551.87,124.782 3550.92,123.827 3550.92,122.651C3550.92,121.475 3551.87,120.52 3553.04,120.52ZM3423.86,121.166C3425.03,121.166 3425.98,122.121 3425.98,123.297C3425.98,124.472 3425.03,125.422 3423.86,125.422C3422.68,125.422 3421.73,124.472 3421.73,123.297C3421.73,122.121 3422.68,121.166 3423.86,121.166ZM3548.3,123.35L3547.17,131.038C3544.22,130.777 3541.75,131.234 3542.51,136.444C3540.01,136.199 3536.54,136.791 3534.21,136.993L3548.3,123.35ZM3537.72,124.743C3538.89,124.743 3539.84,125.698 3539.84,126.874C3539.84,128.049 3538.89,128.999 3537.72,128.999C3536.54,128.999 3535.59,128.049 3535.59,126.874C3535.59,125.698 3536.54,124.743 3537.72,124.743ZM3408.29,126.393C3409.46,126.393 3410.41,127.348 3410.41,128.524C3410.41,129.699 3409.46,130.649 3408.29,130.649C3407.11,130.649 3406.17,129.699 3406.17,128.524C3406.17,127.348 3407.11,126.393 3408.29,126.393L3408.29,126.393ZM3415.33,128.912C3418.04,129.522 3416.79,135.861 3416.18,137.585C3416.13,137.631 3423.75,133.586 3424.2,135.372C3424.5,138.952 3417.9,141.448 3417.9,141.448C3417.9,141.448 3422.35,145.322 3422.47,147.758C3422.48,149.333 3420.61,149.041 3418.18,147.044C3417.14,146.022 3416.34,145.255 3415.63,144.545C3416.46,143.822 3416.99,142.752 3416.99,141.56C3416.99,139.384 3415.23,137.619 3413.06,137.619C3411.86,137.619 3410.78,138.158 3410.06,139.007C3409.5,138.463 3408.86,137.829 3408.01,137.017C3406.6,135.702 3405.62,134.656 3405.76,134.183C3407.61,132.876 3411.29,136.387 3411.62,136.706C3411.35,136.022 3413.38,129.276 3415.33,128.912L3415.33,128.912ZM3411.62,136.706C3411.64,136.743 3411.66,136.765 3411.69,136.765C3411.69,136.765 3411.64,136.721 3411.62,136.706ZM3527.26,133.862C3528.55,133.844 3528.47,136.789 3528.01,138.318C3527.7,139.484 3527.39,140.439 3527.39,140.439C3527.39,140.439 3528.48,139.587 3528.96,139.361C3532.47,137.713 3533.78,139.579 3532.01,141.744C3531.16,142.858 3530,143.105 3529.06,144.04C3530.4,144.101 3531.94,144.399 3533.1,145.083C3534,145.624 3534.71,146.278 3534.7,146.685C3534.7,147.595 3532.47,148.085 3530.39,147.85C3529.5,147.869 3527.83,147.394 3527.83,147.394C3527.83,147.394 3528.52,148.56 3528.77,149.257C3529.55,151.423 3529.28,153.96 3528.15,153.955C3526.27,153.451 3525.35,151.352 3524.62,149.845C3524.01,151.525 3523.43,153.323 3522.08,154.572C3520.74,155.81 3520.06,154.782 3520.13,152.684C3520.15,151.849 3520.77,149.359 3520.77,149.359C3512.86,152.036 3513.44,148.415 3519.62,145.243C3515.82,143.425 3513.51,141.79 3519.97,141.419C3519.8,141.264 3518.67,137.791 3519.88,136.978C3521,136.223 3523.4,138.818 3523.51,138.944C3523.46,138.687 3524.14,136.654 3525.28,135.25C3526.15,134.262 3526.8,133.869 3527.26,133.862L3527.26,133.862ZM3519.97,141.419C3519.98,141.426 3519.99,141.427 3519.99,141.419C3519.99,141.419 3519.97,141.419 3519.97,141.419ZM3554.6,139.126C3553.22,139.251 3552.36,140.476 3551.73,141.545C3551.6,141.762 3551.36,141.839 3551.27,142.125C3550.7,143.967 3550.2,146.174 3549.9,148.921C3550.77,149.281 3552.74,149.887 3553.61,149.561C3553.85,149.458 3553.78,148.824 3553.86,148.614C3555.23,145.148 3555.91,142.557 3555.91,140.964C3555.91,139.68 3555.47,139.046 3554.6,139.126L3554.6,139.126ZM3413.07,138.968C3414.48,138.968 3415.62,140.117 3415.62,141.531C3415.62,142.344 3415.24,143.067 3414.65,143.535C3413.01,141.889 3412.16,141.027 3411.06,139.944C3411.53,139.35 3412.25,138.968 3413.07,138.968L3413.07,138.968ZM3555.09,140.188C3555.43,141.029 3554.32,141.942 3552.88,141.936C3552.03,141.933 3551.75,142.054 3552.13,141.311C3552.59,140.408 3554.43,138.579 3555.09,140.188L3555.09,140.188ZM3535.81,139.594C3536.99,139.594 3537.94,140.549 3537.94,141.725C3537.94,142.901 3536.99,143.851 3535.81,143.851C3534.64,143.851 3533.69,142.901 3533.69,141.725C3533.69,140.549 3534.64,139.594 3535.81,139.594ZM3423.78,139.745C3424.95,139.745 3425.91,140.695 3425.91,141.87C3425.91,143.046 3424.95,144.001 3423.78,144.001C3422.61,144.001 3421.66,143.046 3421.66,141.87C3421.66,140.695 3422.61,139.745 3423.78,139.745ZM3524.26,140.609C3522.09,140.609 3520.33,142.374 3520.33,144.55C3520.33,146.725 3522.09,148.49 3524.26,148.49C3526.43,148.49 3528.19,146.725 3528.19,144.55C3528.19,142.374 3526.43,140.609 3524.26,140.609ZM3471.72,141.138C3470.68,145.678 3469.09,150.02 3467.09,154.314C3463.3,154.543 3459.2,154.721 3456.5,155.106C3461,147.205 3461.11,145.347 3462.77,141.162L3471.72,141.138ZM3478.23,141.778C3479.29,141.904 3480.46,142.066 3481.51,142.268C3479.58,149.094 3477.02,156.102 3473.72,162.847L3471.72,162.536L3470.77,161.362L3473.95,160.09L3471.47,157.557L3475.57,156.314L3473.05,153.819L3477.1,152.805L3474.93,150.165L3478.57,148.743L3476.26,145.753L3480.13,144.685L3478.23,141.778ZM3524.26,141.987C3525.67,141.987 3526.81,143.135 3526.81,144.55C3526.81,145.964 3525.67,147.107 3524.26,147.107C3522.85,147.107 3521.7,145.964 3521.7,144.55C3521.7,143.135 3522.85,141.987 3524.26,141.987ZM3482.24,142.375L3483.59,142.594L3483.17,144.045L3484.71,144.375L3485.21,142.807C3485.21,142.807 3486.45,142.922 3486.58,143.021C3484.97,149.61 3479.27,163.4 3479.19,163.327L3477.73,163.109L3478.11,161.716L3476.75,161.522L3476.75,161.507L3476.09,163.021L3474.63,162.9C3478.16,154.823 3480.57,148.623 3482.24,142.375L3482.24,142.375ZM3554,142.899C3555.08,142.894 3555.01,143.454 3554.23,145.501C3553.49,147.424 3553.22,148.194 3552.86,148.443C3552.01,149.05 3550.17,148.541 3550.32,147.656C3550.8,144.783 3550.97,143.558 3551.71,143.168C3552.48,143.015 3553.23,142.903 3554,142.899L3554,142.899ZM3487.67,143.137L3491.2,143.821L3488.25,145.578L3490.12,147.772L3486.5,149.32L3488.7,151.601L3485.2,153.033L3487.33,155.542L3483.7,157.076L3486.17,159.221L3482.09,160.512L3483.64,162.89L3482.1,163.749L3480.21,163.453C3483.35,156.105 3485.37,150.06 3487.67,143.137L3487.67,143.137ZM3496.33,144.894L3503.24,146.777L3504.62,149.248L3501.38,160.211L3492.18,157.503L3496.33,144.894ZM3482.61,145.952L3481.95,147.753L3483.47,148.068L3484.06,146.214L3482.61,145.952ZM3481.28,150.087L3480.62,151.888L3482.05,152.169L3482.72,150.349L3481.28,150.087ZM3479.93,153.722L3479.26,155.513L3480.65,155.8L3481.31,154.004L3479.93,153.722ZM3544.79,157.018C3544.79,157.018 3544.09,157.53 3543.9,157.757C3544.06,158.168 3544.5,158.799 3544.43,159.214C3544.37,159.526 3544.03,159.777 3543.51,160.333C3542.21,161.849 3541.75,161.684 3542.5,160.066C3542.75,159.557 3542.86,159.085 3542.86,159.085C3542.56,159.507 3542.34,160.007 3542.13,160.403C3541.7,161.231 3541.3,162.013 3541.3,162.013C3542.13,162.3 3542.68,162.916 3543.22,163.316C3543.22,163.316 3543.49,162.583 3543.68,161.881C3543.94,160.902 3544.45,160.499 3545.09,160.163C3545.49,159.95 3545.87,159.563 3545.87,159.563C3545.17,158.85 3545.09,157.829 3544.79,157.018ZM3478.49,157.459L3477.78,159.367L3479.16,159.707L3479.93,157.76L3478.49,157.459ZM3400.38,162.255C3400.26,169.85 3400.51,174.851 3400.24,183.042L3420.75,209.691L3417.55,210.769C3417.55,210.769 3417.52,211.138 3417.35,211.186C3412.96,212.395 3405.85,213.598 3405.85,213.598C3411.14,225.703 3414.57,240.839 3412.2,255.959L3465.29,255.818L3400.38,162.255ZM3512.66,175.126L3510.83,176.965C3483.83,162.316 3446.64,162.374 3419.51,180.11L3417.3,178.484C3446.91,159.462 3483.35,159.582 3512.66,175.126L3512.66,175.126ZM3401.37,164.919L3463.86,254.905L3456.52,255.012L3401.43,182.76L3401.37,164.919ZM3535.47,166.545C3535.47,166.545 3533.67,167.014 3532.15,167.501C3527.81,168.895 3525.78,171.412 3526.18,174.907C3526.3,175.94 3526.56,175.925 3528.33,174.805C3532.47,172.185 3532.73,172.069 3537.89,170.554C3538.29,170.437 3538.87,170.525 3538.87,170.525L3538.64,174.606C3530.04,174.574 3530.51,181.419 3532.99,184.978C3532.12,186.624 3530.23,192.368 3536.46,194.554C3539.57,195.175 3542.87,192.641 3542.76,192.51C3548.5,195.231 3555.16,190.67 3549.97,182.77C3551.92,179.324 3550.55,176.767 3548.68,174.568C3548.68,174.568 3549,174.595 3551.71,175.097C3555.83,175.858 3557.41,175.723 3557.41,175.723C3557.42,172.006 3554.34,170.345 3547.94,169.84C3543.4,170.482 3535.47,166.513 3535.47,166.545L3535.47,166.545ZM3466.3,166.977C3466.61,166.975 3466.92,166.975 3467.23,166.982L3466.93,173.33L3459.95,173.65L3459.49,167.327C3461.9,167.16 3464.13,166.985 3466.3,166.977L3466.3,166.977ZM3474.66,167.132L3482.15,168.045L3481.01,173.98L3474.12,173.238L3474.66,167.132ZM3535.34,167.206C3535.96,167.276 3535.76,167.995 3534.91,168.161C3533.57,168.425 3530.12,170.439 3530.12,170.962C3530.12,171.299 3530.28,171.25 3531.55,170.573C3532.18,170.235 3533.5,169.659 3534.47,169.287C3535.45,168.915 3536.56,168.468 3536.95,168.292C3538.11,167.768 3538.69,168.13 3538.27,169.122C3537.99,169.778 3537.88,169.829 3535.19,170.685C3532.76,171.458 3532.31,171.659 3530.77,172.651C3530.19,173.021 3529.17,173.612 3528.5,173.961C3526.91,174.786 3526.59,174.789 3526.59,173.679C3526.5,170.391 3530.13,167.924 3535.05,167.215C3535.18,167.185 3535.34,167.201 3535.34,167.206L3535.34,167.206ZM3470.59,167.972C3471.53,167.972 3472.28,168.733 3472.28,169.671C3472.28,170.609 3471.53,171.369 3470.59,171.369C3469.66,171.369 3468.9,170.609 3468.9,169.671C3468.9,168.733 3469.66,167.972 3470.59,167.972ZM3452.07,168.423L3452.63,174.184L3445.77,175.951L3444.2,170.001C3446.83,169.356 3449.45,168.903 3452.07,168.423L3452.07,168.423ZM3540.45,168.86C3542.33,169.147 3542.18,173.465 3541.22,174.213C3539.74,175.282 3538.83,173.047 3539.49,170.083C3539.67,169.192 3540.02,168.88 3540.45,168.86ZM3455.97,169.093C3456.9,169.093 3457.66,169.854 3457.66,170.792C3457.66,171.73 3456.9,172.49 3455.97,172.49C3455.03,172.49 3454.27,171.73 3454.27,170.792C3454.27,169.854 3455.03,169.093 3455.97,169.093ZM3489.48,169.588L3497.23,171.709L3495.34,177.727L3488.06,175.674L3489.48,169.588ZM3485.26,169.705C3486.19,169.705 3486.95,170.465 3486.95,171.403C3486.95,172.341 3486.19,173.102 3485.26,173.102C3484.32,173.102 3483.56,172.341 3483.56,171.403C3483.56,170.465 3484.32,169.705 3485.26,169.705ZM3548.7,170.209C3552.04,170.244 3556.45,171.924 3556.46,174.514C3556.39,175.25 3549.46,174.273 3546.26,172.981C3545.12,172.522 3543.74,171.127 3543.74,170.544C3543.74,170.198 3544.42,170.223 3544.69,170.559C3545.14,171.108 3546.74,171.681 3550.41,172.607C3553.22,173.318 3553.5,173.346 3553.5,172.918C3553.5,172.528 3551.84,171.99 3550.04,171.69C3549.13,171.541 3548.28,171.266 3546.89,171.146C3546.24,171.144 3546.08,170.735 3546.62,170.457C3547.21,170.281 3547.93,170.201 3548.7,170.209L3548.7,170.209ZM3542.8,171.549C3543.64,171.945 3543.95,172.735 3544.41,173.15C3543.83,173.425 3543.58,173.702 3542.64,173.772C3542.66,173.152 3542.49,172.412 3542.8,171.549ZM3441.23,172.015C3442.17,172.015 3442.93,172.775 3442.93,173.713C3442.93,174.652 3442.17,175.412 3441.23,175.412C3440.3,175.412 3439.54,174.652 3439.54,173.713C3439.54,172.775 3440.3,172.015 3441.23,172.015ZM3436.67,172.495L3438.5,178.378L3431.95,181.236L3429.62,175.407C3431.89,174.213 3434.37,173.345 3436.67,172.495L3436.67,172.495ZM3466.98,173.456C3466.98,173.456 3472.21,173.463 3474.01,173.485L3473.59,180.125L3467.07,180.173L3466.98,173.456ZM3460.01,173.82L3460.37,180.45L3454.1,181.294L3452.86,174.626L3460.01,173.82ZM3499.68,173.878C3500.61,173.878 3501.37,174.639 3501.37,175.577C3501.37,176.515 3500.61,177.276 3499.68,177.276C3498.74,177.276 3497.98,176.515 3497.98,175.577C3497.98,174.639 3498.74,173.878 3499.68,173.878ZM3545.08,174.034C3548.89,174.05 3552.54,178.456 3548.76,183.071C3554.96,187.846 3548.22,195.873 3542.75,191.195C3534.93,198.901 3530.55,188.437 3533.79,185.662C3529.01,177.784 3534.88,172.805 3540.95,176.281C3542.06,174.693 3543.58,174.027 3545.08,174.034ZM3481.12,174.223L3488.01,175.757L3486.62,182.314L3479.9,180.945L3481.12,174.223ZM3503.91,174.383L3510.2,177.518L3505.32,182.226L3501.7,180.416L3503.91,174.383ZM3463.56,175.126C3464.49,175.126 3465.25,175.886 3465.25,176.824C3465.25,177.763 3464.49,178.523 3463.56,178.523C3462.62,178.523 3461.86,177.763 3461.86,176.824C3461.86,175.886 3462.62,175.126 3463.56,175.126ZM3477.16,175.339C3478.09,175.339 3478.85,176.1 3478.85,177.038C3478.85,177.976 3478.09,178.737 3477.16,178.737C3474.66,178.345 3475.33,175.395 3477.16,175.339ZM3445.81,176.295L3447.34,182.852L3440.97,185.012L3438.69,178.625L3445.81,176.295ZM3450.19,176.761C3451.12,176.761 3451.88,177.522 3451.88,178.46C3451.88,179.398 3451.12,180.159 3450.19,180.159C3449.25,180.159 3448.49,179.398 3448.49,178.46C3448.49,177.522 3449.25,176.761 3450.19,176.761ZM3544.57,179.785C3544.09,180.382 3543.46,181.086 3543.46,181.086C3541.88,180.431 3540.34,180.692 3539.31,181.4C3539.31,181.4 3538.22,180.526 3537.22,179.717C3535.49,178.316 3534.91,177.995 3534.91,178.581C3534.91,178.703 3535.49,179.302 3536.21,179.916C3538.16,181.589 3538.56,182.193 3538.56,182.193C3538.09,183.711 3538.1,184.901 3538.99,186.178C3538.99,186.178 3539.03,186.344 3538.34,187.069C3537.1,188.383 3535.82,190.413 3536.11,190.711C3536.48,191.082 3537.52,190.193 3538.82,188.428C3539.75,187.169 3540.03,187.142 3540.03,187.142C3541.62,187.571 3542.49,187.959 3544.08,186.648C3544.08,186.648 3544.68,186.829 3545.87,187.817C3547.73,189.357 3548.4,189.688 3548.6,189.166C3548.76,188.741 3548.52,188.456 3546.95,187.254C3545.92,186.472 3544.78,185.555 3544.78,185.555C3545.11,185.003 3545.35,183.043 3544.2,181.702C3544.2,181.702 3544.25,181.79 3545.95,179.586C3547.07,178.12 3547.27,177.935 3546.89,177.62C3546.4,176.966 3544.74,179.576 3544.57,179.785L3544.57,179.785ZM3495.4,177.907L3501.61,180.523L3499.39,187.031L3493.39,184.575L3495.4,177.907ZM3427.05,178.343C3427.99,178.343 3428.75,179.104 3428.75,180.042C3428.75,180.981 3427.99,181.741 3427.05,181.741C3426.12,181.741 3425.36,180.981 3425.36,180.042C3425.36,179.104 3426.12,178.343 3427.05,178.343ZM3490.6,178.518C3491.53,178.518 3492.29,179.279 3492.29,180.217C3492.29,181.155 3491.53,181.916 3490.6,181.916C3489.66,181.916 3488.9,181.155 3488.9,180.217C3488.9,179.279 3489.66,178.518 3490.6,178.518ZM3422.71,178.984L3424.75,184.032L3420.12,180.576L3422.71,178.984ZM3473.69,180.285L3479.88,181.018L3478.9,186.929L3473.56,186.444L3473.69,180.285ZM3466.93,180.299L3466.87,186.376L3460.99,186.628L3460.5,180.562L3466.93,180.299ZM3436.7,181.406C3437.63,181.406 3438.39,182.167 3438.39,183.105C3438.39,184.043 3437.63,184.803 3436.7,184.803C3435.76,184.803 3435,184.043 3435,183.105C3435,182.167 3435.76,181.406 3436.7,181.406ZM3432.01,181.527L3434.4,187.633L3430.69,189.429L3425.72,184.711L3432.01,181.527ZM3454.13,181.605L3455.09,187.414L3448.96,188.934L3447.47,183.022L3454.13,181.605ZM3541.73,181.663C3543.07,181.663 3544.15,182.748 3544.15,184.085C3544.15,185.422 3543.07,186.507 3541.73,186.507C3540.4,186.507 3539.32,185.422 3539.32,184.085C3539.32,182.748 3540.4,181.663 3541.73,181.663ZM3470.02,181.848C3470.95,181.848 3471.71,182.608 3471.71,183.546C3471.71,184.484 3470.95,185.245 3470.02,185.245C3469.08,185.245 3468.33,184.484 3468.33,183.546C3468.33,182.608 3469.08,181.848 3470.02,181.848ZM3486.71,182.474L3493.25,184.595L3491.05,189.841L3485.41,188.307L3486.71,182.474ZM3457.75,182.692C3458.68,182.692 3459.44,183.453 3459.44,184.391C3459.44,185.329 3458.68,186.089 3457.75,186.089C3456.81,186.089 3456.05,185.329 3456.05,184.391C3456.05,183.453 3456.81,182.692 3457.75,182.692ZM3482.6,183.318C3483.53,183.318 3484.29,184.079 3484.29,185.017C3484.29,185.955 3483.53,186.716 3482.6,186.716C3481.66,186.716 3480.9,185.955 3480.9,185.017C3480.9,184.079 3481.66,183.318 3482.6,183.318ZM3441.1,185.308L3443.35,190.501L3437.2,193.166L3434.52,187.871L3441.1,185.308ZM3445.45,185.619C3446.39,185.619 3447.15,186.379 3447.15,187.317C3447.15,188.256 3446.39,189.016 3445.45,189.016C3444.52,189.016 3443.76,188.256 3443.76,187.317C3443.76,186.379 3444.52,185.619 3445.45,185.619ZM3468.11,187.186C3478.2,187.165 3487.31,189.281 3494.63,192.316L3492.45,194.364C3468.72,186.191 3453.21,189.873 3437.3,196.869L3435.69,194.879C3446.94,189.364 3458.01,187.207 3468.11,187.186ZM3494.95,187.249C3495.88,187.249 3496.64,188.01 3496.64,188.948C3496.64,189.886 3495.88,190.647 3494.95,190.647C3494.01,190.647 3493.25,189.886 3493.25,188.948C3493.25,188.01 3494.01,187.249 3494.95,187.249ZM3433.12,190.977C3434.48,191.057 3434.61,193.604 3433.97,192.87L3432.46,191.113C3432.71,191.007 3432.92,190.965 3433.12,190.977L3433.12,190.977ZM3496.55,192.03C3496.49,193.961 3494.67,206.904 3488.51,215.802C3488.14,211.301 3487.06,205.92 3485.85,202.329C3485.85,202.329 3492.47,196.192 3496.55,192.03L3496.55,192.03ZM3417.78,211.642L3449.82,254.954L3446.46,254.93C3445.75,251.749 3444.74,248.495 3442.74,246.062C3441.12,244.087 3439.66,242.599 3436.75,241.272C3435,240.474 3434.78,240.644 3434.67,239.297C3434.14,231.722 3428.02,226.958 3423.33,225.144C3422.88,220.566 3420.82,216.061 3415.65,212.268L3417.78,211.642ZM3414.66,212.679C3417.59,214.696 3420.8,216.446 3422.53,224.398C3422.66,226.06 3422.76,225.883 3424.06,226.372C3429.17,227.873 3433.61,234.025 3434,239.404C3434,241.026 3434.53,241.17 3436.52,242.01C3438.97,243.041 3441.51,245.222 3442.95,247.368C3445.09,250.454 3445.85,255.127 3445.66,254.905L3443.9,254.915C3442.64,246.992 3437.67,243.831 3432.41,242.351C3432.82,231.165 3424.14,227.674 3421.11,227.149C3421.29,219.092 3416.09,215.769 3412.74,213.065C3413.36,212.818 3414.66,212.68 3414.66,212.68L3414.66,212.679ZM3409.48,213.791C3412.1,214.649 3414.09,218.31 3413.88,219.995C3417.34,220.432 3420.97,223.782 3420.18,227.271C3419.92,227.419 3419.52,227.449 3419.12,227.048C3420.04,220.279 3409.96,223.63 3413.99,228.527L3412.19,229.707C3410.74,222.932 3408.96,219.094 3407.02,214.201C3407.73,214.014 3409.48,213.791 3409.48,213.791L3409.48,213.791ZM3417.83,227.984C3418.72,227.984 3419.44,228.712 3419.44,229.61C3419.44,230.507 3418.72,231.235 3417.83,231.235C3416.93,231.235 3416.2,230.507 3416.2,229.61C3416.2,228.712 3416.93,227.984 3417.83,227.984ZM3426.48,235.29C3430.33,236.382 3431.57,240.288 3431.45,241.709L3430.61,241.69C3429.25,235.501 3422.22,238.868 3425.15,243.803C3421.39,245.197 3421.69,248.677 3422.8,250.053C3424.33,251.953 3428.22,251.893 3429.41,248.97C3433.07,253.712 3438.11,248.391 3433.66,243.971C3437.31,245.317 3437.89,250.213 3437.34,251.742C3439.03,252.321 3440.99,255.013 3440.72,254.998L3413.41,255.003C3413.41,255.003 3414.73,243.953 3413.33,235.613C3415.14,236.052 3416.36,236.492 3418.45,234.031C3421.84,236.84 3424.27,234.72 3424.09,232.294C3423.83,230.597 3422.96,229.754 3421.51,228.857C3424.47,228.128 3426.71,233.263 3426.48,235.29L3426.48,235.29ZM3429.53,243.075C3430.45,243.075 3431.2,243.825 3431.2,244.749C3431.2,245.674 3430.45,246.424 3429.53,246.424C3428.6,246.424 3427.86,245.674 3427.86,244.749C3427.86,243.825 3428.6,243.075 3429.53,243.075Z" style="fill-rule:nonzero;"/>
            </g>
            <g id="path7198-0" transform="matrix(0.995535,0,0,0.996803,10.5599,-8.13973)">
                <path d="M3387.15,39.528C3384.99,35.96 3382.72,32.491 3379.87,29.528C3382.72,26.566 3384.99,23.097 3387.15,19.528C3389.31,23.097 3391.58,26.566 3394.43,29.528C3391.58,32.491 3389.31,35.96 3387.15,39.528Z" style="fill:rgb(212,0,0);fill-rule:nonzero;"/>
            </g>
            <g id="path7202-9" transform="matrix(0.995535,0,0,0.996803,10.5599,-8.13973)">
                <path d="M3575.1,231.393C3572.94,227.824 3570.67,224.356 3567.83,221.393C3570.67,218.43 3572.94,214.962 3575.1,211.393C3577.26,214.962 3579.54,218.43 3582.38,221.393C3579.54,224.356 3577.26,227.824 3575.1,231.393Z" style="fill:rgb(212,0,0);fill-rule:nonzero;"/>
            </g>
            <g id="path7204-2" transform="matrix(0.995535,0,0,0.996803,10.5599,-8.13973)">
                <path d="M3429.59,50.25C3424.4,41.685 3418.95,33.361 3412.13,26.25C3418.95,19.139 3424.4,10.815 3429.59,2.25C3434.78,10.815 3440.23,19.139 3447.05,26.25C3440.23,33.361 3434.78,41.685 3429.59,50.25Z" style="fill:rgb(212,0,0);fill-rule:nonzero;"/>
            </g>
            <g id="path7222-2" transform="matrix(0.995535,0,0,0.996803,10.5599,-8.13973)">
                <path d="M3532.66,248.683C3527.47,240.119 3522.02,231.794 3515.2,224.683C3522.02,217.573 3527.47,209.248 3532.66,200.683C3537.85,209.248 3543.3,217.573 3550.12,224.683C3543.3,231.794 3537.85,240.119 3532.66,248.683Z" style="fill:rgb(212,0,0);fill-rule:nonzero;"/>
            </g>
            <g id="path37-2-1-6-5" transform="matrix(0.995535,0,0,0.996803,10.5599,-8.13973)">
                <path d="M3379.88,5.473L3377.12,5.473L3377.12,1.713L3379.88,1.713C3379.88,1.713 3379.9,-0.312 3379.98,-3.886C3380.15,-11.503 3380.34,-12.686 3382.55,-14.782C3386.9,-18.925 3394.2,-15.55 3394.11,-9.319C3393.98,-0.526 3394.07,7.858 3393.82,9.045C3393.36,11.137 3393.31,11.254 3393.5,11.637C3393.88,12.404 3397.18,12.737 3397.18,12.522L3397.18,16.225C3394.66,16.42 3393.62,16.184 3391.6,14.747C3390.35,15.959 3386.52,17.177 3383.48,15.745C3381.16,14.655 3379.41,11.841 3379.88,5.473L3379.88,5.473ZM3389.2,12.036C3387.84,10.062 3385.54,7.367 3383.37,6.409C3383.24,8.68 3383.43,10.584 3384.23,11.608C3385.5,13.238 3387.55,13.612 3389.2,12.036L3389.2,12.036ZM3390.34,-9.683C3389.32,-12.556 3386.72,-13.53 3384.81,-11.732C3383.62,-10.614 3383.43,-9.437 3383.41,-3.043C3383.39,0.902 3383.39,2.559 3383.39,2.559C3387.1,3.761 3390.56,8.083 3390.53,8.027L3390.62,-3.902C3390.69,-5.837 3390.6,-7.775 3390.34,-9.683L3390.34,-9.683Z" style="fill:rgb(212,0,0);fill-rule:nonzero;"/>
            </g>
            <g id="path37-3-27-1-5" transform="matrix(0.995535,0,0,0.996803,10.5599,-8.13973)">
                <path d="M3582.37,245.448L3585.13,245.448L3585.13,249.208L3582.37,249.208C3582.37,249.208 3582.35,251.234 3582.27,254.807C3582.1,262.425 3581.91,263.607 3579.7,265.704C3575.35,269.847 3568.06,266.471 3568.14,260.24C3568.27,251.447 3568.18,243.064 3568.43,241.876C3568.89,239.785 3568.94,239.667 3568.75,239.285C3568.37,238.517 3565.08,238.185 3565.08,238.399L3565.08,234.696C3567.59,234.501 3568.64,234.737 3570.65,236.174C3571.91,234.962 3575.73,233.744 3578.78,235.177C3581.09,236.266 3582.84,239.08 3582.37,245.448L3582.37,245.448ZM3573.05,238.885C3574.42,240.86 3576.72,243.555 3578.88,244.512C3579.01,242.241 3578.82,240.337 3578.02,239.313C3576.75,237.683 3574.7,237.31 3573.05,238.885L3573.05,238.885ZM3571.91,260.604C3572.93,263.477 3575.54,264.452 3577.44,262.654C3578.63,261.535 3578.82,260.358 3578.85,253.964C3578.86,250.02 3578.86,248.362 3578.86,248.362C3575.16,247.16 3571.69,242.838 3571.72,242.895L3571.63,254.823C3571.56,256.758 3571.65,258.696 3571.91,260.604L3571.91,260.604Z" style="fill:rgb(212,0,0);fill-rule:nonzero;"/>
            </g>
        </g>
    </g>
</svg>
